<svg version="1.1" width="600" height="300" xmlns="http://www.w3.org/2000/svg">
<defs><marker id="arrowhead" markerWidth="10" markerHeight="7" refX="0" refY="3.5" orient="auto"><polygon points="0 0, 10 3.5, 0 7" /></marker></defs>
<text x="25" y="30" style="font-size:15px;font-family:'Arial'">lock-1</text>
<text x="125" y="30" style="font-size:15px;font-family:'Arial'">lock-2</text>
<text x="225" y="30" style="font-size:15px;font-family:'Arial'">lock-3</text>
<text x="525" y="30" style="font-size:15px;font-family:'Arial'">lock-N</text>

<rect x="28" y="40" width="40" height="40" style="fill:rgb(213,232,212);stroke:#0000FF;stroke-width:1" />
<rect x="128" y="40" width="40" height="40" style="fill:rgb(213,232,212);stroke:#0000FF;stroke-width:1" />
<rect x="228" y="40" width="40" height="40" style="fill:rgb(213,232,212);stroke:#0000FF;stroke-width:1" />
<rect x="528" y="40" width="40" height="40" style="fill:rgb(213,232,212);stroke:#0000FF;stroke-width:1" />

<line x1="48" y1="85" x2="48" y2="217" stroke="#000" stroke-width="1" marker-end="url(#arrowhead)" />
<line x1="148" y1="85" x2="148" y2="115" stroke="#000" stroke-width="1" marker-end="url(#arrowhead)" />
<line x1="248" y1="85" x2="248" y2="115" stroke="#000" stroke-width="1" marker-end="url(#arrowhead)" />
<line x1="548" y1="85" x2="548" y2="217" stroke="#000" stroke-width="1" marker-end="url(#arrowhead)" />

<rect x="128" y="130" width="80" height="80" style="fill:rgb(225,213,231);stroke:#0000FF;stroke-width:1" />
<rect x="220" y="130" width="300" height="80" style="fill:rgb(225,213,231);stroke:#0000FF;stroke-width:1" />

<rect x="508" y="230" width="70" height="60" style="fill:rgb(225,213,231);stroke:#0000FF;stroke-width:1" />
<rect x="20" y="230" width="400" height="60" style="fill:rgb(225,213,231);stroke:#0000FF;stroke-width:1" />

<text x="290" y="175" style="font-size:15px;font-family:'Arial'">the protected memory</text>
<text x="160" y="265" style="font-size:15px;font-family:'Arial'">the protected memory</text>

</svg>
