<svg version="1.1" width="600" height="220" xmlns="http://www.w3.org/2000/svg">
<defs><marker id="arrowhead" markerWidth="10" markerHeight="7" refX="0" refY="3.5" orient="auto"><polygon points="0 0, 10 3.5, 0 7" /></marker></defs>

<!--
<line x1="1" y1="1" x2="600" y2="1" stroke="#0000FF" stroke-width="1"/>
<line x1="1" y1="1" x2="1" y2="400" stroke="#0000FF" stroke-width="1"/>
<line x1="1" y1="600" x2="600" y2="600" stroke="#0000FF" stroke-width="1"/>
<line x1="600" y1="1" x2="600" y2="600" stroke="#0000FF" stroke-width="1"/>
<line x1="1" y1="220" x2="600" y2="220" stroke="#0000FF" stroke-width="1"/>

-->

<text x="20" y="20" style="font-size:15px;font-family:'Courier New'">
ShmemBase
</text>
<text x="500" y="20" style="font-size:15px;font-family:'Courier New'">
ShmemEnd
</text>
<text x="20" y="200" style="font-size:15px;font-family:'Courier New'">
ShmemSegHdr
</text>
<line x1="40" y1="185" x2="40" y2="136" stroke="#000" stroke-width="1" marker-end="url(#arrowhead)" />

<line x1="40" y1="30" x2="40" y2="45" stroke="#000" stroke-width="1" marker-end="url(#arrowhead)" />
<line x1="540" y1="30" x2="540" y2="45" stroke="#000" stroke-width="1" marker-end="url(#arrowhead)" />

<rect x="40" y="60" width="500" height="60" style="fill:none;stroke:#0000FF;stroke-width:1" />
<rect x="40" y="60" width="40" height="60" style="fill:rgb(213,232,212);stroke:#0000FF;stroke-width:1" />
<rect x="80" y="60" width="370" height="60" style="fill:rgb(225,213,231);stroke:#0000FF;stroke-width:1" />

<rect x="180" y="60" width="70" height="60" style="fill:rgb(225,213,231);stroke:#0000FF;stroke-width:1" />
<rect x="250" y="60" width="170" height="60" style="fill:rgb(0,0,255);stroke:#0000FF;stroke-width:1" />


<line x1="250" y1="185" x2="250" y2="136" stroke="#000" stroke-width="1" marker-end="url(#arrowhead)" />
<text x="230" y="200" style="font-size:15px;font-family:'Courier New'">
BufferBlocks
</text>

<line x1="180" y1="155" x2="180" y2="136" stroke="#000" stroke-width="1" marker-end="url(#arrowhead)" />
<text x="90" y="170" style="font-size:15px;font-family:'Courier New'">
BufferDescriptors
</text>


<text x="290" y="50" style="font-size:15px;font-family:'Arial'">
buffer pool
</text>

<text x="460" y="95" style="font-size:15px;font-family:'Arial'">
free space
</text>
</svg>
