<svg version="1.1" width="600" height="200" xmlns="http://www.w3.org/2000/svg">
<defs><marker id="arrowhead" markerWidth="10" markerHeight="7" refX="0" refY="3.5" orient="auto"><polygon points="0 0, 10 3.5, 0 7" /></marker></defs>

<line x1="20" y1="20" x2="20" y2="80" stroke="#000000" stroke-dasharray="5,3" stroke-width="1"/>
<line x1="580" y1="20" x2="580" y2="80" stroke="#000000" stroke-dasharray="5,3" stroke-width="1"/>

<line x1="250" y1="50" x2="32" y2="50" stroke="#000" stroke-width="1" marker-end="url(#arrowhead)" />
<line x1="350" y1="50" x2="568" y2="50" stroke="#000" stroke-width="1" marker-end="url(#arrowhead)" />

<rect x="20" y="80" width="560" height="40" style="fill:#DAE8FC;stroke:#0000FF;stroke-width:1" />
<line x1="60" y1="80" x2="60" y2="120" stroke="#0000FF" stroke-width="1"/>
<line x1="100" y1="80" x2="100" y2="120" stroke="#0000FF" stroke-width="1"/>
<line x1="140" y1="80" x2="140" y2="120" stroke="#0000FF" stroke-width="1"/>
<line x1="180" y1="80" x2="180" y2="120" stroke="#0000FF" stroke-width="1"/>

<line x1="540" y1="80" x2="540" y2="120" stroke="#0000FF" stroke-width="1"/>
<line x1="500" y1="80" x2="500" y2="120" stroke="#0000FF" stroke-width="1"/>

<line x1="380" y1="80" x2="380" y2="120" stroke="#0000FF" stroke-width="1"/>
<line x1="340" y1="80" x2="340" y2="120" stroke="#0000FF" stroke-width="1"/>

<path d="M 20 190 V 133 " stroke="#000000" stroke-width="1" fill="none" marker-end="url(#arrowhead)" />
<path d="M 340 190 V 133 " stroke="#000000" stroke-width="1" fill="none" marker-end="url(#arrowhead)" />

<line x1="336" y1="160" x2="33" y2="160" stroke="#000" stroke-dasharray="5,3" stroke-width="1" marker-end="url(#arrowhead)" />

<text x="260" y="55" style="font-size:15px;font-family:'Arial'">WAL space</text>
<text x="120" y="180" style="font-size:15px;font-family:'Arial'">byte offset (LSN)</text>
<text x="35" y="137" style="font-size:15px;font-family:'Arial'">0</text>
<text x="75" y="137" style="font-size:15px;font-family:'Arial'">1</text>
<text x="115" y="137" style="font-size:15px;font-family:'Arial'">2</text>
<text x="155" y="137" style="font-size:15px;font-family:'Arial'">3</text>
  
<path d="M 560 145 V 133" stroke="#000000" stroke-width="1" fill="none" marker-end="url(#arrowhead)" />
<text x="420" y="160" style="font-size:15px;font-family:'Arial'">0xFFFFFFFFFFFFFFFF</text>

</svg>
