<svg version="1.1" width="600" height="300" xmlns="http://www.w3.org/2000/svg">
<defs><marker id="arrowhead" markerWidth="10" markerHeight="7" refX="0" refY="3.5" orient="auto"><polygon points="0 0, 10 3.5, 0 7" /></marker></defs>

<rect x="250" y="40" width="100" height="40" style="fill:rgb(227,200,0);stroke:#0000FF;stroke-width:1" />

<rect x="75" y="140" width="100" height="40" style="fill:rgb(227,200,0);stroke:#0000FF;stroke-width:1" />
<rect x="250" y="140" width="100" height="40" style="fill:rgb(227,200,0);stroke:#0000FF;stroke-width:1" />
<rect x="425" y="140" width="100" height="40" style="fill:rgb(227,200,0);stroke:#0000FF;stroke-width:1" />

<rect x="75" y="240" width="100" height="40" style="fill:rgb(227,200,0);stroke:#0000FF;stroke-width:1" />
<rect x="250" y="240" width="100" height="40" style="fill:rgb(227,200,0);stroke:#0000FF;stroke-width:1" />

<text x="290" y="65" style="font-size:20px;font-family:'Arial'">A</text>
<text x="115" y="165" style="font-size:20px;font-family:'Arial'">B</text>
<text x="290" y="165" style="font-size:20px;font-family:'Arial'">C</text>
<text x="465" y="165" style="font-size:20px;font-family:'Arial'">D</text>

<text x="115" y="265" style="font-size:20px;font-family:'Arial'">E</text>
<text x="290" y="265" style="font-size:20px;font-family:'Arial'">F</text>

<path d="M 245 50 L 115 50 L115 125" stroke="#000000" stroke-width="1" fill="none" marker-end="url(#arrowhead)"  />
<path d="M 135 135 L 135 70 L235 70" stroke="#000000" stroke-width="1" fill="none" marker-end="url(#arrowhead)"  />

<path d="M 115 185 L 115 225" stroke="#000000" stroke-width="1" fill="none" marker-end="url(#arrowhead)"  />
<path d="M 135 235 L 135 195" stroke="#000000" stroke-width="1" fill="none" marker-end="url(#arrowhead)"  />

<path d="M 185 150 L 235 150" stroke="#000000" stroke-width="1" fill="none" marker-end="url(#arrowhead)"  />
<path d="M 245 170 L 190 170" stroke="#000000" stroke-width="1" fill="none" marker-end="url(#arrowhead)"  />

<path d="M 360 150 L 410 150" stroke="#000000" stroke-width="1" fill="none" marker-end="url(#arrowhead)"  />
<path d="M 420 170 L 365 170" stroke="#000000" stroke-width="1" fill="none" marker-end="url(#arrowhead)"  />

<path d="M 185 250 L 235 250" stroke="#000000" stroke-width="1" fill="none" marker-end="url(#arrowhead)"  />
<path d="M 245 270 L 190 270" stroke="#000000" stroke-width="1" fill="none" marker-end="url(#arrowhead)"  />

<path d="M 300 135 V 95" stroke="#000000" stroke-width="1" fill="none" marker-end="url(#arrowhead)"  />
<path d="M 475 135 L 475 60 L 365 60" stroke="#000000" stroke-width="1" fill="none" marker-end="url(#arrowhead)"  />

<path d="M 300 235 L 300 210 L160 210 L 160 195" stroke="#000000" stroke-width="1" fill="none" marker-end="url(#arrowhead)"  />

<text x="150" y="45" style="font-size:13px;font-family:'Courier New'">firstchild</text>
<text x="140" y="110" style="font-size:13px;font-family:'Courier New'">parent</text>
<text x="305" y="120" style="font-size:13px;font-family:'Courier New'">parent</text>
<text x="400" y="52" style="font-size:13px;font-family:'Courier New'">parent</text>

<text x="352" y="190" style="font-size:13px;font-family:'Courier New'">prevchild</text>

<text x="305" y="220" style="font-size:13px;font-family:'Courier New'">parent</text>

<text x="177" y="238" style="font-size:13px;font-family:'Courier New'">nextchild</text>
<text x="177" y="293" style="font-size:13px;font-family:'Courier New'">prevchild</text>

<text x="30" y="210" style="font-size:13px;font-family:'Courier New'">firstchild</text>

</svg>
