<svg version="1.1" width="600" height="320" xmlns="http://www.w3.org/2000/svg">
<defs><marker id="arrowhead" markerWidth="10" markerHeight="7" refX="0" refY="3.5" orient="auto"><polygon points="0 0, 10 3.5, 0 7" /></marker></defs>

<rect x="20" y="20" width="560" height="60" style="fill:#DAE8FC;stroke:#0000FF;stroke-width:1" />
<!-- <rect x="20" y="20" width="20" height="60" style="fill:rgb(225,213,231);stroke:#0000FF;stroke-width:1" /> -->
<path d="M 120 20 L 120 80" stroke="#000000" stroke-width="1" fill="none" />
<path d="M 220 20 L 220 80" stroke="#000000" stroke-width="1" fill="none" />
<path d="M 320 20 L 320 80" stroke="#000000" stroke-width="1" fill="none" />
<path d="M 480 20 L 480 80" stroke="#000000" stroke-width="1" fill="none" />

<path d="M 40 20 L 40 40" stroke="#000000" stroke-width="1" fill="none" />
<path d="M 40 80 L 40 60" stroke="#000000" stroke-width="1" fill="none" />

<text x="33" y="55" style="font-size:15px;font-family:'Arial'">8192 bytes</text>
<text x="133" y="55" style="font-size:15px;font-family:'Arial'">8192 bytes</text>
<text x="233" y="55" style="font-size:15px;font-family:'Arial'">8192 bytes</text>
<text x="493" y="55" style="font-size:15px;font-family:'Arial'">8192 bytes</text>

<text x="370" y="50" style="font-size:35px;font-family:'Arial'">......</text>

<path d="M 220 80 L 100 130" stroke="#000000" stroke-dasharray="4,4" stroke-width="1" fill="none" />
<path d="M 320 80 L 560 130" stroke="#000000" stroke-dasharray="4,4" stroke-width="1" fill="none" />

<rect x="100" y="130" width="460" height="60" style="fill:#DAE8FC;stroke:#0000FF;stroke-width:1" />
<path d="M 120 130 L 120 190" stroke="#000000" stroke-width="1" fill="none" />
<path d="M 220 130 L 220 190" stroke="#000000" stroke-width="1" fill="none" />
<path d="M 360 130 L 360 190" stroke="#000000" stroke-width="1" fill="none" />
<path d="M 420 130 L 420 190" stroke="#000000" stroke-width="1" fill="none" />

<text x="100" y="275" style="font-size:15px;font-family:'Courier New'">XLogPageHeaderData</text>
<path d="M 110 260 L 110 205" stroke="#000000" stroke-width="1" fill="none" marker-end="url(#arrowhead)"  />

<text x="20" y="300" style="font-size:15px;font-family:'Courier New'">XLogLongPageHeaderData</text>
<path d="M 30 285 L 30 95" stroke="#000000" stroke-width="1" fill="none" marker-end="url(#arrowhead)"  />

<text x="150" y="165" style="font-size:15px;font-family:'Arial'">record</text>
<text x="270" y="165" style="font-size:15px;font-family:'Arial'">record</text>
<text x="370" y="165" style="font-size:15px;font-family:'Arial'">record</text>
<text x="470" y="165" style="font-size:15px;font-family:'Arial'">record</text>

<rect x="280" y="240" width="300" height="60" style="fill:#DAE8FC;stroke:#0000FF;stroke-width:1" />
<path d="M 400 240 L 400 300" stroke="#000000" stroke-width="1" fill="none" />
<text x="295" y="275" style="font-size:15px;font-family:'Courier New'">XLogRecord</text>
<text x="420" y="275" style="font-size:15px;font-family:'Arial'">XLog record data</text>

<path d="M 420 190 L 580 240" stroke="#000000" stroke-dasharray="4,4" stroke-width="1" fill="none" />
<path d="M 360 190 L 280 240" stroke="#000000" stroke-dasharray="4,4" stroke-width="1" fill="none" />
</svg>
