<svg version="1.1" width="600" height="430" xmlns="http://www.w3.org/2000/svg">
<defs><marker id="arrowhead" markerWidth="10" markerHeight="7" refX="0" refY="3.5" orient="auto"><polygon points="0 0, 10 3.5, 0 7" /></marker></defs>



<ellipse cx="300" cy="400" rx="150" ry="20" style="fill:rgb(248,206,204);stroke:#0000FF;stroke-width:1" />
<polygon points="150,400 150,340 450,340 450,400" style="fill:rgb(248,206,204);stroke:rgb(248,206,204);stroke-width:1" />
<line x1="150" y1="340" x2="150" y2="401" stroke="#0000FF" stroke-width="1"/>
<line x1="450" y1="340" x2="450" y2="401" stroke="#0000FF" stroke-width="1"/>
<ellipse cx="300" cy="340" rx="150" ry="20" style="fill:rgb(248,206,204);stroke:#0000FF;stroke-width:1" />
  
<rect x="80" y="170" width="440" height="100" style="fill:rgb(225,213,231);stroke:#0000FF;stroke-width:1" />


<rect x="110" y="40" width="420" height="80" style="fill:rgb(213,232,212);stroke:#0000FF;stroke-width:1" />
<rect x="100" y="30" width="420" height="80" style="fill:rgb(213,232,212);stroke:#0000FF;stroke-width:1" />
<rect x="90" y="20" width="420" height="80" style="fill:rgb(213,232,212);stroke:#0000FF;stroke-width:1" />

<line x1="300" y1="300" x2="300" y2="330" stroke="#000" stroke-width="1" marker-end="url(#arrowhead)" />
<line x1="300" y1="300" x2="300" y2="285" stroke="#000" stroke-width="1" marker-end="url(#arrowhead)" />

<line x1="300" y1="140" x2="300" y2="155" stroke="#000" stroke-width="1" marker-end="url(#arrowhead)" />
<line x1="300" y1="140" x2="300" y2="135" stroke="#000" stroke-width="1" marker-end="url(#arrowhead)" />

<text x="250" y="40" style="font-size:15px;font-family:'Arial'">
local memory
</text>

<text x="245" y="190" style="font-size:15px;font-family:'Arial'">
shared memory
</text>

<text x="240" y="390" style="font-size:15px;font-family:'Arial'">
database cluster
</text>

<rect x="100" y="60" width="110" height="30" style="fill:rgb(225,213,231);stroke:#0000FF;stroke-width:1" />
<rect x="220" y="60" width="100" height="30" style="fill:rgb(225,213,231);stroke:#0000FF;stroke-width:1" />
<rect x="325" y="60" width="180" height="30" style="fill:rgb(225,213,231);stroke:#0000FF;stroke-width:1" />
<text x="110" y="80" style="font-size:15px;font-family:'Arial'">
temp_buffers
</text>
<text x="235" y="80" style="font-size:15px;font-family:'Arial'">
work_mem
</text>
<text x="330" y="80" style="font-size:15px;font-family:'Arial'">
maintenance_work_mem
</text>

<rect x="90" y="200" width="140" height="50" style="fill:rgb(248,206,204);stroke:#0000FF;stroke-width:1" />
<text x="100" y="230" style="font-size:15px;font-family:'Arial'">
shared buffer pool
</text>

<rect x="240" y="200" width="95" height="50" style="fill:rgb(248,206,204);stroke:#0000FF;stroke-width:1" />
<text x="250" y="230" style="font-size:15px;font-family:'Arial'">
WAL buffer
</text>
<rect x="345" y="200" width="165" height="50" style="fill:rgb(248,206,204);stroke:#0000FF;stroke-width:1" />
<text x="410" y="230" style="font-size:15px;font-family:'Arial'">
others
</text>
</svg>
