<svg version="1.1" width="600" height="340" xmlns="http://www.w3.org/2000/svg">
<defs><marker id="arrowhead" markerWidth="10" markerHeight="7" refX="0" refY="3.5" orient="auto"><polygon points="0 0, 10 3.5, 0 7" /></marker></defs>
<rect x="20" y="20" width="560" height="280" style="fill:none;stroke:#0000FF;stroke-width:1" />
<rect x="20" y="20" width="200" height="40" style="fill:rgb(255, 204, 163);stroke:#0000FF;stroke-width:1" />
<rect x="220" y="20" width="360" height="40" style="fill:rgb(225,213,231);stroke:#0000FF;stroke-width:1" />
<path d="M 280 20 V 60" stroke="#0000FF" stroke-width="1" fill="none" />
<path d="M 340 20 V 60" stroke="#0000FF" stroke-width="1" fill="none" />
<path d="M 400 20 V 60" stroke="#0000FF" stroke-width="1" fill="none" />
<path d="M 460 20 V 60" stroke="#0000FF" stroke-width="1" fill="none" />
<path d="M 520 20 V 60" stroke="#0000FF" stroke-width="1" fill="none" />
<rect x="20" y="60" width="180" height="40" style="fill:rgb(225,213,231);stroke:#0000FF;stroke-width:1" />
<path d="M 140 60 V 100" stroke="#0000FF" stroke-width="1" fill="none" />

<rect x="475" y="260" width="105" height="40" style="fill:rgb(227,200,0);stroke:#0000FF;stroke-width:1" />
<rect x="20" y="260" width="455" height="40" style="fill:rgb(225,213,231);stroke:#0000FF;stroke-width:1" />
<rect x="300" y="220" width="280" height="40" style="fill:rgb(225,213,231);stroke:#0000FF;stroke-width:1" />
<path d="M 160 260 V 300" stroke="#0000FF" stroke-width="1" fill="none" />
<path d="M 350 260 V 300" stroke="#0000FF" stroke-width="1" fill="none" />

<path d="M 470 220 v 40" stroke="#0000FF" stroke-width="1" fill="none" />

<text x="75" y="45" style="font-size:15px;font-family:'Arial'">page header</text>
<text x="235" y="45" style="font-size:15px;font-family:'Arial'">lp[1]</text>
<text x="295" y="45" style="font-size:15px;font-family:'Arial'">lp[2]</text>
<text x="355" y="45" style="font-size:15px;font-family:'Arial'">lp[3]</text>
<text x="415" y="45" style="font-size:15px;font-family:'Arial'">lp[4]</text>
<text x="475" y="45" style="font-size:15px;font-family:'Arial'">lp[5]</text>
<text x="535" y="45" style="font-size:15px;font-family:'Arial'">lp[6]</text>

<text x="155" y="85" style="font-size:15px;font-family:'Arial'">lp[n]</text>

<text x="485" y="285" style="font-size:15px;font-family:'Arial'">special area</text>
<text x="382" y="285" style="font-size:15px;font-family:'Arial'">tuple 1</text>
<text x="240" y="285" style="font-size:15px;font-family:'Arial'">tuple 2</text>
<text x="70" y="285" style="font-size:15px;font-family:'Arial'">tuple 3</text>
<text x="500" y="245" style="font-size:15px;font-family:'Arial'">tuple 4</text>
<text x="365" y="245" style="font-size:15px;font-family:'Arial'">tuple 5</text>

<path d="M 295 240 h -40" stroke="#000000" stroke-width="1" fill="none" marker-end="url(#arrowhead)"  />
<path d="M 205 80 h 40" stroke="#000000" stroke-width="1" fill="none" marker-end="url(#arrowhead)"  />

<path d="M 200 135 V 115" stroke="#000000" stroke-width="1" fill="none" marker-end="url(#arrowhead)"  />
<path d="M 300 185 V 205" stroke="#000000" stroke-width="1" fill="none" marker-end="url(#arrowhead)"  />

<text x="270" y="175" style="text-anchor='middle';font-size:15px;font-family:'Courier New'">pd_upper</text>
<text x="170" y="150" style="text-anchor='middle';font-size:15px;font-family:'Courier New'">pd_lower</text>

<text x="330" y="330" style="text-anchor='middle';font-size:15px;font-family:'Courier New'">pd_special</text>
<path d="M 430 325 H 475 V 315" stroke="#000000" stroke-width="1" fill="none" marker-end="url(#arrowhead)"  />

<path d="M 430 65 v 80 l 100 30 V 205" stroke="#000000" stroke-width="1" fill="none" stroke-dasharray="5,3" marker-end="url(#arrowhead)"/>

<path d="M 490 65 v 30 l -100 50 V 205" stroke="#000000" stroke-width="1" fill="none" stroke-dasharray="5,3" marker-end="url(#arrowhead)"/>

</svg>
