<svg version="1.1" width="600" height="180" xmlns="http://www.w3.org/2000/svg">
<defs><marker id="arrowhead" markerWidth="10" markerHeight="7" refX="0" refY="3.5" orient="auto"><polygon points="0 0, 10 3.5, 0 7" /></marker></defs>

<g transform="translate(0, 20)">
<path d="M 20 100 h 560 " stroke="#000000" stroke-width="1" fill="none" marker-end="url(#arrowhead)"/>
<text x="550" y="90" style="font-size:15px;font-family:'Arial'">time</text>

<circle cx="100" cy="100" r="4" fill="#FF0000" />
<circle cx="360" cy="100" r="4" fill="#FF0000" />
<circle cx="500" cy="100" r="4" fill="#FF0000" />

<path d="M 100 30 V 85 " stroke="#000000" stroke-width="1" fill="none" marker-end="url(#arrowhead)"/>
<path d="M 500 30 V 85 " stroke="#000000" stroke-width="1" fill="none" marker-end="url(#arrowhead)"/>
<path d="M 360 70 V 85 " stroke="#000000" stroke-width="1" fill="none" marker-end="url(#arrowhead)"/>

<text x="40" y="20" style="font-size:15px;font-family:'Arial'">start CheckPoint n</text>
<text x="430" y="20" style="font-size:15px;font-family:'Arial'">start CheckPoint n+1</text>
<text x="280" y="65" style="font-size:15px;font-family:'Arial'">complete CheckPoint n</text>

<path d="M 300 40 H 485 " stroke="#000000" stroke-width="1" fill="none" stroke-dasharray="5,3" marker-end="url(#arrowhead)"/>
<path d="M 297 40 H 115 " stroke="#000000" stroke-width="1" fill="none" stroke-dasharray="5,3" marker-end="url(#arrowhead)"/>

<path d="M 100 110 v 5 a 10 10 0 0 0 10 10 h 110 a 10 10 0 0 1 10 10 a 10 10 0 0 1 10 -10 h 110 a 10 10 0 0 0 10 -10 v -5" stroke="#000000" stroke-width="1" fill="none"/>
<text x="120" y="150" style="font-size:13px;font-family:'Courier New'">checkpoint_completion_target</text>
<text x="230" y="31" style="font-size:13px;font-family:'Courier New'">checkpoint_timeout</text>

</g>
</svg>
