<svg version="1.1" width="600" height="330" xmlns="http://www.w3.org/2000/svg">
<defs><marker id="arrowhead" markerWidth="10" markerHeight="7" refX="0" refY="3.5" orient="auto"><polygon points="0 0, 10 3.5, 0 7" /></marker></defs>


<path d="M 150 40 V 65 " stroke="#000000" stroke-width="1" fill="none" marker-end="url(#arrowhead)"/>
<path d="M 450 40 V 65 " stroke="#000000" stroke-width="1" fill="none" marker-end="url(#arrowhead)"/>
<text x="80" y="30" style="font-size:15px;font-family:'Courier New'">pg_backup_start()</text>
<text x="380" y="30" style="font-size:15px;font-family:'Courier New'">pg_backup_stop()</text>

<path d="M 20 80 h 560 " stroke="#000000" stroke-width="1" fill="none" marker-end="url(#arrowhead)"/>
<text x="550" y="70" style="font-size:15px;font-family:'Arial'">time</text>


<text x="140" y="100" style="font-size:15px;font-family:'Arial'">(1)</text>
<text x="440" y="100" style="font-size:15px;font-family:'Arial'">(3)</text>
<text x="310" y="210" style="font-size:15px;font-family:'Arial'">(2)</text>

<g id="database" transform="translate(-200, -60)">
<ellipse cx="500" cy="220" rx="80" ry="20" style="fill:rgb(248,206,204);stroke:#0000FF;stroke-width:1" />
<polygon points="420,220 420,180 580,180 580,220" style="fill:rgb(248,206,204);stroke:rgb(248,206,204);stroke-width:1" />
<path d="M 420 180 v 40" stroke="#0000FF" stroke-width="1" fill="none" />
<path d="M 580 180 v 40" stroke="#0000FF" stroke-width="1" fill="none" />
<ellipse cx="500" cy="180" rx="80" ry="20" style="fill:rgb(248,206,204);stroke:#0000FF;stroke-width:1" />
</g>

<path d="M 300 185 v 35 " stroke="#000000" stroke-width="1" fill="none" marker-end="url(#arrowhead)"/>

<g id="database" transform="translate(-200, 75)">
<ellipse cx="500" cy="220" rx="80" ry="20" style="fill:rgb(248,206,204);stroke:#0000FF;stroke-width:1" />
<polygon points="420,220 420,180 580,180 580,220" style="fill:rgb(248,206,204);stroke:rgb(248,206,204);stroke-width:1" />
<path d="M 420 180 v 40" stroke="#0000FF" stroke-width="1" fill="none" />
<path d="M 580 180 v 40" stroke="#0000FF" stroke-width="1" fill="none" />
<ellipse cx="500" cy="180" rx="80" ry="20" style="fill:rgb(248,206,204);stroke:#0000FF;stroke-width:1" />
</g>

<rect x="240" y="280" width="40" height="20" style="fill:rgb(227,200,0);stroke:#0000FF;stroke-width:1" />
<path d="M 180 290 H 225 " stroke="#000000" stroke-width="1" fill="none" marker-end="url(#arrowhead)"/>
<text x="100" y="280" style="font-size:15px;font-family:'Courier New'">backup_label</text>
</svg>
