<svg version="1.1" width="600" height="250" xmlns="http://www.w3.org/2000/svg">
<defs><marker id="arrowhead" markerWidth="10" markerHeight="7" refX="0" refY="3.5" orient="auto"><polygon points="0 0, 10 3.5, 0 7" /></marker></defs>

<rect x="50" y="40" width="500" height="40" style="fill:none;stroke:#0000FF;stroke-width:1" />

<path d="M 300 20 H 250 L 220 32" stroke="#000000" stroke-width="1" fill="none" marker-end="url(#arrowhead)" />
<text x="310" y="25" style="font-size:15px;font-family:'Arial'">p (return to caller)</text>

<text x="70" y="30" style="font-size:15px;font-family:'Courier New'">size</text>
<text x="150" y="30" style="font-size:15px;font-family:'Courier New'">aset</text>

<path d="M 130 40 v 40 " stroke="#0000FF" stroke-width="1" fill="none"/>
<text x="65" y="65" style="alignment-baseline='center';font-size:15px;font-family:'Arial'">8 bytes</text>
<path d="M 210 40 v 40 " stroke="#0000FF" stroke-width="1" fill="none"/>
<text x="145" y="65" style="alignment-baseline='center';font-size:15px;font-family:'Arial'">8 bytes</text>
<rect x="210" y="40" width="340" height="40" style="fill:rgb(248,206,204);stroke:#0000FF;stroke-width:1" />

<text x="360" y="65" style="font-size:15px;font-family:'Arial'">real data</text>

<path d="M 210 85 v 5 a 10 10 0 0 0 10 10 h 150 a 10 10 0 0 1 10 10 a 10 10 0 0 1 10 -10 h 150 a 10 10 0 0 0 10 -10 v -5" stroke="#000000" stroke-width="1" fill="none"/>

<path d="M 90 85 V 140 H 380 V 125" stroke="#000000" stroke-width="1" fill="none" marker-end="url(#arrowhead)" />

<path d="M 170 85 V 170 H 280" stroke="#000000" stroke-width="1" fill="none" marker-end="url(#arrowhead)" />

<path d="M 50 85 v 100 " stroke="#0000FF" stroke-width="1" stroke-dasharray="3,3" fill="none"/>
<path d="M 210 85 v 100 " stroke="#0000FF" stroke-width="1" stroke-dasharray="3,3" fill="none"/>
<path d="M 50 190 v 5 a 10 10 0 0 0 10 10 h 60 a 10 10 0 0 1 10 10 a 10 10 0 0 1 10 -10 h 60 a 10 10 0 0 0 10 -10 v -5" stroke="#000000" stroke-width="1" fill="none"/>
<text x="70" y="230" style="font-size:15px;font-family:'Courier New'">AllocChunkData </text>
</svg>
