<svg version="1.1" width="600" height="320" xmlns="http://www.w3.org/2000/svg">
<defs><marker id="arrowhead" markerWidth="10" markerHeight="7" refX="0" refY="3.5" orient="auto"><polygon points="0 0, 10 3.5, 0 7" /></marker></defs>

  <g transform="translate(170, 20)">
<ellipse cx="31" cy="10" rx="30" ry="10" style="fill:rgb(115,131,191);stroke:rgb(115,131,191);stroke-width:1" />
<path d="M 1 15 a 30 10 0 0 0 60 0 v 15 a 30 10 0 0 1 -60 0 v -15" stroke="rgb(115,131,191)" stroke-width="1" fill="rgb(115,131,191)"/>
<path d="M 1 35 a 30 10 0 0 0 60 0 v 15 a 30 10 0 0 1 -60 0 v -15" stroke="rgb(115,131,191)" stroke-width="1" fill="rgb(115,131,191)"/>
<path d="M 1 55 a 30 10 0 0 0 60 0 v 15 a 30 10 0 0 1 -60 0 v -15" stroke="rgb(115,131,191)" stroke-width="1" fill="rgb(115,131,191)"/>
<circle cx="50" cy="29" r="3" fill="#FFFFFF" />
<circle cx="50" cy="49" r="3" fill="#FFFFFF" />
<circle cx="50" cy="69" r="3" fill="#FFFFFF" />
</g>
<text x="80" y="40" style="font-size:15px;font-family:'Arial'">base backup</text>

<path d="M 360 50 h 5 a 10 10 0 0 1 10 10 v 100 a 10 10 0 0 0 10 10 a 10 10 0 0 0 -10 10 v 100 a 10 10 0 0 1 -10 10 h -5" stroke="#000000" stroke-width="1" fill="none" />

<g transform="translate(0, -30)">
<path d="M 390 200 h 15 " stroke="#000000" stroke-width="1" fill="none" marker-end="url(#arrowhead)" />
<path d="M 185 165 h 30 " stroke="#000000" stroke-width="4" fill="none" />
<path d="M 200 150 v 30 " stroke="#000000" stroke-width="4" fill="none" />

<g transform="translate(0, 30)">
<rect x="40" y="210" width="300" height="40" style="fill:none;stroke:#0000FF;stroke-width:1" />
<text x="15" y="233" style="font-size:25px;font-family:'Arial'">...</text>
<text x="345" y="233" style="font-size:25px;font-family:'Arial'">...</text>
<path d="M 20 210 h 340 " stroke="#0000FF" stroke-width="1" fill="none" />
<path d="M 20 250 h 340 " stroke="#0000FF" stroke-width="1" fill="none" />
<path d="M 80 210 v 40 " stroke="#0000FF" stroke-width="1" fill="none" />
<rect x="160" y="210" width="30" height="40" style="fill:rgb(255, 204, 163);stroke:#0000FF;stroke-width:1" />
<rect x="280" y="210" width="30" height="40" style="fill:rgb(248,206,204);stroke:#0000FF;stroke-width:1" />
<path d="M 170 200 a 45 45 0 0 0 -90 0" stroke="#000000" stroke-width="1" fill="none" stroke-dasharray="3,3" marker-end="url(#arrowhead)"  />
<path d="M 230 170 H 200 L 180 200" stroke="#000000" stroke-width="1" fill="none" marker-end="url(#arrowhead)"  />
<text x="235" y="175" style="font-size:15px;font-family:'Arial'">CheckPoint</text>
<path d="M 80 285 V 265" stroke="#000000" stroke-width="1" fill="none" marker-end="url(#arrowhead)"  />
<path d="M 280 285 V 265" stroke="#000000" stroke-width="1" fill="none" marker-end="url(#arrowhead)"  />
<path d="M 86 270 h 180" stroke="#000000" stroke-width="1" fill="none" stroke-dasharray="5,3" marker-end="url(#arrowhead)"  />

<text x="45" y="305" style="font-size:15px;font-family:'Arial'">RedoPoint</text>
<text x="230" y="305" style="font-size:15px;font-family:'Arial'">recovery target</text>
</g>
</g>
<text x="385" y="120" style="font-size:15px;font-family:'Arial'">recovered database cluster</text>

<g transform="translate(420, 130)">
<ellipse cx="31" cy="10" rx="30" ry="10" style="fill:rgb(115,131,191);stroke:rgb(115,131,191);stroke-width:1" />
<path d="M 1 15 a 30 10 0 0 0 60 0 v 15 a 30 10 0 0 1 -60 0 v -15" stroke="rgb(115,131,191)" stroke-width="1" fill="rgb(115,131,191)"/>
<path d="M 1 35 a 30 10 0 0 0 60 0 v 15 a 30 10 0 0 1 -60 0 v -15" stroke="rgb(115,131,191)" stroke-width="1" fill="rgb(115,131,191)"/>
<path d="M 1 55 a 30 10 0 0 0 60 0 v 15 a 30 10 0 0 1 -60 0 v -15" stroke="rgb(115,131,191)" stroke-width="1" fill="rgb(115,131,191)"/>
<circle cx="50" cy="29" r="3" fill="#FFFFFF" />
<circle cx="50" cy="49" r="3" fill="#FFFFFF" />
<circle cx="50" cy="69" r="3" fill="#FFFFFF" />
</g>

</svg>
