<svg version="1.1" width="600" height="260" xmlns="http://www.w3.org/2000/svg">
<defs><marker id="arrowhead" markerWidth="10" markerHeight="7" refX="0" refY="3.5" orient="auto"><polygon points="0 0, 10 3.5, 0 7" /></marker></defs>

<g transform="translate(0, -20)">
<g transform="translate(440, 50)">
<path d="M 0 0 v 100 h 62 v -80 l -20 -20 h -42" stroke="#0000FF" stroke-width="1" fill="rgb(248,206,204)" />
<path d="M 42 0 v 20 h 20" stroke="#0000FF" stroke-width="1" fill="rgb(248,206,204)" />
<path d="M 10 40 h 42 " stroke="#0000FF" stroke-width="1"/>
<path d="M 10 50 h 42 " stroke="#0000FF" stroke-width="1"/>
<path d="M 10 60 h 42 " stroke="#0000FF" stroke-width="1"/>
<path d="M 10 70 h 42 " stroke="#0000FF" stroke-width="1"/>
</g>

<path d="M 20 200 H 580 " stroke="#0000FF" stroke-width="1" fill="none" />
<path d="M 20 230 H 580 " stroke="#0000FF" stroke-width="1" fill="none" />
<rect x="60" y="200" width="480" height="30" style="fill:#DAE8FC;stroke:#0000FF;stroke-width:1" />
<rect x="100" y="200" width="100" height="30" style="fill:#DAE8FC;stroke:#0000FF;stroke-width:1" />
<rect x="440" y="200" width="40" height="30" style="fill:rgb(248,206,204);stroke:#0000FF;stroke-width:1" />

<path d="M 450 198 a 180 40 0 0 0 -340 -8" stroke="#000000" stroke-width="1" fill="none" marker-end="url(#arrowhead)" />
<path d="M 460 155 V 185" stroke="#000000" stroke-width="1" fill="none" marker-end="url(#arrowhead)" />
<path d="M 435 100 H 100 V 180" stroke="#000000" stroke-width="1" fill="none" marker-end="url(#arrowhead)" />

<text x="370" y="40" style="font-size:13px;font-family:'Courier New'">$PGDATA/global/pg_control</text>
<text x="60" y="275" style="font-size:15px;font-family:'Arial'">REDO point</text>
<text x="420" y="275" style="font-size:15px;font-family:'Arial'">CheckPoint</text>
<path d="M 100 260 V 242" stroke="#000000" stroke-width="1" fill="none" marker-end="url(#arrowhead)" />
<path d="M 460 260 V 242" stroke="#000000" stroke-width="1" fill="none" marker-end="url(#arrowhead)" />

<text x="30" y="215" style="font-size:25px;font-family:'Arial'">...</text>
<text x="550" y="215" style="font-size:25px;font-family:'Arial'">...</text>
<text x="280" y="220" style="font-size:15px;font-family:'Arial'">WAL record</text>
</g>
  
</svg>
