<svg version="1.1" width="600" height="150" xmlns="http://www.w3.org/2000/svg">
<defs><marker id="arrowhead" markerWidth="10" markerHeight="7" refX="0" refY="3.5" orient="auto"><polygon points="0 0, 10 3.5, 0 7" /></marker></defs>


<text x="560" y="35" style="font-size:15px;font-family:'Arial'">T</text>
<path d="M 20 40 h 560 " stroke="#0000FF" stroke-width="1" fill="none" marker-end="url(#arrowhead)" />
<path d="M 65 10 V 25 " stroke="#0000FF" stroke-width="1" fill="none" marker-end="url(#arrowhead)" />
<path d="M 415 10 V 25 " stroke="#0000FF" stroke-width="1" fill="none" marker-end="url(#arrowhead)" />
<path d="M 70 20 H 400 " stroke="#0000FF" stroke-width="1" fill="none" stroke-dasharray="5,3" marker-end="url(#arrowhead)" />

<text x="60" y="70" style="font-size:25px;font-family:'Arial'">6</text>
<text x="128" y="70" style="font-size:25px;font-family:'Arial'">9</text>
<text x="188" y="70" style="font-size:25px;font-family:'Arial'">17</text>
<text x="268" y="70" style="font-size:25px;font-family:'Arial'">5</text>
<text x="330" y="70" style="font-size:25px;font-family:'Arial'">23</text>
<text x="400" y="70" style="font-size:25px;font-family:'Arial'">19</text>
<text x="476" y="70" style="font-size:25px;font-family:'Arial'">8</text>
<text x="535" y="70" style="font-size:25px;font-family:'Arial'">18</text>

<path d="M 70 85 a 30 30 0 0 0 60 0 " stroke="#0000FF" stroke-width="1" fill="none" stroke-dasharray="5,3" marker-end="url(#arrowhead)" />
<path d="M 140 85 a 30 30 0 0 0 60 0 " stroke="#0000FF" stroke-width="1" fill="none" stroke-dasharray="5,3" marker-end="url(#arrowhead)" />
<path d="M 210 85 a 30 30 0 0 0 60 0 " stroke="#0000FF" stroke-width="1" fill="none" stroke-dasharray="5,3" marker-end="url(#arrowhead)" />
<path d="M 280 85 a 30 30 0 0 0 60 0 " stroke="#0000FF" stroke-width="1" fill="none" stroke-dasharray="5,3" marker-end="url(#arrowhead)" />
<path d="M 350 85 a 30 30 0 0 0 60 0 " stroke="#0000FF" stroke-width="1" fill="none" stroke-dasharray="5,3" marker-end="url(#arrowhead)" />
<path d="M 420 85 a 30 30 0 0 0 60 0 " stroke="#0000FF" stroke-width="1" fill="none" stroke-dasharray="5,3" marker-end="url(#arrowhead)" />
<path d="M 490 85 a 30 30 0 0 0 60 0 " stroke="#0000FF" stroke-width="1" fill="none" stroke-dasharray="5,3" marker-end="url(#arrowhead)" />

<text x="90" y="135" style="font-size:18px;font-family:'Arial'">+3</text>
<text x="160" y="135" style="font-size:18px;font-family:'Arial'">+8</text>
<text x="230" y="135" style="font-size:18px;font-family:'Arial'">-12</text>
<text x="300" y="135" style="font-size:18px;font-family:'Arial'">+18</text>
<text x="370" y="135" style="font-size:18px;font-family:'Arial'">-4</text>
<text x="440" y="135" style="font-size:18px;font-family:'Arial'">-11</text>
<text x="510" y="135" style="font-size:18px;font-family:'Arial'">+10</text>

</svg>
