<svg version="1.1" width="600" height="500" xmlns="http://www.w3.org/2000/svg">
<defs><marker id="arrowhead" markerWidth="10" markerHeight="7" refX="0" refY="3.5" orient="auto"><polygon points="0 0, 10 3.5, 0 7" /></marker></defs>


<rect x="20" y="60" width="100" height="150" style="fill:none;stroke:#0000FF;stroke-width:1" />
<rect x="20" y="110" width="100" height="100" style="fill:rgb(248,206,204);stroke:#0000FF;stroke-width:1" />
<text x="65" y="130" style="font-size:15px;font-family:'Arial'">A</text>

<rect x="220" y="60" width="40" height="60" style="fill:rgb(248,206,204);stroke:#0000FF;stroke-width:1" />
<rect x="320" y="60" width="40" height="40" style="fill:rgb(248,206,204);stroke:#0000FF;stroke-width:1" />
<rect x="420" y="60" width="40" height="100" style="fill:rgb(248,206,204);stroke:#0000FF;stroke-width:1" />
<rect x="520" y="60" width="40" height="140" style="fill:rgb(248,206,204);stroke:#0000FF;stroke-width:1" />

<text x="235" y="80" style="font-size:15px;font-family:'Arial'">B</text>
<text x="335" y="80" style="font-size:15px;font-family:'Arial'">C</text>
<text x="435" y="80" style="font-size:15px;font-family:'Arial'">D</text>
<text x="535" y="80" style="font-size:15px;font-family:'Arial'">E</text>

<path d="M 265 70 h 40" stroke="#000000" stroke-width="1" fill="none" marker-end="url(#arrowhead)"/>
<path d="M 365 70 h 40" stroke="#000000" stroke-width="1" fill="none" marker-end="url(#arrowhead)"/>
<path d="M 465 70 h 40" stroke="#000000" stroke-width="1" fill="none" marker-end="url(#arrowhead)"/>

<path d="M 515 90 h -40" stroke="#000000" stroke-width="1" fill="none" marker-end="url(#arrowhead)"/>
<path d="M 415 90 h -40" stroke="#000000" stroke-width="1" fill="none" marker-end="url(#arrowhead)"/>
<path d="M 315 90 h -40" stroke="#000000" stroke-width="1" fill="none" marker-end="url(#arrowhead)"/>

<path d="M 215 70 h -20 L 160 110 H 135" stroke="#000000" stroke-width="1" fill="none" marker-end="url(#arrowhead)"/>
<path d="M 125 125 H 160 L 195 90 H 205" stroke="#000000" stroke-width="1" fill="none" marker-end="url(#arrowhead)"/>

<path d="M 195 195 L 170 135" stroke="#000000" stroke-width="1" fill="none" marker-end="url(#arrowhead)"/>
<rect x="200" y="200" width="200" height="280" style="fill:none;stroke:#0000FF;stroke-width:1" />
<path d="M 200 260 h 200" stroke="#0000FF" stroke-width="1" fill="none"/>
<path d="M 200 300 h 200" stroke="#0000FF" stroke-width="1" fill="none"/>

<text x="240" y="220" style="font-size:15px;font-family:'Courier New'">AllocBlockData </text>
<text x="240" y="282" style="font-size:15px;font-family:'Courier New'">AllocChunkData </text>
</svg>
