<svg version="1.1" width="600" height="310" xmlns="http://www.w3.org/2000/svg">
<defs><marker id="arrowhead" markerWidth="10" markerHeight="7" refX="0" refY="3.5" orient="auto"><polygon points="0 0, 10 3.5, 0 7" /></marker></defs>

<text x="30" y="30" style="font-size:13px;font-family:'Arial'">primary node</text>
<text x="250" y="30" style="font-size:13px;font-family:'Arial'">standby node</text>
<text x="450" y="30" style="font-size:13px;font-family:'Arial'">standby node</text>
<text x="250" y="280" style="font-size:13px;font-family:'Arial'">standby node</text>
<text x="450" y="280" style="font-size:13px;font-family:'Arial'">standby node</text>


<g transform="translate(40, 20)">
<path d="M 9 20 h 40 a 5 5 0 0 1 5 5 v 90 a 5 5 0 0 1 -5 5 h -40 a 5 5 0 0 1 -5 -5 v -90 a 5 5 0 0 1 5 -5" stroke="#000000" stroke-width="6" fill="none" />
<path d="M 13 32 h 34" stroke="#000000" stroke-width="5" fill="none" />
<path d="M 13 40 h 34" stroke="#000000" stroke-width="5" fill="none" />
<path d="M 13 48 h 34" stroke="#000000" stroke-width="5" fill="none" />
<path d="M 13 56 h 34" stroke="#000000" stroke-width="5" fill="none" />
<circle cx="30" cy="75" r="8" fill="#000000" />
<circle cx="30" cy="75" r="2" fill="#FFFFFF" />
<circle cx="30" cy="97" r="3" fill="#000000" />
<rect x="15" y="105" width="30" height="5" style="fill:none;stroke:#000000;stroke-width:2" />
<path d="M 25 105 v 5" stroke="#000000" stroke-width="2" fill="none" />
<path d="M 35 105 v 5" stroke="#000000" stroke-width="2" fill="none" />
</g>

<g transform="translate(260, 20)">
<path d="M 9 20 h 40 a 5 5 0 0 1 5 5 v 90 a 5 5 0 0 1 -5 5 h -40 a 5 5 0 0 1 -5 -5 v -90 a 5 5 0 0 1 5 -5" stroke="#000000" stroke-width="6" fill="none" />
<path d="M 13 32 h 34" stroke="#000000" stroke-width="5" fill="none" />
<path d="M 13 40 h 34" stroke="#000000" stroke-width="5" fill="none" />
<path d="M 13 48 h 34" stroke="#000000" stroke-width="5" fill="none" />
<path d="M 13 56 h 34" stroke="#000000" stroke-width="5" fill="none" />
<circle cx="30" cy="75" r="8" fill="#000000" />
<circle cx="30" cy="75" r="2" fill="#FFFFFF" />
<circle cx="30" cy="97" r="3" fill="#000000" />
<rect x="15" y="105" width="30" height="5" style="fill:none;stroke:#000000;stroke-width:2" />
<path d="M 25 105 v 5" stroke="#000000" stroke-width="2" fill="none" />
<path d="M 35 105 v 5" stroke="#000000" stroke-width="2" fill="none" />
</g>

<g transform="translate(260, 140)">
<path d="M 9 20 h 40 a 5 5 0 0 1 5 5 v 90 a 5 5 0 0 1 -5 5 h -40 a 5 5 0 0 1 -5 -5 v -90 a 5 5 0 0 1 5 -5" stroke="#000000" stroke-width="6" fill="none" />
<path d="M 13 32 h 34" stroke="#000000" stroke-width="5" fill="none" />
<path d="M 13 40 h 34" stroke="#000000" stroke-width="5" fill="none" />
<path d="M 13 48 h 34" stroke="#000000" stroke-width="5" fill="none" />
<path d="M 13 56 h 34" stroke="#000000" stroke-width="5" fill="none" />
<circle cx="30" cy="75" r="8" fill="#000000" />
<circle cx="30" cy="75" r="2" fill="#FFFFFF" />
<circle cx="30" cy="97" r="3" fill="#000000" />
<rect x="15" y="105" width="30" height="5" style="fill:none;stroke:#000000;stroke-width:2" />
<path d="M 25 105 v 5" stroke="#000000" stroke-width="2" fill="none" />
<path d="M 35 105 v 5" stroke="#000000" stroke-width="2" fill="none" />
</g>

<g transform="translate(460, 20)">
<path d="M 9 20 h 40 a 5 5 0 0 1 5 5 v 90 a 5 5 0 0 1 -5 5 h -40 a 5 5 0 0 1 -5 -5 v -90 a 5 5 0 0 1 5 -5" stroke="#000000" stroke-width="6" fill="none" />
<path d="M 13 32 h 34" stroke="#000000" stroke-width="5" fill="none" />
<path d="M 13 40 h 34" stroke="#000000" stroke-width="5" fill="none" />
<path d="M 13 48 h 34" stroke="#000000" stroke-width="5" fill="none" />
<path d="M 13 56 h 34" stroke="#000000" stroke-width="5" fill="none" />
<circle cx="30" cy="75" r="8" fill="#000000" />
<circle cx="30" cy="75" r="2" fill="#FFFFFF" />
<circle cx="30" cy="97" r="3" fill="#000000" />
<rect x="15" y="105" width="30" height="5" style="fill:none;stroke:#000000;stroke-width:2" />
<path d="M 25 105 v 5" stroke="#000000" stroke-width="2" fill="none" />
<path d="M 35 105 v 5" stroke="#000000" stroke-width="2" fill="none" />
</g>

<g transform="translate(460, 140)">
<path d="M 9 20 h 40 a 5 5 0 0 1 5 5 v 90 a 5 5 0 0 1 -5 5 h -40 a 5 5 0 0 1 -5 -5 v -90 a 5 5 0 0 1 5 -5" stroke="#000000" stroke-width="6" fill="none" />
<path d="M 13 32 h 34" stroke="#000000" stroke-width="5" fill="none" />
<path d="M 13 40 h 34" stroke="#000000" stroke-width="5" fill="none" />
<path d="M 13 48 h 34" stroke="#000000" stroke-width="5" fill="none" />
<path d="M 13 56 h 34" stroke="#000000" stroke-width="5" fill="none" />
<circle cx="30" cy="75" r="8" fill="#000000" />
<circle cx="30" cy="75" r="2" fill="#FFFFFF" />
<circle cx="30" cy="97" r="3" fill="#000000" />
<rect x="15" y="105" width="30" height="5" style="fill:none;stroke:#000000;stroke-width:2" />
<path d="M 25 105 v 5" stroke="#000000" stroke-width="2" fill="none" />
<path d="M 35 105 v 5" stroke="#000000" stroke-width="2" fill="none" />
</g>

<path d="M 100 70 h 150" stroke="#000000" stroke-width="1" fill="none" marker-end="url(#arrowhead)" />
<path d="M 100 90 h 50 L 200 190 h 50" stroke="#000000" stroke-width="1" fill="none" marker-end="url(#arrowhead)" />

<path d="M 320 70 h 130" stroke="#000000" stroke-width="1" fill="none" marker-end="url(#arrowhead)" />
<path d="M 320 90 h 50 L 400 190 h 50" stroke="#000000" stroke-width="1" fill="none" marker-end="url(#arrowhead)" />
</svg>
