<svg version="1.1" width="600" height="260" xmlns="http://www.w3.org/2000/svg">
<defs><marker id="arrowhead" markerWidth="10" markerHeight="7" refX="0" refY="3.5" orient="auto"><polygon points="0 0, 10 3.5, 0 7" /></marker></defs>

<g transform="translate(0, -40)">
<rect x="20" y="195" width="100" height="10" style="fill:rgb(213,232,212);stroke:#0000FF;stroke-width:1" />
<rect x="125" y="195" width="100" height="10" style="fill:rgb(213,232,212);stroke:#0000FF;stroke-width:1" />
<rect x="230" y="195" width="100" height="10" style="fill:rgb(213,232,212);stroke:#0000FF;stroke-width:1" />
<rect x="335" y="195" width="100" height="10" style="fill:rgb(213,232,212);stroke:#0000FF;stroke-width:1" />
<rect x="440" y="195" width="100" height="10" style="fill:rgb(213,232,212);stroke:#0000FF;stroke-width:1" />
<path d="M 10 200 h 10" stroke="#000000" stroke-width="1" fill="none"/>
<path d="M 120 200 h 5" stroke="#000000" stroke-width="1" fill="none"/>
<path d="M 225 200 h 5" stroke="#000000" stroke-width="1" fill="none"/>
<path d="M 330 200 h 5" stroke="#000000" stroke-width="1" fill="none"/>
<path d="M 435 200 h 5" stroke="#000000" stroke-width="1" fill="none"/>


<rect x="230" y="140" width="100" height="10" style="fill:none;stroke:#0000FF;stroke-width:1" />
<rect x="300" y="140" width="30" height="10" style="fill:rgb(213,232,212);stroke:#0000FF;stroke-width:1" />
<rect x="335" y="140" width="100" height="10" style="fill:rgb(213,232,212);stroke:#0000FF;stroke-width:1" />
<rect x="440" y="140" width="100" height="10" style="fill:rgb(213,232,212);stroke:#0000FF;stroke-width:1" />
<path d="M 330 145 h 5" stroke="#000000" stroke-width="1" fill="none"/>
<path d="M 435 145 h 5" stroke="#000000" stroke-width="1" fill="none"/>
<text x="290" y="220" style="font-size:15px;font-family:'Arial'">(1)</text>

<path d="M 540 255 h 30" stroke="#000000" stroke-width="1" fill="none" marker-end="url(#arrowhead)" />
<path d="M 540 145 h 30" stroke="#000000" stroke-width="1" fill="none" marker-end="url(#arrowhead)" />
<path d="M 540 90 h 30" stroke="#000000" stroke-width="1" fill="none" marker-end="url(#arrowhead)" />
<path d="M 540 200 h 30" stroke="#000000" stroke-width="1" fill="none" marker-end="url(#arrowhead)" />
<text x="545" y="190" style="font-size:15px;font-family:'Arial'">TLI 1</text>
<text x="545" y="135" style="font-size:15px;font-family:'Arial'">TLI 2</text>
<text x="545" y="245" style="font-size:15px;font-family:'Arial'">TLI 3</text>
<text x="545" y="80" style="font-size:15px;font-family:'Arial'">TLI 4</text>

<rect x="335" y="250" width="100" height="10" style="fill:none;stroke:#0000FF;stroke-width:1" />
<rect x="370" y="250" width="65" height="10" style="fill:rgb(213,232,212);stroke:#0000FF;stroke-width:1" />
<rect x="440" y="250" width="100" height="10" style="fill:rgb(213,232,212);stroke:#0000FF;stroke-width:1" />
<path d="M 435 255 h 5" stroke="#000000" stroke-width="1" fill="none"/>
<text x="360" y="188" style="font-size:15px;font-family:'Arial'">(2)</text>

<path d="M 300 195 V 160" stroke="#000000" stroke-width="1" fill="none" marker-end="url(#arrowhead)" />
<path d="M 370 205 V 240" stroke="#000000" stroke-width="1" fill="none" marker-end="url(#arrowhead)" />
<path d="M 300 195 v 10" stroke="#0000FF" stroke-width="1" fill="none" />
<path d="M 370 195 v 10" stroke="#0000FF" stroke-width="1" fill="none" />

<path d="M 50 195 v 10" stroke="#0000FF" stroke-width="1" fill="none" />
<path d="M 50 150 V 185" stroke="#000000" stroke-width="1" fill="none" marker-end="url(#arrowhead)" />
<text x="20" y="140" style="font-size:15px;font-family:'Arial'">RedoPoint</text>

<path d="M 230 135 v -5 a 5 5 0 0 1 5 -5 h 25 a 5 5 0 0 0 5 -5 a 5 5 0 0 0 5 5 h 25 a 5 5 0 0 1 5 5 v 5" stroke="#000000" stroke-width="1" fill="none" />

<rect x="335" y="85" width="100" height="10" style="fill:none;stroke:#0000FF;stroke-width:1" />
<rect x="400" y="85" width="35" height="10" style="fill:rgb(213,232,212);stroke:#0000FF;stroke-width:1" />
<rect x="440" y="85" width="100" height="10" style="fill:rgb(213,232,212);stroke:#0000FF;stroke-width:1" />
<text x="390" y="165" style="font-size:15px;font-family:'Arial'">(3)</text>

<path d="M 400 140 V 105" stroke="#000000" stroke-width="1" fill="none" marker-end="url(#arrowhead)" />
<path d="M 400 140 v 10" stroke="#0000FF" stroke-width="1" fill="none" />
<path d="M 435 90 h 5" stroke="#000000" stroke-width="1" fill="none"/>
</g>
</svg>
