<svg version="1.1" width="600" height="600" xmlns="http://www.w3.org/2000/svg">
<defs><marker id="arrowhead" markerWidth="10" markerHeight="7" refX="0" refY="3.5" orient="auto"><polygon points="0 0, 10 3.5, 0 7" /></marker></defs>

<circle cx="300" cy="300" r="3" fill="#FF0000" stroke="#000000" stroke-width="3" />
<path d="M 40 40 l 520 520" stroke="#000000" stroke-width="1" fill="none" stroke-dasharray="3,3"/>

<path d="M 90 90 l 20 -20" stroke="#000000" stroke-width="1" fill="none" marker-end="url(#arrowhead)"/>
<path d="M 90 90 l -20 20" stroke="#000000" stroke-width="1" fill="none" marker-end="url(#arrowhead)"/>
<text x="105" y="58" style="font-size:13px;font-family:'Arial'">future</text>
<text x="40" y="130" style="font-size:13px;font-family:'Arial'">past</text>

<circle cx="300" cy="300" r="260" fill="none" stroke="#000000" stroke-width="1" />
<circle cx="40" cy="300" r="15" fill="#FFFFFF" stroke="#0000FF" stroke-width="1" />
<circle cx="560" cy="300" r="15" fill="#FFFFFF" stroke="#0000FF" stroke-width="1" />
<circle cx="300" cy="40" r="15" fill="#FFFFFF" stroke="#0000FF" stroke-width="1" />
<circle cx="300" cy="560" r="15" fill="#FFFFFF" stroke="#0000FF" stroke-width="1" />

<circle cx="116" cy="116" r="15" fill="#FFFFFF" stroke="#0000FF" stroke-width="1" />
<circle cx="484" cy="116" r="15" fill="#FFFFFF" stroke="#0000FF" stroke-width="1" />
<circle cx="484" cy="484" r="15" fill="#FFFFFF" stroke="#0000FF" stroke-width="1" />
<circle cx="116" cy="484" r="15" fill="#FFFFFF" stroke="#0000FF" stroke-width="1" />

<circle cx="551" cy="233" r="15" fill="#FFFFFF" stroke="#0000FF" stroke-width="1" />
<circle cx="525" cy="170" r="15" fill="#FFFFFF" stroke="#0000FF" stroke-width="1" />
<circle cx="430" cy="75" r="15" fill="#FFFFFF" stroke="#0000FF" stroke-width="1" />
<circle cx="367" cy="49" r="15" fill="#FFFFFF" stroke="#0000FF" stroke-width="1" />

<circle cx="49" cy="233" r="15" fill="#FFFFFF" stroke="#0000FF" stroke-width="1" />
<circle cx="75" cy="170" r="15" fill="#FFFFFF" stroke="#0000FF" stroke-width="1" />
<circle cx="170" cy="75" r="15" fill="#FFFFFF" stroke="#0000FF" stroke-width="1" />
<circle cx="233" cy="49" r="15" fill="#FFFFFF" stroke="#0000FF" stroke-width="1" />

<circle cx="49" cy="367" r="15" fill="#FFFFFF" stroke="#0000FF" stroke-width="1" />
<circle cx="75" cy="430" r="15" fill="#FFFFFF" stroke="#0000FF" stroke-width="1" />
<circle cx="170" cy="525" r="15" fill="#FFFFFF" stroke="#0000FF" stroke-width="1" />
<circle cx="233" cy="551" r="15" fill="#FFFFFF" stroke="#0000FF" stroke-width="1" />

<circle cx="551" cy="367" r="15" fill="#FFFFFF" stroke="#0000FF" stroke-width="1" />
<circle cx="525" cy="430" r="15" fill="#FFFFFF" stroke="#0000FF" stroke-width="1" />
<circle cx="430" cy="525" r="15" fill="#FFFFFF" stroke="#0000FF" stroke-width="1" />
<circle cx="367" cy="551" r="15" fill="#FFFFFF" stroke="#0000FF" stroke-width="1" />
  
</svg>
