<svg version="1.1" width="600" height="490" xmlns="http://www.w3.org/2000/svg">
<defs><marker id="arrowhead" markerWidth="10" markerHeight="7" refX="0" refY="3.5" orient="auto"><polygon points="0 0, 10 3.5, 0 7" /></marker></defs>

<path d="M 300 40 l 100 100 h -200 l 100 -100" stroke="#0000FF" stroke-width="1" fill="none" />
<path d="M 270 70 h 60 " stroke="#0000FF" stroke-width="1" fill="none" />
<path d="M 240 100 h 120 " stroke="#0000FF" stroke-width="1" fill="none" />


<rect x="200" y="170" width="360" height="30" style="fill:none;stroke:#0000FF;stroke-width:1" />
<text x="205" y="188" style="font-size:25px;font-family:'Arial'">......</text>
<text x="500" y="188" style="font-size:25px;font-family:'Arial'">......</text>
<text x="260" y="190" style="font-size:15px;font-family:'Arial'">key='TX', TID=(block=8,offset=2)</text>
<path d="M 250 170 v 30" stroke="#0000FF" stroke-width="1" fill="none" />
<path d="M 487 170 v 30" stroke="#0000FF" stroke-width="1" fill="none" />

<path d="M 300 20 v 20 l -15 30 l 40 30 l -75 40 V 155" stroke="#000000" stroke-width="1" fill="none" stroke-dasharray="3,3" marker-end="url(#arrowhead)"/>

<rect x="100" y="230" width="400" height="240" style="fill:none;stroke:#0000FF;stroke-width:1" />
<rect x="100" y="230" width="400" height="60" style="fill:rgb(213,232,212);stroke:#0000FF;stroke-width:1" />
<rect x="300" y="260" width="200" height="30" style="fill:#DAE8FC;stroke:#0000FF;stroke-width:1" />
<text x="240" y="250" style="font-size:15px;font-family:'Arial'">page header</text>

<path d="M 350 260 v 30" stroke="#0000FF" stroke-width="1" fill="none" />
<path d="M 400 260 v 30" stroke="#0000FF" stroke-width="1" fill="none" />
<path d="M 450 260 v 30" stroke="#0000FF" stroke-width="1" fill="none" />
<text x="323" y="280" style="font-size:15px;font-family:'Arial'">1</text>
<text x="373" y="280" style="font-size:15px;font-family:'Arial'">2</text>
<text x="423" y="280" style="font-size:15px;font-family:'Arial'">3</text>
<text x="473" y="280" style="font-size:15px;font-family:'Arial'">4</text>

<rect x="150" y="350" width="350" height="30" style="fill:#DAE8FC;stroke:#0000FF;stroke-width:1" />
<path d="M 230 350 v 30" stroke="#0000FF" stroke-width="1" fill="none" />
<path d="M 360 350 v 30" stroke="#0000FF" stroke-width="1" fill="none" />

<rect x="100" y="380" width="400" height="60" style="fill:rgb(213,232,212);stroke:#0000FF;stroke-width:1" />
<rect x="300" y="410" width="200" height="30" style="fill:#DAE8FC;stroke:#0000FF;stroke-width:1" />
<text x="240" y="400" style="font-size:15px;font-family:'Arial'">page header</text>
<path d="M 350 410 v 30" stroke="#0000FF" stroke-width="1" fill="none" />
<path d="M 400 410 v 30" stroke="#0000FF" stroke-width="1" fill="none" />
<path d="M 450 410 v 30" stroke="#0000FF" stroke-width="1" fill="none" />
<text x="323" y="430" style="font-size:15px;font-family:'Arial'">1</text>
<text x="373" y="430" style="font-size:15px;font-family:'Arial'">2</text>
<text x="423" y="430" style="font-size:15px;font-family:'Arial'">3</text>
<text x="473" y="430" style="font-size:15px;font-family:'Arial'">4</text>


<path d="M 400 205 L 385 245" stroke="#000000" stroke-width="1" fill="none" stroke-dasharray="3,3" marker-end="url(#arrowhead)"/>

<path d="M 375 295 L 300 345" stroke="#000000" stroke-width="1" fill="none" stroke-dasharray="3,3" marker-end="url(#arrowhead)"/>

<path d="M 505 230 h 5 a 5 5 0 0 1 5 5 v 65 a 5 5 0 0 0 5 5 a 5 5 0 0 0 -5 5 v 65 a 5 5 0 0 1 -5 5 h -5" stroke="#000000" stroke-width="1" fill="none"/>
<text x="525" y="308" style="font-size:15px;font-family:'Arial'">page 8</text>
</svg>
