<svg version="1.1" width="600" height="280" xmlns="http://www.w3.org/2000/svg">
<defs><marker id="arrowhead" markerWidth="10" markerHeight="7" refX="0" refY="3.5" orient="auto"><polygon points="0 0, 10 3.5, 0 7" /></marker></defs>

<text x="265" y="30" style="font-size:15px;font-family:'Courier New'">$PGDATA</text>
<path d="M 300 35 v 15 h -150 V 80 " stroke="#000000" stroke-width="1" fill="none" marker-end="url(#arrowhead)"/>
<path d="M 300 50 V 80 " stroke="#000000" stroke-width="1" fill="none" marker-end="url(#arrowhead)"/>
<path d="M 300 50 h 150 V 80 " stroke="#000000" stroke-width="1" fill="none" marker-end="url(#arrowhead)"/>
<text x="270" y="102" style="font-size:15px;font-family:'Courier New'">pg_wal</text>
<text x="400" y="102" style="font-size:15px;font-family:'Courier New'">pg_tblspc</text>

<path d="M 410,162 q 20 15 40 0 q 20 -20 40 -10 v -40 h -80 z " fill="rgb(122,171,212)" stroke="#0000FF" stroke-width="1" />
<path d="M 420,172 q 20 15 40 0 q 20 -20 40 -10 v -40 h -80 z " fill="rgb(122,171,212)" stroke="#0000FF" stroke-width="1" />
<path d="M 430,182 q 20 15 40 0 q 20 -20 40 -10 v -40 h -80 z " fill="rgb(122,171,212)" stroke="#0000FF" stroke-width="1" />

<path d="M 300 50 h 250 V 80 " stroke="#000000" stroke-width="1" fill="none" marker-end="url(#arrowhead)"/>
<text x="528" y="100" style="font-size:25px;font-family:'Arial'">......</text>

<text x="132" y="102" style="font-size:15px;font-family:'Courier New'">base</text>
<path d="M 150 105 v 15 h -100 v 30 " stroke="#000000" stroke-width="1" fill="none" marker-end="url(#arrowhead)"/>
<path d="M 150 120 h 100 v 30" stroke="#000000" stroke-width="1" fill="none" marker-end="url(#arrowhead)"/>
<path d="M 150 120 v 30" stroke="#000000" stroke-width="1" fill="none" marker-end="url(#arrowhead)"/>
<path d="M 150 120 h 200 v 30" stroke="#000000" stroke-width="1" fill="none" marker-end="url(#arrowhead)"/>

<text x="10" y="175" style="font-size:15px;font-family:'Courier New'">template0</text>
<text x="110" y="175" style="font-size:15px;font-family:'Courier New'">template1</text>
<text x="210" y="175" style="font-size:15px;font-family:'Courier New'">postgres</text>
<text x="300" y="175" style="font-size:15px;font-family:'Courier New'">my database</text>

<path d="M 300,235 q 20 15 40 0 q 20 -20 40 -10 v -40 h -80 z " fill="rgb(122,171,212)" stroke="#0000FF" stroke-width="1" />
<path d="M 310,245 q 20 15 40 0 q 20 -20 40 -10 v -40 h -80 z " fill="rgb(122,171,212)" stroke="#0000FF" stroke-width="1" />
<path d="M 320,255 q 20 15 40 0 q 20 -20 40 -10 v -40 h -80 z " fill="rgb(122,171,212)" stroke="#0000FF" stroke-width="1" />
</svg>
