<svg version="1.1" width="600" height="250" xmlns="http://www.w3.org/2000/svg">
<defs><marker id="arrowhead" markerWidth="10" markerHeight="7" refX="0" refY="3.5" orient="auto"><polygon points="0 0, 10 3.5, 0 7" /></marker></defs>

<rect x="100" y="20" width="400" height="135" style="fill:none;stroke:#0000FF;stroke-width:1" />

<g transform="translate(320, 30)">
<path d="M 1 21 v 60 h 60 v -80 h -40 z" stroke="#0000FF" stroke-width="1" fill="rgb(248,206,204)" />
<path d="M 1 21 h 20 v -20" stroke="#0000FF" stroke-width="1" fill="none" />
</g>

<g transform="translate(332, 42)">
<path d="M 1 21 v 60 h 60 v -80 h -40 z" stroke="#0000FF" stroke-width="1" fill="rgb(248,206,204)" />
<path d="M 1 21 h 20 v -20" stroke="#0000FF" stroke-width="1" fill="none" />
</g>

<g transform="translate(344, 54)">
<path d="M 1 21 v 60 h 60 v -80 h -40 z" stroke="#0000FF" stroke-width="1" fill="rgb(248,206,204)" />
<path d="M 1 21 h 20 v -20" stroke="#0000FF" stroke-width="1" fill="none" />
<text x="15" y="40" style="font-size:15px;font-family:'Arial'">WAL</text>
<text x="20" y="60" style="font-size:15px;font-family:'Arial'">file</text>
</g>

<g transform="translate(200, 50)">
<ellipse cx="31" cy="10" rx="30" ry="10" style="fill:rgb(115,131,191);stroke:rgb(115,131,191);stroke-width:1" />
<path d="M 1 15 a 30 10 0 0 0 60 0 v 15 a 30 10 0 0 1 -60 0 v -15" stroke="rgb(115,131,191)" stroke-width="1" fill="rgb(115,131,191)"/>
<path d="M 1 35 a 30 10 0 0 0 60 0 v 15 a 30 10 0 0 1 -60 0 v -15" stroke="rgb(115,131,191)" stroke-width="1" fill="rgb(115,131,191)"/>
<path d="M 1 55 a 30 10 0 0 0 60 0 v 15 a 30 10 0 0 1 -60 0 v -15" stroke="rgb(115,131,191)" stroke-width="1" fill="rgb(115,131,191)"/>
<circle cx="50" cy="29" r="3" fill="#FFFFFF" />
<circle cx="50" cy="49" r="3" fill="#FFFFFF" />
<circle cx="50" cy="69" r="3" fill="#FFFFFF" />
</g>
<text x="205" y="45" style="font-size:15px;font-family:'Arial'">data file</text>

<path d="M 230 133 v 30 L 303 180 v 20" stroke="#000000" stroke-width="1" fill="none" marker-end="url(#arrowhead)"/>

<path d="M 375 138 v 25 L 303 180" stroke="#000000" stroke-width="1" fill="none"/>

<text x="290" y="225" style="font-size:15px;font-family:'Arial'">fetch</text>
</svg>
