<svg version="1.1" width="600" height="340" xmlns="http://www.w3.org/2000/svg">
<defs><marker id="arrowhead" markerWidth="10" markerHeight="7" refX="0" refY="3.5" orient="auto"><polygon points="0 0, 10 3.5, 0 7" /></marker></defs>

<path d="M 300 20 l 30 60 h -60 z" stroke="#0000FF" stroke-width="1" fill="rgb(218,232,252)"/>

<path d="M 270 80 L 40 130 V 147" stroke="#000000" stroke-width="1" fill="none" stroke-dasharray="3,3" marker-end="url(#arrowhead)" />
<path d="M 330 80 L 560 130 V 147" stroke="#000000" stroke-width="1" fill="none" stroke-dasharray="3,3" marker-end="url(#arrowhead)" />


<rect x="40" y="160" width="520" height="65" style="fill:none;stroke:#0000FF;stroke-width:1" />
<path d="M 80 160 v 65" stroke="#0000FF" stroke-width="1" fill="none"/>
<path d="M 120 160 v 65" stroke="#0000FF" stroke-width="1" fill="none"/>
<path d="M 160 160 v 65" stroke="#0000FF" stroke-width="1" fill="none"/>
<path d="M 200 160 v 65" stroke="#0000FF" stroke-width="1" fill="none"/>
<path d="M 240 160 v 65" stroke="#0000FF" stroke-width="1" fill="none"/>
<path d="M 280 160 v 65" stroke="#0000FF" stroke-width="1" fill="none"/>
<path d="M 320 160 v 65" stroke="#0000FF" stroke-width="1" fill="none"/>
<path d="M 360 160 v 65" stroke="#0000FF" stroke-width="1" fill="none"/>
<path d="M 400 160 v 65" stroke="#0000FF" stroke-width="1" fill="none"/>
<path d="M 440 160 v 65" stroke="#0000FF" stroke-width="1" fill="none"/>
<path d="M 480 160 v 65" stroke="#0000FF" stroke-width="1" fill="none"/>
<path d="M 520 160 v 65" stroke="#0000FF" stroke-width="1" fill="none"/>

<rect x="400" y="280" width="80" height="40" style="fill:rgb(213,232,212);stroke:#0000FF;stroke-width:1" />
<path d="M 400 280 L 40 260 V 240" stroke="#000000" stroke-width="1" fill="none" stroke-dasharray="3,3" marker-end="url(#arrowhead)" />
<path d="M 480 280 L 560 260 V 240" stroke="#000000" stroke-width="1" fill="none" stroke-dasharray="3,3" marker-end="url(#arrowhead)" />

<path d="M 563 160 h 3 a 5 5 0 0 1 5 5 v 22 a 5 5 0 0 0 5 5 a 5 5 0 0 0 -5 5 v 23 a 5 5 0 0 1 -5 5 h -3" stroke="#000000" stroke-width="1" fill="none"/>
<text x="538" y="220" style="font-size:13px;font-family:'Arial'" transform="rotate(-90 570 200)">BLCKSZ (8K)</text>

<text x="315" y="33" style="font-size:15px;font-family:'Arial'">_fsm</text>
<text x="490" y="300" style="font-size:15px;font-family:'Arial'">_vm</text>
<text x="280" y="150" style="font-size:15px;font-family:'Arial'">data file</text>
</svg>
