<svg version="1.1" width="600" height="340" xmlns="http://www.w3.org/2000/svg">
<defs><marker id="arrowhead" markerWidth="10" markerHeight="7" refX="0" refY="3.5" orient="auto"><polygon points="0 0, 10 3.5, 0 7" /></marker></defs>
<g transform="translate(165,336) scale(0.025,-0.025)"
fill="rgb(89,75,210)" stroke="none">
<path d="M1111 5109 c-154 -30 -287 -155 -327 -309 -21 -82 -21 -4398 0 -4480
41 -158 172 -279 335 -310 74 -14 2808 -14 2882 0 163 31 293 151 335 310 21
82 21 4398 0 4480 -42 159 -172 279 -335 310 -67 12 -2825 12 -2890 -1z m2879
-209 c49 -13 109 -66 131 -114 18 -39 19 -122 19 -2226 0 -2104 -1 -2187 -19
-2226 -22 -48 -82 -101 -131 -114 -48 -13 -2812 -13 -2860 0 -49 13 -109 66
-131 114 -18 39 -19 122 -19 2226 0 2104 1 2187 19 2226 21 46 81 100 126 113
42 13 2820 14 2865 1z"/>
<path d="M1153 4774 c-64 -32 -65 -127 -2 -159 35 -19 53 -19 89 0 34 18 55
71 41 106 -21 55 -77 79 -128 53z"/>
<path d="M3900 4783 c-75 -28 -88 -133 -20 -168 36 -19 54 -19 89 0 64 33 62
128 -3 159 -36 17 -42 18 -66 9z"/>
<path d="M2430 4634 c-442 -55 -810 -296 -1023 -669 -211 -369 -229 -824 -48
-1210 157 -334 423 -574 769 -695 l92 -32 152 114 c84 64 252 190 372 281 174
132 229 168 265 176 131 28 251 -68 251 -201 0 -65 -15 -97 -98 -205 -34 -45
-62 -84 -62 -88 0 -9 119 54 190 101 371 244 592 654 593 1099 1 354 -124 671
-362 918 -254 263 -564 402 -925 412 -72 2 -147 1 -166 -1z m244 -890 c269
-69 410 -378 287 -628 -76 -155 -226 -248 -401 -248 -331 0 -544 337 -401 636
92 195 305 294 515 240z"/>
<path d="M2938 2438 c-300 -223 -1240 -937 -1271 -967 -21 -20 -50 -61 -65
-91 -23 -47 -27 -67 -27 -145 0 -78 4 -97 27 -140 35 -68 92 -122 158 -154 46
-22 68 -26 140 -25 101 0 161 24 225 89 43 44 982 1282 1016 1340 28 46 19 95
-22 129 -50 42 -84 36 -181 -36z m-963 -1061 c142 -79 85 -297 -77 -297 -54 0
-106 27 -136 71 -20 29 -23 44 -20 94 4 72 25 106 83 135 52 26 100 25 150 -3z"/>
<path d="M1149 505 c-63 -34 -59 -128 7 -160 37 -17 67 -13 98 14 46 41 39
119 -14 146 -36 18 -57 18 -91 0z"/>
<path d="M3878 505 c-32 -18 -52 -72 -39 -106 21 -55 74 -78 125 -54 67 32 70
127 5 160 -35 18 -56 18 -91 0z"/>
</g>

<ellipse cx="210" cy="110" rx="50" ry="20" style="fill:rgb(255,242,204);stroke:#0000FF;stroke-width:1" />
<text x="182" y="113" style="font-size:13px;font-family:'Arial'">walsender</text>
<path d="M 125 110 H 147 " stroke="#000000" stroke-width="1" fill="none" marker-end="url(#arrowhead)" />

<ellipse cx="490" cy="110" rx="50" ry="20" style="fill:rgb(255,242,204);stroke:#0000FF;stroke-width:1" />
<text x="445" y="113" style="font-size:13px;font-family:'Arial'">pg_basebackup</text>

<path d="M 265 110 H 425 " stroke="#000000" stroke-width="1" fill="none" marker-end="url(#arrowhead)" />

<path d="M 125 250 h 50 v -110 " stroke="#000000" stroke-width="1" fill="none" marker-end="url(#arrowhead)" />

<path d="M 210 132 V 197 " stroke="#000000" stroke-width="1" fill="none" marker-end="url(#arrowhead)" />


<path d="M 300 20 V 326 " stroke="#000000" stroke-width="1" fill="none" stroke-dasharray="3,3"/>

<text x="250" y="40" style="font-size:15px;font-family:'Arial'">server</text>
<text x="310" y="40" style="font-size:15px;font-family:'Arial'">client</text>

<text x="40" y="30" style="font-size:15px;font-family:'Arial'">data files</text>
<text x="40" y="322" style="font-size:15px;font-family:'Arial'">wal files</text>

<text x="220" y="202" style="font-size:15px;font-family:'Arial'">hard disk</text>
<text x="310" y="202" style="font-size:13px;font-family:'Courier New'">pg_basebackup -t server:/var/data</text>

<g transform="translate(40, 40)">
<path d="M 0 5 a 5 5 0 0 1 5 -5 h 52 a 5 5 0 0 1 5 5 v 90 a 5 5 0 0 1 -5 5 h -52 a 5 5 0 0 1 -5 -5 v -90" stroke="#0000FF" stroke-width="1" fill="rgb(218,232,252)" />
<path d="M 10 20 h 42 " stroke="#0000FF" stroke-width="1"/>
<path d="M 10 30 h 42 " stroke="#0000FF" stroke-width="1"/>
<path d="M 10 40 h 42 " stroke="#0000FF" stroke-width="1"/>
<path d="M 10 50 h 42 " stroke="#0000FF" stroke-width="1"/>
<path d="M 10 60 h 42 " stroke="#0000FF" stroke-width="1"/>
<path d="M 10 70 h 42 " stroke="#0000FF" stroke-width="1"/>
<path d="M 10 80 h 42 " stroke="#0000FF" stroke-width="1"/>
</g>
<g transform="translate(50, 50)">
<path d="M 0 5 a 5 5 0 0 1 5 -5 h 52 a 5 5 0 0 1 5 5 v 90 a 5 5 0 0 1 -5 5 h -52 a 5 5 0 0 1 -5 -5 v -90" stroke="#0000FF" stroke-width="1" fill="rgb(218,232,252)" />
<path d="M 10 20 h 42 " stroke="#0000FF" stroke-width="1"/>
<path d="M 10 30 h 42 " stroke="#0000FF" stroke-width="1"/>
<path d="M 10 40 h 42 " stroke="#0000FF" stroke-width="1"/>
<path d="M 10 50 h 42 " stroke="#0000FF" stroke-width="1"/>
<path d="M 10 60 h 42 " stroke="#0000FF" stroke-width="1"/>
<path d="M 10 70 h 42 " stroke="#0000FF" stroke-width="1"/>
<path d="M 10 80 h 42 " stroke="#0000FF" stroke-width="1"/>
</g>
<g transform="translate(60, 60)">
<path d="M 0 5 a 5 5 0 0 1 5 -5 h 52 a 5 5 0 0 1 5 5 v 90 a 5 5 0 0 1 -5 5 h -52 a 5 5 0 0 1 -5 -5 v -90" stroke="#0000FF" stroke-width="1" fill="rgb(218,232,252)" />
<path d="M 10 20 h 42 " stroke="#0000FF" stroke-width="1"/>
<path d="M 10 30 h 42 " stroke="#0000FF" stroke-width="1"/>
<path d="M 10 40 h 42 " stroke="#0000FF" stroke-width="1"/>
<path d="M 10 50 h 42 " stroke="#0000FF" stroke-width="1"/>
<path d="M 10 60 h 42 " stroke="#0000FF" stroke-width="1"/>
<path d="M 10 70 h 42 " stroke="#0000FF" stroke-width="1"/>
<path d="M 10 80 h 42 " stroke="#0000FF" stroke-width="1"/>
</g>

<g transform="translate(60, 180)">
<path d="M 0 0 v 100 h 62 v -80 l -20 -20 h -42" stroke="#0000FF" stroke-width="1" fill="rgb(248,206,204)" />
<path d="M 42 0 v 20 h 20" stroke="#0000FF" stroke-width="1" fill="rgb(248,206,204)" />
<path d="M 10 40 h 42 " stroke="#0000FF" stroke-width="1"/>
<path d="M 10 50 h 42 " stroke="#0000FF" stroke-width="1"/>
<path d="M 10 60 h 42 " stroke="#0000FF" stroke-width="1"/>
<path d="M 10 70 h 42 " stroke="#0000FF" stroke-width="1"/>
</g>
<g transform="translate(50, 193)">
<path d="M 0 0 v 100 h 62 v -80 l -20 -20 h -42" stroke="#0000FF" stroke-width="1" fill="rgb(248,206,204)" />
<path d="M 42 0 v 20 h 20" stroke="#0000FF" stroke-width="1" fill="rgb(248,206,204)" />
<path d="M 10 40 h 42 " stroke="#0000FF" stroke-width="1"/>
<path d="M 10 50 h 42 " stroke="#0000FF" stroke-width="1"/>
<path d="M 10 60 h 42 " stroke="#0000FF" stroke-width="1"/>
<path d="M 10 70 h 42 " stroke="#0000FF" stroke-width="1"/>
</g>
<g transform="translate(40, 206)">
<path d="M 0 0 v 100 h 62 v -80 l -20 -20 h -42" stroke="#0000FF" stroke-width="1" fill="rgb(248,206,204)" />
<path d="M 42 0 v 20 h 20" stroke="#0000FF" stroke-width="1" fill="rgb(248,206,204)" />
<path d="M 10 40 h 42 " stroke="#0000FF" stroke-width="1"/>
<path d="M 10 50 h 42 " stroke="#0000FF" stroke-width="1"/>
<path d="M 10 60 h 42 " stroke="#0000FF" stroke-width="1"/>
<path d="M 10 70 h 42 " stroke="#0000FF" stroke-width="1"/>
</g>
</svg>
