<svg version="1.1" width="600" height="350" xmlns="http://www.w3.org/2000/svg">
<defs><marker id="arrowhead" markerWidth="10" markerHeight="7" refX="0" refY="3.5" orient="auto"><polygon points="0 0, 10 3.5, 0 7" /></marker></defs>

<circle cx="300" cy="30" r="15" style="fill:rgb(218,232,252);stroke:#0000FF;stroke-width:1" />
<text x="320" y="35" style="font-size:15px;font-family:'Arial'">0</text>

<path d="M 300 48 l -140 35 v 9" stroke="#000000" stroke-width="1" fill="none" marker-end="url(#arrowhead)" />
<path d="M 300 48 l 140 35 v 9" stroke="#000000" stroke-width="1" fill="none" marker-end="url(#arrowhead)" />

<circle cx="160" cy="120" r="15" style="fill:rgb(218,232,252);stroke:#0000FF;stroke-width:1" />
<circle cx="440" cy="120" r="15" style="fill:rgb(218,232,252);stroke:#0000FF;stroke-width:1" />
<text x="180" y="125" style="font-size:15px;font-family:'Arial'">1</text>
<text x="460" y="125" style="font-size:15px;font-family:'Arial'">2</text>

<circle cx="90" cy="210" r="15" style="fill:rgb(218,232,252);stroke:#0000FF;stroke-width:1" />
<circle cx="230" cy="210" r="15" style="fill:rgb(218,232,252);stroke:#0000FF;stroke-width:1" />
<circle cx="370" cy="210" r="15" style="fill:rgb(218,232,252);stroke:#0000FF;stroke-width:1" />
<circle cx="510" cy="210" r="15" style="fill:rgb(218,232,252);stroke:#0000FF;stroke-width:1" />

<text x="110" y="215" style="font-size:15px;font-family:'Arial'">3</text>
<text x="250" y="215" style="font-size:15px;font-family:'Arial'">4</text>
<text x="390" y="215" style="font-size:15px;font-family:'Arial'">5</text>
<text x="530" y="215" style="font-size:15px;font-family:'Arial'">6</text>

<path d="M 160 138 l -70 35 v 9" stroke="#000000" stroke-width="1" fill="none" marker-end="url(#arrowhead)" />
<path d="M 160 138 l 70 35 v 9" stroke="#000000" stroke-width="1" fill="none" marker-end="url(#arrowhead)" />

<path d="M 440 138 l -70 35 v 9" stroke="#000000" stroke-width="1" fill="none" marker-end="url(#arrowhead)" />
<path d="M 440 138 l 70 35 v 9" stroke="#000000" stroke-width="1" fill="none" marker-end="url(#arrowhead)" />

<circle cx="55" cy="300" r="15" style="fill:rgb(218,232,252);stroke:#0000FF;stroke-width:1" />
<circle cx="125" cy="300" r="15" style="fill:rgb(218,232,252);stroke:#0000FF;stroke-width:1" />
<circle cx="195" cy="300" r="15" style="fill:rgb(218,232,252);stroke:#0000FF;stroke-width:1" />
<circle cx="265" cy="300" r="15" style="fill:rgb(218,232,252);stroke:#0000FF;stroke-width:1" />
<circle cx="335" cy="300" r="15" style="fill:rgb(218,232,252);stroke:#0000FF;stroke-width:1" />
<circle cx="405" cy="300" r="15" style="fill:rgb(218,232,252);stroke:#0000FF;stroke-width:1" />
<circle cx="475" cy="300" r="15" style="fill:rgb(218,232,252);stroke:#0000FF;stroke-width:1" />
<circle cx="545" cy="300" r="15" style="fill:rgb(218,232,252);stroke:#0000FF;stroke-width:1" />

<text x="50" y="332" style="font-size:15px;font-family:'Arial'">7</text>
<text x="120" y="332" style="font-size:15px;font-family:'Arial'">8</text>
<text x="190" y="332" style="font-size:15px;font-family:'Arial'">9</text>
<text x="255" y="332" style="font-size:15px;font-family:'Arial'">10</text>
<text x="325" y="332" style="font-size:15px;font-family:'Arial'">11</text>
<text x="395" y="332" style="font-size:15px;font-family:'Arial'">12</text>
<text x="465" y="332" style="font-size:15px;font-family:'Arial'">13</text>
<text x="535" y="332" style="font-size:15px;font-family:'Arial'">14</text>

<text x="50" y="305" style="font-size:15px;font-family:'Courier New'">9</text>
<text x="120" y="305" style="font-size:15px;font-family:'Courier New'">0</text>
<text x="190" y="305" style="font-size:15px;font-family:'Courier New'">3</text>
<text x="255" y="305" style="font-size:15px;font-family:'Courier New'">65</text>
<text x="325" y="305" style="font-size:15px;font-family:'Courier New'">70</text>
<text x="395" y="305" style="font-size:15px;font-family:'Courier New'">56</text>
<text x="465" y="305" style="font-size:15px;font-family:'Courier New'">43</text>
<text x="535" y="305" style="font-size:15px;font-family:'Courier New'">41</text>

<text x="85" y="215" style="font-size:15px;font-family:'Courier New'">9</text>
<text x="220" y="215" style="font-size:15px;font-family:'Courier New'">65</text>
<text x="360" y="215" style="font-size:15px;font-family:'Courier New'">70</text>
<text x="500" y="215" style="font-size:15px;font-family:'Courier New'">43</text>

<text x="150" y="125" style="font-size:15px;font-family:'Courier New'">65</text>
<text x="430" y="125" style="font-size:15px;font-family:'Courier New'">70</text>

<text x="290" y="35" style="font-size:15px;font-family:'Courier New'">70</text>

<path d="M 90 228 l -35 35 v 9" stroke="#000000" stroke-width="1" fill="none" marker-end="url(#arrowhead)" />
<path d="M 90 228 l 35 35 v 9" stroke="#000000" stroke-width="1" fill="none" marker-end="url(#arrowhead)" />

<path d="M 230 228 l -35 35 v 9" stroke="#000000" stroke-width="1" fill="none" marker-end="url(#arrowhead)" />
<path d="M 230 228 l 35 35 v 9" stroke="#000000" stroke-width="1" fill="none" marker-end="url(#arrowhead)" />

<path d="M 370 228 l -35 35 v 9" stroke="#000000" stroke-width="1" fill="none" marker-end="url(#arrowhead)" />
<path d="M 370 228 l 35 35 v 9" stroke="#000000" stroke-width="1" fill="none" marker-end="url(#arrowhead)" />

<path d="M 510 228 l -35 35 v 9" stroke="#000000" stroke-width="1" fill="none" marker-end="url(#arrowhead)" />
<path d="M 510 228 l 35 35 v 9" stroke="#000000" stroke-width="1" fill="none" marker-end="url(#arrowhead)" />

  
</svg>
