<svg version="1.1" width="600" height="340" xmlns="http://www.w3.org/2000/svg">
<defs><marker id="arrowhead" markerWidth="10" markerHeight="7" refX="0" refY="3.5" orient="auto"><polygon points="0 0, 10 3.5, 0 7" /></marker></defs>

<path d="M 530 51 H 363" stroke="#000000" stroke-width="1" fill="none" marker-end="url(#arrowhead)" />
<path d="M 530 151 H 513" stroke="#000000" stroke-width="1" fill="none" marker-end="url(#arrowhead)" />
<text x="535" y="55" style="font-size:15px;font-family:'Arial'">Level 2</text>
<text x="535" y="155" style="font-size:15px;font-family:'Arial'">Level 1</text>

<text x="205" y="50" style="font-size:13px;font-family:'Arial'">page 0</text>
<rect x="250" y="20" width="100" height="62" style="fill:rgb(218,232,252);stroke:#0000FF;stroke-width:1" />
<path d="M 250 40 h 100" stroke="#0000FF" stroke-width="1" fill="none"/>
<path d="M 330 20 v 20" stroke="#0000FF" stroke-width="1" fill="none"/>
<path d="M 250 62 h 100" stroke="#0000FF" stroke-width="1" fill="none"/>
<path d="M 270 62 v 20" stroke="#0000FF" stroke-width="1" fill="none"/>
<path d="M 290 62 v 20" stroke="#0000FF" stroke-width="1" fill="none"/>
<path d="M 310 62 v 20" stroke="#0000FF" stroke-width="1" fill="none"/>
<path d="M 330 62 v 20" stroke="#0000FF" stroke-width="1" fill="none"/>

<path d="M 260 85 v 13 H 150 v 10" stroke="#000000" stroke-width="1" fill="none" marker-end="url(#arrowhead)" />
<path d="M 340 85 v 13 H 450 v 10" stroke="#000000" stroke-width="1" fill="none" marker-end="url(#arrowhead)" />

<text x="55" y="150" style="font-size:13px;font-family:'Arial'">page 1</text>
<rect x="100" y="120" width="100" height="62" style="fill:rgb(218,232,252);stroke:#0000FF;stroke-width:1" />
<path d="M 100 140 h 100" stroke="#0000FF" stroke-width="1" fill="none"/>
<path d="M 100 162 h 100" stroke="#0000FF" stroke-width="1" fill="none"/>
<path d="M 180 120 v 20" stroke="#0000FF" stroke-width="1" fill="none"/>
<path d="M 120 162 v 20" stroke="#0000FF" stroke-width="1" fill="none"/>
<path d="M 200 162 v 20" stroke="#0000FF" stroke-width="1" fill="none"/>
<path d="M 140 162 v 20" stroke="#0000FF" stroke-width="1" fill="none"/>
<path d="M 160 162 v 20" stroke="#0000FF" stroke-width="1" fill="none"/>
<path d="M 180 162 v 20" stroke="#0000FF" stroke-width="1" fill="none"/>

<path d="M 110 185 v 33 H 60 v 10" stroke="#000000" stroke-width="1" fill="none" marker-end="url(#arrowhead)" />
<path d="M 130 185 v 33 H 170 v 10" stroke="#000000" stroke-width="1" fill="none" marker-end="url(#arrowhead)" />
<path d="M 150 185 v 23 H 280 v 20" stroke="#000000" stroke-width="1" fill="none" marker-end="url(#arrowhead)" />
<path d="M 170 185 v 13 H 390 v 30" stroke="#000000" stroke-width="1" fill="none" marker-end="url(#arrowhead)" />

<rect x="400" y="120" width="100" height="62" style="fill:rgb(218,232,252);stroke:#0000FF;stroke-width:1" />
<path d="M 400 140 h 100" stroke="#0000FF" stroke-width="1" fill="none"/>
<path d="M 400 162 h 100" stroke="#0000FF" stroke-width="1" fill="none"/>
<path d="M 480 120 v 20" stroke="#0000FF" stroke-width="1" fill="none"/>
<path d="M 420 162 v 20" stroke="#0000FF" stroke-width="1" fill="none"/>
<path d="M 440 162 v 20" stroke="#0000FF" stroke-width="1" fill="none"/>
<path d="M 460 162 v 20" stroke="#0000FF" stroke-width="1" fill="none"/>
<path d="M 480 162 v 20" stroke="#0000FF" stroke-width="1" fill="none"/>
<path d="M 490 185 v 33 H 540 v 10" stroke="#000000" stroke-width="1" fill="none" marker-end="url(#arrowhead)" />

<text x="10" y="232" style="font-size:13px;font-family:'Arial'">page 2</text>
<text x="120" y="232" style="font-size:13px;font-family:'Arial'">page 3</text>
<text x="230" y="232" style="font-size:13px;font-family:'Arial'">page 4</text>
<text x="340" y="232" style="font-size:13px;font-family:'Arial'">page 5</text>
<rect x="10" y="240" width="100" height="62" style="fill:rgb(218,232,252);stroke:#0000FF;stroke-width:1" />
<path d="M 10 260 h 100" stroke="#0000FF" stroke-width="1" fill="none"/>
<path d="M 10 282 h 100" stroke="#0000FF" stroke-width="1" fill="none"/>
<path d="M 90 240 v 20" stroke="#0000FF" stroke-width="1" fill="none"/>
<path d="M 30 282 v 20" stroke="#0000FF" stroke-width="1" fill="none"/>
<path d="M 50 282 v 20" stroke="#0000FF" stroke-width="1" fill="none"/>
<path d="M 70 282 v 20" stroke="#0000FF" stroke-width="1" fill="none"/>
<path d="M 90 282 v 20" stroke="#0000FF" stroke-width="1" fill="none"/>

<rect x="120" y="240" width="100" height="62" style="fill:rgb(218,232,252);stroke:#0000FF;stroke-width:1" />
<path d="M 120 260 h 100" stroke="#0000FF" stroke-width="1" fill="none"/>
<path d="M 120 282 h 100" stroke="#0000FF" stroke-width="1" fill="none"/>
<path d="M 200 240 v 20" stroke="#0000FF" stroke-width="1" fill="none"/>
<path d="M 140 282 v 20" stroke="#0000FF" stroke-width="1" fill="none"/>
<path d="M 160 282 v 20" stroke="#0000FF" stroke-width="1" fill="none"/>
<path d="M 180 282 v 20" stroke="#0000FF" stroke-width="1" fill="none"/>
<path d="M 200 282 v 20" stroke="#0000FF" stroke-width="1" fill="none"/>

<rect x="230" y="240" width="100" height="62" style="fill:rgb(218,232,252);stroke:#0000FF;stroke-width:1" />
<path d="M 230 260 h 100" stroke="#0000FF" stroke-width="1" fill="none"/>
<path d="M 230 282 h 100" stroke="#0000FF" stroke-width="1" fill="none"/>
<path d="M 310 240 v 20" stroke="#0000FF" stroke-width="1" fill="none"/>
<path d="M 250 282 v 20" stroke="#0000FF" stroke-width="1" fill="none"/>
<path d="M 270 282 v 20" stroke="#0000FF" stroke-width="1" fill="none"/>
<path d="M 290 282 v 20" stroke="#0000FF" stroke-width="1" fill="none"/>
<path d="M 310 282 v 20" stroke="#0000FF" stroke-width="1" fill="none"/>

<rect x="340" y="240" width="100" height="62" style="fill:rgb(218,232,252);stroke:#0000FF;stroke-width:1" />
<path d="M 340 260 h 100" stroke="#0000FF" stroke-width="1" fill="none"/>
<path d="M 340 282 h 100" stroke="#0000FF" stroke-width="1" fill="none"/>
<path d="M 420 240 v 20" stroke="#0000FF" stroke-width="1" fill="none"/>
<path d="M 360 282 v 20" stroke="#0000FF" stroke-width="1" fill="none"/>
<path d="M 380 282 v 20" stroke="#0000FF" stroke-width="1" fill="none"/>
<path d="M 400 282 v 20" stroke="#0000FF" stroke-width="1" fill="none"/>
<path d="M 420 282 v 20" stroke="#0000FF" stroke-width="1" fill="none"/>

<rect x="490" y="240" width="100" height="62" style="fill:rgb(218,232,252);stroke:#0000FF;stroke-width:1" />
<path d="M 490 260 h 100" stroke="#0000FF" stroke-width="1" fill="none"/>
<path d="M 490 282 h 100" stroke="#0000FF" stroke-width="1" fill="none"/>
<path d="M 570 240 v 20" stroke="#0000FF" stroke-width="1" fill="none"/>
<path d="M 510 282 v 20" stroke="#0000FF" stroke-width="1" fill="none"/>
<path d="M 530 282 v 20" stroke="#0000FF" stroke-width="1" fill="none"/>
<path d="M 550 282 v 20" stroke="#0000FF" stroke-width="1" fill="none"/>
<path d="M 570 282 v 20" stroke="#0000FF" stroke-width="1" fill="none"/>

<path d="M 20 305 v 10" stroke="#000000" stroke-width="1" fill="none" marker-end="url(#arrowhead)" />
<path d="M 40 305 v 10" stroke="#000000" stroke-width="1" fill="none" marker-end="url(#arrowhead)" />
<path d="M 60 305 v 10" stroke="#000000" stroke-width="1" fill="none" marker-end="url(#arrowhead)" />
<path d="M 80 305 v 10" stroke="#000000" stroke-width="1" fill="none" marker-end="url(#arrowhead)" />
<path d="M 100 305 v 10" stroke="#000000" stroke-width="1" fill="none" marker-end="url(#arrowhead)" />

<path d="M 130 305 v 10" stroke="#000000" stroke-width="1" fill="none" marker-end="url(#arrowhead)" />
<path d="M 150 305 v 10" stroke="#000000" stroke-width="1" fill="none" marker-end="url(#arrowhead)" />
<path d="M 170 305 v 10" stroke="#000000" stroke-width="1" fill="none" marker-end="url(#arrowhead)" />
<path d="M 190 305 v 10" stroke="#000000" stroke-width="1" fill="none" marker-end="url(#arrowhead)" />
<path d="M 210 305 v 10" stroke="#000000" stroke-width="1" fill="none" marker-end="url(#arrowhead)" />

<path d="M 240 305 v 10" stroke="#000000" stroke-width="1" fill="none" marker-end="url(#arrowhead)" />
<path d="M 260 305 v 10" stroke="#000000" stroke-width="1" fill="none" marker-end="url(#arrowhead)" />
<path d="M 280 305 v 10" stroke="#000000" stroke-width="1" fill="none" marker-end="url(#arrowhead)" />
<path d="M 300 305 v 10" stroke="#000000" stroke-width="1" fill="none" marker-end="url(#arrowhead)" />
<path d="M 320 305 v 10" stroke="#000000" stroke-width="1" fill="none" marker-end="url(#arrowhead)" />

<path d="M 350 305 v 10" stroke="#000000" stroke-width="1" fill="none" marker-end="url(#arrowhead)" />
<path d="M 370 305 v 10" stroke="#000000" stroke-width="1" fill="none" marker-end="url(#arrowhead)" />
<path d="M 390 305 v 10" stroke="#000000" stroke-width="1" fill="none" marker-end="url(#arrowhead)" />
<path d="M 410 305 v 10" stroke="#000000" stroke-width="1" fill="none" marker-end="url(#arrowhead)" />
<path d="M 430 305 v 10" stroke="#000000" stroke-width="1" fill="none" marker-end="url(#arrowhead)" />

<path d="M 500 305 v 10" stroke="#000000" stroke-width="1" fill="none" marker-end="url(#arrowhead)" />
<path d="M 520 305 v 10" stroke="#000000" stroke-width="1" fill="none" marker-end="url(#arrowhead)" />
<path d="M 540 305 v 10" stroke="#000000" stroke-width="1" fill="none" marker-end="url(#arrowhead)" />
<path d="M 560 305 v 10" stroke="#000000" stroke-width="1" fill="none" marker-end="url(#arrowhead)" />
<path d="M 580 305 v 10" stroke="#000000" stroke-width="1" fill="none" marker-end="url(#arrowhead)" />

<text x="445" y="271" style="font-size:25px;font-family:'Arial'">......</text>
</svg>
