<svg version="1.1" width="600" height="450" xmlns="http://www.w3.org/2000/svg">
<defs><marker id="arrowhead" markerWidth="10" markerHeight="7" refX="0" refY="3.5" orient="auto"><polygon points="0 0, 10 3.5, 0 7" /></marker></defs>

<text x="165" y="50" style="font-size:15px;font-family:'Arial'">meta page</text>
<text x="165" y="120" style="font-size:15px;font-family:'Arial'">bucket page</text>
<text x="345" y="150" style="font-size:15px;font-family:'Arial'">overflow page</text>
<text x="445" y="400" style="font-size:15px;font-family:'Arial'">bitmap page</text>

<rect x="60" y="20" width="100" height="62" style="fill:rgb(227,200,0);stroke:#0000FF;stroke-width:1" />
<rect x="60" y="90" width="100" height="62" style="fill:#DAE8FC;stroke:#0000FF;stroke-width:1" />
<rect x="60" y="160" width="100" height="62" style="fill:#DAE8FC;stroke:#0000FF;stroke-width:1" />
<rect x="60" y="230" width="100" height="62" style="fill:#DAE8FC;stroke:#0000FF;stroke-width:1" />
<rect x="60" y="300" width="100" height="62" style="fill:#DAE8FC;stroke:#0000FF;stroke-width:1" />
<rect x="60" y="370" width="100" height="62" style="fill:#DAE8FC;stroke:#0000FF;stroke-width:1" />

<rect x="340" y="370" width="100" height="62" style="fill:rgb(213,232,212);stroke:#0000FF;stroke-width:1" />

<rect x="200" y="160" width="100" height="62" style="fill:#DAE8FC;stroke:#0000FF;stroke-width:1" />
<rect x="340" y="160" width="100" height="62" style="fill:#DAE8FC;stroke:#0000FF;stroke-width:1" />
<rect x="480" y="160" width="100" height="62" style="fill:#DAE8FC;stroke:#0000FF;stroke-width:1" />

<rect x="200" y="300" width="100" height="62" style="fill:#DAE8FC;stroke:#0000FF;stroke-width:1" />

<path d="M 163 186 h 24" stroke="#000000" stroke-width="1" fill="none" marker-end="url(#arrowhead)"/>
<path d="M 303 186 h 24" stroke="#000000" stroke-width="1" fill="none" marker-end="url(#arrowhead)"/>
<path d="M 443 186 h 24" stroke="#000000" stroke-width="1" fill="none" marker-end="url(#arrowhead)"/>
<path d="M 197 196 h -24" stroke="#000000" stroke-width="1" fill="none" marker-end="url(#arrowhead)"/>
<path d="M 337 196 h -24" stroke="#000000" stroke-width="1" fill="none" marker-end="url(#arrowhead)"/>
<path d="M 477 196 h -24" stroke="#000000" stroke-width="1" fill="none" marker-end="url(#arrowhead)"/>

<path d="M 163 326 h 24" stroke="#000000" stroke-width="1" fill="none" marker-end="url(#arrowhead)"/>
<path d="M 197 336 h -24" stroke="#000000" stroke-width="1" fill="none" marker-end="url(#arrowhead)"/>

<text x="105" y="55" style="font-size:15px;font-family:'Arial'">0</text>
<text x="105" y="125" style="font-size:15px;font-family:'Arial'">1</text>
<text x="105" y="195" style="font-size:15px;font-family:'Arial'">2</text>
<text x="105" y="265" style="font-size:15px;font-family:'Arial'">4</text>
<text x="105" y="335" style="font-size:15px;font-family:'Arial'">5</text>
</svg>
