<svg version="1.1" width="600" height="260" xmlns="http://www.w3.org/2000/svg">
<defs><marker id="arrowhead" markerWidth="10" markerHeight="7" refX="0" refY="3.5" orient="auto"><polygon points="0 0, 10 3.5, 0 7" /></marker></defs>

<rect x="10" y="40" width="100" height="62" style="fill:none;stroke:#0000FF;stroke-width:1" />
<rect x="10" y="40" width="80" height="20" style="fill:rgb(218,232,252);stroke:#0000FF;stroke-width:1" />
<rect x="30" y="60" width="50" height="20" style="fill:rgb(248,206,204);stroke:#0000FF;stroke-width:1" />

<rect x="10" y="110" width="100" height="62" style="fill:none;stroke:#0000FF;stroke-width:1" />
<rect x="10" y="110" width="80" height="20" style="fill:rgb(218,232,252);stroke:#0000FF;stroke-width:1" />
<rect x="10" y="130" width="60" height="20" style="fill:rgb(248,206,204);stroke:#0000FF;stroke-width:1" />

<rect x="10" y="180" width="100" height="62" style="fill:none;stroke:#0000FF;stroke-width:1" />
<rect x="10" y="180" width="80" height="20" style="fill:rgb(218,232,252);stroke:#0000FF;stroke-width:1" />
<rect x="40" y="222" width="70" height="20" style="fill:rgb(248,206,204);stroke:#0000FF;stroke-width:1" />

<rect x="150" y="40" width="100" height="62" style="fill:none;stroke:#0000FF;stroke-width:1" />
<rect x="150" y="40" width="80" height="20" style="fill:rgb(218,232,252);stroke:#0000FF;stroke-width:1" />

<rect x="350" y="40" width="100" height="62" style="fill:none;stroke:#0000FF;stroke-width:1;stroke-dasharray:2,2" />
<rect x="350" y="40" width="80" height="20" style="fill:rgb(218,232,252);stroke:#0000FF;stroke-width:1;stroke-dasharray:2,2" />
<path d="M 370 60 v 20 h 50 v -20" stroke="#0000FF" stroke-width="1" fill="none" stroke-dasharray="2,2"/>

<rect x="350" y="110" width="100" height="62" style="fill:none;stroke:#0000FF;stroke-width:1;stroke-dasharray:2,2" />
<rect x="350" y="110" width="80" height="20" style="fill:rgb(218,232,252);stroke:#0000FF;stroke-width:1;stroke-dasharray:2,2" />
<path d="M 350 150 h 60 v -20" stroke="#0000FF" stroke-width="1" fill="none" stroke-dasharray="2,2"/>

<rect x="350" y="180" width="100" height="62" style="fill:none;stroke:#0000FF;stroke-width:1;stroke-dasharray:2,2" />
<rect x="350" y="180" width="80" height="20" style="fill:rgb(218,232,252);stroke:#0000FF;stroke-width:1;stroke-dasharray:2,2" />
<rect x="380" y="222" width="70" height="20" style="fill:none;stroke:#0000FF;stroke-width:1;stroke-dasharray:2,2" />

<rect x="490" y="40" width="100" height="62" style="fill:none;stroke:#0000FF;stroke-width:1" />
<rect x="490" y="40" width="80" height="20" style="fill:rgb(218,232,252);stroke:#0000FF;stroke-width:1" />
<rect x="490" y="82" width="100" height="20" style="fill:rgb(248,206,204);stroke:#0000FF;stroke-width:1" />
<path d="M 540 82 v 20" stroke="#0000FF" stroke-width="1" fill="none"/>
<rect x="510" y="60" width="80" height="22" style="fill:rgb(248,206,204);stroke:#0000FF;stroke-width:1" />
<path d="M 580 60 v 22" stroke="#0000FF" stroke-width="1" fill="none"/>

<text x="45" y="75" style="font-size:13px;font-family:'Arial'">AA</text>
<text x="35" y="145" style="font-size:13px;font-family:'Arial'">BB</text>
<text x="70" y="235" style="font-size:13px;font-family:'Arial'">DD</text>

<text x="385" y="75" style="font-size:13px;font-family:'Arial'">AA</text>
<text x="375" y="145" style="font-size:13px;font-family:'Arial'">BB</text>
<text x="410" y="237" style="font-size:13px;font-family:'Arial'">DD</text>

<text x="555" y="97" style="font-size:13px;font-family:'Arial'">AA</text>
<text x="505" y="97" style="font-size:13px;font-family:'Arial'">BB</text>
<text x="535" y="77" style="font-size:13px;font-family:'Arial'">DD</text>

<path d="M 300 20 V 250" stroke="#000000" stroke-width="1" fill="none" stroke-dasharray="3,3"/>

<path d="M 260 141 H 330" stroke="#000000" stroke-width="1" fill="none" marker-end="url(#arrowhead)" />
</svg>
