<svg version="1.1" width="600" height="250" xmlns="http://www.w3.org/2000/svg">
<defs><marker id="arrowhead" markerWidth="10" markerHeight="7" refX="0" refY="3.5" orient="auto"><polygon points="0 0, 10 3.5, 0 7" /></marker></defs>

<rect x="40" y="40" width="100" height="31" style="fill:#DAE8FC;stroke:#0000FF;stroke-width:1" />
<rect x="40" y="40" width="50" height="31" style="fill:rgb(227,200,0);stroke:#0000FF;stroke-width:1" />

<rect x="40" y="120" width="200" height="31" style="fill:rgb(255,255,255);stroke:#0000FF;stroke-width:1" />
<rect x="40" y="120" width="50" height="31" style="fill:rgb(227,200,0);stroke:#0000FF;stroke-width:1" />
<path d="M 140 120 v 31" stroke="#0000FF" stroke-width="1" fill="none" />
<rect x="190" y="120" width="50" height="31" style="fill:#DAE8FC;stroke:#0000FF;stroke-width:1" />

<rect x="40" y="200" width="520" height="31" style="fill:rgb(255,255,255);stroke:#0000FF;stroke-width:1" />
<rect x="40" y="200" width="50" height="31" style="fill:rgb(227,200,0);stroke:#0000FF;stroke-width:1" />
<path d="M 140 200 v 31" stroke="#0000FF" stroke-width="1" fill="none" />
<path d="M 190 200 v 31" stroke="#0000FF" stroke-width="1" fill="none" />
<path d="M 240 200 v 31" stroke="#0000FF" stroke-width="1" fill="none" />
<rect x="340" y="200" width="50" height="31" style="fill:#DAE8FC;stroke:#0000FF;stroke-width:1" />
<path d="M 440 200 v 31" stroke="#0000FF" stroke-width="1" fill="none" />
<path d="M 490 200 v 31" stroke="#0000FF" stroke-width="1" fill="none" />

<path d="M 65 37 v -10 a 25 15 0 0 1 50 0" stroke="#000000" stroke-width="1" fill="none" stroke-dasharray="3,3" marker-end="url(#arrowhead)"/>

<path d="M 65 117 v -10 a 75 15 0 0 1 150 0" stroke="#000000" stroke-width="1" fill="none" stroke-dasharray="3,3" marker-end="url(#arrowhead)"/>

<path d="M 65 197 v -10 a 150 15 0 0 1 300 0" stroke="#000000" stroke-width="1" fill="none" stroke-dasharray="3,3" marker-end="url(#arrowhead)"/>

<text x="18" y="58" style="font-size:15px;font-family:'Arial'">(1)</text>
<text x="18" y="138" style="font-size:15px;font-family:'Arial'">(2)</text>
<text x="18" y="218" style="font-size:15px;font-family:'Arial'">(3)</text>
</svg>
