<svg version="1.1" width="600" height="240" xmlns="http://www.w3.org/2000/svg">
<defs><marker id="arrowhead" markerWidth="10" markerHeight="7" refX="0" refY="3.5" orient="auto"><polygon points="0 0, 10 3.5, 0 7" /></marker></defs>

<path d="M 300 20 V 230" stroke="#000000" stroke-width="1" fill="none" stroke-dasharray="3,3"/>
<path d="M 255 121 H 335" stroke="#000000" stroke-width="1" fill="none" marker-end="url(#arrowhead)" />

<rect x="150" y="20" width="100" height="62" style="fill:none;stroke:#0000FF;stroke-width:1" />
<rect x="150" y="20" width="80" height="20" style="fill:rgb(218,232,252);stroke:#0000FF;stroke-width:1" />
<rect x="150" y="40" width="80" height="20" style="fill:rgb(248,206,204);stroke:#0000FF;stroke-width:1" />

<rect x="150" y="90" width="100" height="62" style="fill:none;stroke:#0000FF;stroke-width:1" />
<rect x="150" y="90" width="80" height="20" style="fill:rgb(218,232,252);stroke:#0000FF;stroke-width:1" />
<rect x="180" y="120" width="40" height="20" style="fill:rgb(248,206,204);stroke:#0000FF;stroke-width:1" />

<rect x="150" y="160" width="100" height="62" style="fill:none;stroke:#0000FF;stroke-width:1" />
<rect x="150" y="160" width="80" height="20" style="fill:rgb(218,232,252);stroke:#0000FF;stroke-width:1" />
<rect x="160" y="202" width="60" height="20" style="fill:rgb(248,206,204);stroke:#0000FF;stroke-width:1" />

<rect x="350" y="20" width="100" height="62" style="fill:none;stroke:#0000FF;stroke-width:1" />
<rect x="350" y="20" width="80" height="20" style="fill:rgb(218,232,252);stroke:#0000FF;stroke-width:1" />
<rect x="370" y="62" width="80" height="20" style="fill:rgb(248,206,204);stroke:#0000FF;stroke-width:1" />

<rect x="350" y="90" width="100" height="62" style="fill:none;stroke:#0000FF;stroke-width:1" />
<rect x="350" y="90" width="80" height="20" style="fill:rgb(218,232,252);stroke:#0000FF;stroke-width:1" />
<rect x="410" y="132" width="40" height="20" style="fill:rgb(248,206,204);stroke:#0000FF;stroke-width:1" />

<rect x="350" y="160" width="100" height="62" style="fill:none;stroke:#0000FF;stroke-width:1" />
<rect x="350" y="160" width="80" height="20" style="fill:rgb(218,232,252);stroke:#0000FF;stroke-width:1" />
<rect x="390" y="202" width="60" height="20" style="fill:rgb(248,206,204);stroke:#0000FF;stroke-width:1" />
</svg>
