<svg version="1.1" width="600" height="160" xmlns="http://www.w3.org/2000/svg">
<defs><marker id="arrowhead" markerWidth="10" markerHeight="7" refX="0" refY="3.5" orient="auto"><polygon points="0 0, 10 3.5, 0 7" /></marker></defs>

<rect x="40" y="20" width="200" height="124" style="fill:none;stroke:#0000FF;stroke-width:1" />
<rect x="40" y="20" width="100" height="20" style="fill:#DAE8FC;stroke:#0000FF;stroke-width:1" />
<rect x="180" y="124" width="60" height="20" style="fill:rgb(227,200,0);stroke:#0000FF;stroke-width:1" />
<rect x="140" y="124" width="40" height="20" style="fill:rgb(213,232,212);stroke:#0000FF;stroke-width:1" />
<rect x="100" y="124" width="40" height="20" style="fill:rgb(213,232,212);stroke:#0000FF;stroke-width:1" />
<path d="M 140 40 h 40 v -20" stroke="#0000FF" stroke-width="1" fill="none" />
<path d="M 160 40 v -20" stroke="#0000FF" stroke-width="1" fill="none" />

<path d="M 150 30 v 50 l 10 20 v 12" stroke="#000000" stroke-width="1" fill="none" marker-end="url(#arrowhead)"/>
<path d="M 170 30 v 20 l -50 30 v 32" stroke="#000000" stroke-width="1" fill="none" marker-end="url(#arrowhead)"/>

<text x="150" y="139" style="font-size:15px;font-family:'Arial'">AA</text>
<text x="110" y="139" style="font-size:15px;font-family:'Arial'">CC</text>

<path d="M 460 40 h 60 v -20" stroke="#0000FF" stroke-width="1" fill="none" />
<path d="M 480 40 v -20" stroke="#0000FF" stroke-width="1" fill="none" />
<path d="M 500 40 v -20" stroke="#0000FF" stroke-width="1" fill="none" />
<rect x="360" y="20" width="200" height="124" style="fill:none;stroke:#0000FF;stroke-width:1" />
<rect x="360" y="20" width="100" height="20" style="fill:#DAE8FC;stroke:#0000FF;stroke-width:1" />
<rect x="500" y="124" width="60" height="20" style="fill:rgb(227,200,0);stroke:#0000FF;stroke-width:1" />
<rect x="460" y="124" width="40" height="20" style="fill:rgb(213,232,212);stroke:#0000FF;stroke-width:1" />
<rect x="420" y="124" width="40" height="20" style="fill:rgb(213,232,212);stroke:#0000FF;stroke-width:1" />
<rect x="380" y="124" width="40" height="20" style="fill:rgb(213,232,212);stroke:#0000FF;stroke-width:1" />
<text x="470" y="139" style="font-size:15px;font-family:'Arial'">AA</text>
<text x="430" y="139" style="font-size:15px;font-family:'Arial'">CC</text>
<text x="390" y="139" style="font-size:15px;font-family:'Arial'">BB</text>

<path d="M 470 30 v 50 l 10 20 v 12" stroke="#000000" stroke-width="1" fill="none" marker-end="url(#arrowhead)"/>
<path d="M 490 30 v 20 l -90 30 v 32" stroke="#000000" stroke-width="1" fill="none" marker-end="url(#arrowhead)"/>
<path d="M 510 30 v 40 l -70 30 v 12" stroke="#000000" stroke-width="1" fill="none" marker-end="url(#arrowhead)"/>

<path d="M 243 82 H 347" stroke="#000000" stroke-width="1" fill="none" marker-end="url(#arrowhead)"/>
</svg>
