<svg version="1.1" width="600" height="350" xmlns="http://www.w3.org/2000/svg">
<defs><marker id="arrowhead" markerWidth="10" markerHeight="7" refX="0" refY="3.5" orient="auto"><polygon points="0 0, 10 3.5, 0 7" /></marker></defs>

<rect x="460" y="20" width="100" height="62" style="fill:rgb(227,200,0);stroke:#0000FF;stroke-width:1" />
<rect x="460" y="82" width="100" height="124" style="fill:#DAE8FC;stroke:#0000FF;stroke-width:1" />
<rect x="460" y="206" width="100" height="124" style="fill:rgb(213,232,212);stroke:#0000FF;stroke-width:1" />
<path d="M 460 144 h 100" stroke="#0000FF" stroke-width="1" fill="none" />
<path d="M 460 268 h 100" stroke="#0000FF" stroke-width="1" fill="none" />

<text x="248" y="50" style="font-size:13px;font-family:'Arial'">Block 1 - RevMap</text>

<rect x="250" y="60" width="100" height="240" style="fill:#DAE8FC;stroke:#0000FF;stroke-width:1" />
<rect x="250" y="60" width="100" height="30" style="fill:rgb(27,161,226);stroke:#0000FF;stroke-width:1" />
<path d="M 250 120 h 100" stroke="#0000FF" stroke-width="1" fill="none" />
<path d="M 250 150 h 100" stroke="#0000FF" stroke-width="1" fill="none" />
<path d="M 250 180 h 100" stroke="#0000FF" stroke-width="1" fill="none" />
<path d="M 250 210 h 100" stroke="#0000FF" stroke-width="1" fill="none" />
<path d="M 250 240 h 100" stroke="#0000FF" stroke-width="1" fill="none" />

<text x="255" y="110" style="font-size:13px;font-family:'Arial'">TID[0]</text>
<text x="255" y="140" style="font-size:13px;font-family:'Arial'">TID[1]</text>
<text x="255" y="170" style="font-size:13px;font-family:'Arial'">TID[2]</text>
<text x="255" y="200" style="font-size:13px;font-family:'Arial'">TID[3]</text>
<text x="255" y="230" style="font-size:13px;font-family:'Arial'">TID[4]</text>
<text x="255" y="255" style="font-size:25px;font-family:'Arial'">......</text>

<path d="M 460 82 h -20 L 380 60 H 350" stroke="#000000" stroke-width="1" fill="none" stroke-dasharray="3,3" />
<path d="M 460 144 h -20 L 380 300 H 350" stroke="#000000" stroke-width="1" fill="none" stroke-dasharray="3,3" />

<path d="M 38 20 h -5 a 5 5 0 0 0 -5 5 v 65 a 5 5 0 0 1 -5 5 a 5 5 0 0 1 5 5 v 65 a 5 5 0 0 0 5 5 h 5" stroke="#000000" stroke-width="1" fill="none"/>

<path d="M 38 180 h -5 a 5 5 0 0 0 -5 5 v 65 a 5 5 0 0 1 -5 5 a 5 5 0 0 1 5 5 v 65 a 5 5 0 0 0 5 5 h 5" stroke="#000000" stroke-width="1" fill="none"/>

<rect x="250" y="270" width="100" height="30" style="fill:rgb(227,200,0);stroke:#0000FF;stroke-width:1" />
<rect x="40" y="20" width="100" height="150" style="fill:rgb(100,188,135);stroke:#0000FF;stroke-width:1" />
<path d="M 40 70 h 100" stroke="#0000FF" stroke-width="1" fill="none" />
<path d="M 40 120 h 100" stroke="#0000FF" stroke-width="1" fill="none" />

<rect x="40" y="180" width="100" height="150" style="fill:rgb(100,188,135);stroke:#0000FF;stroke-width:1" />
<path d="M 40 230 h 100" stroke="#0000FF" stroke-width="1" fill="none" />
<path d="M 40 280 h 100" stroke="#0000FF" stroke-width="1" fill="none" />

<path d="M 142 20 h 20 L 208 100 H 238" stroke="#000000" stroke-width="1" fill="none" marker-end="url(#arrowhead)"/>
<path d="M 142 170 h 20 L 208 110 H 238" stroke="#000000" stroke-width="1" fill="none" marker-end="url(#arrowhead)"/>

<path d="M 142 180 h 20 L 208 130 H 238" stroke="#000000" stroke-width="1" fill="none" marker-end="url(#arrowhead)"/>
<path d="M 142 330 h 20 L 208 140 H 238" stroke="#000000" stroke-width="1" fill="none" marker-end="url(#arrowhead)"/>

<path d="M 352 105 h 50 V 280 H 448" stroke="#000000" stroke-width="1" fill="none" marker-end="url(#arrowhead)"/>
<path d="M 352 135 h 30 V 220 H 448" stroke="#000000" stroke-width="1" fill="none" marker-end="url(#arrowhead)"/>
<path d="M 352 165 h 20 V 240 H 448" stroke="#000000" stroke-width="1" fill="none" marker-end="url(#arrowhead)"/>
<path d="M 352 195 h 10 V 260 H 448" stroke="#000000" stroke-width="1" fill="none" marker-end="url(#arrowhead)"/>

<path d="M 562 160 h 20 V 280 H 572" stroke="#000000" stroke-width="1" fill="none" marker-end="url(#arrowhead)"/>
<path d="M 562 180 h 30 V 300 H 572" stroke="#000000" stroke-width="1" fill="none" marker-end="url(#arrowhead)"/>

<text x="55" y="345" style="font-size:13px;font-family:'Arial'">Heap Table</text>
<text x="475" y="345" style="font-size:13px;font-family:'Arial'">BRIN Index</text>


</svg>
