<svg version="1.1" width="600" height="330" xmlns="http://www.w3.org/2000/svg">
<defs><marker id="arrowhead" markerWidth="10" markerHeight="7" refX="0" refY="3.5" orient="auto"><polygon points="0 0, 10 3.5, 0 7" /></marker></defs>

<rect x="114" y="20" width="372" height="100" style="fill:rgb(213,232,212);stroke:#0000FF;stroke-width:1" />
<rect x="114" y="20" width="62" height="100" style="fill:rgb(227,200,0);stroke:#0000FF;stroke-width:1" />
<rect x="176" y="20" width="124" height="100" style="fill:#DAE8FC;stroke:#0000FF;stroke-width:1" />
<path d="M 238 20 v 100" stroke="#0000FF" stroke-width="1" fill="none" />
<path d="M 362 20 v 100" stroke="#0000FF" stroke-width="1" fill="none" />
<path d="M 424 20 v 100" stroke="#0000FF" stroke-width="1" fill="none" />


<rect x="114" y="180" width="372" height="100" style="fill:rgb(213,232,212);stroke:#0000FF;stroke-width:1" />
<rect x="114" y="180" width="62" height="100" style="fill:rgb(227,200,0);stroke:#0000FF;stroke-width:1" />
<rect x="176" y="180" width="186" height="100" style="fill:#DAE8FC;stroke:#0000FF;stroke-width:1" />
<path d="M 238 180 v 100" stroke="#0000FF" stroke-width="1" fill="none" />
<path d="M 300 180 v 100" stroke="#0000FF" stroke-width="1" fill="none" />
<path d="M 424 180 v 100" stroke="#0000FF" stroke-width="1" fill="none" />
<path d="M 488 180 h 60 v 100 h -60" stroke="#0000FF" stroke-width="1" fill="none" stroke-dasharray="2,2" />

<path d="M 145 122 v 20 H 269 v -8" stroke="#000000" stroke-width="1" fill="none" marker-end="url(#arrowhead)"/>

<path d="M 145 178 v -20 H 321 v 8" stroke="#000000" stroke-width="1" fill="none" marker-end="url(#arrowhead)"/>

<path d="M 341 178 v -12 a 88 10 0 0 1 176 0" stroke="#000000" stroke-width="1" fill="none" stroke-dasharray="3,3" marker-end="url(#arrowhead)"/>

<path d="M 316 282 v 11 a 15 15 0 0 0 30 0 " stroke="#000000" stroke-width="1" fill="none" stroke-dasharray="3,3" marker-end="url(#arrowhead)"/>

<text x="360" y="150" style="font-size:13px;font-family:'Arial'">copy data to new page</text>
<text x="315" y="320" style="font-size:13px;font-family:'Arial'">reset</text>

<text x="142" y="70" style="font-size:15px;font-family:'Arial'">0</text>
<text x="204" y="70" style="font-size:15px;font-family:'Arial'">1</text>
<text x="266" y="70" style="font-size:15px;font-family:'Arial'">2</text>
<text x="328" y="70" style="font-size:15px;font-family:'Arial'">3</text>
<text x="390" y="70" style="font-size:15px;font-family:'Arial'">4</text>
<text x="452" y="70" style="font-size:15px;font-family:'Arial'">5</text>

<text x="142" y="230" style="font-size:15px;font-family:'Arial'">0</text>
<text x="204" y="230" style="font-size:15px;font-family:'Arial'">1</text>
<text x="266" y="230" style="font-size:15px;font-family:'Arial'">2</text>
<text x="328" y="230" style="font-size:15px;font-family:'Arial'">3</text>
<text x="390" y="230" style="font-size:15px;font-family:'Arial'">4</text>
<text x="452" y="230" style="font-size:15px;font-family:'Arial'">5</text>
<text x="514" y="230" style="font-size:15px;font-family:'Arial'">6</text>

</svg>
