<svg version="1.1" width="600" height="270" xmlns="http://www.w3.org/2000/svg">
<defs><marker id="arrowhead" markerWidth="10" markerHeight="7" refX="0" refY="3.5" orient="auto"><polygon points="0 0, 10 3.5, 0 7" /></marker></defs>

<rect x="20" y="40" width="62" height="100" style="fill:#DAE8FC;stroke:#0000FF;stroke-width:1" />
<rect x="85" y="40" width="62" height="100" style="fill:#DAE8FC;stroke:#0000FF;stroke-width:1" />
<rect x="150" y="40" width="62" height="100" style="fill:#DAE8FC;stroke:#0000FF;stroke-width:1" />
<rect x="215" y="40" width="62" height="100" style="fill:#DAE8FC;stroke:#0000FF;stroke-width:1" />

<text x="50" y="60" style="font-size:13px;font-family:'Arial'">0</text>
<text x="115" y="60" style="font-size:13px;font-family:'Arial'">1</text>
<text x="180" y="60" style="font-size:13px;font-family:'Arial'">2</text>
<text x="245" y="60" style="font-size:13px;font-family:'Arial'">3</text>

<rect x="518" y="40" width="62" height="100" style="fill:#DAE8FC;stroke:#0000FF;stroke-width:1" />
<rect x="453" y="40" width="62" height="100" style="fill:#DAE8FC;stroke:#0000FF;stroke-width:1" />
<rect x="388" y="40" width="62" height="100" style="fill:#DAE8FC;stroke:#0000FF;stroke-width:1" />
<rect x="323" y="40" width="62" height="100" style="fill:#DAE8FC;stroke:#0000FF;stroke-width:1" />

<text x="353" y="60" style="font-size:13px;font-family:'Arial'">4</text>
<text x="418" y="60" style="font-size:13px;font-family:'Arial'">5</text>
<text x="483" y="60" style="font-size:13px;font-family:'Arial'">6</text>
<text x="548" y="60" style="font-size:13px;font-family:'Arial'">7</text>

<path d="M 20 38 v -5 a 5 5 0 0 1 5 -5 h 119 a 5 5 0 0 0 5 -5 a 5 5 0 0 0 5 5 h 118 a 5 5 0 0 1 5 5 v 5" stroke="#000000" stroke-width="1" fill="none"/>

<path d="M 323 38 v -5 a 5 5 0 0 1 5 -5 h 119 a 5 5 0 0 0 5 -5 a 5 5 0 0 0 5 5 h 118 a 5 5 0 0 1 5 5 v 5" stroke="#000000" stroke-width="1" fill="none"/>

<text x="110" y="17" style="font-size:13px;font-family:'Arial'">block group 0</text>
<text x="413" y="17" style="font-size:13px;font-family:'Arial'">block group 1</text>

<rect x="235" y="200" width="60" height="50" style="fill:none;stroke:#0000FF;stroke-width:1" />
<rect x="305" y="200" width="60" height="50" style="fill:none;stroke:#0000FF;stroke-width:1" />
<text x="265" y="265" style="font-size:13px;font-family:'Arial'">0</text>
<text x="335" y="265" style="font-size:13px;font-family:'Arial'">1</text>

<text x="240" y="220" style="font-size:13px;font-family:'Arial'">min : 5</text>
<text x="240" y="240" style="font-size:13px;font-family:'Arial'">max : 13</text>

<text x="310" y="220" style="font-size:13px;font-family:'Arial'">min : 25</text>
<text x="310" y="240" style="font-size:13px;font-family:'Arial'">max : 71</text>

<path d="M 20 142 v 30 H 235 V 188" stroke="#000000" stroke-width="1" fill="none" marker-end="url(#arrowhead)"/>
<path d="M 277 142 v 20 L 295 170 v 18" stroke="#000000" stroke-width="1" fill="none" marker-end="url(#arrowhead)"/>

<path d="M 580 142 v 30 H 365 V 188" stroke="#000000" stroke-width="1" fill="none" marker-end="url(#arrowhead)"/>
<path d="M 323 142 v 20 L 305 170 v 18" stroke="#000000" stroke-width="1" fill="none" marker-end="url(#arrowhead)"/>

</svg>
