<svg version="1.1" width="600" height="220" xmlns="http://www.w3.org/2000/svg">
<defs><marker id="arrowhead" markerWidth="10" markerHeight="7" refX="0" refY="3.5" orient="auto"><polygon points="0 0, 10 3.5, 0 7" /></marker></defs>

<rect x="200" y="60" width="200" height="124" style="fill:none;stroke:#0000FF;stroke-width:1" />
<rect x="200" y="60" width="200" height="20" style="fill:#DAE8FC;stroke:#0000FF;stroke-width:1" />
<rect x="200" y="60" width="120" height="20" style="fill:rgb(27,161,226);stroke:#0000FF;stroke-width:1" />
<rect x="320" y="164" width="80" height="20" style="fill:rgb(227,200,0);stroke:#0000FF;stroke-width:1" />

<path d="M 320 58 v -5 a 5 5 0 0 1 5 -5 h 30 a 5 5 0 0 0 5 -5 a 5 5 0 0 0 5 5 h 30 a 5 5 0 0 1 5 5 v 5" stroke="#000000" stroke-width="1" fill="none" />

<path d="M 200 82 v 5 a 5 5 0 0 0 5 5 h 50 a 5 5 0 0 1 5 5 a 5 5 0 0 1 5 -5 h 50 a 5 5 0 0 0 5 -5 v -5" stroke="#000000" stroke-width="1" fill="none" />

<path d="M 320 186 v 5 a 5 5 0 0 0 5 5 h 30 a 5 5 0 0 1 5 5 a 5 5 0 0 1 5 -5 h 30 a 5 5 0 0 0 5 -5 v -5" stroke="#000000" stroke-width="1" fill="none" />

<text x="300" y="212" style="font-size:13px;font-family:'Courier New'">BrinSpecialSpace</text>
<text x="300" y="40" style="font-size:13px;font-family:'Courier New'">BrinMetaPageData</text>
<text x="210" y="107" style="font-size:13px;font-family:'Courier New'">PageHeaderData</text>
</svg>
