<svg version="1.1" width="600" height="210" xmlns="http://www.w3.org/2000/svg">
<defs><marker id="arrowhead" markerWidth="10" markerHeight="7" refX="0" refY="3.5" orient="auto"><polygon points="0 0, 10 3.5, 0 7" /></marker></defs>
<rect x="200" y="40" width="200" height="124" style="fill:none;stroke:#0000FF;stroke-width:1" />
<rect x="200" y="40" width="200" height="40" style="fill:#DAE8FC;stroke:#0000FF;stroke-width:1" />
<rect x="200" y="80" width="140" height="20" style="fill:#DAE8FC;stroke:#0000FF;stroke-width:1" />
<rect x="200" y="40" width="100" height="20" style="fill:rgb(27,161,226);stroke:#0000FF;stroke-width:1" />
<rect x="320" y="144" width="80" height="20" style="fill:rgb(227,200,0);stroke:#0000FF;stroke-width:1" />

<path d="M 300 60 h 100" stroke="#0000FF" stroke-width="1" fill="none" />
<path d="M 320 40 v 60" stroke="#0000FF" stroke-width="1" fill="none" />
<path d="M 340 40 v 40" stroke="#0000FF" stroke-width="1" fill="none" />
<path d="M 360 40 v 40" stroke="#0000FF" stroke-width="1" fill="none" />
<path d="M 380 40 v 40" stroke="#0000FF" stroke-width="1" fill="none" />
<path d="M 220 60 v 40" stroke="#0000FF" stroke-width="1" fill="none" />
<path d="M 240 60 v 40" stroke="#0000FF" stroke-width="1" fill="none" />
<path d="M 260 60 v 40" stroke="#0000FF" stroke-width="1" fill="none" />
<path d="M 280 60 v 40" stroke="#0000FF" stroke-width="1" fill="none" />
<path d="M 300 60 v 40" stroke="#0000FF" stroke-width="1" fill="none" />

<path d="M 380 144 v 20" stroke="#0000FF" stroke-width="1" fill="none" />
<path d="M 360 144 v 20" stroke="#0000FF" stroke-width="1" fill="none" />

<path d="M 200 38 v -5 a 5 5 0 0 1 5 -5 h 40 a 5 5 0 0 0 5 -5 a 5 5 0 0 0 5 5 h 40 a 5 5 0 0 1 5 5 v 5" stroke="#000000" stroke-width="1" fill="none" />
<path d="M 320 166 v 5 a 5 5 0 0 0 5 5 h 30 a 5 5 0 0 1 5 5 a 5 5 0 0 1 5 -5 h 30 a 5 5 0 0 0 5 -5 v -5" stroke="#000000" stroke-width="1" fill="none" />

<text x="300" y="195" style="font-size:13px;font-family:'Courier New'">BrinSpecialSpace</text>
<text x="200" y="18" style="font-size:13px;font-family:'Courier New'">PageHeaderData</text>
</svg>
