<svg version="1.1" width="600" height="190" xmlns="http://www.w3.org/2000/svg">
<defs><marker id="arrowhead" markerWidth="10" markerHeight="7" refX="0" refY="3.5" orient="auto"><polygon points="0 0, 10 3.5, 0 7" /></marker></defs>

<rect x="200" y="20" width="200" height="124" style="fill:none;stroke:#0000FF;stroke-width:1" />
<rect x="200" y="20" width="120" height="20" style="fill:rgb(27,161,226);stroke:#0000FF;stroke-width:1" />
<rect x="320" y="124" width="80" height="20" style="fill:rgb(227,200,0);stroke:#0000FF;stroke-width:1" />

<path d="M 200 42 v 5 a 5 5 0 0 0 5 5 h 50 a 5 5 0 0 1 5 5 a 5 5 0 0 1 5 -5 h 50 a 5 5 0 0 0 5 -5 v -5" stroke="#000000" stroke-width="1" fill="none" />

<path d="M 320 146 v 5 a 5 5 0 0 0 5 5 h 30 a 5 5 0 0 1 5 5 a 5 5 0 0 1 5 -5 h 30 a 5 5 0 0 0 5 -5 v -5" stroke="#000000" stroke-width="1" fill="none" />

<text x="300" y="172" style="font-size:13px;font-family:'Courier New'">BrinSpecialSpace</text>
<text x="210" y="67" style="font-size:13px;font-family:'Courier New'">PageHeaderData</text>

<path d="M 380 124 v 20" stroke="#0000FF" stroke-width="1" fill="none" />

<path d="M 420 80 h -30 v 31" stroke="#000000" stroke-width="1" fill="none" marker-end="url(#arrowhead)"/>
<text x="425" y="85" style="font-size:13px;font-family:'Arial'">type</text>
</svg>
