<svg version="1.1" width="600" height="310" xmlns="http://www.w3.org/2000/svg">
<defs><marker id="arrowhead" markerWidth="10" markerHeight="7" refX="0" refY="3.5" orient="auto"><polygon points="0 0, 10 3.5, 0 7" /></marker></defs>

<path d="M 100 30 a 10 10 0 0 1 10 -10 h 380 a 10 10 0 0 1 10 10 v 228 a 10 10 0 0 1 -10 10 h -380 a 10 10 0 0 1 -10 -10 v -228" stroke="#0000FF" stroke-width="1" fill="none" />
<rect x="110" y="30" width="100" height="200" style="fill:#DAE8FC;stroke:#0000FF;stroke-width:1" />
<rect x="220" y="30" width="100" height="200" style="fill:#DAE8FC;stroke:#0000FF;stroke-width:1" />
<rect x="330" y="30" width="160" height="200" style="fill:#DAE8FC;stroke:#0000FF;stroke-width:1" />

<path d="M 230 50 a 5 5 0 0 1 5 -5 h 230 a 5 5 0 0 1 5 5 v 60 a 5 5 0 0 1 -5 5 h -230 a 5 5 0 0 1 -5 -5 z" stroke="#0000FF" stroke-width="1" fill="rgb(255,242,202)" />
<path d="M 230 140 a 5 5 0 0 1 5 -5 h 230 a 5 5 0 0 1 5 5 v 60 a 5 5 0 0 1 -5 5 h -230 a 5 5 0 0 1 -5 -5 z" stroke="#0000FF" stroke-width="1" fill="rgb(255,242,202)" />

<text x="260" y="283" style="font-size:15px;font-family:'Arial'">database cluster</text>
<text x="310" y="85" style="font-size:15px;font-family:'Arial'">database A</text>
<text x="310" y="175" style="font-size:15px;font-family:'Arial'">database B</text>
<text x="355" y="245" style="font-size:15px;font-family:'Courier New'">my_tablespace</text>
<text x="120" y="245" style="font-size:15px;font-family:'Courier New'">pg_global</text>
<text x="225" y="245" style="font-size:15px;font-family:'Courier New'">pg_default</text>
</svg>
