<svg version="1.1" width="600" height="220" xmlns="http://www.w3.org/2000/svg">
<defs><marker id="arrowhead" markerWidth="10" markerHeight="7" refX="0" refY="3.5" orient="auto"><polygon points="0 0, 10 3.5, 0 7" /></marker></defs>

<path d="M 289 53 v 20 H 220 V 88 " stroke="#000000" stroke-width="1" fill="none" marker-end="url(#arrowhead)"/>
<path d="M 300 53 V 88 " stroke="#000000" stroke-width="1" fill="none" marker-end="url(#arrowhead)"/>
<path d="M 311 53 v 20 H 380 V 88 " stroke="#000000" stroke-width="1" fill="none" marker-end="url(#arrowhead)"/>

<path d="M 289 133 v 20 H 220 V 168 " stroke="#000000" stroke-width="1" fill="none" marker-end="url(#arrowhead)"/>
<path d="M 300 133 V 168 " stroke="#000000" stroke-width="1" fill="none" marker-end="url(#arrowhead)"/>
<path d="M 311 133 v 20 H 380 V 168 " stroke="#000000" stroke-width="1" fill="none" marker-end="url(#arrowhead)"/>

<path d="M 205 133 v 15 H 60 V 168 " stroke="#000000" stroke-width="1" fill="none" marker-end="url(#arrowhead)"/>
<path d="M 215 133 v 25 H 140 V 168 " stroke="#000000" stroke-width="1" fill="none" marker-end="url(#arrowhead)"/>

<path d="M 395 133 v 15 H 540 V 168 " stroke="#000000" stroke-width="1" fill="none" marker-end="url(#arrowhead)"/>
<path d="M 385 133 v 25 H 460 V 168 " stroke="#000000" stroke-width="1" fill="none" marker-end="url(#arrowhead)"/>


<rect x="275" y="20" width="50" height="31" style="fill:#DAE8FC;stroke:#0000FF;stroke-width:1" />
<text x="287" y="40" style="font-size:15px;font-family:'Arial'">root</text>

<rect x="275" y="100" width="50" height="31" style="fill:#DAE8FC;stroke:#0000FF;stroke-width:1" />
<rect x="195" y="100" width="50" height="31" style="fill:#DAE8FC;stroke:#0000FF;stroke-width:1" />
<rect x="355" y="100" width="50" height="31" style="fill:#DAE8FC;stroke:#0000FF;stroke-width:1" />

<rect x="275" y="180" width="50" height="31" style="fill:#DAE8FC;stroke:#0000FF;stroke-width:1" />
<rect x="195" y="180" width="50" height="31" style="fill:#DAE8FC;stroke:#0000FF;stroke-width:1" />
<rect x="115" y="180" width="50" height="31" style="fill:#DAE8FC;stroke:#0000FF;stroke-width:1" />
<rect x="35" y="180" width="50" height="31" style="fill:#DAE8FC;stroke:#0000FF;stroke-width:1" />

<rect x="355" y="180" width="50" height="31" style="fill:#DAE8FC;stroke:#0000FF;stroke-width:1" />
<rect x="435" y="180" width="50" height="31" style="fill:#DAE8FC;stroke:#0000FF;stroke-width:1" />
<rect x="515" y="180" width="50" height="31" style="fill:#DAE8FC;stroke:#0000FF;stroke-width:1" />

<text x="287" y="200" style="font-size:15px;font-family:'Arial'">leaf</text>
<text x="47" y="200" style="font-size:15px;font-family:'Arial'">leaf</text>
<text x="135" y="200" style="font-size:15px;font-family:'Arial'">C</text>
<text x="207" y="200" style="font-size:15px;font-family:'Arial'">leaf</text>
<text x="367" y="200" style="font-size:15px;font-family:'Arial'">leaf</text>
<text x="447" y="200" style="font-size:15px;font-family:'Arial'">leaf</text>
<text x="527" y="200" style="font-size:15px;font-family:'Arial'">leaf</text>

<text x="215" y="120" style="font-size:15px;font-family:'Arial'">A</text>
<text x="295" y="120" style="font-size:15px;font-family:'Arial'">B</text>
</svg>
