<svg version="1.1" width="600" height="230" xmlns="http://www.w3.org/2000/svg">
<defs><marker id="arrowhead" markerWidth="10" markerHeight="7" refX="0" refY="3.5" orient="auto"><polygon points="0 0, 10 3.5, 0 7" /></marker></defs>

<g transform="translate(-100, 20)">
<rect x="200" y="20" width="200" height="124" style="fill:none;stroke:#0000FF;stroke-width:1" />
<rect x="200" y="20" width="120" height="20" style="fill:rgb(27,161,226);stroke:#0000FF;stroke-width:1" />
<rect x="320" y="124" width="80" height="20" style="fill:rgb(227,200,0);stroke:#0000FF;stroke-width:1" />

<path d="M 200 18 v -5 a 5 5 0 0 1 5 -5 h 50 a 5 5 0 0 0 5 -5 a 5 5 0 0 0 5 5 h 50 a 5 5 0 0 1 5 5 v 5" stroke="#000000" stroke-width="1" fill="none" />

<path d="M 320 146 v 5 a 5 5 0 0 0 5 5 h 30 a 5 5 0 0 1 5 5 a 5 5 0 0 1 5 -5 h 30 a 5 5 0 0 0 5 -5 v -5" stroke="#000000" stroke-width="1" fill="none" />

<text x="318" y="175" style="font-size:13px;font-family:'Arial'">Special Space</text>
<text x="205" y="0" style="font-size:13px;font-family:'Courier New'">PageHeaderData</text>
</g>

<rect x="376" y="20" width="124" height="200" style="fill:#DAE8FC;stroke:#0000FF;stroke-width:1" />
<rect x="376" y="20" width="124" height="20" style="fill:rgb(27,161,226);stroke:#0000FF;stroke-width:1" />
<rect x="376" y="200" width="124" height="20" style="fill:rgb(227,200,0);stroke:#0000FF;stroke-width:1" />

<path d="M 376 60 h 124" stroke="#0000FF" stroke-width="1" fill="none" />
<path d="M 376 80 h 124" stroke="#0000FF" stroke-width="1" fill="none" />
<path d="M 376 100 h 124" stroke="#0000FF" stroke-width="1" fill="none" />
<path d="M 376 120 h 124" stroke="#0000FF" stroke-width="1" fill="none" />
<path d="M 376 140 h 124" stroke="#0000FF" stroke-width="1" fill="none" />
<path d="M 376 160 h 124" stroke="#0000FF" stroke-width="1" fill="none" />
<path d="M 376 180 h 124" stroke="#0000FF" stroke-width="1" fill="none" />

<path d="M 302 101 H 364" stroke="#000000" stroke-width="1" fill="none" marker-end="url(#arrowhead)"/>

<path d="M 502 40 h 5 a 5 5 0 0 1 5 5 v 70 a 5 5 0 0 0 5 5 a 5 5 0 0 0 -5 5 v 70 a 5 5 0 0 1 -5 5 h -5" stroke="#000000" stroke-width="1" fill="none" />

<text x="520" y="123" style="font-size:13px;font-family:'Arial'">index records</text>
  
</svg>
