<svg version="1.1" width="600" height="361" xmlns="http://www.w3.org/2000/svg" >
<defs><marker id="arrowhead" markerWidth="10" markerHeight="7" refX="0" refY="3.5" orient="auto"><polygon points="0 0, 10 3.5, 0 7" /></marker></defs>

<path id="bottomxline" d="M 10 360 h 580" stroke="#FFFFFF" stroke-width="1" fill="none" />

<text x="70" y="82" style="font-size:15px;font-family:'Arial'">K</text>
<text x="325" y="160" style="font-size:15px;font-family:'Arial'">H</text>
<g transform="translate(-10, 0)">
<rect x="70" y="90" width="30" height="180" style="fill:rgb(255,242,204);stroke:#0000FF;stroke-width:1" />
<path d="M 70 120 h 30" stroke="#0000FF" stroke-width="1" fill="none"/>
<path d="M 70 150 h 30" stroke="#0000FF" stroke-width="1" fill="none"/>
<path d="M 70 180 h 30" stroke="#0000FF" stroke-width="1" fill="none"/>
<path d="M 70 240 h 30" stroke="#0000FF" stroke-width="1" fill="none"/>
<rect x="160" y="140" width="80" height="80" style="fill:none;stroke:#0000FF;stroke-width:1" />
<text x="171" y="190" font-style="italic" style="font-size:50px;font-family:'Times New Roman'">f(x)</text>
<text x="375" y="120" font-style="italic" style="font-size:20px;font-family:'Times New Roman'">G(x)</text>

<path d="M 65 90 h -5 a 5 5 0 0 0 -5 5 v 80 a 5 5 0 0 1 -5 5 a 5 5 0 0 1 5 5 v 80 a 5 5 0 0 0 5 5 h 5" stroke="#000000" stroke-width="1" fill="none"/>
<text x="38" y="184" style="font-size:15px;font-family:'Arial'">n</text>

<path d="M 102 90 h 10 L 130 140 H 148" stroke="#000000" stroke-width="1" fill="none" marker-end="url(#arrowhead)" />
<path d="M 102 270 h 10 L 130 220 H 148" stroke="#000000" stroke-width="1" fill="none" marker-end="url(#arrowhead)" />
<path d="M 242 180 H 268" stroke="#000000" stroke-width="1" fill="none" marker-end="url(#arrowhead)" />
<rect x="280" y="165" width="120" height="30" style="fill:#DAE8FC;stroke:#0000FF;stroke-width:1" />
<path d="M 310 165 v 30 " stroke="#0000FF" stroke-width="1" fill="none"/>
<path d="M 340 165 v 30 " stroke="#0000FF" stroke-width="1" fill="none"/>
<path d="M 370 165 v 30 " stroke="#0000FF" stroke-width="1" fill="none"/>
</g>

<text x="62" y="210" style="font-size:30px;font-family:'Arial'">...</text>

<g transform="translate(-50, -10)">
<rect x="480" y="20" width="40" height="320" style="fill:rgb(255,242,204);stroke:#0000FF;stroke-width:1" />
<path d="M 480 60 h 40 " stroke="#0000FF" stroke-width="1" fill="none"/>
<path d="M 480 100 h 40 " stroke="#0000FF" stroke-width="1" fill="none"/>
<path d="M 480 140 h 40 " stroke="#0000FF" stroke-width="1" fill="none"/>
<path d="M 480 220 h 40 " stroke="#0000FF" stroke-width="1" fill="none"/>
<path d="M 480 260 h 40 " stroke="#0000FF" stroke-width="1" fill="none"/>
<path d="M 480 300 h 40 " stroke="#0000FF" stroke-width="1" fill="none"/>

<text x="525" y="190" style="font-size:15px;font-family:'Arial'">T</text>
<text x="495" y="45" style="font-size:15px;font-family:'Arial'">0</text>
<text x="495" y="85" style="font-size:15px;font-family:'Arial'">1</text>
<text x="495" y="125" style="font-size:15px;font-family:'Arial'">2</text>
<text x="488" y="245" style="font-size:15px;font-family:'Arial'">253</text>
<text x="488" y="285" style="font-size:15px;font-family:'Arial'">254</text>
<text x="488" y="325" style="font-size:15px;font-family:'Arial'">255</text>
</g>

<g transform="translate(510, 60)">
<rect x="0" y="0" width="20" height="80" style="fill:none;stroke:#0000FF;stroke-width:1" />
<rect x="0" y="0" width="20" height="20" style="fill:#DAE8FC;stroke:#0000FF;stroke-width:1" />
<rect x="0" y="20" width="20" height="20" style="fill:none;stroke:#0000FF;stroke-width:1" />
<text x="6" y="34" style="font-size:13px;font-family:'Arial'">K</text>
<text x="6" y="64" style="font-size:13px;font-family:'Arial'">V</text>
</g>
<g transform="translate(570, 60)">
<rect x="0" y="0" width="20" height="80" style="fill:none;stroke:#0000FF;stroke-width:1" />
<rect x="0" y="0" width="20" height="20" style="fill:#DAE8FC;stroke:#0000FF;stroke-width:1" />
<rect x="0" y="20" width="20" height="20" style="fill:none;stroke:#0000FF;stroke-width:1" />
<text x="6" y="34" style="font-size:13px;font-family:'Arial'">K</text>
<text x="6" y="64" style="font-size:13px;font-family:'Arial'">V</text>
</g>

<path d="M 460 70 H 498" stroke="#000000" stroke-width="1" fill="none" marker-end="url(#arrowhead)" />
<path d="M 520 70 H 558" stroke="#000000" stroke-width="1" fill="none" marker-end="url(#arrowhead)" />
<path d="M 380 180 h 25 v -100 H 418" stroke="#000000" stroke-width="1" fill="none" marker-end="url(#arrowhead)" />
</svg>
