<svg version="1.1" width="600" height="341" xmlns="http://www.w3.org/2000/svg" >
<defs><marker id="arrowhead" markerWidth="10" markerHeight="7" refX="0" refY="3.5" orient="auto"><polygon points="0 0, 10 3.5, 0 7" /></marker></defs>
<path id="bottomxline" d="M 10 340 h 580" stroke="#FFFFFF" stroke-width="1" fill="none" /> 
<g transform="translate(0, -10)">  
<path d="M 55 40 h -5 a 5 5 0 0 0 -5 5 v 130 a 5 5 0 0 1 -5 5 a 5 5 0 0 1 5 5 v 130 a 5 5 0 0 0 5 5 h 5" stroke="#000000" stroke-width="1" fill="none"/>

<text x="152" y="37" style="font-size:13px;font-family:'Courier New'">HASHELEMENT</text>
<text x="40" y="30" style="font-size:13px;font-family:'Courier New'">HASHBUCKET</text>

<text x="-20" y="200" style="font-size:13px;font-family:'Courier New'" transform="rotate(-90 20 185)">HASHSEGMENT</text>

<rect x="60" y="40" width="40" height="280" style="fill:none;stroke:#0000FF;stroke-width:1" />
<path d="M 60 80 h 40 " stroke="#0000FF" stroke-width="1" fill="none"/>
<path d="M 60 120 h 40 " stroke="#0000FF" stroke-width="1" fill="none"/>
<path d="M 60 160 h 40 " stroke="#0000FF" stroke-width="1" fill="none"/>
<path d="M 60 200 h 40 " stroke="#0000FF" stroke-width="1" fill="none"/>
<path d="M 60 280 h 40 " stroke="#0000FF" stroke-width="1" fill="none"/>

<g transform="translate(180, 45)">
<rect x="0" y="0" width="30" height="90" style="fill:#DAE8FC;stroke:#0000FF;stroke-width:1" />
<path d="M 0 30 h 30 " stroke="#0000FF" stroke-width="1" fill="none"/>
</g>
<g transform="translate(280, 45)">
<rect x="0" y="0" width="30" height="90" style="fill:#DAE8FC;stroke:#0000FF;stroke-width:1" />
<path d="M 0 30 h 30 " stroke="#0000FF" stroke-width="1" fill="none"/>
</g>
<g transform="translate(380, 45)">
<rect x="0" y="0" width="30" height="90" style="fill:#DAE8FC;stroke:#0000FF;stroke-width:1" />
<path d="M 0 30 h 30 " stroke="#0000FF" stroke-width="1" fill="none"/>
</g>

<g transform="translate(150, 165)">
<rect x="0" y="0" width="30" height="90" style="fill:#DAE8FC;stroke:#0000FF;stroke-width:1" />
<path d="M 0 30 h 30 " stroke="#0000FF" stroke-width="1" fill="none"/>
</g>
<g transform="translate(250, 165)">
<rect x="0" y="0" width="30" height="90" style="fill:#DAE8FC;stroke:#0000FF;stroke-width:1" />
<path d="M 0 30 h 30 " stroke="#0000FF" stroke-width="1" fill="none"/>
</g>

<g transform="translate(340, 230)">
<rect x="0" y="0" width="30" height="90" style="fill:#DAE8FC;stroke:#0000FF;stroke-width:1" />
<path d="M 0 30 h 30 " stroke="#0000FF" stroke-width="1" fill="none"/>
</g>

<g transform="translate(440, 230)">
<rect x="0" y="0" width="30" height="90" style="fill:#DAE8FC;stroke:#0000FF;stroke-width:1" />
<path d="M 0 30 h 30 " stroke="#0000FF" stroke-width="1" fill="none"/>
</g>

<path d="M 80 60 h 88" stroke="#000000" stroke-width="1" fill="none" marker-end="url(#arrowhead)" />
<path d="M 195 60 h 73" stroke="#000000" stroke-width="1" fill="none" marker-end="url(#arrowhead)" />
<path d="M 295 60 h 73" stroke="#000000" stroke-width="1" fill="none" marker-end="url(#arrowhead)" />

<path d="M 80 180 h 58" stroke="#000000" stroke-width="1" fill="none" marker-end="url(#arrowhead)" />
<path d="M 165 180 h 73" stroke="#000000" stroke-width="1" fill="none" marker-end="url(#arrowhead)" />

<path d="M 80 300 h 220 v -55 h 27" stroke="#000000" stroke-width="1" fill="none" marker-end="url(#arrowhead)" />
<path d="M 355 245 h 73" stroke="#000000" stroke-width="1" fill="none" marker-end="url(#arrowhead)" />
  </g>
</svg>
