<svg version="1.1" width="600" height="360" xmlns="http://www.w3.org/2000/svg" >
<defs><marker id="arrowhead" markerWidth="10" markerHeight="7" refX="0" refY="3.5" orient="auto"><polygon points="0 0, 10 3.5, 0 7" /></marker></defs>
<g transform="translate(0, -50)">
<text x="40" y="395" style="font-size:15px;font-family:'Arial'">data file</text>
<text x="40" y="315" style="font-size:15px;font-family:'Arial'">WAL file</text>
<text x="40" y="118" style="font-size:15px;font-family:'Arial'">shared buffer</text>

<path d="M 10 100 H 570 " stroke="#000000" stroke-width="1" fill="none" marker-end="url(#arrowhead)" />
<path d="M 10 200 H 580 " stroke="#000000" stroke-width="1" fill="none" stroke-dasharray="3,3"/>
<path d="M 10 298 H 570 " stroke="#000000" stroke-width="1" fill="none" marker-end="url(#arrowhead)" />
<path d="M 10 380 H 570 " stroke="#000000" stroke-width="1" fill="none" marker-end="url(#arrowhead)" />
<path d="M 34 80 V 400" stroke="#000000" stroke-width="1" fill="none" stroke-dasharray="3,3"/>
<text x="5" y="75" style="font-size:13px;font-family:'Arial'">RedoPoint</text>

<path d="M 190 310 V 180" stroke="#000000" stroke-width="1" fill="none" marker-end="url(#arrowhead)" />

<path d="M 242 136 h 36" stroke="#000000" stroke-width="1" fill="none" marker-end="url(#arrowhead)" />
<path d="M 392 136 h 36" stroke="#000000" stroke-width="1" fill="none" marker-end="url(#arrowhead)" />

<path d="M 340 230 V 178" stroke="#000000" stroke-width="1" fill="none" marker-end="url(#arrowhead)" />
<path d="M 490 273 V 178" stroke="#000000" stroke-width="1" fill="none" marker-end="url(#arrowhead)" />

<rect x="50" y="275" width="80" height="20" style="fill:none;stroke:#0000FF;stroke-width:1" />
<text x="56" y="290" style="font-size:13px;font-family:'Arial'">CheckPoint</text>
<path d="M 90 270 a 28 28 0 0 0 -56 0 v 15" stroke="#000000" stroke-width="1" fill="none" marker-end="url(#arrowhead)" />

<rect x="450" y="275" width="80" height="20" style="fill:none;stroke:#0000FF;stroke-width:1" />
<rect x="450" y="275" width="20" height="20" style="fill:rgb(248,206,204);stroke:#0000FF;stroke-width:1" />
<text x="474" y="290" style="font-size:13px;font-family:'Arial'">COMMIT</text>
<text x="456" y="290" style="font-size:13px;font-family:'Arial'">C</text>

<rect x="450" y="275" width="80" height="20" style="fill:none;stroke:#0000FF;stroke-width:1" />
<rect x="450" y="275" width="20" height="20" style="fill:rgb(248,206,204);stroke:#0000FF;stroke-width:1" />
<text x="474" y="290" style="font-size:13px;font-family:'Arial'">COMMIT</text>
<text x="456" y="290" style="font-size:13px;font-family:'Arial'">C</text>

<g transform="translate(440, 104)">
<rect x="0" y="0" width="100" height="62" style="fill:none;stroke:#0000FF;stroke-width:1" />
<rect x="0" y="0" width="45" height="20" style="fill:rgb(255,242,204);stroke:#0000FF;stroke-width:1" />
<rect x="70" y="42" width="30" height="20" style="fill:none;stroke:#0000FF;stroke-width:1" />
<rect x="50" y="42" width="20" height="20" style="fill:rgb(248,206,204);stroke:#0000FF;stroke-width:1" />
<text x="56" y="57" style="font-size:13px;font-family:'Arial'">A</text>
<rect x="30" y="42" width="20" height="20" style="fill:rgb(248,206,204);stroke:#0000FF;stroke-width:1" />
<text x="36" y="57" style="font-size:13px;font-family:'Arial'">B</text>
<rect x="10" y="42" width="20" height="20" style="fill:rgb(248,206,204);stroke:#0000FF;stroke-width:1" />
<text x="16" y="57" style="font-size:13px;font-family:'Arial'">C</text>
<text x="5" y="15" style="font-size:13px;font-family:'Arial'">LSN 2</text>
</g>

<g transform="translate(140, 313)">
<rect x="0" y="0" width="100" height="62" style="fill:#D0D0D0;stroke:#0000FF;stroke-width:1" />
<text x="25" y="35" style="font-size:13px;font-family:'Arial'">Corrupted</text>
</g>
<g transform="translate(140, 104)">
<rect x="0" y="0" width="100" height="62" style="fill:#D0D0D0;stroke:#0000FF;stroke-width:1" />
<text x="25" y="35" style="font-size:13px;font-family:'Arial'">Corrupted</text>
</g>

<g transform="translate(290, 104)">
<rect x="0" y="0" width="100" height="62" style="fill:none;stroke:#0000FF;stroke-width:1" />
<rect x="0" y="0" width="45" height="20" style="fill:rgb(255,242,204);stroke:#0000FF;stroke-width:1" />
<rect x="70" y="42" width="30" height="20" style="fill:none;stroke:#0000FF;stroke-width:1" />
<rect x="50" y="42" width="20" height="20" style="fill:rgb(248,206,204);stroke:#0000FF;stroke-width:1" />
<text x="56" y="57" style="font-size:13px;font-family:'Arial'">A</text>
<rect x="30" y="42" width="20" height="20" style="fill:rgb(248,206,204);stroke:#0000FF;stroke-width:1" />
<text x="36" y="57" style="font-size:13px;font-family:'Arial'">B</text>
<text x="5" y="15" style="font-size:13px;font-family:'Arial'">LSN 1</text>
</g>
<g transform="translate(290, 233)">
<rect x="0" y="0" width="100" height="62" style="fill:none;stroke:#0000FF;stroke-width:1" />
<rect x="0" y="0" width="45" height="20" style="fill:rgb(255,242,204);stroke:#0000FF;stroke-width:1" />
<rect x="70" y="42" width="30" height="20" style="fill:none;stroke:#0000FF;stroke-width:1" />
<rect x="50" y="42" width="20" height="20" style="fill:rgb(248,206,204);stroke:#0000FF;stroke-width:1" />
<text x="56" y="57" style="font-size:13px;font-family:'Arial'">A</text>
<rect x="30" y="42" width="20" height="20" style="fill:rgb(248,206,204);stroke:#0000FF;stroke-width:1" />
<text x="36" y="57" style="font-size:13px;font-family:'Arial'">B</text>
<text x="5" y="15" style="font-size:13px;font-family:'Arial'">LSN 1</text>
</g>
  
<text x="306" y="315" style="font-size:13px;font-family:'Arial'">FPI / backup block</text>
<text x="433" y="335" style="font-size:13px;font-family:'Arial'">LSN 2</text>
<path d="M 450 320 V 310" stroke="#000000" stroke-width="1" fill="none" marker-end="url(#arrowhead)" />
<path d="M 290 320 V 310" stroke="#000000" stroke-width="1" fill="none" marker-end="url(#arrowhead)" />
<text x="273" y="335" style="font-size:13px;font-family:'Arial'">LSN 1</text>
</g>
</svg>
