<svg version="1.1" width="600" height="330" xmlns="http://www.w3.org/2000/svg" >
<defs><marker id="arrowhead" markerWidth="10" markerHeight="7" refX="0" refY="3.5" orient="auto"><polygon points="0 0, 10 3.5, 0 7" /></marker></defs>

<g transform="translate(20, 0)">
<rect x="60" y="40" width="40" height="280" style="fill:rgb(255,242,204);stroke:#0000FF;stroke-width:1" />
<path d="M 60 80 h 40 " stroke="#0000FF" stroke-width="1" fill="none"/>
<path d="M 60 120 h 40 " stroke="#0000FF" stroke-width="1" fill="none"/>
<path d="M 60 160 h 40 " stroke="#0000FF" stroke-width="1" fill="none"/>
<path d="M 60 200 h 40 " stroke="#0000FF" stroke-width="1" fill="none"/>
<path d="M 60 240 h 40 " stroke="#0000FF" stroke-width="1" fill="none"/>
<path d="M 60 280 h 40 " stroke="#0000FF" stroke-width="1" fill="none"/>
<text x="65" y="263" style="font-size:35px;font-family:'Arial'">...</text>

<text x="75" y="65" style="font-size:15px;font-family:'Arial'">0</text>
<text x="75" y="105" style="font-size:15px;font-family:'Arial'">1</text>
<text x="75" y="145" style="font-size:15px;font-family:'Arial'">2</text>
<text x="75" y="185" style="font-size:15px;font-family:'Arial'">3</text>
<text x="75" y="225" style="font-size:15px;font-family:'Arial'">4</text>
<text x="68" y="305" style="font-size:15px;font-family:'Arial'">255</text>

<path d="M 102 220 h 16" stroke="#000000" stroke-width="1" fill="none" marker-end="url(#arrowhead)" />
<text x="130" y="224" style="font-size:13px;font-family:'Courier New'">NULL</text>
<path d="M 102 300 h 16" stroke="#000000" stroke-width="1" fill="none" marker-end="url(#arrowhead)" />
<text x="130" y="304" style="font-size:13px;font-family:'Courier New'">NULL</text>

<g transform="translate(0, 0)">
<path d="M 102 60 h 46" stroke="#000000" stroke-width="1" fill="none" marker-end="url(#arrowhead)" />
<rect x="160" y="50" width="280" height="20" style="fill:#DAE8FC;stroke:#0000FF;stroke-width:1" />
<path d="M 200 50 v 20 " stroke="#0000FF" stroke-width="1" fill="none"/>
<path d="M 240 50 v 20 " stroke="#0000FF" stroke-width="1" fill="none"/>
<path d="M 280 50 v 20 " stroke="#0000FF" stroke-width="1" fill="none"/>
<path d="M 400 50 v 20 " stroke="#0000FF" stroke-width="1" fill="none"/>
<text x="177" y="65" style="font-size:13px;font-family:'Arial'">0</text>
<text x="217" y="65" style="font-size:13px;font-family:'Arial'">1</text>
<text x="257" y="65" style="font-size:13px;font-family:'Arial'">2</text>
<text x="408" y="65" style="font-size:13px;font-family:'Arial'">255</text>
<text x="310" y="62" style="font-size:35px;font-family:'Arial'">......</text>
</g>

<g transform="translate(0, 40)">
<path d="M 102 60 h 46" stroke="#000000" stroke-width="1" fill="none" marker-end="url(#arrowhead)" />
<rect x="160" y="50" width="280" height="20" style="fill:#DAE8FC;stroke:#0000FF;stroke-width:1" />
<path d="M 200 50 v 20 " stroke="#0000FF" stroke-width="1" fill="none"/>
<path d="M 240 50 v 20 " stroke="#0000FF" stroke-width="1" fill="none"/>
<path d="M 280 50 v 20 " stroke="#0000FF" stroke-width="1" fill="none"/>
<path d="M 400 50 v 20 " stroke="#0000FF" stroke-width="1" fill="none"/>
<text x="170" y="65" style="font-size:13px;font-family:'Arial'">256</text>
<text x="210" y="65" style="font-size:13px;font-family:'Arial'">257</text>
<text x="250" y="65" style="font-size:13px;font-family:'Arial'">258</text>
<text x="410" y="65" style="font-size:13px;font-family:'Arial'">511</text>
<text x="310" y="62" style="font-size:35px;font-family:'Arial'">......</text>
</g>

<g transform="translate(0, 80)">
<path d="M 102 60 h 46" stroke="#000000" stroke-width="1" fill="none" marker-end="url(#arrowhead)" />
<rect x="160" y="50" width="280" height="20" style="fill:#DAE8FC;stroke:#0000FF;stroke-width:1" />
<path d="M 200 50 v 20 " stroke="#0000FF" stroke-width="1" fill="none"/>
<path d="M 240 50 v 20 " stroke="#0000FF" stroke-width="1" fill="none"/>
<path d="M 280 50 v 20 " stroke="#0000FF" stroke-width="1" fill="none"/>
<path d="M 400 50 v 20 " stroke="#0000FF" stroke-width="1" fill="none"/>
<text x="170" y="65" style="font-size:13px;font-family:'Arial'">512</text>
<text x="210" y="65" style="font-size:13px;font-family:'Arial'">513</text>
<text x="250" y="65" style="font-size:13px;font-family:'Arial'">514</text>
<text x="410" y="65" style="font-size:13px;font-family:'Arial'">767</text>
<text x="310" y="62" style="font-size:35px;font-family:'Arial'">......</text>
</g>
<g transform="translate(0, 120)">
<path d="M 102 60 h 46" stroke="#000000" stroke-width="1" fill="none" marker-end="url(#arrowhead)" />
<rect x="160" y="50" width="280" height="20" style="fill:#DAE8FC;stroke:#0000FF;stroke-width:1" />
<path d="M 200 50 v 20 " stroke="#0000FF" stroke-width="1" fill="none"/>
<path d="M 240 50 v 20 " stroke="#0000FF" stroke-width="1" fill="none"/>
<path d="M 280 50 v 20 " stroke="#0000FF" stroke-width="1" fill="none"/>
<path d="M 400 50 v 20 " stroke="#0000FF" stroke-width="1" fill="none"/>
<text x="170" y="65" style="font-size:13px;font-family:'Arial'">768</text>
<text x="210" y="65" style="font-size:13px;font-family:'Arial'">769</text>
<text x="250" y="65" style="font-size:13px;font-family:'Arial'">770</text>
<text x="406" y="65" style="font-size:13px;font-family:'Arial'">1023</text>
<text x="310" y="62" style="font-size:35px;font-family:'Arial'">......</text>
</g>

<path d="M 260 220 v -18" stroke="#000000" stroke-width="1" fill="none" marker-end="url(#arrowhead)" />
<text x="220" y="233" style="font-size:13px;font-family:'Courier New'">max_bucket</text>

<path d="M 265 210 h 80" stroke="#000000" stroke-width="1" fill="none" marker-end="url(#arrowhead)" stroke-dasharray="3,3" />

<path d="M 55 40 h -5 a 5 5 0 0 0 -5 5 v 130 a 5 5 0 0 1 -5 5 a 5 5 0 0 1 5 5 v 130 a 5 5 0 0 0 5 5 h 5" stroke="#000000" stroke-width="1" fill="none"/>

<path d="M 445 50 h 5 a 5 5 0 0 1 5 5 v 60 a 5 5 0 0 0 5 5 a 5 5 0 0 0 -5 5 v 60 a 5 5 0 0 1 -5 5 h -5" stroke="#000000" stroke-width="1" fill="none"/>

<path d="M 160 45 v -5 a 5 5 0 0 1 5 -5 h 130 a 5 5 0 0 0 5 -5 a 5 5 0 0 0 5 5 h 130 a 5 5 0 0 1 5 5 v 5" stroke="#000000" stroke-width="1" fill="none"/>
<text x="240" y="25" style="font-size:13px;font-family:'Courier New'">ssize = 2^sshift</text>
<text x="-5" y="183" style="font-size:13px;font-family:'Courier New'">dsize</text>
<text x="465" y="123" style="font-size:13px;font-family:'Courier New'">nsegs</text>
</g>
</svg>
