<svg version="1.1" width="600" height="220" xmlns="http://www.w3.org/2000/svg" >
<defs><marker id="arrowhead" markerWidth="10" markerHeight="7" refX="0" refY="3.5" orient="auto"><polygon points="0 0, 10 3.5, 0 7" /></marker></defs>

<g transform="translate(0, -15)">
<rect x="250" y="40" width="100" height="62" style="fill:none;stroke:#0000FF;stroke-width:1" />
<rect x="250" y="40" width="70" height="10" style="fill:rgb(27,161,226);stroke:#0000FF;stroke-width:1" />
<rect x="320" y="40" width="20" height="10" style="fill:#DAE8FC;stroke:#0000FF;stroke-width:1" />
<rect x="260" y="92" width="90" height="10" style="fill:#DAE8FC;stroke:#0000FF;stroke-width:1" />
<path d="M 330 40 v 10" stroke="#0000FF" stroke-width="1" fill="none"/>
<path d="M 300 92 v 10" stroke="#0000FF" stroke-width="1" fill="none"/>

<path d="M 352 40 h 5 a 5 5 0 0 1 5 5 v 21 a 5 5 0 0 0 5 5 a 5 5 0 0 0 -5 5 v 21 a 5 5 0 0 1 -5 5 h -5" stroke="#000000" stroke-width="1" fill="none"/>

<text x="290" y="76" style="font-size:13px;font-family:'Arial'">hole</text>
<text x="370" y="76" style="font-size:13px;font-family:'Arial'">8K</text>
<text x="267" y="32" style="font-size:15px;font-family:'Arial'">Date Page</text>

<rect x="110" y="160" width="400" height="20" style="fill:rgb(255,242,204);stroke:#0000FF;stroke-width:1" />
<path d="M 170 160 v 20" stroke="#0000FF" stroke-width="1" fill="none"/>
<path d="M 190 160 v 20" stroke="#0000FF" stroke-width="1" fill="none"/>
<path d="M 210 160 v 20" stroke="#0000FF" stroke-width="1" fill="none"/>
<path d="M 250 160 v 20" stroke="#0000FF" stroke-width="1" fill="none"/>

<path d="M 140 135 V 148" stroke="#000000" stroke-width="1" fill="none" marker-end="url(#arrowhead)" />
<path d="M 200 110 V 148" stroke="#000000" stroke-width="1" fill="none" marker-end="url(#arrowhead)" />
<path d="M 180 205 V 192" stroke="#000000" stroke-width="1" fill="none" marker-end="url(#arrowhead)" />
<path d="M 230 205 V 192" stroke="#000000" stroke-width="1" fill="none" marker-end="url(#arrowhead)" />

<path d="M 250 105 V 148" stroke="#000000" stroke-width="1" fill="none" marker-end="url(#arrowhead)" stroke-dasharray="3,3"/>
<path d="M 350 105 v 25 h 160 V 148" stroke="#000000" stroke-width="1" fill="none" marker-end="url(#arrowhead)" stroke-dasharray="3,3"/>

<text x="100" y="130" style="font-size:13px;font-family:'Courier New'">XLogRecord</text>
<text x="30" y="220" style="font-size:13px;font-family:'Courier New'">XLogRecordBlockHeader</text>
<text x="30" y="105" style="font-size:13px;font-family:'Courier New'">XLogRecordBlockImageHeader</text>
<text x="220" y="220" style="font-size:13px;font-family:'Courier New'">RelFileNode + BlockNumber</text>
<text x="310" y="174" style="font-size:13px;font-family:'Arial'">page data and others</text>
<text x="135" y="175" style="font-size:13px;font-family:'Arial'">24</text>
<text x="176" y="175" style="font-size:13px;font-family:'Arial'">4</text>
<text x="196" y="175" style="font-size:13px;font-family:'Arial'">5</text>
<text x="221" y="175" style="font-size:13px;font-family:'Arial'">16</text>

<text x="400" y="197" style="font-size:13px;font-family:'Arial'">WAL backup block / FPI</text>
</g>
</svg>
