<svg version="1.1" width="600" height="280" xmlns="http://www.w3.org/2000/svg" >
<defs><marker id="arrowhead" markerWidth="10" markerHeight="7" refX="0" refY="3.5" orient="auto"><polygon points="0 0, 10 3.5, 0 7" /></marker></defs>


<path d="M 160 40 l -140 140 h 280 z" stroke="#0000FF" stroke-width="1" fill="rgb(218,232,252)"/>
<rect x="20" y="185" width="280" height="20" style="fill:rgb(255,242,204);stroke:#0000FF;stroke-width:1" />
<path d="M 40 185 v 20" stroke="#0000FF" stroke-width="1" fill="none"/>
<path d="M 60 185 v 20" stroke="#0000FF" stroke-width="1" fill="none"/>
<path d="M 80 185 v 20" stroke="#0000FF" stroke-width="1" fill="none"/>
<path d="M 100 185 v 20" stroke="#0000FF" stroke-width="1" fill="none"/>
<path d="M 120 185 v 20" stroke="#0000FF" stroke-width="1" fill="none"/>
<path d="M 140 185 v 20" stroke="#0000FF" stroke-width="1" fill="none"/>
<path d="M 160 185 v 20" stroke="#0000FF" stroke-width="1" fill="none"/>
<path d="M 240 185 v 20" stroke="#0000FF" stroke-width="1" fill="none"/>
<path d="M 260 185 v 20" stroke="#0000FF" stroke-width="1" fill="none"/>
<path d="M 280 185 v 20" stroke="#0000FF" stroke-width="1" fill="none"/>


<rect x="100" y="250" width="170" height="20" style="fill:rgb(255,242,204);stroke:#0000FF;stroke-width:1" />
<text x="110" y="265" style="font-size:13px;font-family:'Arial'">(key, TID1, TID2, ... TIDn)</text>

<g transform="translate(470, 60)">
<rect x="0" y="0" width="35" height="20" style="fill:rgb(255,242,204);stroke:#0000FF;stroke-width:1" />
<text x="3" y="15" style="font-size:13px;font-family:'Arial'">TIDn</text>
</g>
<g transform="translate(440, 130)">
<rect x="0" y="0" width="35" height="20" style="fill:rgb(255,242,204);stroke:#0000FF;stroke-width:1" />
<text x="3" y="15" style="font-size:13px;font-family:'Arial'">TIDn</text>
</g>
<g transform="translate(500, 130)">
<rect x="0" y="0" width="35" height="20" style="fill:rgb(255,242,204);stroke:#0000FF;stroke-width:1" />
<text x="3" y="15" style="font-size:13px;font-family:'Arial'">TIDn</text>
</g>

<g transform="translate(360, 180)">
<rect x="0" y="0" width="35" height="20" style="fill:rgb(255,242,204);stroke:#0000FF;stroke-width:1" />
<text x="3" y="15" style="font-size:13px;font-family:'Arial'">TIDn</text>
</g>
<g transform="translate(400, 180)">
<rect x="0" y="0" width="35" height="20" style="fill:rgb(255,242,204);stroke:#0000FF;stroke-width:1" />
<text x="3" y="15" style="font-size:13px;font-family:'Arial'">TIDn</text>
</g>
<g transform="translate(440, 180)">
<rect x="0" y="0" width="35" height="20" style="fill:rgb(255,242,204);stroke:#0000FF;stroke-width:1" />
<text x="3" y="15" style="font-size:13px;font-family:'Arial'">TIDn</text>
</g>
<g transform="translate(480, 180)">
<rect x="0" y="0" width="35" height="20" style="fill:rgb(255,242,204);stroke:#0000FF;stroke-width:1" />
<text x="3" y="15" style="font-size:13px;font-family:'Arial'">TIDn</text>
</g>
<g transform="translate(520, 180)">
<rect x="0" y="0" width="35" height="20" style="fill:rgb(255,242,204);stroke:#0000FF;stroke-width:1" />
<text x="3" y="15" style="font-size:13px;font-family:'Arial'">TIDn</text>
</g>
<g transform="translate(560, 180)">
<rect x="0" y="0" width="35" height="20" style="fill:rgb(255,242,204);stroke:#0000FF;stroke-width:1" />
<text x="3" y="15" style="font-size:13px;font-family:'Arial'">TIDn</text>
</g>
</svg>
