<svg version="1.1" width="600" height="131" xmlns="http://www.w3.org/2000/svg" >
<defs><marker id="arrowhead" markerWidth="10" markerHeight="7" refX="0" refY="3.5" orient="auto"><polygon points="0 0, 10 3.5, 0 7" /></marker></defs>
<path id="bottomxline" d="M 10 130 h 580" stroke="#FFFFFF" stroke-width="1" fill="none" /> 
<g transform="translate(20, -10)">
<rect x="60" y="40" width="40" height="40" style="fill:rgb(255,242,204);stroke:#0000FF;stroke-width:1" />
<text x="75" y="65" style="font-size:15px;font-family:'Arial'">0</text>
<g transform="translate(0, 0)">
<path d="M 102 60 h 46" stroke="#000000" stroke-width="1" fill="none" marker-end="url(#arrowhead)" />
<rect x="160" y="50" width="280" height="20" style="fill:#DAE8FC;stroke:#0000FF;stroke-width:1" />
<path d="M 200 50 v 20 " stroke="#0000FF" stroke-width="1" fill="none"/>
<path d="M 240 50 v 20 " stroke="#0000FF" stroke-width="1" fill="none"/>
<path d="M 280 50 v 20 " stroke="#0000FF" stroke-width="1" fill="none"/>
<path d="M 400 50 v 20 " stroke="#0000FF" stroke-width="1" fill="none"/>
<text x="177" y="65" style="font-size:13px;font-family:'Arial'">0</text>
<text x="217" y="65" style="font-size:13px;font-family:'Arial'">1</text>
<text x="257" y="65" style="font-size:13px;font-family:'Arial'">2</text>
<text x="408" y="65" style="font-size:13px;font-family:'Arial'">255</text>
<text x="310" y="62" style="font-size:35px;font-family:'Arial'">......</text>
</g>

<path d="M 420 95 V 82" stroke="#000000" stroke-width="1" fill="none" marker-end="url(#arrowhead)" />
<text x="380" y="105" style="font-size:13px;font-family:'Courier New'">max_bucket</text>

<text x="160" y="90" style="font-size:13px;font-family:'Courier New'">low_mask = 0xFF</text>
<text x="160" y="110" style="font-size:13px;font-family:'Courier New'">high_mask= 0x1FF</text>

<path d="M 160 45 v -5 a 5 5 0 0 1 5 -5 h 130 a 5 5 0 0 0 5 -5 a 5 5 0 0 0 5 5 h 130 a 5 5 0 0 1 5 5 v 5" stroke="#000000" stroke-width="1" fill="none"/>
<text x="255" y="25" style="font-size:13px;font-family:'Courier New'">ssize = 2^n</text>
</g>
</svg>
