<svg version="1.1" width="600" height="171" xmlns="http://www.w3.org/2000/svg" >
<defs><marker id="arrowhead" markerWidth="10" markerHeight="7" refX="0" refY="3.5" orient="auto"><polygon points="0 0, 10 3.5, 0 7" /></marker></defs>

<g transform="translate(0, -40)">
<rect x="20" y="100" width="560" height="20" style="fill:rgb(255,242,204);stroke:#0000FF;stroke-width:1" />

<path d="M 100 100 v 20" stroke="#0000FF" stroke-width="1" fill="none"/>
<path d="M 180 100 v 20" stroke="#0000FF" stroke-width="1" fill="none"/>
<path d="M 260 100 v 20" stroke="#0000FF" stroke-width="1" fill="none"/>
<path d="M 340 100 v 20" stroke="#0000FF" stroke-width="1" fill="none"/>
<path d="M 420 100 v 20" stroke="#0000FF" stroke-width="1" fill="none"/>
<path d="M 500 100 v 20" stroke="#0000FF" stroke-width="1" fill="none"/>

<path d="M 40 100 v 20" stroke="#0000FF" stroke-width="1" fill="none" stroke-dasharray="3,3"/>
<path d="M 120 100 v 20" stroke="#0000FF" stroke-width="1" fill="none" stroke-dasharray="3,3"/>
<path d="M 200 100 v 20" stroke="#0000FF" stroke-width="1" fill="none" stroke-dasharray="3,3"/>
<path d="M 280 100 v 20" stroke="#0000FF" stroke-width="1" fill="none" stroke-dasharray="3,3"/>
<path d="M 360 100 v 20" stroke="#0000FF" stroke-width="1" fill="none" stroke-dasharray="3,3"/>
<path d="M 440 100 v 20" stroke="#0000FF" stroke-width="1" fill="none" stroke-dasharray="3,3"/>
<path d="M 520 100 v 20" stroke="#0000FF" stroke-width="1" fill="none" stroke-dasharray="3,3"/>

<path d="M 110 110 v -30 h -90 v 8 " stroke="#000000" stroke-width="1" fill="none" marker-end="url(#arrowhead)"/>
<path d="M 270 110 v -30 h -90 v 8 " stroke="#000000" stroke-width="1" fill="none" marker-end="url(#arrowhead)"/>
<path d="M 430 110 v -30 h -90 v 8 " stroke="#000000" stroke-width="1" fill="none" marker-end="url(#arrowhead)"/>

<path d="M 190 110 v 30 h -90 v -8 " stroke="#000000" stroke-width="1" fill="none" marker-end="url(#arrowhead)"/>
<path d="M 350 110 v 30 h -90 v -8 " stroke="#000000" stroke-width="1" fill="none" marker-end="url(#arrowhead)"/>
<path d="M 510 110 v 30 h -90 v -8 " stroke="#000000" stroke-width="1" fill="none" marker-end="url(#arrowhead)"/>

<path d="M 20 145 v 10 a 10 10 0 0 0 10 10 h 260 a 10 10 0 0 1 10 10 a 10 10 0 0 1 10 -10 h 260 a 10 10 0 0 0 10 -10 v -10" stroke="#000000" stroke-width="1" fill="none" />

<path d="M 500 60 V 88" stroke="#000000" stroke-width="1" fill="none" marker-end="url(#arrowhead)"/>
<text x="430" y="55" style="font-size:13px;font-family:'Courier New'">freeList[0].freeList</text>

<text x="160" y="188" style="font-size:13px;font-family:'Courier New'">HASHHDR->nelem_alloc * elementSize</text>
</g>
</svg>
