<svg version="1.1" width="600" height="600" xmlns="http://www.w3.org/2000/svg">
<defs><marker id="arrowhead" markerWidth="10" markerHeight="7" refX="0" refY="3.5" orient="auto"><polygon points="0 0, 10 3.5, 0 7" /></marker></defs>

<g transform="translate(100, 20)">
<rect x="1" y="1" width="100" height="26" style="fill:#000000;stroke:#000000;stroke-width:2" />
<rect x="6" y="9" width="60" height="10" style="fill:#FFFFFF;stroke:#000000;stroke-width:2" />
<circle cx="90" cy="13" r="5" fill="#FFFFFF" />
<rect x="1" y="31" width="100" height="26" style="fill:#000000;stroke:#000000;stroke-width:2" />
<rect x="6" y="39" width="60" height="10" style="fill:#FFFFFF;stroke:#000000;stroke-width:2" />
<circle cx="90" cy="43" r="5" fill="#FFFFFF" />
<rect x="1" y="61" width="100" height="26" style="fill:#000000;stroke:#000000;stroke-width:2" />
<rect x="6" y="69" width="60" height="10" style="fill:#FFFFFF;stroke:#000000;stroke-width:2" />
<circle cx="90" cy="73" r="5" fill="#FFFFFF" />
</g>

<g transform="translate(95, 290)">
<ellipse cx="51" cy="106" rx="50" ry="15" style="fill:#DAE8FC;stroke:#0000FF;stroke-width:1" />
<polygon points="1,106 1,16 101,16 101,106" style="fill:#DAE8FC;stroke:#DAE8FC;stroke-width:1" />
<path d="M 1 16 v 91" stroke="#0000FF" stroke-width="1" fill="none" />
<path d="M 101 16 v 91" stroke="#0000FF" stroke-width="1" fill="none" />
<ellipse cx="51" cy="16" rx="50" ry="15" style="fill:#DAE8FC;stroke:#0000FF;stroke-width:1" />
<text x="25" y="60" style="font-size:15px;font-family:'Arial'">primary</text>
<text x="20" y="80" style="font-size:15px;font-family:'Arial'">database</text>
</g>
  
<g transform="translate(200, 130)">
<ellipse cx="31" cy="10" rx="30" ry="10" style="fill:rgb(115,131,191);stroke:rgb(115,131,191);stroke-width:1" />
<path d="M 1 15 a 30 10 0 0 0 60 0 v 15 a 30 10 0 0 1 -60 0 v -15" stroke="rgb(115,131,191)" stroke-width="1" fill="rgb(115,131,191)"/>
<path d="M 1 35 a 30 10 0 0 0 60 0 v 15 a 30 10 0 0 1 -60 0 v -15" stroke="rgb(115,131,191)" stroke-width="1" fill="rgb(115,131,191)"/>
<path d="M 1 55 a 30 10 0 0 0 60 0 v 15 a 30 10 0 0 1 -60 0 v -15" stroke="rgb(115,131,191)" stroke-width="1" fill="rgb(115,131,191)"/>
<circle cx="50" cy="29" r="3" fill="#FFFFFF" />
<circle cx="50" cy="49" r="3" fill="#FFFFFF" />
<circle cx="50" cy="69" r="3" fill="#FFFFFF" />
</g>
  
<g transform="translate(300, 20)">
<path d="M 9 20 h 40 a 5 5 0 0 1 5 5 v 90 a 5 5 0 0 1 -5 5 h -40 a 5 5 0 0 1 -5 -5 v -90 a 5 5 0 0 1 5 -5" stroke="#000000" stroke-width="6" fill="none" />
<path d="M 15 35 h 30" stroke="#000000" stroke-width="5" fill="none" />
<path d="M 15 45 h 30" stroke="#000000" stroke-width="5" fill="none" />
<path d="M 15 55 h 30" stroke="#000000" stroke-width="5" fill="none" />
<path d="M 15 65 h 30" stroke="#000000" stroke-width="5" fill="none" />
<circle cx="30" cy="80" r="8" fill="#000000" />
<circle cx="30" cy="80" r="2" fill="#FFFFFF" />
<circle cx="30" cy="97" r="3" fill="#000000" />
<rect x="15" y="105" width="30" height="5" style="fill:none;stroke:#000000;stroke-width:2" />
<path d="M 25 105 v 5" stroke="#000000" stroke-width="2" fill="none" />
<path d="M 35 105 v 5" stroke="#000000" stroke-width="2" fill="none" />
</g>
  
<path d="M 400,200 q 20 15 40 0 q 20 -20 40 -10 v -40 h -80 z " fill="rgb(122,171,212)" stroke="#0000FF" stroke-width="1" />

</svg>

