<svg version="1.1" width="600" height="166" xmlns="http://www.w3.org/2000/svg" >
<defs><marker id="arrowhead" markerWidth="10" markerHeight="7" refX="0" refY="3.5" orient="auto"><polygon points="0 0, 10 3.5, 0 7" /></marker></defs>
<path id="bottomxline" d="M 10 165 h 580" stroke="#FFFFFF" stroke-width="1" fill="none" /> 
<g transform="translate(0, -15)">
<rect x="100" y="60" width="300" height="40" style="fill:#DAE8FC;stroke:#DAE8FC;stroke-width:1" />
<rect x="100" y="60" width="400" height="40" style="fill:none;stroke:#0000FF;stroke-width:1" />
<path d="M 140 60 v 40" stroke="#0000FF" stroke-width="1" fill="none"/>
<path d="M 200 60 v 40" stroke="#0000FF" stroke-width="1" fill="none"/>
<path d="M 210 60 v 40" stroke="#0000FF" stroke-width="1" fill="none"/>
<path d="M 400 60 v 40" stroke="#0000FF" stroke-width="1" fill="none"/>
<path d="M 100 102 v 5 a 5 5 0 0 0 5 5 h 10 a 5 5 0 0 1 5 5 a 5 5 0 0 1 5 -5 h 10 a 5 5 0 0 0 5 -5 v -5" stroke="#000000" stroke-width="1" fill="none" />

<path d="M 100 38 V 48" stroke="#000000" stroke-width="1" fill="none" marker-end="url(#arrowhead)"  />
<path d="M 205 38 V 48" stroke="#000000" stroke-width="1" fill="none" marker-end="url(#arrowhead)"  />
<path d="M 500 38 V 48" stroke="#000000" stroke-width="1" fill="none" marker-end="url(#arrowhead)"  />
<path d="M 400 122 V 112" stroke="#000000" stroke-width="1" fill="none" marker-end="url(#arrowhead)"  />
<path d="M 120 142 V 130" stroke="#000000" stroke-width="1" fill="none" marker-end="url(#arrowhead)"  />
<path d="M 100 142 V 124" stroke="#000000" stroke-width="1" fill="none" marker-end="url(#arrowhead)"  />

<text x="270" y="85" style="font-size:13px;font-family:'Microsoft Yahei'">已分配空间</text>
<text x="418" y="85" style="font-size:13px;font-family:'Microsoft Yahei'">未分配空间</text>
<text x="50" y="35" style="font-size:13px;font-family:'Courier New'">ShmemBase</text>
<text x="180" y="35" style="font-size:13px;font-family:'Courier New'">ShmemLock</text>
<text x="470" y="35" style="font-size:13px;font-family:'Courier New'">ShmemEnd</text>
<text x="18" y="153" style="font-size:13px;font-family:'Courier New'">ShmemSegHdr</text>
<text x="117" y="153" style="font-size:13px;font-family:'Courier New'">PGShmemHeader</text>
<text x="370" y="133" style="font-size:13px;font-family:'Courier New'">freeoffset</text>
</g>
</svg>
