<svg version="1.1" width="600" height="231" xmlns="http://www.w3.org/2000/svg" >
<defs><marker id="arrowhead" markerWidth="10" markerHeight="7" refX="0" refY="3.5" orient="auto"><polygon points="0 0, 10 3.5, 0 7" /></marker></defs>
<path id="bottomxline" d="M 10 230 h 580" stroke="#FFFFFF" stroke-width="1" fill="none" /> 
<g transform="translate(0, -35)">
<text x="40" y="65" style="font-size:13px;font-family:'Microsoft Yahei'">锁1</text>
<text x="140" y="65" style="font-size:13px;font-family:'Microsoft Yahei'">锁2</text>
<text x="240" y="65" style="font-size:13px;font-family:'Microsoft Yahei'">锁3</text>
<text x="540" y="65" style="font-size:13px;font-family:'Microsoft Yahei'">锁n</text>

<rect x="28" y="40" width="40" height="40" style="fill:none;stroke:#0000FF;stroke-width:1" />
<rect x="128" y="40" width="40" height="40" style="fill:none;stroke:#0000FF;stroke-width:1" />
<rect x="228" y="40" width="40" height="40" style="fill:none;stroke:#0000FF;stroke-width:1" />
<rect x="528" y="40" width="40" height="40" style="fill:none;stroke:#0000FF;stroke-width:1" />

<path d="M 48 82 v 86" stroke="#000000" stroke-width="1" fill="none" marker-end="url(#arrowhead)" />
<path d="M 148 82 v 16" stroke="#000000" stroke-width="1" fill="none" marker-end="url(#arrowhead)" />
<path d="M 248 82 v 16" stroke="#000000" stroke-width="1" fill="none" marker-end="url(#arrowhead)" />
<path d="M 548 82 v 86" stroke="#000000" stroke-width="1" fill="none" marker-end="url(#arrowhead)" />

<rect x="128" y="110" width="80" height="60" style="fill:#DAE8FC;stroke:#0000FF;stroke-width:1" />
<rect x="220" y="110" width="300" height="60" style="fill:#DAE8FC;stroke:#0000FF;stroke-width:1" />

<rect x="508" y="180" width="70" height="60" style="fill:#DAE8FC;stroke:#0000FF;stroke-width:1" />
<rect x="20" y="180" width="400" height="60" style="fill:#DAE8FC;stroke:#0000FF;stroke-width:1" />

<text x="330" y="145" style="font-size:13px;font-family:'Microsoft Yahei'">被保护的内存</text>
<text x="180" y="215" style="font-size:13px;font-family:'Microsoft Yahei'">被保护的内存</text>
</g>
</svg>
