<svg version="1.1" width="600" height="381" xmlns="http://www.w3.org/2000/svg" >
<defs><marker id="arrowhead" markerWidth="10" markerHeight="7" refX="0" refY="3.5" orient="auto"><polygon points="0 0, 10 3.5, 0 7" /></marker></defs>

<path d="M 10 380 h 580" stroke="#FFFFFF" stroke-width="1" fill="none" />
  
<g transform="translate(0, -10)">
<text x="145" y="100" style="font-size:13px;font-family:'Microsoft Yahei'">私有内存</text>
<text x="95" y="300" style="font-size:13px;font-family:'Microsoft Yahei'">共享内存</text>

<rect x="240" y="20" width="200" height="124" style="fill:none;stroke:#0000FF;stroke-width:1" />
<rect x="220" y="30" width="200" height="124" style="fill:#FFFFFF;stroke:#0000FF;stroke-width:1" />
<rect x="200" y="40" width="200" height="124" style="fill:#FFFFFF;stroke:#0000FF;stroke-width:1" />
<path d="M 300 180 V 176" stroke="#0000FF" stroke-width="1" fill="none" marker-end="url(#arrowhead)"/>
<path d="M 300 180 V 188" stroke="#0000FF" stroke-width="1" fill="none" marker-end="url(#arrowhead)"/>
<path d="M 410 180 V 188" stroke="#0000FF" stroke-width="1" fill="none" marker-end="url(#arrowhead)"/>
<path d="M 410 180 V 166" stroke="#0000FF" stroke-width="1" fill="none" marker-end="url(#arrowhead)"/>
<path d="M 430 180 V 188" stroke="#0000FF" stroke-width="1" fill="none" marker-end="url(#arrowhead)"/>
<path d="M 430 180 V 156" stroke="#0000FF" stroke-width="1" fill="none" marker-end="url(#arrowhead)"/>

<rect x="210" y="52" width="180" height="30" style="fill:#F0F0F0;stroke:#0000FF;stroke-width:1" />
<rect x="210" y="87" width="180" height="30" style="fill:#F0F0F0;stroke:#0000FF;stroke-width:1" />
<rect x="210" y="122" width="180" height="30" style="fill:#F0F0F0;stroke:#0000FF;stroke-width:1" />

<text x="220" y="71" style="font-size:13px;font-family:'Arial'">temp_buffers</text>
<text x="220" y="106" style="font-size:13px;font-family:'Arial'">work_mem</text>
<text x="220" y="141" style="font-size:13px;font-family:'Arial'">maintenance_work_mem</text>

<rect x="150" y="200" width="300" height="160" style="fill:none;stroke:#0000FF;stroke-width:1" />
<rect x="160" y="210" width="200" height="40" style="fill:#F0F0F0;stroke:#0000FF;stroke-width:1" />
<path d="M 180 210 v 40" stroke="#0000FF" stroke-width="1" fill="none" />
<path d="M 200 210 v 40" stroke="#0000FF" stroke-width="1" fill="none" />
<path d="M 220 210 v 40" stroke="#0000FF" stroke-width="1" fill="none" />
<path d="M 240 210 v 40" stroke="#0000FF" stroke-width="1" fill="none" />
<path d="M 260 210 v 40" stroke="#0000FF" stroke-width="1" fill="none" />
<path d="M 280 210 v 40" stroke="#0000FF" stroke-width="1" fill="none" />
<path d="M 300 210 v 40" stroke="#0000FF" stroke-width="1" fill="none" />
<path d="M 320 210 v 40" stroke="#0000FF" stroke-width="1" fill="none" />
<path d="M 340 210 v 40" stroke="#0000FF" stroke-width="1" fill="none" />

<text x="365" y="235" style="font-size:13px;font-family:'Microsoft Yahei'">共享池</text>
<text x="285" y="285" style="font-size:13px;font-family:'Microsoft Yahei'">WAL缓冲池</text>
<text x="325" y="335" style="font-size:13px;font-family:'Microsoft Yahei'">其它组件</text>
<rect x="160" y="260" width="120" height="40" style="fill:#F0F0F0;stroke:#0000FF;stroke-width:1" />
<rect x="160" y="310" width="160" height="40" style="fill:#F0F0F0;stroke:#0000FF;stroke-width:1" />
</g>
</svg>
