<svg version="1.1" width="600" height="351" xmlns="http://www.w3.org/2000/svg" >
<defs><marker id="arrowhead" markerWidth="10" markerHeight="7" refX="0" refY="3.5" orient="auto"><polygon points="0 0, 10 3.5, 0 7" /></marker></defs>
<path d="M 10 350 h 580" stroke="#FFFFFF" stroke-width="1" fill="none" />
<g transform="translate(0, -10)">
<rect x="20" y="20" width="560" height="280" style="fill:none;stroke:#0000FF;stroke-width:1" />
<rect x="20" y="20" width="200" height="40" style="fill:#F0F0F0;stroke:#0000FF;stroke-width:1" />
<rect x="220" y="20" width="360" height="40" style="fill:#F0F0F0;stroke:#0000FF;stroke-width:1" />
<path d="M 280 20 V 60" stroke="#0000FF" stroke-width="1" fill="none" />
<path d="M 340 20 V 60" stroke="#0000FF" stroke-width="1" fill="none" />
<path d="M 400 20 V 60" stroke="#0000FF" stroke-width="1" fill="none" />
<path d="M 460 20 V 60" stroke="#0000FF" stroke-width="1" fill="none" />
<path d="M 520 20 V 60" stroke="#0000FF" stroke-width="1" fill="none" />
<rect x="20" y="60" width="180" height="40" style="fill:#F0F0F0;stroke:#0000FF;stroke-width:1" />
<path d="M 140 60 V 100" stroke="#0000FF" stroke-width="1" fill="none" />

<rect x="475" y="260" width="105" height="40" style="fill:#F0F0F0;stroke:#0000FF;stroke-width:1" />
<rect x="20" y="260" width="455" height="40" style="fill:#F0F0F0;stroke:#0000FF;stroke-width:1" />
<rect x="300" y="220" width="280" height="40" style="fill:#F0F0F0;stroke:#0000FF;stroke-width:1" />
<path d="M 160 260 V 300" stroke="#0000FF" stroke-width="1" fill="none" />
<path d="M 350 260 V 300" stroke="#0000FF" stroke-width="1" fill="none" />

<path d="M 470 220 v 40" stroke="#0000FF" stroke-width="1" fill="none" />

<text x="95" y="45" style="font-size:13px;font-family:'Microsoft Yahei'">头部区域</text>
<text x="235" y="45" style="font-size:15px;font-family:'Arial'">lp[1]</text>
<text x="235" y="45" style="font-size:15px;font-family:'Arial'">lp[1]</text>
<text x="295" y="45" style="font-size:15px;font-family:'Arial'">lp[2]</text>
<text x="355" y="45" style="font-size:15px;font-family:'Arial'">lp[3]</text>
<text x="415" y="45" style="font-size:15px;font-family:'Arial'">lp[4]</text>
<text x="475" y="45" style="font-size:15px;font-family:'Arial'">lp[5]</text>
<text x="535" y="45" style="font-size:15px;font-family:'Arial'">lp[6]</text>
<text x="55" y="82" style="font-size:35px;font-family:'Arial'">......</text>
<text x="155" y="85" style="font-size:15px;font-family:'Arial'">lp[n]</text>

<text x="50" y="180" style="font-size:13px;font-family:'Microsoft Yahei'">空闲空间</text>

<text x="500" y="285" style="font-size:13px;font-family:'Microsoft Yahei'">特殊区域</text>
<text x="400" y="285" style="font-size:13px;font-family:'Microsoft Yahei'">元组1</text>
<text x="240" y="285" style="font-size:13px;font-family:'Microsoft Yahei'">元组2</text>
<text x="70" y="285" style="font-size:13px;font-family:'Microsoft Yahei'">元组3</text>
<text x="510" y="245" style="font-size:13px;font-family:'Microsoft Yahei'">元组4</text>
<text x="370" y="245" style="font-size:13px;font-family:'Microsoft Yahei'">元组5</text>

<path d="M 298 240 h -40" stroke="#000000" stroke-width="1" fill="none" marker-end="url(#arrowhead)"  />
<path d="M 202 80 h 40" stroke="#000000" stroke-width="1" fill="none" marker-end="url(#arrowhead)"  />

<path d="M 200 135 V 112" stroke="#000000" stroke-width="1" fill="none" marker-end="url(#arrowhead)"  />
<path d="M 300 185 V 208" stroke="#000000" stroke-width="1" fill="none" marker-end="url(#arrowhead)"  />

<text x="270" y="175" style="text-anchor='middle';font-size:15px;font-family:'Courier New'">pd_upper</text>
<text x="170" y="150" style="text-anchor='middle';font-size:15px;font-family:'Courier New'">pd_lower</text>

<text x="429" y="330" style="text-anchor='middle';font-size:15px;font-family:'Courier New'">pd_special</text>
<path d="M 475 320 V 312" stroke="#000000" stroke-width="1" fill="none" marker-end="url(#arrowhead)"  />

<path d="M 430 65 v 80 l 100 30 V 208" stroke="#000000" stroke-width="1" fill="none" stroke-dasharray="5,3" marker-end="url(#arrowhead)"/>

<path d="M 490 65 v 30 l -100 50 V 208" stroke="#000000" stroke-width="1" fill="none" stroke-dasharray="5,3" marker-end="url(#arrowhead)"/>
</g>
</svg>
