<svg version="1.1" width="600" height="241" xmlns="http://www.w3.org/2000/svg" >
<defs><marker id="arrowhead" markerWidth="10" markerHeight="7" refX="0" refY="3.5" orient="auto"><polygon points="0 0, 10 3.5, 0 7" /></marker></defs>
<path id="bottomxline" d="M 10 240 h 580" stroke="#FFFFFF" stroke-width="1" fill="none" /> 
<g transform="translate(40, -30)">
<ellipse cx="80" cy="60" rx="60" ry="20" style="fill:none;stroke:#0000FF;stroke-width:1" />
<text x="65" y="65" style="font-size:13px;font-family:'Microsoft Yahei'">进程A</text>
<path d="M 145 60 A 60 60 0 0 1 205 120" stroke="#000000" stroke-width="1" fill="none" marker-end="url(#arrowhead)"  />
<path d="M 275 60 A 60 60 0 0 0 215 120" stroke="#000000" stroke-width="1" fill="none" marker-end="url(#arrowhead)"  />
<ellipse cx="340" cy="60" rx="60" ry="20" style="fill:none;stroke:#0000FF;stroke-width:1" />
<text x="325" y="65" style="font-size:13px;font-family:'Microsoft Yahei'">进程B</text>
<rect x="195" y="135" width="30" height="30" style="fill:#DAE8FC;stroke:#0000FF;stroke-width:1" />
<text x="200" y="155" style="font-size:15px;font-family:'Arial'">0/1</text>
<text x="230" y="155" style="font-size:13px;font-family:'Microsoft Yahei'">自旋锁</text>
<path d="M 205 170 A 60 60 0 0 1 145 230" stroke="#000000" stroke-width="1" fill="none" marker-end="url(#arrowhead)"  />
<path d="M 215 170 A 60 60 0 0 0 275 230" stroke="#000000" stroke-width="1" fill="none" marker-end="url(#arrowhead)"  />

<path d="M 415 230 A 85 85 0 0 0 415 60" stroke="#000000" stroke-width="1" fill="none" marker-end="url(#arrowhead)"  />
<text x="5" y="235" style="font-size:13px;font-family:'Microsoft Yahei'">若返回值为0，则成功!</text>
<text x="290" y="225" style="font-size:13px;font-family:'Microsoft Yahei'">若返回值为1，则失败</text>
<text x="293" y="242" style="font-size:13px;font-family:'Microsoft Yahei'">等一段时间再次尝试</text>
</g>
</svg>
