<svg version="1.1" width="600" height="331" xmlns="http://www.w3.org/2000/svg" >
<defs><marker id="arrowhead" markerWidth="10" markerHeight="7" refX="0" refY="3.5" orient="auto"><polygon points="0 0, 10 3.5, 0 7" /></marker></defs>
<path d="M 10 330 h 580" stroke="#FFFFFF" stroke-width="1" fill="none" />
<text x="290" y="20" style="font-size:13px;font-family:'Microsoft Yahei'">WAL文件</text>
<g transform="translate(0, 5)">
<rect x="20" y="20" width="560" height="60" style="fill:#DAE8FC;stroke:#0000FF;stroke-width:1" />
<path d="M 120 20 L 120 80" stroke="#000000" stroke-width="1" fill="none" />
<path d="M 220 20 L 220 80" stroke="#000000" stroke-width="1" fill="none" />
<path d="M 320 20 L 320 80" stroke="#000000" stroke-width="1" fill="none" />
<path d="M 480 20 L 480 80" stroke="#000000" stroke-width="1" fill="none" />

<path d="M 40 20 L 40 40" stroke="#000000" stroke-width="1" fill="none" />
<path d="M 40 80 L 40 60" stroke="#000000" stroke-width="1" fill="none" />

<text x="35" y="55" style="font-size:15px;font-family:'Arial'">8KB</text>
<text x="160" y="55" style="font-size:15px;font-family:'Arial'">8KB</text>
<text x="260" y="55" style="font-size:15px;font-family:'Arial'">8KB</text>
<text x="520" y="55" style="font-size:15px;font-family:'Arial'">8KB</text>

<text x="370" y="50" style="font-size:35px;font-family:'Arial'">......</text>

<path d="M 220 84 v 20 L 100 110 v 20" stroke="#000000" stroke-dasharray="4,4" stroke-width="1" fill="none" />
<path d="M 320 84 v 20 L 560 110 v 20" stroke="#000000" stroke-dasharray="4,4" stroke-width="1" fill="none" />

<rect x="100" y="130" width="460" height="60" style="fill:#DAE8FC;stroke:#0000FF;stroke-width:1" />
<path d="M 120 130 L 120 190" stroke="#000000" stroke-width="1" fill="none" />
<path d="M 220 130 L 220 190" stroke="#000000" stroke-width="1" fill="none" />
<path d="M 350 130 v 60" stroke="#000000" stroke-width="1" fill="none" />
<path d="M 420 130 L 420 190" stroke="#000000" stroke-width="1" fill="none" />

<text x="100" y="235" style="font-size:15px;font-family:'Courier New'">XLogPageHeaderData</text>
<path d="M 110 220 L 110 202" stroke="#000000" stroke-width="1" fill="none" marker-end="url(#arrowhead)"  />

<text x="20" y="275" style="font-size:15px;font-family:'Courier New'">XLogLongPageHeaderData</text>
<path d="M 30 260 L 30 92" stroke="#000000" stroke-width="1" fill="none" marker-end="url(#arrowhead)"  />

<text x="140" y="165" style="font-size:13px;font-family:'Microsoft Yahei'">WAL记录</text>
<text x="265" y="165" style="font-size:13px;font-family:'Microsoft Yahei'">WAL记录</text>
<text x="358" y="165" style="font-size:13px;font-family:'Microsoft Yahei'">WAL记录</text>
<text x="465" y="165" style="font-size:13px;font-family:'Microsoft Yahei'">WAL记录</text>

<rect x="280" y="240" width="300" height="60" style="fill:#DAE8FC;stroke:#0000FF;stroke-width:1" />
<path d="M 400 240 L 400 300" stroke="#000000" stroke-width="1" fill="none" />
<text x="295" y="275" style="font-size:15px;font-family:'Courier New'">XLogRecord</text>
<text x="435" y="275" style="font-size:13px;font-family:'Microsoft Yahei'">WAL记录的数据区</text>

<path d="M 420 194 v 20 L 580 220 v 20" stroke="#000000" stroke-dasharray="4,4" stroke-width="1" fill="none" />
<path d="M 350 194 v 20 L 280 220 v 20" stroke="#000000" stroke-dasharray="4,4" stroke-width="1" fill="none" />
</g>
</svg>
