<svg version="1.1" width="600" height="421" xmlns="http://www.w3.org/2000/svg" >
<defs><marker id="arrowhead" markerWidth="10" markerHeight="7" refX="0" refY="3.5" orient="auto"><polygon points="0 0, 10 3.5, 0 7" /></marker></defs>
<path d="M 10 420 h 580" stroke="#FFFFFF" stroke-width="1" fill="none" />
<text x="20" y="33" style="font-size:13px;font-family:'Microsoft Yahei'">检查点进程</text>
<path d="M 20 40 h 560 " stroke="#0000FF" stroke-width="1" fill="none" marker-end="url(#arrowhead)" />
<text x="20" y="93" style="font-size:13px;font-family:'Microsoft Yahei'">共享池</text>
<path d="M 20 100 h 560 " stroke="#0000FF" stroke-width="1" fill="none" marker-end="url(#arrowhead)" />
<text x="20" y="153" style="font-size:13px;font-family:'Microsoft Yahei'">WAL缓冲区</text>
<path d="M 20 160 h 560 " stroke="#0000FF" stroke-width="1" fill="none" marker-end="url(#arrowhead)" />
<path d="M 5 190 h 590 " stroke="#0000FF" stroke-width="1" fill="none" stroke-dasharray="5,3" />
<text x="20" y="253" style="font-size:13px;font-family:'Microsoft Yahei'">WAL文件</text> 
<path d="M 20 260 h 560 " stroke="#0000FF" stroke-width="1" fill="none" marker-end="url(#arrowhead)" /> 
<text x="20" y="313" style="font-size:13px;font-family:'Microsoft Yahei'">数据文件</text> 
<path d="M 20 320 h 560 " stroke="#0000FF" stroke-width="1" fill="none" marker-end="url(#arrowhead)" />
<text x="20" y="373" style="font-size:13px;font-family:'Microsoft Yahei'">控制文件</text> 
<path d="M 20 380 h 560 " stroke="#0000FF" stroke-width="1" fill="none" marker-end="url(#arrowhead)" />

<path d="M 200 10 V 25" stroke="#000000" stroke-width="1" fill="none" marker-end="url(#arrowhead)" />
<path d="M 200 33 V 320" stroke="#000000" stroke-width="1" fill="none" stroke-dasharray="3,3" />
<text x="210" y="30" style="font-size:15px;font-family:'Arial'">(1)</text>

<text x="270" y="30" style="font-size:15px;font-family:'Arial'">(2)</text>
<text x="450" y="30" style="font-size:15px;font-family:'Arial'">(4)</text>
<text x="558" y="30" style="font-size:15px;font-family:'Arial'">(5)</text>

<path d="M 280 40 V 100" stroke="#000000" stroke-width="1" fill="none" stroke-dasharray="3,3" />
<path d="M 280 100 V 308" stroke="#000000" stroke-width="1" fill="none" marker-end="url(#arrowhead)" />
<path d="M 300 100 V 308" stroke="#000000" stroke-width="1" fill="none" marker-end="url(#arrowhead)" />
<path d="M 320 100 V 308" stroke="#000000" stroke-width="1" fill="none" marker-end="url(#arrowhead)" />
<path d="M 340 100 V 308" stroke="#000000" stroke-width="1" fill="none" marker-end="url(#arrowhead)" />
<path d="M 420 100 V 308" stroke="#000000" stroke-width="1" fill="none" marker-end="url(#arrowhead)" />
<path d="M 440 100 V 308" stroke="#000000" stroke-width="1" fill="none" marker-end="url(#arrowhead)" />
<path d="M 460 40 V 214" stroke="#000000" stroke-width="1" fill="none" marker-end="url(#arrowhead)" />
<path d="M 568 40 V 368" stroke="#000000" stroke-width="1" fill="none" marker-end="url(#arrowhead)" />

<path d="M 280 325 v 5 a 10 10 0 0 0 10 10 h 60 a 10 10 0 0 1 10 10 a 10 10 0 0 1 10 -10 h 60 a 10 10 0 0 0 10 -10 v -5 " stroke="#000000" stroke-width="1" fill="none"  />
<text x="350" y="365" style="font-size:15px;font-family:'Arial'">(3)</text>

<rect x="460" y="226" width="100" height="30" style="fill:#F0F0F0;stroke:#0000FF;stroke-width:1" />
<text x="463" y="247" style="font-size:13px;font-family:'Microsoft Yahei'">检查点WAL记录</text>

<text x="155" y="277" style="font-size:13px;font-family:'Microsoft Yahei'">重做点</text>
<circle cx="200" cy="260" r="4" fill="#FF0000" />

<path d="M 505 224 v -20 H 250 L 212 248 " stroke="#000000" stroke-width="1" fill="none" stroke-dasharray="2,2" marker-end="url(#arrowhead)" />

<text x="360" y="130" style="font-size:25px;font-family:'Arial'">......</text>
</svg>
