<svg version="1.1" width="600" height="251" xmlns="http://www.w3.org/2000/svg" >
<defs><marker id="arrowhead" markerWidth="10" markerHeight="7" refX="0" refY="3.5" orient="auto"><polygon points="0 0, 10 3.5, 0 7" /></marker></defs>
<path d="M 10 250 h 580" stroke="#FFFFFF" stroke-width="1" fill="none" />
<g transform="translate(0, -40)">
<g transform="translate(440, 50)">
<path d="M 0 0 v 100 h 62 v -80 l -20 -20 h -42" stroke="#0000FF" stroke-width="1" fill="rgb(248,206,204)" />
<path d="M 42 0 v 20 h 20" stroke="#0000FF" stroke-width="1" fill="rgb(248,206,204)" />
<path d="M 10 40 h 42 " stroke="#0000FF" stroke-width="1"/>
<path d="M 10 50 h 42 " stroke="#0000FF" stroke-width="1"/>
<path d="M 10 60 h 42 " stroke="#0000FF" stroke-width="1"/>
<path d="M 10 70 h 42 " stroke="#0000FF" stroke-width="1"/>
</g>

<path d="M 20 200 H 580 " stroke="#0000FF" stroke-width="1" fill="none" />
<path d="M 20 220 H 580 " stroke="#0000FF" stroke-width="1" fill="none" />
<rect x="60" y="200" width="480" height="20" style="fill:#DAE8FC;stroke:#0000FF;stroke-width:1" />
<rect x="100" y="200" width="100" height="20" style="fill:#DAE8FC;stroke:#0000FF;stroke-width:1" />
<rect x="440" y="200" width="40" height="20" style="fill:rgb(248,206,204);stroke:#0000FF;stroke-width:1" />

<path d="M 450 198 a 180 40 0 0 0 -340 -8" stroke="#000000" stroke-width="1" fill="none" marker-end="url(#arrowhead)" />
<path d="M 460 155 V 185" stroke="#000000" stroke-width="1" fill="none" marker-end="url(#arrowhead)" />
<path d="M 435 100 H 100 V 180" stroke="#000000" stroke-width="1" fill="none" marker-end="url(#arrowhead)" />

<text x="240" y="60" style="font-size:13px;font-family:'Courier New'">$PGDATA/global/pg_control</text>
<text x="80" y="260" style="font-size:13px;font-family:'Microsoft Yahei'">重做点</text>
<text x="405" y="260" style="font-size:13px;font-family:'Microsoft Yahei'">检查点的WAL记录</text>
<path d="M 100 245 V 232" stroke="#000000" stroke-width="1" fill="none" marker-end="url(#arrowhead)" />
<path d="M 460 245 V 232" stroke="#000000" stroke-width="1" fill="none" marker-end="url(#arrowhead)" />
<text x="505" y="100" style="font-size:13px;font-family:'Microsoft Yahei'">控制文件</text>
<text x="280" y="237" style="font-size:13px;font-family:'Microsoft Yahei'">WAL文件</text>

<text x="30" y="212" style="font-size:25px;font-family:'Arial'">...</text>
<text x="550" y="212" style="font-size:25px;font-family:'Arial'">...</text>
</g>
</svg>
