<svg version="1.1" width="600" height="181" xmlns="http://www.w3.org/2000/svg" >
<defs><marker id="arrowhead" markerWidth="10" markerHeight="7" refX="0" refY="3.5" orient="auto"><polygon points="0 0, 10 3.5, 0 7" /></marker></defs>
<path d="M 10 180 h 580" stroke="#FFFFFF" stroke-width="1" fill="none" />
<g transform="translate(0, 0)">
<path d="M 20 100 h 560 " stroke="#000000" stroke-width="1" fill="none" marker-end="url(#arrowhead)"/>
<text x="568" y="95" style="font-size:15px;font-family:'Arial'">T</text>

<circle cx="100" cy="100" r="4" fill="#FF0000" />
<circle cx="360" cy="100" r="4" fill="#FF0000" />
<circle cx="500" cy="100" r="4" fill="#FF0000" />

<path d="M 100 30 V 85 " stroke="#000000" stroke-width="1" fill="none" marker-end="url(#arrowhead)"/>
<path d="M 500 30 V 85 " stroke="#000000" stroke-width="1" fill="none" marker-end="url(#arrowhead)"/>
<path d="M 360 70 V 85 " stroke="#000000" stroke-width="1" fill="none" marker-end="url(#arrowhead)"/>

<text x="56" y="23" style="font-size:13px;font-family:'Microsoft Yahei'">检查点n的起点</text>
<text x="448" y="23" style="font-size:13px;font-family:'Microsoft Yahei'">检查点n+1的起点</text>
<text x="316" y="66" style="font-size:13px;font-family:'Microsoft Yahei'">检查点n的终点</text>

<path d="M 300 40 H 485 " stroke="#000000" stroke-width="1" fill="none" stroke-dasharray="5,3" marker-end="url(#arrowhead)"/>
<path d="M 297 40 H 115 " stroke="#000000" stroke-width="1" fill="none" stroke-dasharray="5,3" marker-end="url(#arrowhead)"/>

<path d="M 100 110 v 5 a 5 5 0 0 0 5 5 h 120 a 5 5 0 0 1 5 5 a 5 5 0 0 1 5 -5 h 120 a 5 5 0 0 0 5 -5 v -5" stroke="#000000" stroke-width="1" fill="none"/>
<text x="120" y="140" style="font-size:13px;font-family:'Courier New'">checkpoint_completion_target</text>
<text x="230" y="31" style="font-size:13px;font-family:'Courier New'">checkpoint_timeout</text>
</g>
</svg>
