<svg version="1.1" width="600" height="361" xmlns="http://www.w3.org/2000/svg" >
<defs><marker id="arrowhead" markerWidth="10" markerHeight="7" refX="0" refY="3.5" orient="auto"><polygon points="0 0, 10 3.5, 0 7" /></marker></defs>
<path id="bottomxline" d="M 10 360 h 580" stroke="#FFFFFF" stroke-width="1" fill="none" /> 
<g transform="translate(0, -10)">
<text x="125" y="33" style="font-size:13px;font-family:'Microsoft Yahei'">主库</text>
<rect x="20" y="40" width="240" height="110" style="fill:none;stroke:#0000FF;stroke-width:1" />
<g transform="translate(30, 100)">
<ellipse cx="51" cy="21" rx="50" ry="20" style="fill:#DAE8FC;stroke:#0000FF;stroke-width:1" />
<text x="17" y="25" style="font-size:15px;font-family:'Arial'">postmaster</text>
</g>
<g transform="translate(150, 100)">
<ellipse cx="51" cy="21" rx="50" ry="20" style="fill:#DAE8FC;stroke:#0000FF;stroke-width:1" />
<text x="18" y="25" style="font-size:15px;font-family:'Arial'">walsender</text>
</g>
<text x="450" y="33" style="font-size:13px;font-family:'Microsoft Yahei'">备库</text>
<rect x="340" y="40" width="240" height="110" style="fill:none;stroke:#0000FF;stroke-width:1" />
<g transform="translate(410, 50)">
<ellipse cx="51" cy="21" rx="50" ry="20" style="fill:#DAE8FC;stroke:#0000FF;stroke-width:1" />
<text x="17" y="25" style="font-size:15px;font-family:'Arial'">postmaster</text>
</g>

<path d="M 80 95 v -7 a 30 10 0 0 1 120 0" stroke="#000000" stroke-width="1" fill="none" marker-end="url(#arrowhead)" />
<text x="132" y="85" style="font-size:15px;font-family:'Arial'">(4)</text>

<g transform="translate(470, 100)">
<ellipse cx="51" cy="21" rx="50" ry="20" style="fill:#DAE8FC;stroke:#0000FF;stroke-width:1" />
<text x="28" y="25" style="font-size:15px;font-family:'Arial'">startup</text>
</g>
<g transform="translate(350, 100)">
<ellipse cx="51" cy="21" rx="50" ry="20" style="fill:#DAE8FC;stroke:#0000FF;stroke-width:1" />
<text x="15" y="25" style="font-size:15px;font-family:'Arial'">walreceiver</text>
</g>

<path d="M 80 142 V 330" stroke="#000000" stroke-width="1" stroke-dasharray="3,3" fill="none" marker-end="url(#arrowhead)" />
<path d="M 200 142 V 330" stroke="#000000" stroke-width="1" stroke-dasharray="3,3" fill="none" marker-end="url(#arrowhead)" />
<path d="M 400 142 V 330" stroke="#000000" stroke-width="1" stroke-dasharray="3,3" fill="none" marker-end="url(#arrowhead)" />
<path d="M 520 142 V 330" stroke="#000000" stroke-width="1" stroke-dasharray="3,3" fill="none" marker-end="url(#arrowhead)" />

<path d="M 520 96 a 20 10 0 0 0 0 -15" stroke="#000000" stroke-width="1" fill="none" marker-end="url(#arrowhead)" />
<path d="M 408 72 a 20 15 0 0 0 -10 15" stroke="#000000" stroke-width="1" fill="none" marker-end="url(#arrowhead)" />

<text x="530" y="90" style="font-size:15px;font-family:'Arial'">(1)</text>
<text x="373" y="90" style="font-size:15px;font-family:'Arial'">(2)</text>
<text x="370" y="168" style="font-size:15px;font-family:'Arial'">(3)</text>
<text x="370" y="203" style="font-size:15px;font-family:'Arial'">(5)</text>
<text x="205" y="238" style="font-size:15px;font-family:'Arial'">(6)</text>
<text x="405" y="273" style="font-size:15px;font-family:'Arial'">(7)</text>
<text x="370" y="308" style="font-size:15px;font-family:'Arial'">(8)</text>

<path d="M 300 175 H 92" stroke="#000000" stroke-width="1" fill="none" marker-end="url(#arrowhead)" />
<path d="M 300 175 H 388" stroke="#000000" stroke-width="1" fill="none" marker-end="url(#arrowhead)" />
<path d="M 300 210 H 212" stroke="#000000" stroke-width="1" fill="none" marker-end="url(#arrowhead)" />
<path d="M 300 210 H 388" stroke="#000000" stroke-width="1" fill="none" marker-end="url(#arrowhead)" />
<path d="M 202 245 H 388" stroke="#000000" stroke-width="1" fill="none" marker-end="url(#arrowhead)" />
<path d="M 402 280 H 508" stroke="#000000" stroke-width="1" fill="none" marker-end="url(#arrowhead)" />
<path d="M 300 315 H 388" stroke="#000000" stroke-width="1" fill="none" marker-end="url(#arrowhead)" />
<path d="M 300 315 H 212" stroke="#000000" stroke-width="1" fill="none" marker-end="url(#arrowhead)" />
<path d="M 402 315 H 508" stroke="#000000" stroke-width="1" fill="none" marker-end="url(#arrowhead)" />

</g>
</svg>
