<svg version="1.1" width="600" height="281" xmlns="http://www.w3.org/2000/svg" >
<defs><marker id="arrowhead" markerWidth="10" markerHeight="7" refX="0" refY="3.5" orient="auto"><polygon points="0 0, 10 3.5, 0 7" /></marker></defs>
<path id="bottomxline" d="M 10 280 h 580" stroke="#FFFFFF" stroke-width="1" fill="none" /> 
<g transform="translate(0, -10)">
<g transform="translate(70, 20)">
<ellipse cx="31" cy="10" rx="30" ry="10" style="fill:rgb(115,131,191);stroke:rgb(115,131,191);stroke-width:1" />
<path d="M 1 15 a 30 10 0 0 0 60 0 v 15 a 30 10 0 0 1 -60 0 v -15" stroke="rgb(115,131,191)" stroke-width="1" fill="rgb(115,131,191)"/>
<path d="M 1 35 a 30 10 0 0 0 60 0 v 15 a 30 10 0 0 1 -60 0 v -15" stroke="rgb(115,131,191)" stroke-width="1" fill="rgb(115,131,191)"/>
<path d="M 1 55 a 30 10 0 0 0 60 0 v 15 a 30 10 0 0 1 -60 0 v -15" stroke="rgb(115,131,191)" stroke-width="1" fill="rgb(115,131,191)"/>
<circle cx="50" cy="29" r="3" fill="#FFFFFF" />
<circle cx="50" cy="49" r="3" fill="#FFFFFF" />
<circle cx="50" cy="69" r="3" fill="#FFFFFF" />
</g>

<text x="140" y="60" style="font-size:13px;font-family:'Microsoft Yahei'">数据库备份</text>

<g transform="translate(370, 20)">
<ellipse cx="31" cy="10" rx="30" ry="10" style="fill:rgb(115,131,191);stroke:rgb(115,131,191);stroke-width:1" />
<path d="M 1 15 a 30 10 0 0 0 60 0 v 15 a 30 10 0 0 1 -60 0 v -15" stroke="rgb(115,131,191)" stroke-width="1" fill="rgb(115,131,191)"/>
<path d="M 1 35 a 30 10 0 0 0 60 0 v 15 a 30 10 0 0 1 -60 0 v -15" stroke="rgb(115,131,191)" stroke-width="1" fill="rgb(115,131,191)"/>
<path d="M 1 55 a 30 10 0 0 0 60 0 v 15 a 30 10 0 0 1 -60 0 v -15" stroke="rgb(115,131,191)" stroke-width="1" fill="rgb(115,131,191)"/>
<circle cx="50" cy="29" r="3" fill="#FFFFFF" />
<circle cx="50" cy="49" r="3" fill="#FFFFFF" />
<circle cx="50" cy="69" r="3" fill="#FFFFFF" />
</g>

<text x="440" y="60" style="font-size:13px;font-family:'Microsoft Yahei'">运行中的数据库</text>

<path d="M 100 105 V 185" stroke="#000000" stroke-width="1" fill="none" marker-end="url(#arrowhead)" />
<path d="M 400 105 V 185" stroke="#000000" stroke-width="1" fill="none" marker-end="url(#arrowhead)" />
<path d="M 100 200 v 20" stroke="#0000FF" stroke-width="1" fill="none" />
<path d="M 400 200 v 20" stroke="#0000FF" stroke-width="1" fill="none" />

<path d="M 20 200 h 560" stroke="#0000FF" stroke-width="1" fill="none" />
<path d="M 20 220 h 560" stroke="#0000FF" stroke-width="1" fill="none" />
<rect x="40" y="200" width="520" height="20" style="fill:none;stroke:#0000FF;stroke-width:1" />
<text x="15" y="212" style="font-size:25px;font-family:'Arial'">...</text>
<text x="565" y="212" style="font-size:25px;font-family:'Arial'">...</text>

<text x="465" y="165" style="font-size:13px;font-family:'Microsoft Yahei'">检查点WAL记录</text>
<path d="M 510 170 V 185" stroke="#000000" stroke-width="1" fill="none" marker-end="url(#arrowhead)" />

<text x="265" y="235" style="font-size:13px;font-family:'Microsoft Yahei'">WAL文件</text>

<rect x="140" y="200" width="20" height="20" style="fill:#F0F0F0;stroke:#0000FF;stroke-width:1" />
<rect x="240" y="200" width="20" height="20" style="fill:#F0F0F0;stroke:#0000FF;stroke-width:1" />
<rect x="310" y="200" width="20" height="20" style="fill:#F0F0F0;stroke:#0000FF;stroke-width:1" />
<rect x="500" y="200" width="20" height="20" style="fill:#F0F0F0;stroke:#0000FF;stroke-width:1" />

<path d="M 150 225 v 10 a 25 25 0 0 1 -50 0" stroke="#000000" stroke-width="1" stroke-dasharray="3,3" fill="none" marker-end="url(#arrowhead)" />

<path d="M 510 225 v 10 a 55 25 0 0 1 -110 0" stroke="#000000" stroke-width="1" stroke-dasharray="3,3" fill="none" marker-end="url(#arrowhead)" />

<text x="348" y="180" style="font-size:13px;font-family:'Microsoft Yahei'">重做点A</text>
<text x="105" y="180" style="font-size:13px;font-family:'Microsoft Yahei'">重做点B</text>

<path d="M 250 140 H 115" stroke="#000000" stroke-width="1" stroke-dasharray="3,3" fill="none" marker-end="url(#arrowhead)" />

<path d="M 253 140 H 385" stroke="#000000" stroke-width="1" stroke-dasharray="3,3" fill="none" marker-end="url(#arrowhead)" />
</g>
</svg>
