<svg version="1.1" width="600" height="121" xmlns="http://www.w3.org/2000/svg" >
<defs><marker id="arrowhead" markerWidth="10" markerHeight="7" refX="0" refY="3.5" orient="auto"><polygon points="0 0, 10 3.5, 0 7" /></marker></defs>
<path d="M 10 120 h 580" stroke="#FFFFFF" stroke-width="1" fill="none" />
<g transform="translate(0, -62)">
<text x="150" y="77" style="font-size:13px;font-family:'Courier New'">HeapTupleHeaderData</text>
<path d="M 20 95 v -3 a 5 5 0 0 1 5 -5 h 180 a 5 5 0 0 0 5 -5 a 5 5 0 0 0 5 5 h 180 a 5 5 0 0 1 5 5 v 3" stroke="#000000" stroke-width="1" fill="none" />

<rect x="20" y="100" width="560" height="20" style="fill:none;stroke:#0000FF;stroke-width:1" />
<rect x="400" y="100" width="180" height="20" style="fill:rgb(213,232,212);stroke:#0000FF;stroke-width:1" />
<text x="470" y="115" style="font-size:13px;font-family:'Microsoft Yahei'">数据区</text>

<path d="M 70 100 v 20" stroke="#0000FF" stroke-width="1" fill="none" />
<path d="M 120 100 v 20" stroke="#0000FF" stroke-width="1" fill="none" />
<path d="M 170 100 v 20" stroke="#0000FF" stroke-width="1" fill="none" />
<path d="M 260 100 v 20" stroke="#0000FF" stroke-width="1" fill="none" />


<path d="M 45 145 V 132" stroke="#000000" stroke-width="1" fill="none" marker-end="url(#arrowhead)"/>
<path d="M 95 145 V 132" stroke="#000000" stroke-width="1" fill="none" marker-end="url(#arrowhead)"/>
<path d="M 215 145 V 132" stroke="#000000" stroke-width="1" fill="none" marker-end="url(#arrowhead)"/>

<text x="10" y="155" style="font-size:13px;font-family:'Courier New'">t_xmin</text>
<text x="80" y="155" style="font-size:13px;font-family:'Courier New'">t_xmax</text>
<text x="190" y="155" style="font-size:13px;font-family:'Courier New'">t_ctid</text>
</g>
</svg>
