<svg version="1.1" width="600" height="150" xmlns="http://www.w3.org/2000/svg">
<defs><marker id="arrowhead" markerWidth="10" markerHeight="7" refX="0" refY="3.5" orient="auto"><polygon points="0 0, 10 3.5, 0 7" /></marker></defs>
<path d="M 10 149 h 580" stroke="#FFFFFF" stroke-width="1" fill="none" />
<rect x="135" y="20" width="160" height="30" style="fill:#DAE8FC;stroke:#0000FF;stroke-width:1" />
<rect x="305" y="20" width="160" height="30" style="fill:#DAE8FC;stroke:#0000FF;stroke-width:1" />
<path d="M 285 20 v 30 " stroke="#0000FF" stroke-width="1" fill="none" />
<path d="M 315 20 v 30 " stroke="#0000FF" stroke-width="1" fill="none" />

<path d="M 135 52 v 5 a 5 5 0 0 0 5 5 h 65 a 5 5 0 0 1 5 5 a 5 5 0 0 1 5 -5 h 65 a 5 5 0 0 0 5 -5 v -5" stroke="#000000" stroke-width="1" fill="none" />
<path d="M 315 52 v 5 a 5 5 0 0 0 5 5 h 65 a 5 5 0 0 1 5 5 a 5 5 0 0 1 5 -5 h 65 a 5 5 0 0 0 5 -5 v -5" stroke="#000000" stroke-width="1" fill="none" />
<text x="180" y="80" style="font-size:15px;font-family:'Courier New'">lp_off</text>
<text x="370" y="80" style="font-size:15px;font-family:'Courier New'">lp_len</text>

<path d="M 300 95 V 80 L 290 70 V 62" stroke="#000000" stroke-width="1" fill="none" marker-end="url(#arrowhead)"/>
<path d="M 300 80 L 310 70 V 62" stroke="#000000" stroke-width="1" fill="none" marker-end="url(#arrowhead)"/>
<text x="260" y="110" style="font-size:15px;font-family:'Courier New'">lp_flags</text>
</svg>
