<svg version="1.1" width="600" height="386" xmlns="http://www.w3.org/2000/svg" >
<defs><marker id="arrowhead" markerWidth="10" markerHeight="7" refX="0" refY="3.5" orient="auto"><polygon points="0 0, 10 3.5, 0 7" /></marker></defs>
<path id="bottomxline" d="M 10 385 h 580" stroke="#FFFFFF" stroke-width="1" fill="none" /> 
<g transform="translate(0, -10)">
<path d="M 160 20 V 360 " stroke="#000000" stroke-width="1" fill="none" marker-end="url(#arrowhead)" />
<text x="20" y="40" style="font-size:13px;font-family:'Courier New'">pg_backup_start()</text>
<text x="20" y="300" style="font-size:13px;font-family:'Courier New'">pg_backup_stop()</text>
<path d="M 90 50 v 15 h 55 " stroke="#000000" stroke-width="1" fill="none" marker-end="url(#arrowhead)" />
<path d="M 90 310 v 15 h 55 " stroke="#000000" stroke-width="1" fill="none" marker-end="url(#arrowhead)" />

<circle cx="160" cy="65" r="4" fill="#FF0000" />
<circle cx="160" cy="325" r="4" fill="#FF0000" />
<text x="137" y="83" style="font-size:15px;font-family:'Arial'">(1)</text>
<text x="137" y="345" style="font-size:15px;font-family:'Arial'">(3)</text>
<text x="265" y="220" style="font-size:15px;font-family:'Arial'">(2)</text>
<text x="265" y="318" style="font-size:15px;font-family:'Arial'">(4)</text>

<path d="M 170 325 H 445 " stroke="#000000" stroke-width="1" fill="none" marker-end="url(#arrowhead)" />

<text x="390" y="35" style="font-size:13px;font-family:'Microsoft Yahei'">被归档的WAL文件</text>

<rect x="340" y="40" width="200" height="20" style="fill:rgb(218,232,252);stroke:#0000FF;stroke-width:1" />
<rect x="340" y="70" width="200" height="20" style="fill:rgb(218,232,252);stroke:#0000FF;stroke-width:1" />
<rect x="340" y="100" width="200" height="20" style="fill:rgb(218,232,252);stroke:#0000FF;stroke-width:1" />
<rect x="340" y="130" width="200" height="20" style="fill:rgb(218,232,252);stroke:#0000FF;stroke-width:1" />
<rect x="340" y="160" width="200" height="20" style="fill:rgb(218,232,252);stroke:#0000FF;stroke-width:1" />
<text x="347" y="53" style="font-size:13px;font-family:'Courier New'">0000000B000000A6000000FD</text>
<text x="347" y="83" style="font-size:13px;font-family:'Courier New'">0000000B000000A6000000FE</text>
<text x="347" y="113" style="font-size:13px;font-family:'Courier New'">0000000B000000A6000000FF</text>
<text x="347" y="143" style="font-size:13px;font-family:'Courier New'">0000000B000000A700000000</text>
<text x="347" y="173" style="font-size:13px;font-family:'Courier New'">0000000B000000A700000001</text>

<path d="M 338 40 h -3 a 5 5 0 0 0 -5 5 v 60 a 5 5 0 0 1 -5 5 a 5 5 0 0 1 5 5 v 60 a 5 5 0 0 0 5 5 h 3" stroke="#000000" stroke-width="1" fill="none"/>

<path d="M 245 110 h 65 " stroke="#000000" stroke-width="1" fill="none" marker-end="url(#arrowhead)" />

<path d="M 460 320 v 20 h 80 v -40 h -60 z" stroke="#0000FF" stroke-width="1" fill="rgb(248,206,204)" />
<path d="M 460 320 h 20 v -20" stroke="#0000FF" stroke-width="1" fill="rgb(248,206,204)" />
<text x="455" y="355" style="font-size:13px;font-family:'Courier New'">backup_label</text>

<path d="M 545 40 h 5 a 10 10 0 0 1 10 10 v 130 a 10 10 0 0 0 10 10 a 10 10 0 0 0 -10 10 v 130 a 10 10 0 0 1 -10 10 h -5" stroke="#000000" stroke-width="1" fill="none" />

<text x="170" y="85" style="font-size:13px;font-family:'Microsoft Yahei'">运行中的数据库</text>

<g transform="translate(180, 90)">
<ellipse cx="30" cy="10" rx="30" ry="10" style="fill:rgb(115,131,191);stroke:rgb(115,131,191);stroke-width:1" />
<path d="M 0 15 a 30 10 0 0 0 60 0 v 15 a 30 10 0 0 1 -60 0 v -15" stroke="rgb(115,131,191)" stroke-width="1" fill="rgb(115,131,191)"/>
<path d="M 0 35 a 30 10 0 0 0 60 0 v 15 a 30 10 0 0 1 -60 0 v -15" stroke="rgb(115,131,191)" stroke-width="1" fill="rgb(115,131,191)"/>
<path d="M 0 55 a 30 10 0 0 0 60 0 v 15 a 30 10 0 0 1 -60 0 v -15" stroke="rgb(115,131,191)" stroke-width="1" fill="rgb(115,131,191)"/>
<circle cx="50" cy="29" r="3" fill="#FFFFFF" />
<circle cx="50" cy="49" r="3" fill="#FFFFFF" />
<circle cx="50" cy="69" r="3" fill="#FFFFFF" />
</g>

<path d="M 210 175 a 180 100 0 0 0 175 80 " stroke="#000000" stroke-width="1" fill="none" marker-end="url(#arrowhead)" />

<text x="465" y="250" style="font-size:13px;font-family:'Microsoft Yahei'">数据库备份</text>

<g transform="translate(400, 210)">
<ellipse cx="30" cy="10" rx="30" ry="10" style="fill:rgb(115,131,191);stroke:rgb(115,131,191);stroke-width:1" />
<path d="M 0 15 a 30 10 0 0 0 60 0 v 15 a 30 10 0 0 1 -60 0 v -15" stroke="rgb(115,131,191)" stroke-width="1" fill="rgb(115,131,191)"/>
<path d="M 0 35 a 30 10 0 0 0 60 0 v 15 a 30 10 0 0 1 -60 0 v -15" stroke="rgb(115,131,191)" stroke-width="1" fill="rgb(115,131,191)"/>
<path d="M 0 55 a 30 10 0 0 0 60 0 v 15 a 30 10 0 0 1 -60 0 v -15" stroke="rgb(115,131,191)" stroke-width="1" fill="rgb(115,131,191)"/>
<circle cx="50" cy="29" r="3" fill="#FFFFFF" />
<circle cx="50" cy="49" r="3" fill="#FFFFFF" />
<circle cx="50" cy="69" r="3" fill="#FFFFFF" />
</g>
</g>
</svg>
