<svg version="1.1" width="600" height="151" xmlns="http://www.w3.org/2000/svg" >
<defs><marker id="arrowhead" markerWidth="10" markerHeight="7" refX="0" refY="3.5" orient="auto"><polygon points="0 0, 10 3.5, 0 7" /></marker></defs>
<path id="bottomxline" d="M 10 150 h 580" stroke="#FFFFFF" stroke-width="1" fill="none" />
<rect x="65" y="60" width="150" height="20" style="fill:#DAE8FC;stroke:#0000FF;stroke-width:1" stroke-dasharray="3,3" />

<rect x="225" y="60" width="150" height="20" style="fill:#DAE8FC;stroke:#0000FF;stroke-width:1"/>

<rect x="385" y="60" width="150" height="20" style="fill:#DAE8FC;stroke:#0000FF;stroke-width:1" />
<rect x="460" y="60" width="40" height="20" style="fill:rgb(225,213,231);stroke:#0000FF;stroke-width:1" />
<path d="M 320 60 v20" stroke="#0000FF" stroke-width="1" fill="none"/>

<path d="M 480 58 v -10 a 80 20 0 0 0 -160 0" stroke="#000000" stroke-width="1" stroke-dasharray="3,3" fill="none" marker-end="url(#arrowhead)"/>
<path d="M 320 100 v -8" stroke="#000000" stroke-width="1" fill="none" marker-end="url(#arrowhead)"/>
<text x="300" y="115" style="font-size:13px;font-family:'Microsoft Yahei'">重做点</text>
<text x="485" y="50" style="font-size:13px;font-family:'Microsoft Yahei'">检查点WAL记录</text>

<path d="M 65 58 v -5 a 5 5 0 0 1 5 -5 h 65 a 5 5 0 0 0 5 -5 a 5 5 0 0 0 5 5 h 65 a 5 5 0 0 1 5 5 v 5" stroke="#000000" stroke-width="1" fill="none"/>

<path d="M 385 82 v 5 a 5 5 0 0 0 5 5 h 65 a 5 5 0 0 1 5 5 a 5 5 0 0 1 5 -5 h 65 a 5 5 0 0 0 5 -5 v -5" stroke="#000000" stroke-width="1" fill="none"/>

<text x="100" y="36" style="font-size:13px;font-family:'Microsoft Yahei'">WAL文件 n-2</text>
<text x="425" y="113" style="font-size:13px;font-family:'Microsoft Yahei'">WAL文件 n</text>
</svg>
