<svg version="1.1" width="600" height="186" xmlns="http://www.w3.org/2000/svg" >
<defs><marker id="arrowhead" markerWidth="10" markerHeight="7" refX="0" refY="3.5" orient="auto"><polygon points="0 0, 10 3.5, 0 7" /></marker></defs>
<path id="bottomxline" d="M 10 185 h 580" stroke="#FFFFFF" stroke-width="1" fill="none" />  
<path d="M 200 60 v 50" stroke="#000000" stroke-dasharray="2,3" stroke-width="1" fill="none" />
<path d="M 400 80 v 30" stroke="#000000" stroke-dasharray="2,3" stroke-width="1" fill="none" />

<path d="M 10 80 h 570" stroke="#000000" stroke-width="1" fill="none" marker-end="url(#arrowhead)"  />
<circle cx="200" cy="80" r="4" fill="#FF0000" stroke="#FF0000" stroke-width="1" />
<circle cx="400" cy="80" r="4" fill="#FF0000" stroke="#FF0000" stroke-width="1" />

<rect x="400" y="53" width="80" height="20" style="fill:#DAE8FC;stroke:#0000FF;stroke-width:1" />

<path d="M 420 50 v -30 h -200 a 20 20 0 0 0 -20 20 v 5" stroke="#000000" stroke-width="1" fill="none" marker-end="url(#arrowhead)"  />

<text x="430" y="45" style="font-size:13px;font-family:'Microsoft Yahei'">检查点WAL记录</text>
<text x="187" y="75" style="font-size:13px;font-family:'Arial'">A</text>
<text x="406" y="95" style="font-size:13px;font-family:'Arial'">B</text>

<path d="M 200 110 v 3 a 10 10 0 0 0 10 10 h 80 a 10 10 0 0 1 10 10 a 10 10 0 0 1 10 -10 h 80 a 10 10 0 0 0 10 -10 v -3" stroke="#000000" stroke-width="1" fill="none" />

<text x="248" y="148" style="font-size:13px;font-family:'Microsoft Yahei'">检查点的执行时间</text>
<text x="20" y="72" style="font-size:13px;font-family:'Microsoft Yahei'">WAL空间</text>
</svg>
