<svg version="1.1" width="600" height="211" 
xmlns="http://www.w3.org/2000/svg" 
xmlns:sodipodi="http://sodipodi.sourceforge.net/DTD/sodipodi-0.dtd"
xmlns:inkscape="http://www.inkscape.org/namespaces/inkscape"
xmlns:rdf="http://www.w3.org/1999/02/22-rdf-syntax-ns#"
xmlns:cc="http://creativecommons.org/ns#"
xmlns:dc="http://purl.org/dc/elements/1.1/"
xmlns:ns1="http://sozi.baierouge.fr"
xmlns:xlink="http://www.w3.org/1999/xlink"
>
<defs><marker id="arrowhead" markerWidth="10" markerHeight="7" refX="0" refY="3.5" orient="auto"><polygon points="0 0, 10 3.5, 0 7" /></marker></defs>
<path id="bottomxline" d="M 10 210 h 580" stroke="#FFFFFF" stroke-width="1" fill="none" /> 
<g transform="translate(0, -35)">
<text x="35" y="55" style="font-size:15px;font-family:'Arial'">A</text>
<text x="235" y="155" style="font-size:15px;font-family:'Arial'">B</text>

<path d="M 40 60 v 120" stroke="#000000" stroke-width="1" stroke-dasharray="3,3" fill="none"/>
<path d="M 240 160 v 40" stroke="#000000" stroke-width="1" stroke-dasharray="3,3" fill="none"/>

<path d="M 20 80 h 560" stroke="#000000" stroke-width="1" fill="none" marker-end="url(#arrowhead)" />
<path d="M 40 80 h 140" stroke="#FF0000" stroke-width="6" fill="none" />
<circle cx="40" cy="80" r="6" fill="#FF0000" />
<circle cx="180" cy="80" r="6" fill="#FF0000" />
<path d="M 240 80 h 120" stroke="#FF0000" stroke-width="6" fill="none" />
<circle cx="240" cy="80" r="6" fill="#FF0000" />

<path d="M 20 180 h 560" stroke="#000000" stroke-width="1" fill="none" marker-end="url(#arrowhead)" />
<path d="M 40 180 h 140" stroke="#FF0000" stroke-width="6" fill="none" />
<circle cx="40" cy="180" r="6" fill="#FF0000" />
<circle cx="180" cy="180" r="6" fill="#FF0000" />
<path d="M 40 190 v 5 a 5 5 0 0 0 5 5 h 60 a 5 5 0 0 1 5 5 a 5 5 0 0 1 5 -5 h 60 a 5 5 0 0 0 5 -5 v -5" stroke="#000000" stroke-width="1" fill="none"/>
<text x="91" y="220" style="font-size:13px;font-family:'Microsoft Yahei'">检查点</text>

<path d="M 240 180 h 140" stroke="#FF0000" stroke-width="6" fill="none" />
<circle cx="240" cy="180" r="6" fill="#FF0000" />
<circle cx="380" cy="180" r="6" fill="#FF0000" />

<g transform="translate(420, 120) scale(0.1 0.1)">
    <path id="path2816"
        style="fill-rule:evenodd;stroke:#000000;stroke-miterlimit:8.8;stroke-width:12.437;fill:#d40000"
        sodipodi:nodetypes="ccccccccccccccccc"
        transform="matrix(.80404 0 0 .80404 136.23 145.31)"
        d="m710.96 880.08-280.91-134.02-40.45 239.91-214.27-218.88-277.07 151.39 153.57-295.13-191.93-54.66 179.78-127.21-178.03-190.01 277.35 70.06 93.76-206.15 143.2 176.24 330.37-137.17-151.79 245.37 254.12 93.76-247.31 100.55 149.61 285.95z"/>
    <path id="path3591"
        sodipodi:nodetypes="ccccccccccccccccc"
        style="fill-rule:evenodd;stroke:#000000;stroke-miterlimit:8.8;stroke-width:6.9315;fill:#ffff00"
        d="m624.93 767.38-166.55-70.41-36.83 149.42-105.14-137.7-162.98 77.23 94.16-157.34-115.54-40.47 108.77-60.89-99.23-105.9l154.58 39.045 45.108-116.32 86.952 99.648 188.41-100.73-90.31 138.18 155.91 63.679-159.26 61.758 101.95 160.79z"
    />
    <path id="path3593"
        sodipodi:nodetypes="ccccccccccccccccc"
        style="fill-rule:evenodd;stroke:#000000;stroke-miterlimit:8.8;stroke-width:4.1588;fill:#ffffff"
        d="m543.53 695.44-105.65-39.386-22.097 89.649-63.078-82.618-97.789 46.335 56.493-94.4-82.18-31.422 78.118-29.394-59.533-63.535 92.744 23.427 27.064-69.79 52.17 59.787 107.33-76.153-55.613 80.05 102.12 43.921-96.98 49.911 66.884 93.617z"
    />
</g>

<g transform="translate(320, 20) scale(0.1 0.1)">
    <path id="path2816"
        style="fill-rule:evenodd;stroke:#000000;stroke-miterlimit:8.8;stroke-width:12.437;fill:#d40000"
        sodipodi:nodetypes="ccccccccccccccccc"
        transform="matrix(.80404 0 0 .80404 136.23 145.31)"
        d="m710.96 880.08-280.91-134.02-40.45 239.91-214.27-218.88-277.07 151.39 153.57-295.13-191.93-54.66 179.78-127.21-178.03-190.01 277.35 70.06 93.76-206.15 143.2 176.24 330.37-137.17-151.79 245.37 254.12 93.76-247.31 100.55 149.61 285.95z"/>
    <path id="path3591"
        sodipodi:nodetypes="ccccccccccccccccc"
        style="fill-rule:evenodd;stroke:#000000;stroke-miterlimit:8.8;stroke-width:6.9315;fill:#ffff00"
        d="m624.93 767.38-166.55-70.41-36.83 149.42-105.14-137.7-162.98 77.23 94.16-157.34-115.54-40.47 108.77-60.89-99.23-105.9l154.58 39.045 45.108-116.32 86.952 99.648 188.41-100.73-90.31 138.18 155.91 63.679-159.26 61.758 101.95 160.79z"
    />
    <path id="path3593"
        sodipodi:nodetypes="ccccccccccccccccc"
        style="fill-rule:evenodd;stroke:#000000;stroke-miterlimit:8.8;stroke-width:4.1588;fill:#ffffff"
        d="m543.53 695.44-105.65-39.386-22.097 89.649-63.078-82.618-97.789 46.335 56.493-94.4-82.18-31.422 78.118-29.394-59.533-63.535 92.744 23.427 27.064-69.79 52.17 59.787 107.33-76.153-55.613 80.05 102.12 43.921-96.98 49.911 66.884 93.617z"
    />
</g>
</g>
</svg>
