<svg version="1.1" width="600" height="86" xmlns="http://www.w3.org/2000/svg" >
<defs><marker id="arrowhead" markerWidth="10" markerHeight="7" refX="0" refY="3.5" orient="auto"><polygon points="0 0, 10 3.5, 0 7" /></marker></defs>
<path id="bottomxline" d="M 10 85 h 580" stroke="#FFFFFF" stroke-width="1" fill="none" /> 

<g transform="translate(0, -70)">
<path d="M 10 100 H 580" stroke="#000000" stroke-width="1" fill="none" marker-end="url(#arrowhead)"/>
<circle cx="30" cy="100" r="4" fill="#FF0000" />
<circle cx="80" cy="100" r="4" fill="#FF0000" />
<circle cx="360" cy="100" r="4" fill="#FF0000" />
<circle cx="450" cy="100" r="4" fill="#FF0000" />

<path d="M 80 110 v 5 a 10 10 0 0 0 10 10 h 120 a 10 10 0 0 1 10 10 a 10 10 0 0 1 10 -10 h 120 a 10 10 0 0 0 10 -10 v -5" stroke="#000000" stroke-width="1" fill="none" />

<text x="76" y="92" style="font-size:13px;font-family:'Arial'">A</text>
<text x="356" y="92" style="font-size:13px;font-family:'Arial'">B</text>
<text x="446" y="92" style="font-size:13px;font-family:'Arial'">C</text>
<text x="24" y="92" style="font-size:13px;font-family:'Arial'">R</text>
</g>
</svg>
