<svg version="1.1" width="600" height="221" xmlns="http://www.w3.org/2000/svg" >
<defs><marker id="arrowhead" markerWidth="10" markerHeight="7" refX="0" refY="3.5" orient="auto"><polygon points="0 0, 10 3.5, 0 7" /></marker></defs>
<path id="bottomxline" d="M 10 220 h 500" stroke="#FFFFFF" stroke-width="1" fill="none" />
<g transform="translate(30, -10)">
<path d="M 380 40 V 150" stroke="#000000" stroke-width="1" fill="none" stroke-dasharray="3,3" />
<path d="M 60 40 V 150" stroke="#000000" stroke-width="1" fill="none" stroke-dasharray="3,3" />

<path d="M 58 60 h -50" stroke="#000000" stroke-width="1" fill="none" marker-end="url(#arrowhead)" />

<path d="M 60 120 h 400" stroke="#000000" stroke-width="8" fill="none"/>
<path d="M 100 100 h 320" stroke="#000000" stroke-width="8" fill="none"/>
<path d="M 160 80 h 320" stroke="#000000" stroke-width="8" fill="none"/>
<path d="M 200 60 h 300" stroke="#000000" stroke-width="8" fill="none"/>

<path d="M 60 172 v 5 a 5 5 0 0 0 5 5 h 150 a 5 5 0 0 1 5 5 a 5 5 0 0 1 5 -5 h 150 a 5 5 0 0 0 5 -5 v -5" stroke="#000000" stroke-width="1" fill="none"/>

<text x="367" y="32" style="font-size:13px;font-family:'Microsoft Yahei'">快照</text>
<text x="42" y="165" style="font-size:15px;font-family:'Courier New'">xmin</text>
<text x="360" y="165" style="font-size:15px;font-family:'Courier New'">xmax</text>

<text x="63" y="113" style="font-size:15px;font-family:'Courier New'">xid1</text>
<text x="100" y="93" style="font-size:15px;font-family:'Courier New'">xid2</text>
<text x="160" y="73" style="font-size:15px;font-family:'Courier New'">xid3</text>
<text x="200" y="53" style="font-size:15px;font-family:'Courier New'">xid4</text>

<text x="115" y="203" style="font-size:15px;font-family:'Arial'">transaction-in-progress list(xip)</text>
<path d="M 20 150 h 520" stroke="#000000" stroke-width="1" fill="none" marker-end="url(#arrowhead)" />
<text x="530" y="145" style="font-size:15px;font-family:'Arial'">T</text>
</g>
</svg>
