<svg version="1.1" width="600" height="191" xmlns="http://www.w3.org/2000/svg" >
<defs><marker id="arrowhead" markerWidth="10" markerHeight="7" refX="0" refY="3.5" orient="auto"><polygon points="0 0, 10 3.5, 0 7" /></marker></defs>
<path id="bottomxline" d="M 10 190 h 580" stroke="#FFFFFF" stroke-width="1" fill="none" />
<g transform="translate(0, -5)">

<rect x="20" y="100" width="560" height="20" style="fill:none;stroke:#0000FF;stroke-width:1" />
<path d="M 140 100 v 20" stroke="#0000FF" stroke-width="1" fill="none"/>
<path d="M 160 100 v 20" stroke="#0000FF" stroke-width="1" fill="none"/>
<path d="M 220 100 v 20" stroke="#0000FF" stroke-width="1" fill="none"/>
<path d="M 240 100 v 20" stroke="#0000FF" stroke-width="1" fill="none"/>
<path d="M 260 100 v 20" stroke="#0000FF" stroke-width="1" fill="none"/>
<path d="M 280 100 v 20" stroke="#0000FF" stroke-width="1" fill="none"/>
<path d="M 560 100 v 20" stroke="#0000FF" stroke-width="1" fill="none"/>

<path d="M 90 70 V 88" stroke="#000000" stroke-width="1" fill="none" marker-end="url(#arrowhead)" />
<text x="30" y="63" style="font-size:13px;font-family:'Courier New'">XLogRecord</text>

<path d="M 150 150 V 132" stroke="#000000" stroke-width="1" fill="none" marker-end="url(#arrowhead)" />
<text x="20" y="162" style="font-size:13px;font-family:'Courier New'">XLogRecordBlockHeader</text>

<path d="M 190 70 V 88" stroke="#000000" stroke-width="1" fill="none" marker-end="url(#arrowhead)" />
<text x="128" y="63" style="font-size:13px;font-family:'Courier New'">RelFileLocator</text>

<path d="M 230 150 V 132" stroke="#000000" stroke-width="1" fill="none" marker-end="url(#arrowhead)" />
<text x="210" y="162" style="font-size:13px;font-family:'Courier New'">BlockNumber</text>

<path d="M 250 30 V 88" stroke="#000000" stroke-width="1" fill="none" marker-end="url(#arrowhead)" />
<text x="160" y="25" style="font-size:13px;font-family:'Courier New'">XLogRecordDataHeaderShort</text>

<path d="M 270 70 V 88" stroke="#000000" stroke-width="1" fill="none" marker-end="url(#arrowhead)" />
<text x="255" y="63" style="font-size:13px;font-family:'Courier New'">xl_heap_header</text>

<path d="M 570 150 V 132" stroke="#000000" stroke-width="1" fill="none" marker-end="url(#arrowhead)" />
<text x="480" y="162" style="font-size:13px;font-family:'Courier New'">xl_heap_insert</text>

<text x="82" y="115" style="font-size:13px;font-family:'Arial'">24</text>
<text x="147" y="115" style="font-size:13px;font-family:'Arial'">4</text>
<text x="181" y="115" style="font-size:13px;font-family:'Arial'">12</text>
<text x="226" y="115" style="font-size:13px;font-family:'Arial'">4</text>
<text x="246" y="115" style="font-size:13px;font-family:'Arial'">2</text>
<text x="267" y="115" style="font-size:13px;font-family:'Arial'">5</text>
<text x="566" y="115" style="font-size:13px;font-family:'Arial'">3</text>

<text x="388" y="75" style="font-size:13px;font-family:'Microsoft Yahei'">元组的数据</text>

<path d="M 280 95 v -5 a 5 5 0 0 1 5 -5 h 130 a 5 5 0 0 0 5 -5 a 5 5 0 0 0 5 5 h 130 a 5 5 0 0 1 5 5 v 5" stroke="#000000" stroke-width="1" fill="none"/>
  </g>
</svg>
