<svg version="1.1" width="600" height="281" xmlns="http://www.w3.org/2000/svg" >
<defs><marker id="arrowhead" markerWidth="10" markerHeight="7" refX="0" refY="3.5" orient="auto"><polygon points="0 0, 10 3.5, 0 7" /></marker></defs>
<path id="bottomxline" d="M 10 280 h 580" stroke="#FFFFFF" stroke-width="1" fill="none" />
<text x="180" y="93" style="font-size:13px;font-family:'Microsoft Yahei'">内存池</text>
<text x="230" y="40" style="font-size:13px;font-family:'Microsoft Yahei'">父节点</text>
<text x="430" y="147" style="font-size:13px;font-family:'Microsoft Yahei'">兄弟节点</text>

<rect x="275" y="20" width="50" height="31" style="fill:rgb(255,242,204);stroke:#0000FF;stroke-width:1" />
<path d="M 300 70 V 63" stroke="#000000" stroke-width="1" fill="none" marker-end="url(#arrowhead)" />
<path d="M 300 70 V 88" stroke="#000000" stroke-width="1" fill="none" marker-end="url(#arrowhead)" />

<rect x="430" y="100" width="50" height="31" style="fill:rgb(255,242,204);stroke:#0000FF;stroke-width:1" />
<rect x="530" y="100" width="50" height="31" style="fill:rgb(255,242,204);stroke:#0000FF;stroke-width:1" />

<path d="M 400 115 H 382" stroke="#000000" stroke-width="1" fill="none" marker-end="url(#arrowhead)" />
<path d="M 400 115 H 418" stroke="#000000" stroke-width="1" fill="none" marker-end="url(#arrowhead)" />

<path d="M 500 115 H 492" stroke="#000000" stroke-width="1" fill="none" marker-end="url(#arrowhead)" />
<path d="M 500 115 H 518" stroke="#000000" stroke-width="1" fill="none" marker-end="url(#arrowhead)" />

<path d="M 555 98 V 30 H 337" stroke="#000000" stroke-width="1" fill="none" marker-end="url(#arrowhead)" />
<path d="M 455 98 V 40 H 337" stroke="#000000" stroke-width="1" fill="none" marker-end="url(#arrowhead)" />

<rect x="20" y="100" width="350" height="150" style="fill:none;stroke:#0000FF;stroke-width:1" />

<text x="34" y="115" style="font-size:13px;font-family:'Courier New'">HTAB</text>
<text x="95" y="120" style="font-size:13px;font-family:'Courier New'">dir</text>
<text x="90" y="155" style="font-size:13px;font-family:'Courier New'">hctl</text>

<rect x="30" y="120" width="40" height="70" style="fill:#DAE8FC;stroke:#0000FF;stroke-width:1" />
<rect x="30" y="195" width="40" height="30" style="fill:#DAE8FC;stroke:#0000FF;stroke-width:1" />

<path d="M 72 125 H 138" stroke="#000000" stroke-width="1" fill="none" marker-end="url(#arrowhead)" />
<path d="M 72 160 h 60 V 195 h -48" stroke="#000000" stroke-width="1" fill="none" marker-end="url(#arrowhead)" />

<text x="25" y="238" style="font-size:13px;font-family:'Courier New'">HASHHDR</text>

<g transform="translate(-50, 60)">
<rect x="200" y="60" width="200" height="10" style="fill:#DAE8FC;stroke:#0000FF;stroke-width:1" />
<path d="M 220 60 v 10" stroke="#0000FF" stroke-width="1" fill="none"/>
<path d="M 240 60 v 10" stroke="#0000FF" stroke-width="1" fill="none"/>
<path d="M 260 60 v 10" stroke="#0000FF" stroke-width="1" fill="none"/>
<path d="M 280 60 v 10" stroke="#0000FF" stroke-width="1" fill="none"/>
<path d="M 300 60 v 10" stroke="#0000FF" stroke-width="1" fill="none"/>
<path d="M 320 60 v 10" stroke="#0000FF" stroke-width="1" fill="none"/>
<path d="M 340 60 v 10" stroke="#0000FF" stroke-width="1" fill="none"/>
<path d="M 360 60 v 10" stroke="#0000FF" stroke-width="1" fill="none"/>
<path d="M 380 60 v 10" stroke="#0000FF" stroke-width="1" fill="none"/>

<path d="M 210 72 v 6" stroke="#000000" stroke-width="1" fill="none" marker-end="url(#arrowhead)" />
<path d="M 230 72 v 6" stroke="#000000" stroke-width="1" fill="none" marker-end="url(#arrowhead)" />
<path d="M 250 72 v 6" stroke="#000000" stroke-width="1" fill="none" marker-end="url(#arrowhead)" />
<path d="M 270 72 v 6" stroke="#000000" stroke-width="1" fill="none" marker-end="url(#arrowhead)" />
<path d="M 290 72 v 6" stroke="#000000" stroke-width="1" fill="none" marker-end="url(#arrowhead)" />
<path d="M 310 72 v 6" stroke="#000000" stroke-width="1" fill="none" marker-end="url(#arrowhead)" />
<path d="M 330 72 v 6" stroke="#000000" stroke-width="1" fill="none" marker-end="url(#arrowhead)" />
<path d="M 350 72 v 6" stroke="#000000" stroke-width="1" fill="none" marker-end="url(#arrowhead)" />
<path d="M 370 72 v 6" stroke="#000000" stroke-width="1" fill="none" marker-end="url(#arrowhead)" />
<path d="M 390 72 v 6" stroke="#000000" stroke-width="1" fill="none" marker-end="url(#arrowhead)" />

<rect x="205" y="90" width="10" height="80" style="fill:#DAE8FC;stroke:#0000FF;stroke-width:1" />
<rect x="225" y="90" width="10" height="80" style="fill:#DAE8FC;stroke:#0000FF;stroke-width:1" />
<rect x="245" y="90" width="10" height="80" style="fill:#DAE8FC;stroke:#0000FF;stroke-width:1" />
<rect x="265" y="90" width="10" height="80" style="fill:#DAE8FC;stroke:#0000FF;stroke-width:1" />
<rect x="285" y="90" width="10" height="80" style="fill:#DAE8FC;stroke:#0000FF;stroke-width:1" />
<rect x="305" y="90" width="10" height="80" style="fill:#DAE8FC;stroke:#0000FF;stroke-width:1" />
<rect x="325" y="90" width="10" height="80" style="fill:#DAE8FC;stroke:#0000FF;stroke-width:1" />
<rect x="345" y="90" width="10" height="80" style="fill:#DAE8FC;stroke:#0000FF;stroke-width:1" />
<rect x="365" y="90" width="10" height="80" style="fill:#DAE8FC;stroke:#0000FF;stroke-width:1" />
<rect x="385" y="90" width="10" height="80" style="fill:#DAE8FC;stroke:#0000FF;stroke-width:1" />
<path d="M 385 100 h 10" stroke="#0000FF" stroke-width="1" fill="none"/>
<path d="M 385 110 h 10" stroke="#0000FF" stroke-width="1" fill="none"/>
<path d="M 385 120 h 10" stroke="#0000FF" stroke-width="1" fill="none"/>
<path d="M 385 130 h 10" stroke="#0000FF" stroke-width="1" fill="none"/>
<path d="M 385 140 h 10" stroke="#0000FF" stroke-width="1" fill="none"/>
<path d="M 385 150 h 10" stroke="#0000FF" stroke-width="1" fill="none"/>
<path d="M 385 160 h 10" stroke="#0000FF" stroke-width="1" fill="none"/>

<path d="M 397 95 h 6" stroke="#000000" stroke-width="1" fill="none" marker-end="url(#arrowhead)" />
<path d="M 397 105 h 6" stroke="#000000" stroke-width="1" fill="none" marker-end="url(#arrowhead)" />
<path d="M 397 115 h 6" stroke="#000000" stroke-width="1" fill="none" marker-end="url(#arrowhead)" />
<path d="M 397 125 h 6" stroke="#000000" stroke-width="1" fill="none" marker-end="url(#arrowhead)" />
<path d="M 397 135 h 6" stroke="#000000" stroke-width="1" fill="none" marker-end="url(#arrowhead)" />
<path d="M 397 145 h 6" stroke="#000000" stroke-width="1" fill="none" marker-end="url(#arrowhead)" />
<path d="M 397 155 h 6" stroke="#000000" stroke-width="1" fill="none" marker-end="url(#arrowhead)" />
<path d="M 397 165 h 6" stroke="#000000" stroke-width="1" fill="none" marker-end="url(#arrowhead)" />
</g>
</svg>
