<svg version="1.1" width="600" height="221" xmlns="http://www.w3.org/2000/svg" >
<defs><marker id="arrowhead" markerWidth="10" markerHeight="7" refX="0" refY="3.5" orient="auto"><polygon points="0 0, 10 3.5, 0 7" /></marker></defs>
<path id="bottomxline" d="M 10 220 h 580" stroke="#FFFFFF" stroke-width="1" fill="none" />

<g transform="translate(60, 40)">
<text x="-30" y="13" style="font-size:13px;font-family:'Arial'">(a)</text>
<rect x="0" y="0" width="80" height="20" style="fill:none;stroke:#0000FF;stroke-width:1" />
<path d="M 20 0 v 20" stroke="#0000FF" stroke-width="1" fill="none"/>
<path d="M 40 0 v 20" stroke="#0000FF" stroke-width="1" fill="none"/>
<path d="M 60 0 v 20" stroke="#0000FF" stroke-width="1" fill="none"/>
<text x="7" y="15" style="font-size:13px;font-family:'Arial'">0</text>
<text x="27" y="15" style="font-size:13px;font-family:'Arial'">1</text>
<text x="47" y="15" style="font-size:13px;font-family:'Arial'">2</text>
<text x="67" y="15" style="font-size:13px;font-family:'Arial'">3</text>
<rect x="85" y="0" width="20" height="20" style="fill:none;stroke:#0000FF;stroke-width:1" stroke-dasharray="2,2" />
<text x="92" y="15" style="font-size:13px;font-family:'Arial'">4</text>
<path d="M 10 -2 v -20 h 85 v 8" stroke="#000000" stroke-width="1" fill="none" marker-end="url(#arrowhead)" />
<path d="M 10 40 v -8" stroke="#000000" stroke-width="1" fill="none" marker-end="url(#arrowhead)" />
<text x="7" y="52" style="font-size:13px;font-family:'Arial'">p</text>
<path d="M 95 40 v -8" stroke="#000000" stroke-width="1" fill="none" marker-end="url(#arrowhead)" />
<text x="92" y="52" style="font-size:13px;font-family:'Arial'">q</text>
</g>

<g transform="translate(60, 130)">
<text x="-30" y="13" style="font-size:13px;font-family:'Arial'">(b)</text>
<rect x="0" y="0" width="80" height="20" style="fill:none;stroke:#0000FF;stroke-width:1" />
<path d="M 20 0 v 20" stroke="#0000FF" stroke-width="1" fill="none"/>
<path d="M 40 0 v 20" stroke="#0000FF" stroke-width="1" fill="none"/>
<path d="M 60 0 v 20" stroke="#0000FF" stroke-width="1" fill="none"/>
<text x="7" y="15" style="font-size:13px;font-family:'Arial'">0</text>
<text x="27" y="15" style="font-size:13px;font-family:'Arial'">1</text>
<text x="47" y="15" style="font-size:13px;font-family:'Arial'">2</text>
<text x="67" y="15" style="font-size:13px;font-family:'Arial'">3</text>
<rect x="85" y="0" width="20" height="20" style="fill:none;stroke:#0000FF;stroke-width:1"/>
<text x="92" y="15" style="font-size:13px;font-family:'Arial'">4</text>
<rect x="110" y="0" width="20" height="20" style="fill:none;stroke:#0000FF;stroke-width:1" stroke-dasharray="2,2" />
<text x="117" y="15" style="font-size:13px;font-family:'Arial'">5</text>
<path d="M 30 -2 v -20 h 90 v 8" stroke="#000000" stroke-width="1" fill="none" marker-end="url(#arrowhead)" />
<path d="M 30 40 v -8" stroke="#000000" stroke-width="1" fill="none" marker-end="url(#arrowhead)" />
<text x="27" y="52" style="font-size:13px;font-family:'Arial'">p</text>
<path d="M 120 40 v -8" stroke="#000000" stroke-width="1" fill="none" marker-end="url(#arrowhead)" />
<text x="117" y="52" style="font-size:13px;font-family:'Arial'">q</text>
</g>

<g transform="translate(300, 40)">
<text x="-30" y="13" style="font-size:13px;font-family:'Arial'">(c)</text>
<rect x="0" y="0" width="80" height="20" style="fill:none;stroke:#0000FF;stroke-width:1" />
<path d="M 20 0 v 20" stroke="#0000FF" stroke-width="1" fill="none"/>
<path d="M 40 0 v 20" stroke="#0000FF" stroke-width="1" fill="none"/>
<path d="M 60 0 v 20" stroke="#0000FF" stroke-width="1" fill="none"/>
<text x="7" y="15" style="font-size:13px;font-family:'Arial'">0</text>
<text x="27" y="15" style="font-size:13px;font-family:'Arial'">1</text>
<text x="47" y="15" style="font-size:13px;font-family:'Arial'">2</text>
<text x="67" y="15" style="font-size:13px;font-family:'Arial'">3</text>
<rect x="85" y="0" width="60" height="20" style="fill:none;stroke:#0000FF;stroke-width:1"/>
<path d="M 105 0 v 20" stroke="#0000FF" stroke-width="1" fill="none"/>
<path d="M 125 0 v 20" stroke="#0000FF" stroke-width="1" fill="none"/>
<text x="92" y="15" style="font-size:13px;font-family:'Arial'">4</text>
<text x="112" y="15" style="font-size:13px;font-family:'Arial'">5</text>
<text x="132" y="15" style="font-size:13px;font-family:'Arial'">6</text>
<rect x="150" y="0" width="20" height="20" style="fill:none;stroke:#0000FF;stroke-width:1" stroke-dasharray="2,2" />
<text x="157" y="15" style="font-size:13px;font-family:'Arial'">7</text>
<path d="M 70 -2 v -20 h 90 v 8" stroke="#000000" stroke-width="1" fill="none" marker-end="url(#arrowhead)" />
<path d="M 70 40 v -8" stroke="#000000" stroke-width="1" fill="none" marker-end="url(#arrowhead)" />
<text x="67" y="52" style="font-size:13px;font-family:'Arial'">p</text>
<path d="M 160 40 v -8" stroke="#000000" stroke-width="1" fill="none" marker-end="url(#arrowhead)" />
<text x="157" y="52" style="font-size:13px;font-family:'Arial'">q</text>

</g>

<g transform="translate(300, 130)">
<text x="-30" y="13" style="font-size:13px;font-family:'Arial'">(d)</text>
<rect x="0" y="0" width="160" height="20" style="fill:none;stroke:#0000FF;stroke-width:1" />
<path d="M 20 0 v 20" stroke="#0000FF" stroke-width="1" fill="none"/>
<path d="M 40 0 v 20" stroke="#0000FF" stroke-width="1" fill="none"/>
<path d="M 60 0 v 20" stroke="#0000FF" stroke-width="1" fill="none"/>
<path d="M 80 0 v 20" stroke="#0000FF" stroke-width="1" fill="none"/>
<path d="M 100 0 v 20" stroke="#0000FF" stroke-width="1" fill="none"/>
<path d="M 120 0 v 20" stroke="#0000FF" stroke-width="1" fill="none"/>
<path d="M 140 0 v 20" stroke="#0000FF" stroke-width="1" fill="none"/>
<text x="7" y="15" style="font-size:13px;font-family:'Arial'">0</text>
<text x="27" y="15" style="font-size:13px;font-family:'Arial'">1</text>
<text x="47" y="15" style="font-size:13px;font-family:'Arial'">2</text>
<text x="67" y="15" style="font-size:13px;font-family:'Arial'">3</text>
<text x="87" y="15" style="font-size:13px;font-family:'Arial'">4</text>
<text x="107" y="15" style="font-size:13px;font-family:'Arial'">5</text>
<text x="127" y="15" style="font-size:13px;font-family:'Arial'">6</text>
<text x="147" y="15" style="font-size:13px;font-family:'Arial'">7</text>

<rect x="165" y="0" width="20" height="20" style="fill:none;stroke:#0000FF;stroke-width:1" stroke-dasharray="2,2" />
<text x="172" y="15" style="font-size:13px;font-family:'Arial'">8</text>
<path d="M 10 -2 v -20 h 165 v 8" stroke="#000000" stroke-width="1" fill="none" marker-end="url(#arrowhead)" />
<path d="M 10 40 v -8" stroke="#000000" stroke-width="1" fill="none" marker-end="url(#arrowhead)" />
<text x="7" y="52" style="font-size:13px;font-family:'Arial'">p</text>
<path d="M 175 40 v -8" stroke="#000000" stroke-width="1" fill="none" marker-end="url(#arrowhead)" />
<text x="172" y="52" style="font-size:13px;font-family:'Arial'">q</text>
</g>

</svg>
