<svg version="1.1" width="600" height="151" xmlns="http://www.w3.org/2000/svg" >
<defs><marker id="arrowhead" markerWidth="10" markerHeight="7" refX="0" refY="3.5" orient="auto"><polygon points="0 0, 10 3.5, 0 7" /></marker></defs>
<path id="bottomxline" d="M 10 150 h 580" stroke="#FFFFFF" stroke-width="1" fill="none" />

<rect x="200" y="40" width="200" height="20" style="fill:none;stroke:#0000FF;stroke-width:1" />
<path d="M 240 40 v 20" stroke="#0000FF" stroke-width="1" fill="none"/>
<path d="M 280 40 v 20" stroke="#0000FF" stroke-width="1" fill="none"/>

<text x="205" y="35" style="font-size:13px;font-family:'Courier New'">size</text>
<text x="245" y="35" style="font-size:13px;font-family:'Courier New'">aset</text>
<text x="215" y="55" style="font-size:15px;font-family:'Arial'">8</text>
<text x="255" y="55" style="font-size:15px;font-family:'Arial'">8</text>
<text x="320" y="55" style="font-size:13px;font-family:'Microsoft Yahei'">数据区</text>

<path d="M 280 65 v 5 a 5 5 0 0 0 5 5 h 50 a 5 5 0 0 1 5 5 a 5 5 0 0 1 5 -5 h 50 a 5 5 0 0 0 5 -5 v -5" stroke="#000000" stroke-width="1" fill="none"/>

<path d="M 220 62 v 40 H 340 V 92" stroke="#000000" stroke-width="1" fill="none" marker-end="url(#arrowhead)" />
<path d="M 260 62 v 50" stroke="#000000" stroke-width="1" fill="none" marker-end="url(#arrowhead)" />
<path d="M 310 20 h -30 V 28" stroke="#000000" stroke-width="1" fill="none" marker-end="url(#arrowhead)" />
<text x="315" y="22" style="font-size:13px;font-family:'Arial'">p</text>
<text x="330" y="23" style="font-size:13px;font-family:'Microsoft Yahei'">(返回给调用者的指针)</text>
</svg>
