<svg version="1.1" width="600" height="261" xmlns="http://www.w3.org/2000/svg" >
<defs><marker id="arrowhead" markerWidth="10" markerHeight="7" refX="0" refY="3.5" orient="auto"><polygon points="0 0, 10 3.5, 0 7" /></marker></defs>
<path id="bottomxline" d="M 10 260 h 580" stroke="#FFFFFF" stroke-width="1" fill="none" />
<g transform="translate(0, -10)">
<text x="138" y="33" style="font-size:13px;font-family:'Microsoft Yahei'">非初始块</text>
<text x="138" y="175" style="font-size:13px;font-family:'Microsoft Yahei'">空闲空间</text>
<text x="420" y="33" style="font-size:13px;font-family:'Microsoft Yahei'">初始块</text>
<rect x="100" y="40" width="124" height="80" style="fill:#DAE8FC;stroke:#0000FF;stroke-width:1" />
<rect x="100" y="120" width="124" height="120" style="fill:none;stroke:#0000FF;stroke-width:1" />
<rect x="376" y="40" width="124" height="30" style="fill:none;stroke:#0000FF;stroke-width:1" />
<rect x="376" y="70" width="124" height="170" style="fill:#DAE8FC;stroke:#0000FF;stroke-width:1" />
<text x="107" y="60" style="font-size:13px;font-family:'Courier New'">AllocBlockData</text>
<path d="M 100 70 h 124" stroke="#0000FF" stroke-width="1" fill="none"/>
<text x="379" y="60" style="font-size:13px;font-family:'Courier New'">AllocSetContext</text>
<path d="M 376 100 h 124" stroke="#0000FF" stroke-width="1" fill="none"/>
<text x="383" y="90" style="font-size:13px;font-family:'Courier New'">AllocBlockData</text>

<path d="M 98 50 h -60" stroke="#000000" stroke-width="1" fill="none" marker-end="url(#arrowhead)" />
<path d="M 226 55 h 80 l 10 15 H 364" stroke="#000000" stroke-width="1" fill="none" marker-end="url(#arrowhead)" />
<path d="M 226 50 h 80 l 20 -10 H 364" stroke="#000000" stroke-width="1" fill="none" marker-end="url(#arrowhead)" />
<path d="M 226 60 h 12 a 20 90 0 0 1 0 180" stroke="#000000" stroke-width="1" fill="none" marker-end="url(#arrowhead)" />
<path d="M 98 60 h -12 a 10 30 0 0 0 0 60" stroke="#000000" stroke-width="1" fill="none" marker-end="url(#arrowhead)" />

<text x="15" y="90" style="font-size:13px;font-family:'Courier New'">freeptr</text>
<text x="263" y="150" style="font-size:13px;font-family:'Courier New'">endptr</text>
<text x="270" y="45" style="font-size:13px;font-family:'Courier New'">aset</text>
<text x="270" y="68" style="font-size:13px;font-family:'Courier New'">next</text>
<text x="50" y="43" style="font-size:13px;font-family:'Courier New'">prev</text>
</g>
</svg>
