<svg version="1.1" width="600" height="211" xmlns="http://www.w3.org/2000/svg" >
<defs><marker id="arrowhead" markerWidth="10" markerHeight="7" refX="0" refY="3.5" orient="auto"><polygon points="0 0, 10 3.5, 0 7" /></marker></defs>
<path id="bottomxline" d="M 10 210 h 580" stroke="#FFFFFF" stroke-width="1" fill="none" /> 
<g transform="translate(0, 15)">
<rect x="200" y="20" width="200" height="124" style="fill:none;stroke:#0000FF;stroke-width:1" />
<rect x="200" y="20" width="120" height="20" style="fill:rgb(27,161,226);stroke:#0000FF;stroke-width:1" />
<rect x="340" y="124" width="60" height="20" style="fill:rgb(227,200,0);stroke:#0000FF;stroke-width:1" />
<rect x="220" y="124" width="120" height="20" style="fill:#DAE8FC;stroke:#0000FF;stroke-width:1" />
<rect x="320" y="20" width="40" height="20" style="fill:#DAE8FC;stroke:#0000FF;stroke-width:1" />
<path d="M 340 20 v 20" stroke="#0000FF" stroke-width="1" fill="none" />
<path d="M 280 124 v 20" stroke="#0000FF" stroke-width="1" fill="none" />
<text x="327" y="35" style="font-size:13px;font-family:'Arial'">1</text>
<text x="347" y="35" style="font-size:13px;font-family:'Arial'">2</text>

<path d="M 350 42 v 40 H 250 V 112" stroke="#000000" stroke-width="1" fill="none" marker-end="url(#arrowhead)" />

<path d="M 258 140 v 20" stroke="#000000" stroke-width="1" fill="none" marker-end="url(#arrowhead)" />
<path d="M 318 140 v 20" stroke="#000000" stroke-width="1" fill="none" marker-end="url(#arrowhead)" />

<text x="228" y="138" style="font-size:13px;font-family:'Arial'">(K, TID)</text>
<text x="288" y="138" style="font-size:13px;font-family:'Arial'">(K, TID)</text>

<path d="M 200 18 v -5 a 5 5 0 0 1 5 -5 h 50 a 5 5 0 0 0 5 -5 a 5 5 0 0 0 5 5 h 50 a 5 5 0 0 1 5 5 v 5" stroke="#000000" stroke-width="1" fill="none" />

<path d="M 280 122 v -5 a 5 5 0 0 1 5 -5 h 20 a 5 5 0 0 0 5 -5 a 5 5 0 0 0 5 5 h 20 a 5 5 0 0 1 5 5 v 5" stroke="#000000" stroke-width="1" fill="none" />

<text x="255" y="100" style="font-size:13px;font-family:'Microsoft Yahei'">每个元组为16个字节</text>
<path d="M 340 146 v 5 a 5 5 0 0 0 5 5 h 20 a 5 5 0 0 1 5 5 a 5 5 0 0 1 5 -5 h 20 a 5 5 0 0 0 5 -5 v -5" stroke="#000000" stroke-width="1" fill="none" />

<text x="205" y="0" style="font-size:13px;font-family:'Courier New'">PageHeaderData</text>
<text x="345" y="175" style="font-size:13px;font-family:'Microsoft Yahei'">特殊区域</text>
</g>
</svg>
