<svg version="1.1" width="600" height="211" xmlns="http://www.w3.org/2000/svg" >
<defs><marker id="arrowhead" markerWidth="10" markerHeight="7" refX="0" refY="3.5" orient="auto"><polygon points="0 0, 10 3.5, 0 7" /></marker></defs>

<path id="bottomxline" d="M 10 210 h 580" stroke="#FFFFFF" stroke-width="1" fill="none" /> 
<g transform="translate(0, 20)">
<rect x="200" y="20" width="200" height="124" style="fill:none;stroke:#0000FF;stroke-width:1" />
<rect x="200" y="20" width="120" height="20" style="fill:rgb(27,161,226);stroke:#0000FF;stroke-width:1" />
<path d="M 320 40 h 60 v -20" stroke="#0000FF" stroke-width="1" fill="none" />
<path d="M 340 40 v -20" stroke="#0000FF" stroke-width="1" fill="none" />
<path d="M 360 40 v -20" stroke="#0000FF" stroke-width="1" fill="none" />
<text x="327" y="35" style="font-size:13px;font-family:'Arial'">1</text>
<text x="347" y="35" style="font-size:13px;font-family:'Arial'">2</text>
<text x="367" y="35" style="font-size:13px;font-family:'Arial'">3</text>

<path d="M 300 124 h 50" stroke="#0000FF" stroke-width="1" fill="none" />
<rect x="250" y="124" width="50" height="20" style="fill:#F0F0F0;stroke:#0000FF;stroke-width:1" />
<rect x="350" y="124" width="50" height="20" style="fill:#F0F0F0;stroke:#0000FF;stroke-width:1" />
<text x="358" y="139" style="font-size:13px;font-family:'Arial'">Texas</text>
<text x="308" y="139" style="font-size:13px;font-family:'Arial'">Dallas</text>
<text x="258" y="139" style="font-size:13px;font-family:'Arial'">Maine</text>

<path d="M 330 42 v 60 H 350 V 112" stroke="#000000" stroke-width="1" fill="none" marker-end="url(#arrowhead)"/>
<path d="M 350 42 v 40 H 300 V 112" stroke="#000000" stroke-width="1" fill="none" marker-end="url(#arrowhead)"/>
<path d="M 370 42 v 20 H 250 V 112" stroke="#000000" stroke-width="1" fill="none" marker-end="url(#arrowhead)"/>

<path d="M 375 146 v 10 a 25 14 0 0 1 -50 0" stroke="#000000" stroke-width="1" fill="none" marker-end="url(#arrowhead)"/>


<path d="M 200 18 v -5 a 5 5 0 0 1 5 -5 h 50 a 5 5 0 0 0 5 -5 a 5 5 0 0 0 5 5 h 50 a 5 5 0 0 1 5 5 v 5" stroke="#000000" stroke-width="1" fill="none" />
<text x="205" y="0" style="font-size:13px;font-family:'Courier New'">PageHeaderData</text>

</g>
</svg>
