<svg version="1.1" width="600" height="481" xmlns="http://www.w3.org/2000/svg" >
<defs><marker id="arrowhead" markerWidth="10" markerHeight="7" refX="0" refY="3.5" orient="auto"><polygon points="0 0, 10 3.5, 0 7" /></marker></defs>
<path id="bottomxline" d="M 10 480 h 500" stroke="#FFFFFF" stroke-width="1" fill="none" />
<g transform="translate(0, 0)">
<g transform="rotate(90 150 140)"> <path d="M 50 140 a 100 100 0 0 0 200 0 z" stroke="#F0F0F0" stroke-width="1" fill="#F0F0F0"/> </g>
<circle cx="150" cy="140" r="100" fill="none" stroke="#0000FF" stroke-width="1" />
<path d="M 150 40 v 200" stroke="#000000" stroke-width="1" fill="none" stroke-dasharray="3,3" />
<path d="M 150 70 a 70 70 0 0 1 70 70" stroke="#000000" stroke-width="1" fill="none" marker-end="url(#arrowhead)" />
<circle cx="150" cy="140" r="4" fill="#FF0000" stroke="#FF0000" stroke-width="1" />
<circle cx="150" cy="40" r="10" fill="#FFFFFF" stroke="#0000FF" stroke-width="1" />
<text x="146" y="44" style="font-size:13px;font-family:'Arial'">A</text>
<text x="30" y="144" style="font-size:13px;font-family:'Arial'">(a)</text>
<text x="185" y="145" style="font-size:13px;font-family:'Microsoft Yahei'">未来</text>
<text x="90" y="145" style="font-size:13px;font-family:'Microsoft Yahei'">过去</text>
</g>

<g transform="translate(300, 0)">
<path d="M 150 40 v -30" stroke="#000000" stroke-width="1" fill="none"/>
<path d="M 200 53 l 20 -35" stroke="#000000" stroke-width="1" fill="none"/>
<g transform="rotate(120 150 140)"> <path d="M 50 140 a 100 100 0 0 0 200 0 z" stroke="#F0F0F0" stroke-width="1" fill="#F0F0F0"/> </g>
<circle cx="150" cy="140" r="100" fill="none" stroke="#0000FF" stroke-width="1" />
<path d="M 200 53 l -100 174" stroke="#000000" stroke-width="1" fill="none" stroke-dasharray="3,3" />
<path d="M 150 70 a 70 70 0 0 1 70 70" stroke="#000000" stroke-width="1" fill="none" marker-end="url(#arrowhead)" />
<circle cx="150" cy="140" r="4" fill="#FF0000" stroke="#FF0000" stroke-width="1" />
<circle cx="150" cy="40" r="10" fill="#FFFFFF" stroke="#0000FF" stroke-width="1" />
<circle cx="200" cy="53" r="10" fill="#FFFFFF" stroke="#0000FF" stroke-width="1" />
<text x="146" y="44" style="font-size:13px;font-family:'Arial'">A</text>
<text x="196" y="58" style="font-size:13px;font-family:'Arial'">B</text>
<text x="30" y="144" style="font-size:13px;font-family:'Arial'">(b)</text>
<text x="185" y="145" style="font-size:13px;font-family:'Microsoft Yahei'">未来</text>
<text x="90" y="145" style="font-size:13px;font-family:'Microsoft Yahei'">过去</text>
</g>

<g transform="translate(0, 220)">
<g transform="rotate(225 150 140)"> <path d="M 50 140 a 100 100 0 0 0 200 0 z" stroke="#F0F0F0" stroke-width="1" fill="#F0F0F0"/> </g>
<circle cx="150" cy="140" r="100" fill="none" stroke="#0000FF" stroke-width="1" />
<path d="M 221 211 l -142 -142" stroke="#000000" stroke-width="1" fill="none" stroke-dasharray="3,3" />
<path d="M 150 70 a 70 70 0 0 1 70 70" stroke="#000000" stroke-width="1" fill="none" marker-end="url(#arrowhead)" />
<circle cx="150" cy="140" r="4" fill="#FF0000" stroke="#FF0000" stroke-width="1" />
<circle cx="150" cy="40" r="10" fill="#FFFFFF" stroke="#0000FF" stroke-width="1" />
<circle cx="200" cy="53" r="10" fill="#FFFFFF" stroke="#0000FF" stroke-width="1" />
<circle cx="221" cy="211" r="10" fill="#FFFFFF" stroke="#0000FF" stroke-width="1" />
<text x="146" y="44" style="font-size:13px;font-family:'Arial'">A</text>
<text x="196" y="58" style="font-size:13px;font-family:'Arial'">B</text>
<text x="218" y="216" style="font-size:13px;font-family:'Arial'">C</text>
<text x="30" y="144" style="font-size:13px;font-family:'Arial'">(c)</text>
<text x="90" y="145" style="font-size:13px;font-family:'Microsoft Yahei'">未来</text>
<text x="185" y="145" style="font-size:13px;font-family:'Microsoft Yahei'">过去</text>
</g>

<g transform="translate(300, 220)">
<g transform="rotate(285 150 140)"> <path d="M 50 140 a 100 100 0 0 0 200 0 z" stroke="#F0F0F0" stroke-width="1" fill="#F0F0F0"/> </g>
<circle cx="150" cy="140" r="100" fill="none" stroke="#0000FF" stroke-width="1" />
<path d="M 124 237 l 52 -194" stroke="#000000" stroke-width="1" fill="none" stroke-dasharray="3,3" />
<path d="M 150 70 a 70 70 0 0 1 70 70" stroke="#000000" stroke-width="1" fill="none" marker-end="url(#arrowhead)" />
<circle cx="150" cy="140" r="4" fill="#FF0000" stroke="#FF0000" stroke-width="1" />
<circle cx="150" cy="40" r="10" fill="#FFFFFF" stroke="#0000FF" stroke-width="1" />
<circle cx="200" cy="53" r="10" fill="#FFFFFF" stroke="#0000FF" stroke-width="1" />
<circle cx="221" cy="211" r="10" fill="#FFFFFF" stroke="#0000FF" stroke-width="1" />
<circle cx="124" cy="237" r="10" fill="#FFFFFF" stroke="#0000FF" stroke-width="1" />
<text x="146" y="44" style="font-size:13px;font-family:'Arial'">A</text>
<text x="196" y="58" style="font-size:13px;font-family:'Arial'">B</text>
<text x="218" y="216" style="font-size:13px;font-family:'Arial'">C</text>
<text x="120" y="242" style="font-size:13px;font-family:'Arial'">D</text>
<text x="30" y="144" style="font-size:13px;font-family:'Arial'">(d)</text>
<text x="90" y="145" style="font-size:13px;font-family:'Microsoft Yahei'">未来</text>
<text x="185" y="145" style="font-size:13px;font-family:'Microsoft Yahei'">过去</text>
</g>
</svg>
