<svg version="1.1" width="600" height="243" xmlns="http://www.w3.org/2000/svg" >
<defs><marker id="arrowhead" markerWidth="10" markerHeight="7" refX="0" refY="3.5" orient="auto"><polygon points="0 0, 10 3.5, 0 7" /></marker></defs>
<path id="bottomxline" d="M 10 242 h 580" stroke="#FFFFFF" stroke-width="1" fill="none" /> 
<rect x="30" y="10" width="100" height="202" style="fill:none;stroke:#0000FF;stroke-width:2" />
<path d="M 30 192 h 100" stroke="#0000FF" stroke-width="1" stroke-dasharray="2,2" fill="none" />
<path d="M 30 172 h 100" stroke="#0000FF" stroke-width="1" stroke-dasharray="2,2" fill="none" />
<path d="M 30 152 h 100" stroke="#0000FF" stroke-width="1" stroke-dasharray="2,2" fill="none" />
<path d="M 30 132 h 100" stroke="#0000FF" stroke-width="1" stroke-dasharray="2,2" fill="none" />
<path d="M 30 112 h 100" stroke="#0000FF" stroke-width="1" stroke-dasharray="2,2" fill="none" />
<path d="M 30 92 h 100" stroke="#0000FF" stroke-width="1" stroke-dasharray="2,2" fill="none" />
<path d="M 30 72 h 100" stroke="#0000FF" stroke-width="1" stroke-dasharray="2,2" fill="none" />
<path d="M 30 52 h 100" stroke="#0000FF" stroke-width="1" stroke-dasharray="2,2" fill="none" />
<path d="M 52 52 v 160" stroke="#0000FF" stroke-width="1" stroke-dasharray="2,2" fill="none" />
<text x="68" y="27" style="font-size:13px;font-family:'Microsoft Yahei'">主表</text>


<path d="M 132 111 L 210 41 H 238" stroke="#000000" stroke-width="1" fill="none" marker-end="url(#arrowhead)" />
<path d="M 132 111 H 238" stroke="#000000" stroke-width="1" fill="none" marker-end="url(#arrowhead)" />
<path d="M 132 111 L 210 181 H 238" stroke="#000000" stroke-width="1" fill="none" marker-end="url(#arrowhead)" />

<path d="M 352 41 H 438" stroke="#000000" stroke-width="1" fill="none" marker-end="url(#arrowhead)" />
<path d="M 352 181 H 438" stroke="#000000" stroke-width="1" fill="none" marker-end="url(#arrowhead)" />

<g transform="translate(250, 10)">
<rect x="0" y="0" width="100" height="62" style="fill:none;stroke:#0000FF;stroke-width:2" />
<path d="M 0 22 h 100" stroke="#0000FF" stroke-width="1" stroke-dasharray="2,2" fill="none" />
<path d="M 0 32 h 100" stroke="#0000FF" stroke-width="1" stroke-dasharray="2,2" fill="none" />
<path d="M 0 42 h 100" stroke="#0000FF" stroke-width="1" stroke-dasharray="2,2" fill="none" />
<path d="M 0 52 h 100" stroke="#0000FF" stroke-width="1" stroke-dasharray="2,2" fill="none" />
<path d="M 17 22 v 40" stroke="#0000FF" stroke-width="1" stroke-dasharray="2,2" fill="none" />
<text x="35" y="15" style="font-size:13px;font-family:'Microsoft Yahei'">分区1</text>
</g>

<g transform="translate(450, 10)">
<rect x="0" y="0" width="100" height="62" style="fill:#DAE8FC;stroke:#0000FF;stroke-width:2" />
<path d="M 0 22 h 100" stroke="#0000FF" stroke-width="1" stroke-dasharray="2,2" fill="none" />
<path d="M 0 32 h 100" stroke="#0000FF" stroke-width="1" stroke-dasharray="2,2" fill="none" />
<path d="M 0 42 h 100" stroke="#0000FF" stroke-width="1" stroke-dasharray="2,2" fill="none" />
<path d="M 0 52 h 100" stroke="#0000FF" stroke-width="1" stroke-dasharray="2,2" fill="none" />
<path d="M 17 22 v 40" stroke="#0000FF" stroke-width="1" stroke-dasharray="2,2" fill="none" />
<text x="25" y="15" style="font-size:13px;font-family:'Microsoft Yahei'">子分区1</text>
</g>
<g transform="translate(460, 30)">
<rect x="0" y="0" width="100" height="62" style="fill:#DAE8FC;stroke:#0000FF;stroke-width:2" />
<path d="M 0 22 h 100" stroke="#0000FF" stroke-width="1" stroke-dasharray="2,2" fill="none" />
<path d="M 0 32 h 100" stroke="#0000FF" stroke-width="1" stroke-dasharray="2,2" fill="none" />
<path d="M 0 42 h 100" stroke="#0000FF" stroke-width="1" stroke-dasharray="2,2" fill="none" />
<path d="M 0 52 h 100" stroke="#0000FF" stroke-width="1" stroke-dasharray="2,2" fill="none" />
<path d="M 17 22 v 40" stroke="#0000FF" stroke-width="1" stroke-dasharray="2,2" fill="none" />
<text x="25" y="15" style="font-size:13px;font-family:'Microsoft Yahei'">子分区2</text>
</g>
<g transform="translate(470, 50)">
<rect x="0" y="0" width="100" height="62" style="fill:#DAE8FC;stroke:#0000FF;stroke-width:2" />
<path d="M 0 22 h 100" stroke="#0000FF" stroke-width="1" stroke-dasharray="2,2" fill="none" />
<path d="M 0 32 h 100" stroke="#0000FF" stroke-width="1" stroke-dasharray="2,2" fill="none" />
<path d="M 0 42 h 100" stroke="#0000FF" stroke-width="1" stroke-dasharray="2,2" fill="none" />
<path d="M 0 52 h 100" stroke="#0000FF" stroke-width="1" stroke-dasharray="2,2" fill="none" />
<path d="M 17 22 v 40" stroke="#0000FF" stroke-width="1" stroke-dasharray="2,2" fill="none" />
<text x="25" y="15" style="font-size:13px;font-family:'Microsoft Yahei'">子分区3</text>
</g>


<g transform="translate(250, 80)">
<rect x="0" y="0" width="100" height="62" style="fill:none;stroke:#0000FF;stroke-width:2" />
<path d="M 0 22 h 100" stroke="#0000FF" stroke-width="1" stroke-dasharray="2,2" fill="none" />
<path d="M 0 32 h 100" stroke="#0000FF" stroke-width="1" stroke-dasharray="2,2" fill="none" />
<path d="M 0 42 h 100" stroke="#0000FF" stroke-width="1" stroke-dasharray="2,2" fill="none" />
<path d="M 0 52 h 100" stroke="#0000FF" stroke-width="1" stroke-dasharray="2,2" fill="none" />
<path d="M 17 22 v 40" stroke="#0000FF" stroke-width="1" stroke-dasharray="2,2" fill="none" />
<text x="35" y="15" style="font-size:13px;font-family:'Microsoft Yahei'">分区2</text>
</g>
<g transform="translate(250, 150)">
<rect x="0" y="0" width="100" height="62" style="fill:none;stroke:#0000FF;stroke-width:2" />
<path d="M 0 22 h 100" stroke="#0000FF" stroke-width="1" stroke-dasharray="2,2" fill="none" />
<path d="M 0 32 h 100" stroke="#0000FF" stroke-width="1" stroke-dasharray="2,2" fill="none" />
<path d="M 0 42 h 100" stroke="#0000FF" stroke-width="1" stroke-dasharray="2,2" fill="none" />
<path d="M 0 52 h 100" stroke="#0000FF" stroke-width="1" stroke-dasharray="2,2" fill="none" />
<path d="M 17 22 v 40" stroke="#0000FF" stroke-width="1" stroke-dasharray="2,2" fill="none" />
<text x="35" y="15" style="font-size:13px;font-family:'Microsoft Yahei'">分区3</text>
</g>
<g transform="translate(450, 120)">
<rect x="0" y="0" width="100" height="62" style="fill:#DAE8FC;stroke:#0000FF;stroke-width:2" />
<path d="M 0 22 h 100" stroke="#0000FF" stroke-width="1" stroke-dasharray="2,2" fill="none" />
<path d="M 0 32 h 100" stroke="#0000FF" stroke-width="1" stroke-dasharray="2,2" fill="none" />
<path d="M 0 42 h 100" stroke="#0000FF" stroke-width="1" stroke-dasharray="2,2" fill="none" />
<path d="M 0 52 h 100" stroke="#0000FF" stroke-width="1" stroke-dasharray="2,2" fill="none" />
<path d="M 17 22 v 40" stroke="#0000FF" stroke-width="1" stroke-dasharray="2,2" fill="none" />
<text x="25" y="15" style="font-size:13px;font-family:'Microsoft Yahei'">子分区1</text>
</g>
<g transform="translate(460, 140)">
<rect x="0" y="0" width="100" height="62" style="fill:#DAE8FC;stroke:#0000FF;stroke-width:2" />
<path d="M 0 22 h 100" stroke="#0000FF" stroke-width="1" stroke-dasharray="2,2" fill="none" />
<path d="M 0 32 h 100" stroke="#0000FF" stroke-width="1" stroke-dasharray="2,2" fill="none" />
<path d="M 0 42 h 100" stroke="#0000FF" stroke-width="1" stroke-dasharray="2,2" fill="none" />
<path d="M 0 52 h 100" stroke="#0000FF" stroke-width="1" stroke-dasharray="2,2" fill="none" />
<path d="M 17 22 v 40" stroke="#0000FF" stroke-width="1" stroke-dasharray="2,2" fill="none" />
<text x="25" y="15" style="font-size:13px;font-family:'Microsoft Yahei'">子分区2</text>
</g>
<g transform="translate(470, 160)">
<rect x="0" y="0" width="100" height="62" style="fill:#DAE8FC;stroke:#0000FF;stroke-width:2" />
<path d="M 0 22 h 100" stroke="#0000FF" stroke-width="1" stroke-dasharray="2,2" fill="none" />
<path d="M 0 32 h 100" stroke="#0000FF" stroke-width="1" stroke-dasharray="2,2" fill="none" />
<path d="M 0 42 h 100" stroke="#0000FF" stroke-width="1" stroke-dasharray="2,2" fill="none" />
<path d="M 0 52 h 100" stroke="#0000FF" stroke-width="1" stroke-dasharray="2,2" fill="none" />
<path d="M 17 22 v 40" stroke="#0000FF" stroke-width="1" stroke-dasharray="2,2" fill="none" />
<text x="25" y="15" style="font-size:13px;font-family:'Microsoft Yahei'">子分区3</text>
</g>
</svg>
