<svg version="1.1" width="600" height="196" xmlns="http://www.w3.org/2000/svg" >
<defs><marker id="arrowhead" markerWidth="10" markerHeight="7" refX="0" refY="3.5" orient="auto"><polygon points="0 0, 10 3.5, 0 7" /></marker></defs>
<path id="bottomxline" d="M 10 195 h 580" stroke="#FFFFFF" stroke-width="1" fill="none" /> 
<g transform="translate(0, 20)">
<rect x="200" y="20" width="200" height="124" style="fill:none;stroke:#0000FF;stroke-width:1" />
<rect x="200" y="20" width="120" height="20" style="fill:rgb(27,161,226);stroke:#0000FF;stroke-width:1" />

<path d="M 320 40 H 400" stroke="#0000FF" stroke-width="1" fill="none" />
<path d="M 200 60 h 200" stroke="#0000FF" stroke-width="1" fill="none" />
<path d="M 200 80 h 200" stroke="#0000FF" stroke-width="1" fill="none" />
<path d="M 200 124 h 200" stroke="#0000FF" stroke-width="1" fill="none" />

<path d="M 220 40 v 40" stroke="#0000FF" stroke-width="1" fill="none" />
<path d="M 240 40 v 40" stroke="#0000FF" stroke-width="1" fill="none" />
<path d="M 260 40 v 40" stroke="#0000FF" stroke-width="1" fill="none" />
<path d="M 280 40 v 40" stroke="#0000FF" stroke-width="1" fill="none" />
<path d="M 300 40 v 40" stroke="#0000FF" stroke-width="1" fill="none" />
<path d="M 320 40 v 40" stroke="#0000FF" stroke-width="1" fill="none" />
<path d="M 340 20 v 60" stroke="#0000FF" stroke-width="1" fill="none" />
<path d="M 360 20 v 60" stroke="#0000FF" stroke-width="1" fill="none" />
<path d="M 380 20 v 60" stroke="#0000FF" stroke-width="1" fill="none" />

<path d="M 220 124 v 20" stroke="#0000FF" stroke-width="1" fill="none" />
<path d="M 240 124 v 20" stroke="#0000FF" stroke-width="1" fill="none" />
<path d="M 260 124 v 20" stroke="#0000FF" stroke-width="1" fill="none" />
<path d="M 280 124 v 20" stroke="#0000FF" stroke-width="1" fill="none" />
<path d="M 300 124 v 20" stroke="#0000FF" stroke-width="1" fill="none" />
<path d="M 320 124 v 20" stroke="#0000FF" stroke-width="1" fill="none" />
<path d="M 340 124 v 20" stroke="#0000FF" stroke-width="1" fill="none" />
<path d="M 360 124 v 20" stroke="#0000FF" stroke-width="1" fill="none" />
<path d="M 380 124 v 20" stroke="#0000FF" stroke-width="1" fill="none" />

<text x="327" y="35" style="font-size:13px;font-family:'Arial'">0</text>
<text x="347" y="35" style="font-size:13px;font-family:'Arial'">1</text>
<text x="367" y="35" style="font-size:13px;font-family:'Arial'">0</text>
<text x="387" y="35" style="font-size:13px;font-family:'Arial'">1</text>

<text x="207" y="55" style="font-size:13px;font-family:'Arial'">1</text>
<text x="227" y="55" style="font-size:13px;font-family:'Arial'">0</text>
<text x="247" y="55" style="font-size:13px;font-family:'Arial'">1</text>
<text x="267" y="55" style="font-size:13px;font-family:'Arial'">1</text>
<text x="287" y="55" style="font-size:13px;font-family:'Arial'">0</text>
<text x="307" y="55" style="font-size:13px;font-family:'Arial'">0</text>
<text x="327" y="55" style="font-size:13px;font-family:'Arial'">0</text>
<text x="347" y="55" style="font-size:13px;font-family:'Arial'">1</text>
<text x="367" y="55" style="font-size:13px;font-family:'Arial'">0</text>
<text x="387" y="55" style="font-size:13px;font-family:'Arial'">1</text>

<text x="207" y="75" style="font-size:13px;font-family:'Arial'">1</text>
<text x="227" y="75" style="font-size:13px;font-family:'Arial'">1</text>
<text x="247" y="75" style="font-size:13px;font-family:'Arial'">1</text>
<text x="267" y="75" style="font-size:13px;font-family:'Arial'">0</text>
<text x="287" y="75" style="font-size:13px;font-family:'Arial'">0</text>
<text x="307" y="75" style="font-size:13px;font-family:'Arial'">0</text>
<text x="327" y="75" style="font-size:13px;font-family:'Arial'">1</text>
<text x="347" y="75" style="font-size:13px;font-family:'Arial'">1</text>
<text x="367" y="75" style="font-size:13px;font-family:'Arial'">1</text>
<text x="387" y="75" style="font-size:13px;font-family:'Arial'">0</text>

<text x="207" y="139" style="font-size:13px;font-family:'Arial'">0</text>
<text x="227" y="139" style="font-size:13px;font-family:'Arial'">1</text>
<text x="247" y="139" style="font-size:13px;font-family:'Arial'">1</text>
<text x="267" y="139" style="font-size:13px;font-family:'Arial'">0</text>
<text x="287" y="139" style="font-size:13px;font-family:'Arial'">0</text>
<text x="307" y="139" style="font-size:13px;font-family:'Arial'">1</text>
<text x="327" y="139" style="font-size:13px;font-family:'Arial'">1</text>
<text x="347" y="139" style="font-size:13px;font-family:'Arial'">1</text>
<text x="367" y="139" style="font-size:13px;font-family:'Arial'">0</text>
<text x="387" y="139" style="font-size:13px;font-family:'Arial'">1</text>

<text x="270" y="105" style="font-size:35px;font-family:'Arial'">......</text>

<path d="M 200 18 v -5 a 5 5 0 0 1 5 -5 h 50 a 5 5 0 0 0 5 -5 a 5 5 0 0 0 5 5 h 50 a 5 5 0 0 1 5 5 v 5" stroke="#000000" stroke-width="1" fill="none" />
<text x="205" y="0" style="font-size:13px;font-family:'Courier New'">PageHeaderData</text>

<rect x="450" y="62" width="80" height="40" style="fill:none;stroke:#0000FF;stroke-width:1" />
<path d="M 490 62 v 40" stroke="#0000FF" stroke-width="1" fill="none" />

<path d="M 470 30 V 50" stroke="#000000" stroke-width="1" fill="none" marker-end="url(#arrowhead)" />
<path d="M 510 134 V 114" stroke="#000000" stroke-width="1" fill="none" marker-end="url(#arrowhead)" />

<text x="468" y="87" style="font-size:13px;font-family:'Arial'">1</text>
<text x="508" y="87" style="font-size:13px;font-family:'Arial'">0</text>

</g>
</svg>
