<svg version="1.1" width="600" height="251" xmlns="http://www.w3.org/2000/svg" >
<defs><marker id="arrowhead" markerWidth="10" markerHeight="7" refX="0" refY="3.5" orient="auto"><polygon points="0 0, 10 3.5, 0 7" /></marker></defs>
<path id="bottomxline" d="M 10 250 h 580" stroke="#FFFFFF" stroke-width="1" fill="none" /> 
<rect x="100" y="20" width="400" height="40" style="fill:none;stroke:#0000FF;stroke-width:1" />
<path d="M 140 20 v 40" stroke="#0000FF" stroke-width="1" fill="none"/>
<path d="M 180 20 v 40" stroke="#0000FF" stroke-width="1" fill="none"/>
<path d="M 220 20 v 40" stroke="#0000FF" stroke-width="1" fill="none"/>
<path d="M 260 20 v 40" stroke="#0000FF" stroke-width="1" fill="none"/>
<path d="M 300 20 v 40" stroke="#0000FF" stroke-width="1" fill="none"/>
<path d="M 340 20 v 40" stroke="#0000FF" stroke-width="1" fill="none"/>
<path d="M 460 20 v 40" stroke="#0000FF" stroke-width="1" fill="none"/>
<text x="370" y="45" style="font-size:35px;font-family:'Arial'">......</text>
<text x="188" y="35" style="font-size:13px;font-family:'Courier New'">key</text>
<text x="190" y="50" style="font-size:13px;font-family:'Courier New'">id</text>
<text x="308" y="35" style="font-size:13px;font-family:'Courier New'">key</text>
<text x="310" y="50" style="font-size:13px;font-family:'Courier New'">id</text>
<path d="M 200 62 v 10 H 280 V 88" stroke="#000000" stroke-width="1" fill="none" marker-end="url(#arrowhead)"  />
<path d="M 320 62 v 20 H 200 V 88" stroke="#000000" stroke-width="1" fill="none" marker-end="url(#arrowhead)"  />

<rect x="100" y="100" width="400" height="20" style="fill:none;stroke:#0000FF;stroke-width:1" />
<path d="M 140 100 v 20" stroke="#0000FF" stroke-width="1" fill="none"/>
<path d="M 180 100 v 20" stroke="#0000FF" stroke-width="1" fill="none"/>
<path d="M 220 100 v 20" stroke="#0000FF" stroke-width="1" fill="none"/>
<path d="M 260 100 v 20" stroke="#0000FF" stroke-width="1" fill="none"/>
<path d="M 300 100 v 20" stroke="#0000FF" stroke-width="1" fill="none"/>
<path d="M 340 100 v 20" stroke="#0000FF" stroke-width="1" fill="none"/>
<path d="M 460 100 v 20" stroke="#0000FF" stroke-width="1" fill="none"/>

<path d="M 120 122 v 16" stroke="#000000" stroke-width="1" fill="none" marker-end="url(#arrowhead)"  />
<path d="M 160 122 v 16" stroke="#000000" stroke-width="1" fill="none" marker-end="url(#arrowhead)"  />
<path d="M 200 122 v 16" stroke="#000000" stroke-width="1" fill="none" marker-end="url(#arrowhead)"  />
<path d="M 240 122 v 16" stroke="#000000" stroke-width="1" fill="none" marker-end="url(#arrowhead)"  />
<path d="M 280 122 v 16" stroke="#000000" stroke-width="1" fill="none" marker-end="url(#arrowhead)"  />
<path d="M 320 122 v 16" stroke="#000000" stroke-width="1" fill="none" marker-end="url(#arrowhead)"  />
<path d="M 480 122 v 16" stroke="#000000" stroke-width="1" fill="none" marker-end="url(#arrowhead)"  />
<rect x="100" y="150" width="400" height="60" style="fill:#DAE8FC;stroke:#0000FF;stroke-width:1" />
<path d="M 140 150 v 60" stroke="#0000FF" stroke-width="1" fill="none"/>
<path d="M 180 150 v 60" stroke="#0000FF" stroke-width="1" fill="none"/>
<path d="M 220 150 v 60" stroke="#0000FF" stroke-width="1" fill="none"/>
<path d="M 260 150 v 60" stroke="#0000FF" stroke-width="1" fill="none"/>
<path d="M 300 150 v 60" stroke="#0000FF" stroke-width="1" fill="none"/>
<path d="M 340 150 v 60" stroke="#0000FF" stroke-width="1" fill="none"/>
<path d="M 460 150 v 60" stroke="#0000FF" stroke-width="1" fill="none"/>
<text x="370" y="112" style="font-size:35px;font-family:'Arial'">......</text>
<text x="370" y="185" style="font-size:35px;font-family:'Arial'">......</text>
<text x="467" y="175" style="font-size:13px;font-family:'Microsoft Yahei'">数据</text>
<text x="473" y="195" style="font-size:13px;font-family:'Microsoft Yahei'">页</text>
<text x="58" y="45" style="font-size:13px;font-family:'Microsoft Yahei'">哈希表</text>
<text x="70" y="115" style="font-size:13px;font-family:'Microsoft Yahei'">数组</text>
<text x="70" y="180" style="font-size:13px;font-family:'Microsoft Yahei'">数组</text>
<text x="400" y="225" style="font-size:13px;font-family:'Courier New'">BufferBlocks</text>
<text x="400" y="95" style="font-size:13px;font-family:'Courier New'">BufferDescriptors</text>
<text x="400" y="15" style="font-size:13px;font-family:'Courier New'">SharedBufHash</text>

</svg>
