<svg version="1.1" width="600" height="281" xmlns="http://www.w3.org/2000/svg" >
<defs><marker id="arrowhead" markerWidth="10" markerHeight="7" refX="0" refY="3.5" orient="auto"><polygon points="0 0, 10 3.5, 0 7" /></marker></defs>
<path id="bottomxline" d="M 10 280 h 580" stroke="#FFFFFF" stroke-width="1" fill="none" /> 
<g transform="translate(150, 40)">
<rect x="0" y="0" width="200" height="20" style="fill:#DAE8FC;stroke:#DAE8FC;stroke-width:1" />
<rect x="20" y="166" width="280" height="20" style="fill:#DAE8FC;stroke:#DAE8FC;stroke-width:1" />
<rect x="0" y="0" width="300" height="186" style="fill:none;stroke:#0000FF;stroke-width:1" />
<path d="M 0 20 h 200 v -20" stroke="#0000FF" stroke-width="1" fill="none"/>
<path d="M 120 0 v 20" stroke="#0000FF" stroke-width="1" fill="none"/>
<path d="M 140 0 v 20" stroke="#0000FF" stroke-width="1" fill="none"/>
<path d="M 160 0 v 20" stroke="#0000FF" stroke-width="1" fill="none"/>
<path d="M 180 0 v 20" stroke="#0000FF" stroke-width="1" fill="none"/>
<text x="125" y="15" style="font-size:15px;font-family:'Arial'">1</text>
<text x="145" y="15" style="font-size:15px;font-family:'Arial'">2</text>
<text x="165" y="15" style="font-size:15px;font-family:'Arial'">3</text>
<text x="185" y="15" style="font-size:15px;font-family:'Arial'">4</text>

<path d="M 20 186 v -20 h 280" stroke="#0000FF" stroke-width="1" fill="none"/>
<path d="M 80 186 v -20" stroke="#0000FF" stroke-width="1" fill="none"/>
<path d="M 130 186 v -20" stroke="#0000FF" stroke-width="1" fill="none"/>
<path d="M 180 186 v -20" stroke="#0000FF" stroke-width="1" fill="none"/>
<path d="M 230 186 v -20" stroke="#0000FF" stroke-width="1" fill="none"/>
<text x="239" y="181" style="font-size:13px;font-family:'Microsoft Yahei'">特殊区域</text>
<text x="189" y="181" style="font-size:13px;font-family:'Microsoft Yahei'">元组1</text>
<text x="139" y="181" style="font-size:13px;font-family:'Microsoft Yahei'">元组2</text>
<text x="89" y="181" style="font-size:13px;font-family:'Microsoft Yahei'">元组3</text>
<text x="39" y="181" style="font-size:13px;font-family:'Microsoft Yahei'">元组4</text>

<text x="5" y="103" style="text-anchor='middle';font-size:13px;font-family:'Courier New'">pd_upper</text>
<text x="200" y="55" style="text-anchor='middle';font-size:13px;font-family:'Courier New'">pd_lower</text>
<text x="195" y="135" style="text-anchor='middle';font-size:13px;font-family:'Courier New'">pd_special</text>

<path d="M 130 22 v 20 H 180 V 154" stroke="#000000" stroke-width="1" fill="none" marker-end="url(#arrowhead)"  />
<path d="M 150 22 v 40 H 130 V 154" stroke="#000000" stroke-width="1" fill="none" marker-end="url(#arrowhead)"  />
<path d="M 170 22 v 60 H 80 V 154" stroke="#000000" stroke-width="1" fill="none" marker-end="url(#arrowhead)"  />
<path d="M 190 22 v 120 H 20 V 154" stroke="#000000" stroke-width="1" fill="none" marker-end="url(#arrowhead)"  />

<path d="M 200 45 V 32" stroke="#000000" stroke-width="1" fill="none" marker-end="url(#arrowhead)"  />
<path d="M 230 140 V 154" stroke="#000000" stroke-width="1" fill="none" marker-end="url(#arrowhead)"  />
<path d="M 20 110 V 130" stroke="#000000" stroke-width="1" fill="none" marker-end="url(#arrowhead)"  />

<path d="M 120 -2 v -5 a 5 5 0 0 1 5 -5 h 30 a 5 5 0 0 0 5 -5 a 5 5 0 0 0 5 5 h 30 a 5 5 0 0 1 5 5 v 5" stroke="#000000" stroke-width="1" fill="none" />
<path d="M 20 188 v 5 a 5 5 0 0 0 5 5 h 95 a 5 5 0 0 1 5 5 a 5 5 0 0 1 5 -5 h 95 a 5 5 0 0 0 5 -5 v -5" stroke="#000000" stroke-width="1" fill="none" />
<text x="35" y="15" style="font-size:13px;font-family:'Microsoft Yahei'">头部区域</text>
<text x="120" y="-22" style="font-size:13px;font-family:'Microsoft Yahei'">数据指针区域</text>
<text x="100" y="218" style="font-size:13px;font-family:'Microsoft Yahei'">数据区域</text>
<text x="60" y="60" style="font-size:13px;font-family:'Microsoft Yahei'">空闲区域</text>
</g>
</svg>
