<svg version="1.1" width="600" height="91" xmlns="http://www.w3.org/2000/svg" >
<defs><marker id="arrowhead" markerWidth="10" markerHeight="7" refX="0" refY="3.5" orient="auto"><polygon points="0 0, 10 3.5, 0 7" /></marker></defs>
<path id="bottomxline" d="M 10 90 h 580" stroke="#FFFFFF" stroke-width="1" fill="none" /> 
<g transform="translate(0, -15)">
<rect x="150" y="20" width="100" height="62" style="fill:none;stroke:#0000FF;stroke-width:1" />
<path d="M 150 51 h 100" stroke="#0000FF" stroke-width="1" fill="none"/>
<text x="167" y="40" style="font-size:13px;font-family:'Microsoft Yahei'">应用的代码</text>
<text x="185" y="70" style="font-size:13px;font-family:'Microsoft Yahei'">libpq</text>
<path d="M 300 66 H 338" stroke="#000000" stroke-width="1" fill="none" marker-end="url(#arrowhead)"  />
<path d="M 300 66 H 262" stroke="#000000" stroke-width="1" fill="none" marker-end="url(#arrowhead)"  />
<text x="265" y="60" style="font-size:13px;font-family:'Microsoft Yahei'">查询</text>
<text x="310" y="82" style="font-size:13px;font-family:'Microsoft Yahei'">结果</text>
<path d="M 295 55 h 20" stroke="#000000" stroke-width="1" fill="none" marker-end="url(#arrowhead)"  />
<path d="M 305 75 h -20" stroke="#000000" stroke-width="1" fill="none" marker-end="url(#arrowhead)"  />
<g transform="translate(350, 20)">
<path d="M 0 10 v 42 a 10 10 0 0 0 10 10 h 80 a 10 10 0 0 0 10 -10 v -42 a 10 10 0 0 0 -10 -10 h -80 a 10 10 0 0 0 -10 10" stroke="#0000FF" stroke-width="1" fill="#DAE8FC"/>
</g>
<text x="365" y="45" style="font-size:13px;font-family:'Microsoft Yahei'">PostgreSQL</text>
<text x="368" y="65" style="font-size:13px;font-family:'Microsoft Yahei'">数据库实例</text>
</g>
</svg>
