<svg version="1.1" width="600" height="241" xmlns="http://www.w3.org/2000/svg" >
<defs><marker id="arrowhead" markerWidth="10" markerHeight="7" refX="0" refY="3.5" orient="auto"><polygon points="0 0, 10 3.5, 0 7" /></marker></defs>
<path id="bottomxline" d="M 10 240 h 580" stroke="#FFFFFF" stroke-width="1" fill="none" /> 
<rect x="20" y="20" width="70" height="200" style="fill:none;stroke:#0000FF;stroke-width:1" />
<path d="M 20 60 h 70" stroke="#0000FF" stroke-width="1" fill="none"/>
<path d="M 20 100 h 70" stroke="#0000FF" stroke-width="1" fill="none"/>
<path d="M 20 140 h 70" stroke="#0000FF" stroke-width="1" fill="none"/>
<path d="M 20 180 h 70" stroke="#0000FF" stroke-width="1" fill="none"/>
<text x="22" y="35" style="font-size:13px;font-family:'Courier New'">key</text>
<text x="22" y="50" style="font-size:13px;font-family:'Courier New'">location</text>
<text x="22" y="195" style="font-size:13px;font-family:'Courier New'">key</text>
<text x="22" y="210" style="font-size:13px;font-family:'Courier New'">location</text>
<text x="330" y="112" style="font-size:13px;font-family:'Courier New'">allocated_size</text>
<text x="20" y="15" style="font-size:13px;font-family:'Courier New'">ShmemIndex</text>

<rect x="180" y="60" width="400" height="20" style="fill:#DAE8FC;stroke:#0000FF;stroke-width:1" />
<rect x="180" y="160" width="300" height="20" style="fill:#DAE8FC;stroke:#0000FF;stroke-width:1" />

<path d="M 85 48 h 30 l 22 22 H 168" stroke="#000000" stroke-width="1" fill="none" marker-end="url(#arrowhead)"  />
<path d="M 85 208 h 30 l 38 -38 H 168" stroke="#000000" stroke-width="1" fill="none" marker-end="url(#arrowhead)"  />

<path d="M 180 85 v 5 a 5 5 0 0 0 5 5 h 190 a 5 5 0 0 1 5 5 a 5 5 0 0 1 5 -5 h 190 a 5 5 0 0 0 5 -5 v -5" stroke="#000000" stroke-width="1" fill="none" />
</svg>
