<svg version="1.1" width="600" height="181" xmlns="http://www.w3.org/2000/svg" >
<defs><marker id="arrowhead" markerWidth="10" markerHeight="7" refX="0" refY="3.5" orient="auto"><polygon points="0 0, 10 3.5, 0 7" /></marker></defs>
<path id="bottomxline" d="M 10 180 h 580" stroke="#FFFFFF" stroke-width="1" fill="none" />
<path d="M 300 20 v 80 l 80 -40 v 80 l -80 -30 v 40" stroke="#0000FF" stroke-width="1" fill="none" marker-end="url(#arrowhead)" />
<circle cx="300" cy="100" r="3" fill="#FF0000" stroke="#FF0000" stroke-width="1" />
<circle cx="300" cy="110" r="3" fill="#FF0000" stroke="#FF0000" stroke-width="1" />

<path d="M 250 100 H 285" stroke="#000000" stroke-width="1" fill="none" stroke-dasharray="2,2" marker-end="url(#arrowhead)" />
<path d="M 250 110 H 285" stroke="#000000" stroke-width="1" fill="none" stroke-dasharray="2,2" marker-end="url(#arrowhead)" />
<text x="220" y="95" style="font-size:13px;font-family:'Microsoft Yahei'">指令m</text>
<text x="220" y="125" style="font-size:13px;font-family:'Microsoft Yahei'">指令m+1</text>
<text x="260" y="17" style="font-size:13px;font-family:'Microsoft Yahei'">进程的指令流</text>
<text x="342" y="40" style="font-size:13px;font-family:'Microsoft Yahei'">信号处理函数</text>
<g transform="translate(355, 45)">
<path d="M 0 5 v 100 a 5 5 0 0 0 5 5 h 40 a 5 5 0 0 0 5 -5 v -100 a 5 5 0 0 0 -5 -5 h -40 a 5 5 0 0 0 -5 5" stroke="#000000" stroke-width="1" fill="none" stroke-dasharray="2,2"/>
</g>
</svg>
