<svg version="1.1" width="600" height="156" xmlns="http://www.w3.org/2000/svg" >
<defs><marker id="arrowhead" markerWidth="10" markerHeight="7" refX="0" refY="3.5" orient="auto"><polygon points="0 0, 10 3.5, 0 7" /></marker></defs>
<path id="bottomxline" d="M 10 155 h 580" stroke="#FFFFFF" stroke-width="1" fill="none" />
<g transform="translate(0, -5)">
<rect x="100" y="60" width="400" height="40" style="fill:#DAE8FC;stroke:#0000FF;stroke-width:1" />
<path d="M 160 60 v 40" stroke="#0000FF" stroke-width="1" fill="none"/>
<path d="M 200 60 v 40" stroke="#0000FF" stroke-width="1" fill="none"/>
<text x="505" y="85" style="font-size:13px;font-family:'Microsoft Yahei'">单片内存块</text>
<text x="305" y="85" style="font-size:13px;font-family:'Microsoft Yahei'">内存块的数据区</text>
<path d="M 100 35 V 48" stroke="#000000" stroke-width="1" fill="none" marker-end="url(#arrowhead)" />
<path d="M 160 25 V 48" stroke="#000000" stroke-width="1" fill="none" marker-end="url(#arrowhead)" />
<path d="M 100 103 V 130" stroke="#000000" stroke-width="1" fill="none" stroke-dasharray="3,3" />
<path d="M 160 103 V 130" stroke="#000000" stroke-width="1" fill="none" stroke-dasharray="3,3" />
<path d="M 158 115 H 112" stroke="#000000" stroke-width="1" fill="none" marker-end="url(#arrowhead)" />
<path d="M 130 60 v -20 H 500 V 48" stroke="#000000" stroke-width="1" fill="none" marker-end="url(#arrowhead)" />
<path d="M 140 100 v 40 H 500 V 112" stroke="#000000" stroke-width="1" fill="none" marker-end="url(#arrowhead)" />
<text x="20" y="30" style="font-size:13px;font-family:'Courier New'">AllocBlockData</text>
<text x="150" y="20" style="font-size:13px;font-family:'Courier New'">MemoryChunk</text>
<text x="300" y="32" style="font-size:13px;font-family:'Courier New'">freeptr</text>
<text x="300" y="132" style="font-size:13px;font-family:'Courier New'">endptr</text>
</g>
</svg>
