<svg version="1.1" width="600" height="301" xmlns="http://www.w3.org/2000/svg" >
<defs><marker id="arrowhead" markerWidth="10" markerHeight="7" refX="0" refY="3.5" orient="auto"><polygon points="0 0, 10 3.5, 0 7" /></marker></defs>
<path id="bottomxline" d="M 10 300 h 580" stroke="#FFFFFF" stroke-width="1" fill="none" />
<g transform="translate(0, -60)">
<circle cx="300" cy="200" r="120" fill="none" stroke="#0000FF" stroke-width="1" />
<path d="M 300 200 h 95" stroke="#000000" stroke-width="1" fill="none" marker-end="url(#arrowhead)"  />
<circle cx="300" cy="200" r="4" fill="#FF0000" stroke="#FF0000" stroke-width="1" />
<circle cx="300" cy="80" r="13" fill="#FFFFFF" stroke="#0000FF" stroke-width="1" />
<circle cx="300" cy="320" r="13" fill="#FFFFFF" stroke="#0000FF" stroke-width="1" />
<circle cx="180" cy="200" r="13" fill="#FFFFFF" stroke="#0000FF" stroke-width="1" />
<circle cx="420" cy="200" r="13" fill="#FFFFFF" stroke="#0000FF" stroke-width="1" />
<circle cx="360" cy="96" r="13" fill="#FFFFFF" stroke="#0000FF" stroke-width="1" />
<circle cx="404" cy="140" r="13" fill="#FFFFFF" stroke="#0000FF" stroke-width="1" />
<circle cx="360" cy="304" r="13" fill="#FFFFFF" stroke="#0000FF" stroke-width="1" />
<circle cx="404" cy="260" r="13" fill="#FFFFFF" stroke="#0000FF" stroke-width="1" />
<circle cx="240" cy="96" r="13" fill="#FFFFFF" stroke="#0000FF" stroke-width="1" />
<circle cx="240" cy="304" r="13" fill="#FFFFFF" stroke="#0000FF" stroke-width="1" />
<circle cx="196" cy="140" r="13" fill="#FFFFFF" stroke="#0000FF" stroke-width="1" />
<circle cx="196" cy="260" r="13" fill="#FFFFFF" stroke="#0000FF" stroke-width="1" />

<text x="150" y="205" style="font-size:15px;font-family:'Arial'">0</text>
<text x="105" y="266" style="font-size:15px;font-family:'Arial'">NBuffers-1</text>
<path d="M 300 160 a 40 40 0 0 1 0 80" stroke="#000000" stroke-width="1" fill="none" stroke-dasharray="3,3" marker-end="url(#arrowhead)" />
</g>
</svg>
