<svg version="1.1" width="600" height="131" xmlns="http://www.w3.org/2000/svg" >
<defs><marker id="arrowhead" markerWidth="10" markerHeight="7" refX="0" refY="3.5" orient="auto"><polygon points="0 0, 10 3.5, 0 7" /></marker></defs>
<path id="bottomxline" d="M 10 130 h 580" stroke="#FFFFFF" stroke-width="1" fill="none" />
<rect x="100" y="60" width="400" height="20" style="fill:none;stroke:#0000FF;stroke-width:1" />
<rect x="160" y="60" width="160" height="20" style="fill:#DAE8FC;stroke:#0000FF;stroke-width:1" />
<path d="M 120 60 v 20" stroke="#0000FF" stroke-width="1" fill="none" />
<path d="M 140 60 v 20" stroke="#0000FF" stroke-width="1" fill="none" />
<path d="M 200 60 v 20" stroke="#0000FF" stroke-width="1" fill="none" />
<path d="M 240 60 v 20" stroke="#0000FF" stroke-width="1" fill="none" />
<path d="M 280 60 v 20" stroke="#0000FF" stroke-width="1" fill="none" />
<path d="M 360 60 v 20" stroke="#0000FF" stroke-width="1" fill="none" />
<path d="M 460 60 v 20" stroke="#0000FF" stroke-width="1" fill="none" />

<path d="M 130 58 v -20 H 320 V 48" stroke="#000000" stroke-width="1" fill="none" marker-end="url(#arrowhead)"  />
<path d="M 150 82 v 20 H 500 V 92" stroke="#000000" stroke-width="1" fill="none" marker-end="url(#arrowhead)"  />

<path d="M 180 82 v 28" stroke="#000000" stroke-width="1" fill="none" marker-end="url(#arrowhead)"  />
<path d="M 220 82 v 28" stroke="#000000" stroke-width="1" fill="none" marker-end="url(#arrowhead)"  />
<path d="M 260 82 v 28" stroke="#000000" stroke-width="1" fill="none" marker-end="url(#arrowhead)"  />
<path d="M 300 82 v 28" stroke="#000000" stroke-width="1" fill="none" marker-end="url(#arrowhead)"  />

<path d="M 110 30 V 48" stroke="#000000" stroke-width="1" fill="none" marker-end="url(#arrowhead)"  />

<text x="96" y="25" style="font-size:13px;font-family:'Courier New'">type</text>
<text x="200" y="30" style="font-size:13px;font-family:'Courier New'">length</text>
<text x="350" y="115" style="font-size:13px;font-family:'Courier New'">max_length</text>
<text x="50" y="115" style="font-size:13px;font-family:'Courier New'">elements</text>
</svg>
