<svg version="1.1" width="600" height="91" xmlns="http://www.w3.org/2000/svg" >
<defs><marker id="arrowhead" markerWidth="10" markerHeight="7" refX="0" refY="3.5" orient="auto"><polygon points="0 0, 10 3.5, 0 7" /></marker></defs>
<path id="bottomxline" d="M 10 90 h 580" stroke="#FFFFFF" stroke-width="1" fill="none" />
<g transform="translate(0, 15)">
<text x="106" y="0" style="font-size:13px;font-family:'Arial'">0</text>
<text x="126" y="0" style="font-size:13px;font-family:'Arial'">1</text>
<text x="146" y="0" style="font-size:13px;font-family:'Arial'">2</text>
<text x="166" y="0" style="font-size:13px;font-family:'Arial'">3</text>
<text x="186" y="0" style="font-size:13px;font-family:'Arial'">4</text>
<text x="206" y="0" style="font-size:13px;font-family:'Arial'">5</text>
<text x="226" y="0" style="font-size:13px;font-family:'Arial'">6</text>
<text x="246" y="0" style="font-size:13px;font-family:'Arial'">7</text>
<text x="266" y="0" style="font-size:13px;font-family:'Arial'">8</text>
<text x="286" y="0" style="font-size:13px;font-family:'Arial'">9</text>
<text x="482" y="0" style="font-size:13px;font-family:'Arial'">n-1</text>
</g>
<g transform="translate(100, 20)">
<rect x="0" y="0" width="400" height="20" style="fill:none;stroke:#0000FF;stroke-width:1" />
<path d="M 20 0 v 20 " stroke="#0000FF" stroke-width="1" fill="none" />
<path d="M 40 0 v 20 " stroke="#0000FF" stroke-width="1" fill="none" />
<path d="M 60 0 v 20 " stroke="#0000FF" stroke-width="1" fill="none" />
<path d="M 80 0 v 20 " stroke="#0000FF" stroke-width="1" fill="none" />
<path d="M 100 0 v 20 " stroke="#0000FF" stroke-width="1" fill="none" />
<path d="M 120 0 v 20 " stroke="#0000FF" stroke-width="1" fill="none" />
<path d="M 140 0 v 20 " stroke="#0000FF" stroke-width="1" fill="none" />
<path d="M 160 0 v 20 " stroke="#0000FF" stroke-width="1" fill="none" />
<path d="M 180 0 v 20 " stroke="#0000FF" stroke-width="1" fill="none" />
<path d="M 200 0 v 20 " stroke="#0000FF" stroke-width="1" fill="none" />
<path d="M 220 0 v 20 " stroke="#0000FF" stroke-width="1" fill="none" />
<path d="M 240 0 v 20 " stroke="#0000FF" stroke-width="1" fill="none" />
<path d="M 260 0 v 20 " stroke="#0000FF" stroke-width="1" fill="none" />
<path d="M 360 0 v 20 " stroke="#0000FF" stroke-width="1" fill="none" />
<path d="M 380 0 v 20 " stroke="#0000FF" stroke-width="1" fill="none" />
<path d="M 160 50 V 32" stroke="#000000" stroke-width="1" fill="none" marker-end="url(#arrowhead)"  />
</g>
</svg>
