<svg version="1.1" width="600" height="241" xmlns="http://www.w3.org/2000/svg" >
<defs><marker id="arrowhead" markerWidth="10" markerHeight="7" refX="0" refY="3.5" orient="auto"><polygon points="0 0, 10 3.5, 0 7" /></marker></defs>
<path id="bottomxline" d="M 10 240 h 580" stroke="#FFFFFF" stroke-width="1" fill="none" />

<rect x="50" y="15" width="200" height="90" style="fill:none;stroke:#0000FF;stroke-width:1" />
<rect x="70" y="45" width="50" height="31" style="fill:#DAE8FC;stroke:#0000FF;stroke-width:1" />
<rect x="180" y="45" width="50" height="31" style="fill:#DAE8FC;stroke:#0000FF;stroke-width:1" />
<rect x="350" y="20" width="50" height="180" style="fill:none;stroke:#0000FF;stroke-width:1" />
<rect x="350" y="60" width="50" height="80" style="fill:#DAE8FC;stroke:#0000FF;stroke-width:1" />
<path d="M 350 40 h 50" stroke="#0000FF" stroke-width="1" fill="none"/>
<path d="M 350 80 h 50" stroke="#0000FF" stroke-width="1" fill="none"/>
<path d="M 350 100 h 50" stroke="#0000FF" stroke-width="1" fill="none"/>
<path d="M 350 120 h 50" stroke="#0000FF" stroke-width="1" fill="none"/>
<path d="M 350 160 h 50" stroke="#0000FF" stroke-width="1" fill="none"/>
<text x="354" y="180" style="font-size:25px;font-family:'Arial'">......</text>
<path d="M 232 60 H 338" stroke="#000000" stroke-width="1" fill="none" marker-end="url(#arrowhead)" />
<path d="M 122 60 H 168" stroke="#000000" stroke-width="1" fill="none" marker-end="url(#arrowhead)" />
<path d="M 403 60 h 5 a 5 5 0 0 1 5 5 v 30 a 5 5 0 0 0 5 5 a 5 5 0 0 0 -5 5 v 30 a 5 5 0 0 1 -5 5 h -5" stroke="#000000" stroke-width="1" fill="none"/>
<path d="M 420 100 h 20 V 210 H 95 V 88" stroke="#000000" stroke-width="1" fill="none" marker-end="url(#arrowhead)" />
<text x="80" y="40" style="font-size:13px;font-family:'Arial'">CPU</text>
<text x="190" y="40" style="font-size:13px;font-family:'Arial'">MMU</text>
<text x="350" y="15" style="font-size:13px;font-family:'Microsoft Yahei'">物理内存</text>
<text x="265" y="53" style="font-size:13px;font-family:'Microsoft Yahei'">物理地址</text>
<text x="122" y="53" style="font-size:13px;font-family:'Microsoft Yahei'">虚拟地址</text>
<text x="250" y="203" style="font-size:13px;font-family:'Microsoft Yahei'">数据</text>
<text x="125" y="75" style="font-size:13px;font-family:'Arial'">VA = 34</text>
<text x="270" y="75" style="font-size:13px;font-family:'Arial'">PA = 2</text>

<text x="340" y="35" style="font-size:13px;font-family:'Arial'">0</text>
<text x="340" y="55" style="font-size:13px;font-family:'Arial'">1</text>
<text x="340" y="75" style="font-size:13px;font-family:'Arial'">2</text>
<text x="340" y="95" style="font-size:13px;font-family:'Arial'">3</text>
<text x="340" y="115" style="font-size:13px;font-family:'Arial'">4</text>
<text x="340" y="135" style="font-size:13px;font-family:'Arial'">5</text>
</svg>
