<svg version="1.1" width="600" height="216" xmlns="http://www.w3.org/2000/svg" >
<defs><marker id="arrowhead" markerWidth="10" markerHeight="7" refX="0" refY="3.5" orient="auto"><polygon points="0 0, 10 3.5, 0 7" /></marker></defs>
<path id="bottomxline" d="M 10 215 h 580" stroke="#FFFFFF" stroke-width="1" fill="none" />
<g transform="translate(0, -15)">
<rect x="100" y="20" width="400" height="30" style="fill:none;stroke:#0000FF;stroke-width:1" />
<rect x="200" y="20" width="100" height="30" style="fill:#DAE8FC;stroke:#0000FF;stroke-width:1" />

<rect x="150" y="100" width="300" height="30" style="fill:none;stroke:#0000FF;stroke-width:1" />
<rect x="250" y="100" width="100" height="30" style="fill:#DAE8FC;stroke:#0000FF;stroke-width:1" />

<rect x="100" y="180" width="400" height="30" style="fill:none;stroke:#0000FF;stroke-width:1" />
<rect x="200" y="180" width="100" height="30" style="fill:#DAE8FC;stroke:#0000FF;stroke-width:1" />

<path d="M 200 52 v 10 l 50 15 V 88" stroke="#000000" stroke-width="1" fill="none" marker-end="url(#arrowhead)" />
<path d="M 300 52 v 10 l 50 15 V 88" stroke="#000000" stroke-width="1" fill="none" marker-end="url(#arrowhead)" />

<path d="M 200 178 v -10 l 50 -15 V 142" stroke="#000000" stroke-width="1" fill="none" marker-end="url(#arrowhead)" />
<path d="M 300 178 v -10 l 50 -15 V 142" stroke="#000000" stroke-width="1" fill="none" marker-end="url(#arrowhead)" />
<text x="453" y="120" style="font-size:13px;font-family:'Microsoft Yahei'">物理内存</text>
<text x="503" y="40" style="font-size:13px;font-family:'Microsoft Yahei'">虚拟内存空间</text>
<text x="503" y="200" style="font-size:13px;font-family:'Microsoft Yahei'">虚拟内存空间</text>
<text x="55" y="40" style="font-size:13px;font-family:'Microsoft Yahei'">父进程</text>
<text x="55" y="200" style="font-size:13px;font-family:'Microsoft Yahei'">子进程</text>

<path d="M 75 47 V 175" stroke="#000000" stroke-width="1" fill="none" marker-end="url(#arrowhead)" />
<rect x="70" y="100" width="20" height="20" style="fill:#FFFFFF;stroke:#FFFFFF;stroke-width:1" />
<text x="55" y="115" style="font-size:13px;font-family:'Courier New'">fork()</text>
</g>
</svg>
