<svg version="1.1" width="600" height="261" xmlns="http://www.w3.org/2000/svg" >
<defs><marker id="arrowhead" markerWidth="10" markerHeight="7" refX="0" refY="3.5" orient="auto"><polygon points="0 0, 10 3.5, 0 7" /></marker></defs>
<path id="bottomxline" d="M 10 260 h 580" stroke="#FFFFFF" stroke-width="1" fill="none" />
<text x="253" y="16" style="font-size:13px;font-family:'Microsoft Yahei'">进程A</text>
<text x="313" y="16" style="font-size:13px;font-family:'Microsoft Yahei'">进程B</text>
<path d="M 270 20 V 35" stroke="#0000FF" stroke-width="1" fill="none" marker-end="url(#arrowhead)" />
<circle cx="270" cy="50" r="3" fill="#FF0000" stroke="#FF0000" stroke-width="1" />
<path d="M 270 55 V 115" stroke="#0000FF" stroke-width="1" fill="none" marker-end="url(#arrowhead)" />
<circle cx="270" cy="130" r="3" fill="#FF0000" stroke="#FF0000" stroke-width="1" />
<path d="M 270 135 V 150" stroke="#0000FF" stroke-width="1" fill="none" marker-end="url(#arrowhead)" />
<circle cx="270" cy="165" r="3" fill="#FF0000" stroke="#FF0000" stroke-width="1" />
<path d="M 270 170 V 210" stroke="#0000FF" stroke-width="1" fill="none" stroke-dasharray="3,3"/>
<circle cx="270" cy="215" r="3" fill="#FF0000" stroke="#FF0000" stroke-width="1" />
<path d="M 270 220 V 230" stroke="#0000FF" stroke-width="1" fill="none" marker-end="url(#arrowhead)" />

<path d="M 330 20 V 65" stroke="#0000FF" stroke-width="1" fill="none" marker-end="url(#arrowhead)" />
<circle cx="330" cy="80" r="3" fill="#FF0000" stroke="#FF0000" stroke-width="1" />
<path d="M 330 85 V 130" stroke="#0000FF" stroke-width="1" fill="none" stroke-dasharray="3,3"/>
<circle cx="330" cy="130" r="3" fill="#FF0000" stroke="#FF0000" stroke-width="1" />
<path d="M 330 135 V 200" stroke="#0000FF" stroke-width="1" fill="none" marker-end="url(#arrowhead)" />
<circle cx="330" cy="215" r="3" fill="#FF0000" stroke="#FF0000" stroke-width="1" />
<path d="M 330 220 V 230" stroke="#0000FF" stroke-width="1" fill="none" marker-end="url(#arrowhead)" />

<path d="M 320 80 h -5 a 5 5 0 0 0 -5 5 v 15 a 5 5 0 0 1 -5 5 a 5 5 0 0 1 5 5 v 15 a 5 5 0 0 0 5 5 h 5" stroke="#000000" stroke-width="1" fill="none"/>
<path d="M 280 165 h 5 a 5 5 0 0 1 5 5 v 15 a 5 5 0 0 0 5 5 a 5 5 0 0 0 -5 5 v 15 a 5 5 0 0 1 -5 5 h -5" stroke="#000000" stroke-width="1" fill="none"/>

<path d="M 220 50 H 255" stroke="#000000" stroke-width="1" fill="none" stroke-dasharray="2,3" marker-end="url(#arrowhead)" />
<path d="M 220 130 H 255" stroke="#000000" stroke-width="1" fill="none" stroke-dasharray="2,3" marker-end="url(#arrowhead)" />
<path d="M 220 165 H 255" stroke="#000000" stroke-width="1" fill="none" stroke-dasharray="2,3" marker-end="url(#arrowhead)" />
<path d="M 220 215 H 255" stroke="#000000" stroke-width="1" fill="none" stroke-dasharray="2,3" marker-end="url(#arrowhead)" />

<path d="M 380 80 H 345" stroke="#000000" stroke-width="1" fill="none" stroke-dasharray="2,3" marker-end="url(#arrowhead)" />
<path d="M 380 130 H 345" stroke="#000000" stroke-width="1" fill="none" stroke-dasharray="2,3" marker-end="url(#arrowhead)" />
<path d="M 380 215 H 345" stroke="#000000" stroke-width="1" fill="none" stroke-dasharray="2,3" marker-end="url(#arrowhead)" />
<text x="97" y="55" style="font-size:13px;font-family:'Microsoft Yahei'">(1) 初始化信号量为0</text>
<text x="117" y="135" style="font-size:13px;font-family:'Microsoft Yahei'">(3) 把信号量加一</text>
<text x="117" y="170" style="font-size:13px;font-family:'Microsoft Yahei'">(5) 把信号量减一</text>
<text x="110" y="220" style="font-size:13px;font-family:'Microsoft Yahei'">(7) 进程A恢复运行</text>
<text x="175" y="195" style="font-size:13px;font-family:'Microsoft Yahei'">进程A进入休眠</text>
<text x="382" y="85" style="font-size:13px;font-family:'Microsoft Yahei'">(2) 把信号量减一</text>
<text x="382" y="135" style="font-size:13px;font-family:'Microsoft Yahei'">(4) 进程B恢复运行</text>
<text x="382" y="220" style="font-size:13px;font-family:'Microsoft Yahei'">(6) 把信号量加一</text>
<text x="335" y="110" style="font-size:13px;font-family:'Microsoft Yahei'">进程B进入休眠</text>
</svg>
