<svg version="1.1" width="600" height="211" xmlns="http://www.w3.org/2000/svg" >
<defs><marker id="arrowhead" markerWidth="10" markerHeight="7" refX="0" refY="3.5" orient="auto"><polygon points="0 0, 10 3.5, 0 7" /></marker></defs>
<path id="bottomxline" d="M 10 210 h 580" stroke="#FFFFFF" stroke-width="1" fill="none" />
<g transform="translate(0, -30)">
<rect x="150" y="60" width="100" height="62" style="fill:none;stroke:#0000FF;stroke-width:1" />
<rect x="350" y="60" width="100" height="62" style="fill:none;stroke:#0000FF;stroke-width:1" />
<path d="M 100 50 V 91 H 138" stroke="#000000" stroke-width="1" fill="none" marker-end="url(#arrowhead)"/>
<path d="M 300 50 V 86 H 338" stroke="#000000" stroke-width="1" fill="none" marker-end="url(#arrowhead)"/>
<path d="M 252 96 H 338" stroke="#000000" stroke-width="1" fill="none" marker-end="url(#arrowhead)"/>

<path d="M 452 91 h 10 V 140 H 120 V 186 H 138" stroke="#000000" stroke-width="1" fill="none" marker-end="url(#arrowhead)"/>
<path d="M 100 196 H 138" stroke="#000000" stroke-width="1" fill="none" marker-end="url(#arrowhead)"/>
<path d="M 252 191 H 338" stroke="#000000" stroke-width="1" fill="none" marker-end="url(#arrowhead)"/>
<path d="M 452 191 H 520" stroke="#000000" stroke-width="1" fill="none" marker-end="url(#arrowhead)"/>
<rect x="150" y="160" width="100" height="62" style="fill:none;stroke:#0000FF;stroke-width:1" />
<rect x="350" y="160" width="100" height="62" style="fill:none;stroke:#0000FF;stroke-width:1" />

<text x="157" y="95" style="font-size:13px;font-family:'Microsoft Yahei'">词法分析器flex</text>
<text x="365" y="90" style="font-size:13px;font-family:'Microsoft Yahei'">语法分析器</text>
<text x="385" y="105" style="font-size:13px;font-family:'Microsoft Yahei'">bison</text>
<text x="170" y="195" style="font-size:13px;font-family:'Microsoft Yahei'">SQL解析器</text>
<text x="370" y="195" style="font-size:13px;font-family:'Microsoft Yahei'">语义解析器</text>
<text x="90" y="45" style="font-size:15px;font-family:'Arial'">*.l</text>
<text x="290" y="45" style="font-size:15px;font-family:'Arial'">*.y</text>
</g>

<g transform="translate(230, 125)">
<rect x="60" y="0" width="10" height="10" style="fill:#DAE8FC;stroke:#0000FF;stroke-width:1" />
<rect x="50" y="20" width="10" height="10" style="fill:#DAE8FC;stroke:#0000FF;stroke-width:1" />
<rect x="70" y="20" width="10" height="10" style="fill:#DAE8FC;stroke:#0000FF;stroke-width:1" />
<path d="M 65 10 v 5 H 55 V20" stroke="#000000" stroke-width="1" fill="none"/>
<path d="M 65 15 H 75 V20" stroke="#000000" stroke-width="1" fill="none"/>
</g>

<g transform="translate(420, 125)">
<rect x="60" y="0" width="10" height="10" style="fill:#DAE8FC;stroke:#0000FF;stroke-width:1" />
<rect x="50" y="20" width="10" height="10" style="fill:#DAE8FC;stroke:#0000FF;stroke-width:1" />
<rect x="70" y="20" width="10" height="10" style="fill:#DAE8FC;stroke:#0000FF;stroke-width:1" />
<path d="M 65 10 v 5 H 55 V20" stroke="#000000" stroke-width="1" fill="none"/>
<path d="M 65 15 H 75 V20" stroke="#000000" stroke-width="1" fill="none"/>
</g>

</svg>
