<svg version="1.1" width="600" height="191" xmlns="http://www.w3.org/2000/svg" >
<defs><marker id="arrowhead" markerWidth="10" markerHeight="7" refX="0" refY="3.5" orient="auto"><polygon points="0 0, 10 3.5, 0 7" /></marker></defs>
<path id="bottomxline" d="M 10 190 h 580" stroke="#FFFFFF" stroke-width="1" fill="none" />
<rect x="285" y="50" width="30" height="120" style="fill:none;stroke:#0000FF;stroke-width:1" />
<rect x="285" y="20" width="30" height="30" style="fill:#DAE8FC;stroke:#0000FF;stroke-width:1" />
<path d="M 318 50 h 5 a 5 5 0 0 1 5 5 v 50 a 5 5 0 0 0 5 5 a 5 5 0 0 0 -5 5 v 50 a 5 5 0 0 1 -5 5 h -5" stroke="#000000" stroke-width="1" fill="none"/>

<path d="M 340 35 H 327" stroke="#000000" stroke-width="1" fill="none" marker-end="url(#arrowhead)"  />
<text x="343" y="38" style="font-size:13px;font-family:'Courier New'">type</text>
<text x="338" y="115" style="font-size:13px;font-family:'Microsoft Yahei'">内容和大小可变</text>
</svg>
