<svg version="1.1" width="600" height="181" xmlns="http://www.w3.org/2000/svg" >
<defs><marker id="arrowhead" markerWidth="10" markerHeight="7" refX="0" refY="3.5" orient="auto"><polygon points="0 0, 10 3.5, 0 7" /></marker></defs>
<path id="bottomxline" d="M 10 180 h 580" stroke="#FFFFFF" stroke-width="1" fill="none" />
<text x="220" y="18" style="font-size:13px;font-family:'Courier New'">nwords</text>
<text x="330" y="110" style="font-size:13px;font-family:'Microsoft Yahei'">字(word)</text>

<rect x="200" y="60" width="280" height="20" style="fill:none;stroke:#0000FF;stroke-width:1" />
<rect x="240" y="60" width="240" height="20" style="fill:#DAE8FC;stroke:#0000FF;stroke-width:1" />
<path d="M 320 60 v 20" stroke="#0000FF" stroke-width="1" fill="none" />
<path d="M 400 60 v 20" stroke="#0000FF" stroke-width="1" fill="none" />
<path d="M 240 57 v -5 a 5 5 0 0 1 5 -5 h 110 a 5 5 0 0 0 5 -5 a 5 5 0 0 0 5 5 h 110 a 5 5 0 0 1 5 5 v 5" stroke="#000000" stroke-width="1" fill="none" />
<path d="M 320 83 v 5 a 5 5 0 0 0 5 5 h 30 a 5 5 0 0 1 5 5 a 5 5 0 0 1 5 -5 h 30 a 5 5 0 0 0 5 -5 v -5" stroke="#000000" stroke-width="1" fill="none" />

<path d="M 220 70 v -45 H 360 V 30" stroke="#000000" stroke-width="1" fill="none" marker-end="url(#arrowhead)"  />

<path d="M 240 82 v 10 L 10 118 v 10" stroke="#000000" stroke-width="1" fill="none" marker-end="url(#arrowhead)" stroke-dasharray="3,3"/>
<path d="M 480 82 v 10 L 590 118 v 10" stroke="#000000" stroke-width="1" fill="none" marker-end="url(#arrowhead)" stroke-dasharray="3,3"/>

<rect x="10" y="140" width="580" height="20" style="fill:none;stroke:#0000FF;stroke-width:1" />
<path d="M 30 140 v 20" stroke="#0000FF" stroke-width="1" fill="none" />
<path d="M 50 140 v 20" stroke="#0000FF" stroke-width="1" fill="none" />
<path d="M 70 140 v 20" stroke="#0000FF" stroke-width="1" fill="none" />
<path d="M 90 140 v 20" stroke="#0000FF" stroke-width="1" fill="none" />
<path d="M 110 140 v 20" stroke="#0000FF" stroke-width="1" fill="none" />
<path d="M 130 140 v 20" stroke="#0000FF" stroke-width="1" fill="none" />
<path d="M 150 140 v 20" stroke="#0000FF" stroke-width="1" fill="none" />
<path d="M 170 140 v 20" stroke="#0000FF" stroke-width="1" fill="none" />
<path d="M 190 140 v 20" stroke="#0000FF" stroke-width="1" fill="none" />
<path d="M 210 140 v 20" stroke="#0000FF" stroke-width="1" fill="none" />
<path d="M 230 140 v 20" stroke="#0000FF" stroke-width="1" fill="none" />
<path d="M 250 140 v 20" stroke="#0000FF" stroke-width="1" fill="none" />
<path d="M 270 140 v 20" stroke="#0000FF" stroke-width="1" fill="none" />
<path d="M 290 140 v 20" stroke="#0000FF" stroke-width="1" fill="none" />
<path d="M 310 140 v 20" stroke="#0000FF" stroke-width="1" fill="none" />
<path d="M 330 140 v 20" stroke="#0000FF" stroke-width="1" fill="none" />
<path d="M 350 140 v 20" stroke="#0000FF" stroke-width="1" fill="none" />
<path d="M 370 140 v 20" stroke="#0000FF" stroke-width="1" fill="none" />
<path d="M 390 140 v 20" stroke="#0000FF" stroke-width="1" fill="none" />
<path d="M 410 140 v 20" stroke="#0000FF" stroke-width="1" fill="none" />
<path d="M 430 140 v 20" stroke="#0000FF" stroke-width="1" fill="none" />
<path d="M 450 140 v 20" stroke="#0000FF" stroke-width="1" fill="none" />
<path d="M 470 140 v 20" stroke="#0000FF" stroke-width="1" fill="none" />
<path d="M 490 140 v 20" stroke="#0000FF" stroke-width="1" fill="none" />
<path d="M 510 140 v 20" stroke="#0000FF" stroke-width="1" fill="none" />
<path d="M 530 140 v 20" stroke="#0000FF" stroke-width="1" fill="none" />
<path d="M 550 140 v 20" stroke="#0000FF" stroke-width="1" fill="none" />
<path d="M 570 140 v 20" stroke="#0000FF" stroke-width="1" fill="none" />
<text x="16" y="154" style="font-size:13px;font-family:'Arial'">0</text>
<text x="36" y="154" style="font-size:13px;font-family:'Arial'">1</text>
<text x="56" y="154" style="font-size:13px;font-family:'Arial'">0</text>
<text x="76" y="154" style="font-size:13px;font-family:'Arial'">1</text>
<text x="96" y="154" style="font-size:13px;font-family:'Arial'">1</text>
<text x="116" y="154" style="font-size:13px;font-family:'Arial'">0</text>
<text x="136" y="154" style="font-size:13px;font-family:'Arial'">0</text>
<text x="156" y="154" style="font-size:13px;font-family:'Arial'">0</text>
<text x="176" y="154" style="font-size:13px;font-family:'Arial'">1</text>
<text x="196" y="154" style="font-size:13px;font-family:'Arial'">1</text>
<text x="216" y="154" style="font-size:13px;font-family:'Arial'">0</text>
<text x="236" y="154" style="font-size:13px;font-family:'Arial'">0</text>
<text x="256" y="154" style="font-size:13px;font-family:'Arial'">0</text>
<text x="276" y="154" style="font-size:13px;font-family:'Arial'">0</text>
<text x="296" y="154" style="font-size:13px;font-family:'Arial'">0</text>
<text x="316" y="154" style="font-size:13px;font-family:'Arial'">0</text>
<text x="336" y="154" style="font-size:13px;font-family:'Arial'">0</text>
<text x="356" y="154" style="font-size:13px;font-family:'Arial'">0</text>
<text x="376" y="154" style="font-size:13px;font-family:'Arial'">1</text>
<text x="396" y="154" style="font-size:13px;font-family:'Arial'">0</text>
<text x="416" y="154" style="font-size:13px;font-family:'Arial'">0</text>
<text x="436" y="154" style="font-size:13px;font-family:'Arial'">0</text>
<text x="456" y="154" style="font-size:13px;font-family:'Arial'">0</text>
<text x="476" y="154" style="font-size:13px;font-family:'Arial'">0</text>
<text x="496" y="154" style="font-size:13px;font-family:'Arial'">1</text>
<text x="516" y="154" style="font-size:13px;font-family:'Arial'">0</text>
<text x="536" y="154" style="font-size:13px;font-family:'Arial'">1</text>
<text x="556" y="154" style="font-size:13px;font-family:'Arial'">0</text>
<text x="576" y="154" style="font-size:13px;font-family:'Arial'">0</text>
</svg>
