<svg version="1.1" width="600" height="226" xmlns="http://www.w3.org/2000/svg">
<defs><marker id="arrowhead" markerWidth="10" markerHeight="7" refX="0" refY="3.5" orient="auto"><polygon points="0 0, 10 3.5, 0 7" /></marker></defs>
<path id="bottomxline" d="M 10 225 h 580" stroke="#FFFFFF" stroke-width="1" fill="none" />
<g transform="translate(20, 25)">
<text x="2" y="-7" style="font-size:13px;font-family:'Microsoft Yahei'">外层</text>
<rect x="0" y="0" width="30" height="180" style="fill:none;stroke:#0000FF;stroke-width:1" />
<path d="M 0 30 h 30" stroke="#0000FF" stroke-width="1" fill="none" />
<path d="M 0 60 h 30" stroke="#0000FF" stroke-width="1" fill="none" />
<path d="M 0 90 h 30" stroke="#0000FF" stroke-width="1" fill="none" />
<path d="M 0 120 h 30" stroke="#0000FF" stroke-width="1" fill="none" />
<path d="M 0 150 h 30" stroke="#0000FF" stroke-width="1" fill="none" />
<text x="10" y="20" style="font-size:15px;font-family:'Arial'">6</text>
<text x="10" y="50" style="font-size:15px;font-family:'Arial'">2</text>
<text x="10" y="80" style="font-size:15px;font-family:'Arial'">5</text>
<text x="10" y="110" style="font-size:15px;font-family:'Arial'">8</text>
<text x="10" y="140" style="font-size:15px;font-family:'Arial'">1</text>
<text x="10" y="170" style="font-size:15px;font-family:'Arial'">9</text>
<text x="102" y="-7" style="font-size:13px;font-family:'Microsoft Yahei'">内层</text>
<rect x="100" y="0" width="30" height="150" style="fill:none;stroke:#0000FF;stroke-width:1" />
<path d="M 100 30 h 30" stroke="#0000FF" stroke-width="1" fill="none" />
<path d="M 100 60 h 30" stroke="#0000FF" stroke-width="1" fill="none" />
<path d="M 100 90 h 30" stroke="#0000FF" stroke-width="1" fill="none" />
<path d="M 100 120 h 30" stroke="#0000FF" stroke-width="1" fill="none" />
<text x="110" y="20" style="font-size:15px;font-family:'Arial'">3</text>
<text x="110" y="50" style="font-size:15px;font-family:'Arial'">7</text>
<text x="110" y="80" style="font-size:15px;font-family:'Arial'">0</text>
<text x="110" y="110" style="font-size:15px;font-family:'Arial'">5</text>
<text x="110" y="140" style="font-size:15px;font-family:'Arial'">2</text>

<path d="M 140 0 v 170" stroke="#000000" stroke-width="1" fill="none" stroke-dasharray="3,3" marker-end="url(#arrowhead)"/>

<path d="M 32 15 L 70 15 h 18" stroke="#000000" stroke-width="1" fill="none" marker-end="url(#arrowhead)"/>
<path d="M 32 15 L 70 45 h 18" stroke="#000000" stroke-width="1" fill="none" marker-end="url(#arrowhead)"/>
<path d="M 32 15 L 70 75 h 18" stroke="#000000" stroke-width="1" fill="none" marker-end="url(#arrowhead)"/>
<path d="M 32 15 L 70 105 h 18" stroke="#000000" stroke-width="1" fill="none" marker-end="url(#arrowhead)"/>
<path d="M 32 15 L 70 135 h 18" stroke="#000000" stroke-width="1" fill="none" marker-end="url(#arrowhead)"/>
</g>

<g transform="translate(230, 25)">
<text x="2" y="-7" style="font-size:13px;font-family:'Microsoft Yahei'">外层</text>
<rect x="0" y="0" width="30" height="180" style="fill:none;stroke:#0000FF;stroke-width:1" />
<path d="M 0 30 h 30" stroke="#0000FF" stroke-width="1" fill="none" />
<path d="M 0 60 h 30" stroke="#0000FF" stroke-width="1" fill="none" />
<path d="M 0 90 h 30" stroke="#0000FF" stroke-width="1" fill="none" />
<path d="M 0 120 h 30" stroke="#0000FF" stroke-width="1" fill="none" />
<path d="M 0 150 h 30" stroke="#0000FF" stroke-width="1" fill="none" />
<text x="10" y="20" style="font-size:15px;font-family:'Arial'">6</text>
<text x="10" y="50" style="font-size:15px;font-family:'Arial'">2</text>
<text x="10" y="80" style="font-size:15px;font-family:'Arial'">5</text>
<text x="10" y="110" style="font-size:15px;font-family:'Arial'">8</text>
<text x="10" y="140" style="font-size:15px;font-family:'Arial'">1</text>
<text x="10" y="170" style="font-size:15px;font-family:'Arial'">9</text>
<text x="102" y="-7" style="font-size:13px;font-family:'Microsoft Yahei'">内层</text>
<rect x="100" y="0" width="30" height="150" style="fill:none;stroke:#0000FF;stroke-width:1" />
<path d="M 100 30 h 30" stroke="#0000FF" stroke-width="1" fill="none" />
<path d="M 100 60 h 30" stroke="#0000FF" stroke-width="1" fill="none" />
<path d="M 100 90 h 30" stroke="#0000FF" stroke-width="1" fill="none" />
<path d="M 100 120 h 30" stroke="#0000FF" stroke-width="1" fill="none" />
<text x="110" y="20" style="font-size:15px;font-family:'Arial'">3</text>
<text x="110" y="50" style="font-size:15px;font-family:'Arial'">7</text>
<text x="110" y="80" style="font-size:15px;font-family:'Arial'">0</text>
<text x="110" y="110" style="font-size:15px;font-family:'Arial'">5</text>
<text x="110" y="140" style="font-size:15px;font-family:'Arial'">2</text>

<path d="M 140 0 v 170" stroke="#000000" stroke-width="1" fill="none" stroke-dasharray="3,3" marker-end="url(#arrowhead)"/>

<path d="M 32 45 L 70 15 h 18" stroke="#000000" stroke-width="1" fill="none" marker-end="url(#arrowhead)"/>
<path d="M 32 45 L 70 45 h 18" stroke="#000000" stroke-width="1" fill="none" marker-end="url(#arrowhead)"/>
<path d="M 32 45 L 70 75 h 18" stroke="#000000" stroke-width="1" fill="none" marker-end="url(#arrowhead)"/>
<path d="M 32 45 L 70 105 h 18" stroke="#000000" stroke-width="1" fill="none" marker-end="url(#arrowhead)"/>
<path d="M 32 45 L 70 135 h 18" stroke="#000000" stroke-width="1" fill="none" marker-end="url(#arrowhead)"/>
</g>

<g transform="translate(440, 25)">
<text x="2" y="-7" style="font-size:13px;font-family:'Microsoft Yahei'">外层</text>
<rect x="0" y="0" width="30" height="180" style="fill:none;stroke:#0000FF;stroke-width:1" />
<path d="M 0 30 h 30" stroke="#0000FF" stroke-width="1" fill="none" />
<path d="M 0 60 h 30" stroke="#0000FF" stroke-width="1" fill="none" />
<path d="M 0 90 h 30" stroke="#0000FF" stroke-width="1" fill="none" />
<path d="M 0 120 h 30" stroke="#0000FF" stroke-width="1" fill="none" />
<path d="M 0 150 h 30" stroke="#0000FF" stroke-width="1" fill="none" />
<text x="10" y="20" style="font-size:15px;font-family:'Arial'">6</text>
<text x="10" y="50" style="font-size:15px;font-family:'Arial'">2</text>
<text x="10" y="80" style="font-size:15px;font-family:'Arial'">5</text>
<text x="10" y="110" style="font-size:15px;font-family:'Arial'">8</text>
<text x="10" y="140" style="font-size:15px;font-family:'Arial'">1</text>
<text x="10" y="170" style="font-size:15px;font-family:'Arial'">9</text>
<text x="102" y="-7" style="font-size:13px;font-family:'Microsoft Yahei'">内层</text>
<rect x="100" y="0" width="30" height="150" style="fill:none;stroke:#0000FF;stroke-width:1" />
<path d="M 100 30 h 30" stroke="#0000FF" stroke-width="1" fill="none" />
<path d="M 100 60 h 30" stroke="#0000FF" stroke-width="1" fill="none" />
<path d="M 100 90 h 30" stroke="#0000FF" stroke-width="1" fill="none" />
<path d="M 100 120 h 30" stroke="#0000FF" stroke-width="1" fill="none" />
<text x="110" y="20" style="font-size:15px;font-family:'Arial'">3</text>
<text x="110" y="50" style="font-size:15px;font-family:'Arial'">7</text>
<text x="110" y="80" style="font-size:15px;font-family:'Arial'">0</text>
<text x="110" y="110" style="font-size:15px;font-family:'Arial'">5</text>
<text x="110" y="140" style="font-size:15px;font-family:'Arial'">2</text>

<path d="M 140 0 v 170" stroke="#000000" stroke-width="1" fill="none" stroke-dasharray="3,3" marker-end="url(#arrowhead)"/>

<path d="M 32 165 L 70 15 h 18" stroke="#000000" stroke-width="1" fill="none" marker-end="url(#arrowhead)"/>
<path d="M 32 165 L 70 45 h 18" stroke="#000000" stroke-width="1" fill="none" marker-end="url(#arrowhead)"/>
<path d="M 32 165 L 70 75 h 18" stroke="#000000" stroke-width="1" fill="none" marker-end="url(#arrowhead)"/>
<path d="M 32 165 L 70 105 h 18" stroke="#000000" stroke-width="1" fill="none" marker-end="url(#arrowhead)"/>
<path d="M 32 165 L 70 135 h 18" stroke="#000000" stroke-width="1" fill="none" marker-end="url(#arrowhead)"/>
</g>

<g transform="translate(180, 80)">
<path d="M 0 10 h 20 v -10 l 20 20 l -20 20 v -10 h -20 z" stroke="#000000" stroke-width="1" fill="#F0F0F0"/>
</g>
<g transform="translate(390, 80)">
<path d="M 0 10 h 20 v -10 l 20 20 l -20 20 v -10 h -20 z" stroke="#000000" stroke-width="1" fill="#F0F0F0"/>
</g>
</svg>
