<svg version="1.1" width="600" height="411" 
xmlns="http://www.w3.org/2000/svg" 
xmlns:sodipodi="http://sodipodi.sourceforge.net/DTD/sodipodi-0.dtd"
xmlns:inkscape="http://www.inkscape.org/namespaces/inkscape"
xmlns:rdf="http://www.w3.org/1999/02/22-rdf-syntax-ns#"
xmlns:cc="http://creativecommons.org/ns#"
xmlns:dc="http://purl.org/dc/elements/1.1/"
xmlns:ns1="http://sozi.baierouge.fr"
xmlns:xlink="http://www.w3.org/1999/xlink"
>
<defs><marker id="arrowhead" markerWidth="10" markerHeight="7" refX="0" refY="3.5" orient="auto"><polygon points="0 0, 10 3.5, 0 7" /></marker></defs>
<path d="M 10 410 h 580" stroke="#FFFFFF" stroke-width="1" fill="none" />
<path d="M 20 60 H 290" stroke="#000000" stroke-width="1" fill="none" marker-end="url(#arrowhead)"  />
<text x="200" y="50" style="font-size:13px;font-family:'Microsoft Yahei'">老主库</text>
<text x="160" y="120" style="font-size:13px;font-family:'Microsoft Yahei'">老备库(新主库)</text>
<text x="80" y="168" style="font-size:13px;font-family:'Microsoft Yahei'">分叉点</text>

<text x="260" y="78" style="font-size:13px;font-family:'Microsoft Yahei'">时间线1</text>
<text x="260" y="148" style="font-size:13px;font-family:'Microsoft Yahei'">时间线2</text>

<g transform="translate(120, 5) scale(0.1 0.1)">
    <path id="path2816"
        style="fill-rule:evenodd;stroke:#000000;stroke-miterlimit:8.8;stroke-width:12.437;fill:#d40000"
        sodipodi:nodetypes="ccccccccccccccccc"
        transform="matrix(.80404 0 0 .80404 136.23 145.31)"
        d="m710.96 880.08-280.91-134.02-40.45 239.91-214.27-218.88-277.07 151.39 153.57-295.13-191.93-54.66 179.78-127.21-178.03-190.01 277.35 70.06 93.76-206.15 143.2 176.24 330.37-137.17-151.79 245.37 254.12 93.76-247.31 100.55 149.61 285.95z"/>
    <path id="path3591"
        sodipodi:nodetypes="ccccccccccccccccc"
        style="fill-rule:evenodd;stroke:#000000;stroke-miterlimit:8.8;stroke-width:6.9315;fill:#ffff00"
        d="m624.93 767.38-166.55-70.41-36.83 149.42-105.14-137.7-162.98 77.23 94.16-157.34-115.54-40.47 108.77-60.89-99.23-105.9l154.58 39.045 45.108-116.32 86.952 99.648 188.41-100.73-90.31 138.18 155.91 63.679-159.26 61.758 101.95 160.79z"
    />
    <path id="path3593"
        sodipodi:nodetypes="ccccccccccccccccc"
        style="fill-rule:evenodd;stroke:#000000;stroke-miterlimit:8.8;stroke-width:4.1588;fill:#ffffff"
        d="m543.53 695.44-105.65-39.386-22.097 89.649-63.078-82.618-97.789 46.335 56.493-94.4-82.18-31.422 78.118-29.394-59.533-63.535 92.744 23.427 27.064-69.79 52.17 59.787 107.33-76.153-55.613 80.05 102.12 43.921-96.98 49.911 66.884 93.617z"
    />
</g>
<path d="M 100 130 H 290" stroke="#000000" stroke-width="1" fill="none" marker-end="url(#arrowhead)"  />
<path d="M 100 40 v 110" stroke="#000000" stroke-width="1" fill="none" stroke-dasharray="5,3" />

<path d="M 360 60 H 440" stroke="#000000" stroke-width="1" fill="none" marker-end="url(#arrowhead)"  />
<path d="M 450 60 H 580" stroke="#000000" stroke-width="1" fill="none" marker-end="url(#arrowhead)"  />
<path d="M 450 130 H 580" stroke="#000000" stroke-width="1" fill="none" marker-end="url(#arrowhead)"  />
<path d="M 450 20 v 130" stroke="#000000" stroke-width="1" fill="none" stroke-dasharray="5,3" />

<text x="430" y="168" style="font-size:13px;font-family:'Microsoft Yahei'">分叉点</text>
<text x="460" y="50" style="font-size:13px;font-family:'Microsoft Yahei'">新备库(老主库)</text>
<text x="460" y="120" style="font-size:13px;font-family:'Microsoft Yahei'">新主库(老备库)</text>
<text x="550" y="78" style="font-size:13px;font-family:'Microsoft Yahei'">时间线1</text>
<text x="550" y="148" style="font-size:13px;font-family:'Microsoft Yahei'">时间线2</text>

<g transform="translate(180, 180)">
<path d="M 20 60 H 290" stroke="#000000" stroke-width="1" fill="none" marker-end="url(#arrowhead)" />
<text x="200" y="50" style="font-size:13px;font-family:'Microsoft Yahei'">老主库</text>
<text x="160" y="120" style="font-size:13px;font-family:'Microsoft Yahei'">老备库(新主库)</text>
<text x="80" y="168" style="font-size:13px;font-family:'Microsoft Yahei'">分叉点</text>
<g transform="translate(120, 5) scale(0.1 0.1)">
    <path id="path2816"
        style="fill-rule:evenodd;stroke:#000000;stroke-miterlimit:8.8;stroke-width:12.437;fill:#d40000"
        sodipodi:nodetypes="ccccccccccccccccc"
        transform="matrix(.80404 0 0 .80404 136.23 145.31)"
        d="m710.96 880.08-280.91-134.02-40.45 239.91-214.27-218.88-277.07 151.39 153.57-295.13-191.93-54.66 179.78-127.21-178.03-190.01 277.35 70.06 93.76-206.15 143.2 176.24 330.37-137.17-151.79 245.37 254.12 93.76-247.31 100.55 149.61 285.95z"/>
    <path id="path3591"
        sodipodi:nodetypes="ccccccccccccccccc"
        style="fill-rule:evenodd;stroke:#000000;stroke-miterlimit:8.8;stroke-width:6.9315;fill:#ffff00"
        d="m624.93 767.38-166.55-70.41-36.83 149.42-105.14-137.7-162.98 77.23 94.16-157.34-115.54-40.47 108.77-60.89-99.23-105.9l154.58 39.045 45.108-116.32 86.952 99.648 188.41-100.73-90.31 138.18 155.91 63.679-159.26 61.758 101.95 160.79z"
    />
    <path id="path3593"
        sodipodi:nodetypes="ccccccccccccccccc"
        style="fill-rule:evenodd;stroke:#000000;stroke-miterlimit:8.8;stroke-width:4.1588;fill:#ffffff"
        d="m543.53 695.44-105.65-39.386-22.097 89.649-63.078-82.618-97.789 46.335 56.493-94.4-82.18-31.422 78.118-29.394-59.533-63.535 92.744 23.427 27.064-69.79 52.17 59.787 107.33-76.153-55.613 80.05 102.12 43.921-96.98 49.911 66.884 93.617z"
    />
</g>
<text x="260" y="78" style="font-size:13px;font-family:'Microsoft Yahei'">时间线1</text>
<text x="260" y="148" style="font-size:13px;font-family:'Microsoft Yahei'">时间线2</text>

<path d="M 100 130 H 290" stroke="#000000" stroke-width="1" fill="none" marker-end="url(#arrowhead)"  />
<path d="M 100 40 v 110" stroke="#000000" stroke-width="1" fill="none" stroke-dasharray="5,3" />

<path d="M 80 18 v 30" stroke="#000000" stroke-width="1" fill="none" marker-end="url(#arrowhead)"  />
</g>
</svg>
