<svg version="1.1" width="600" height="290" xmlns="http://www.w3.org/2000/svg">
<defs><marker id="arrowhead" markerWidth="10" markerHeight="7" refX="0" refY="3.5" orient="auto"><polygon points="0 0, 10 3.5, 0 7" /></marker></defs>
<path id="bottomxline" d="M 10 289 h 580" stroke="#FFFFFF" stroke-width="1" fill="none" />

<rect x="200" y="20" width="200" height="250" style="fill:none;stroke:#0000FF;stroke-width:1" />
<rect x="200" y="120" width="200" height="100" style="fill:#DAE8FC;stroke:#0000FF;stroke-width:1" />

<path d="M 160 20 H 188" stroke="#000000" stroke-width="1" fill="none" marker-end="url(#arrowhead)"/>
<path d="M 160 120 H 188" stroke="#000000" stroke-width="1" fill="none" marker-end="url(#arrowhead)"/>

<path d="M 405 20 h 5 a 5 5 0 0 1 5 5 v 40 a 5 5 0 0 0 5 5 a 5 5 0 0 0 -5 5 v 40 a 5 5 0 0 1 -5 5 h -5" stroke="#000000" stroke-width="1" fill="none"/>

<text x="90" y="25" style="font-size:13px;font-family:'Microsoft Yahei'">内存块指针</text>
<text x="90" y="125" style="font-size:13px;font-family:'Microsoft Yahei'">内存片指针</text>
<text x="425" y="75" style="font-size:13px;font-family:'Microsoft Yahei'">偏移量</text>
</svg>
