<svg version="1.1" width="600" height="260" xmlns="http://www.w3.org/2000/svg">
<defs><marker id="arrowhead" markerWidth="10" markerHeight="7" refX="0" refY="3.5" orient="auto"><polygon points="0 0, 10 3.5, 0 7" /></marker></defs>
<path id="bottomxline" d="M 10 259 h 580" stroke="#FFFFFF" stroke-width="1" fill="none" />

<path id="bottomxline" d="M 10 130 h 580" stroke="#FFFFFF" stroke-width="1" fill="none" />

<rect x="40" y="60" width="520" height="30" style="fill:none;stroke:#0000FF;stroke-width:1" />
<path d="M 140 60 v 30" stroke="#0000FF" stroke-width="1" fill="none"/>

<path d="M 40 30 V 48" stroke="#000000" stroke-width="1" fill="none" marker-end="url(#arrowhead)"/>

<path d="M 140 30 V 48" stroke="#000000" stroke-width="1" fill="none" marker-end="url(#arrowhead)"/>


<text x="10" y="25" style="font-size:13px;font-family:'Courier New'">MemoryChunk</text>
<text x="135" y="25" style="font-size:13px;font-family:'Courier New'">p</text>
<text x="300" y="80" style="font-size:13px;font-family:'Microsoft Yahei'">调用者可用的内存</text>
<text x="47" y="80" style="font-size:13px;font-family:'Microsoft Yahei'">8个字节的开销</text>

<g transform="translate(0, 30)">
<rect x="40" y="150" width="430" height="30" style="fill:none;stroke:#0000FF;stroke-width:1" />
<path d="M 230 150 v 30" stroke="#0000FF" stroke-width="1" fill="none"/>
<path d="M 420 150 v 30" stroke="#0000FF" stroke-width="1" fill="none"/>

<path d="M 40 185 v 5 a 5 5 0 0 0 5 5 h 85 a 5 5 0 0 1 5 5 a 5 5 0 0 1 5 -5 h 85 a 5 5 0 0 0 5 -5 v -5" stroke="#000000" stroke-width="1" fill="none"/>
<path d="M 230 145 v -5 a 5 5 0 0 1 5 -5 h 85 a 5 5 0 0 0 5 -5 a 5 5 0 0 0 5 5 h 85 a 5 5 0 0 1 5 5 v 5" stroke="#000000" stroke-width="1" fill="none" />
<path d="M 420 185 v 5 a 5 5 0 0 0 5 5 h 15 a 5 5 0 0 1 5 5 a 5 5 0 0 1 5 -5 h 15 a 5 5 0 0 0 5 -5 v -5" stroke="#000000" stroke-width="1" fill="none"/>

<text x="110" y="170" style="font-size:13px;font-family:'Microsoft Yahei'">30比特</text>
<text x="300" y="170" style="font-size:13px;font-family:'Microsoft Yahei'">30比特</text>
<text x="430" y="170" style="font-size:13px;font-family:'Microsoft Yahei'">4比特</text>

<text x="47" y="215" style="font-size:13px;font-family:'Microsoft Yahei'">内存片和内存块之间的偏移量</text>
<text x="290" y="125" style="font-size:13px;font-family:'Microsoft Yahei'">内存片的大小</text>
<text x="400" y="215" style="font-size:13px;font-family:'Microsoft Yahei'">内存分配策略信息</text>
</g>

<path d="M 40 95 V 165" stroke="#000000" stroke-width="1" fill="none" stroke-dasharray="3,3" marker-end="url(#arrowhead)"/>
<path d="M 140 95 v 15 L 470 150 V 165" stroke="#000000" stroke-width="1" fill="none" stroke-dasharray="3,3" marker-end="url(#arrowhead)"/>
</svg>
