<svg version="1.1" width="600" height="150" xmlns="http://www.w3.org/2000/svg">
<defs><marker id="arrowhead" markerWidth="10" markerHeight="7" refX="0" refY="3.5" orient="auto"><polygon points="0 0, 10 3.5, 0 7" /></marker></defs>

<path id="bottomxline" d="M 10 149 h 580" stroke="#FFFFFF" stroke-width="1" fill="none" /> 

<path d="M 40 10 V 130" stroke="#000000" stroke-width="1" fill="none" marker-end="url(#arrowhead)"/>
<text x="50" y="130" style="font-size:13px;font-family:'Microsoft Yahei'">时间</text>
<text x="20" y="50" style="font-size:13px;font-family:'Arial'">T1</text>
<text x="20" y="100" style="font-size:13px;font-family:'Arial'">T2</text>
<circle cx="40" cy="45" r="3" fill="#FF0000" />
<circle cx="40" cy="95" r="3" fill="#FF0000" />

<rect x="50" y="30" width="500" height="30" style="fill:none;stroke:#000000;stroke-width:1" />
<path d="M 150 30 v 30" stroke="#000000" stroke-width="1" fill="none"/>
<path d="M 250 30 v 30" stroke="#000000" stroke-width="1" fill="none"/>
<path d="M 350 30 v 30" stroke="#000000" stroke-width="1" fill="none"/>
<path d="M 450 30 v 30" stroke="#000000" stroke-width="1" fill="none"/>

<rect x="50" y="80" width="500" height="30" style="fill:none;stroke:#000000;stroke-width:1" />
<path d="M 150 80 v 30" stroke="#000000" stroke-width="1" fill="none"/>
<path d="M 250 80 v 30" stroke="#000000" stroke-width="1" fill="none"/>
<path d="M 350 80 v 30" stroke="#000000" stroke-width="1" fill="none"/>
<path d="M 450 80 v 30" stroke="#000000" stroke-width="1" fill="none"/>

<text x="85" y="25" style="font-size:13px;font-family:'Arial'">199</text>
<text x="185" y="25" style="font-size:13px;font-family:'Arial'">200</text>
<text x="285" y="25" style="font-size:13px;font-family:'Arial'">201</text>
<text x="385" y="25" style="font-size:13px;font-family:'Arial'">202</text>
<text x="485" y="25" style="font-size:13px;font-family:'Arial'">203</text>

<text x="62" y="50" style="font-size:13px;font-family:'Arial'">COMMITTED</text>
<text x="162" y="50" style="font-size:13px;font-family:'Arial'">COMMITTED</text>
<text x="255" y="50" style="font-size:13px;font-family:'Arial'">IN_PROGRESS</text>
<text x="355" y="50" style="font-size:13px;font-family:'Arial'">IN_PROGRESS</text>
<text x="455" y="50" style="font-size:13px;font-family:'Arial'">IN_PROGRESS</text>

<text x="85" y="75" style="font-size:13px;font-family:'Arial'">199</text>
<text x="185" y="75" style="font-size:13px;font-family:'Arial'">200</text>
<text x="285" y="75" style="font-size:13px;font-family:'Arial'">201</text>
<text x="385" y="75" style="font-size:13px;font-family:'Arial'">202</text>
<text x="485" y="75" style="font-size:13px;font-family:'Arial'">203</text>

<text x="62" y="100" style="font-size:13px;font-family:'Arial'">COMMITTED</text>
<text x="162" y="100" style="font-size:13px;font-family:'Arial'">COMMITTED</text>
<text x="270" y="100" style="font-size:13px;font-family:'Arial'">ABORTED</text>
<text x="355" y="100" style="font-size:13px;font-family:'Arial'">IN_PROGRESS</text>
<text x="455" y="100" style="font-size:13px;font-family:'Arial'">IN_PROGRESS</text>
</svg>
