<svg version="1.1" width="600" height="360" xmlns="http://www.w3.org/2000/svg">
<defs><marker id="arrowhead" markerWidth="10" markerHeight="7" refX="0" refY="3.5" orient="auto"><polygon points="0 0, 10 3.5, 0 7" /></marker></defs>

<path id="bottomxline" d="M 10 359 h 580" stroke="#FFFFFF" stroke-width="1" fill="none" /> 
<text x="85" y="28" style="font-size:13px;font-family:'Microsoft Yahei'">物理备库</text>
<text x="465" y="28" style="font-size:13px;font-family:'Microsoft Yahei'">数据仓库(OLAP)</text>
<text x="380" y="190" style="font-size:13px;font-family:'Microsoft Yahei'">逻辑复制</text>
<text x="140" y="190" style="font-size:13px;font-family:'Microsoft Yahei'">物理复制</text>
<text x="235" y="130" style="font-size:13px;font-family:'Microsoft Yahei'">联机事务处理数据库(OLTP)</text>

<g transform="translate(100, 300)">
<circle cx="15" cy="10" r="10" fill="none" stroke="#000000" stroke-width="2"/>
<path d="M 0 36 a 15 15 0 0 1 30 0" stroke="#000000" stroke-width="2" fill="none" />
</g>  
<g transform="translate(160, 300)">
<circle cx="15" cy="10" r="10" fill="none" stroke="#000000" stroke-width="2"/>
<path d="M 0 36 a 15 15 0 0 1 30 0" stroke="#000000" stroke-width="2" fill="none" />
</g>  
<g transform="translate(220, 300)">
<circle cx="15" cy="10" r="10" fill="none" stroke="#000000" stroke-width="2"/>
<path d="M 0 36 a 15 15 0 0 1 30 0" stroke="#000000" stroke-width="2" fill="none" />
</g>  

<g transform="translate(280, 300)">
<circle cx="15" cy="10" r="10" fill="none" stroke="#000000" stroke-width="2"/>
<path d="M 0 36 a 15 15 0 0 1 30 0" stroke="#000000" stroke-width="2" fill="none" />
</g>  
<g transform="translate(340, 300)">
<circle cx="15" cy="10" r="10" fill="none" stroke="#000000" stroke-width="2"/>
<path d="M 0 36 a 15 15 0 0 1 30 0" stroke="#000000" stroke-width="2" fill="none" />
</g>  
<g transform="translate(400, 300)">
<circle cx="15" cy="10" r="10" fill="none" stroke="#000000" stroke-width="2"/>
<path d="M 0 36 a 15 15 0 0 1 30 0" stroke="#000000" stroke-width="2" fill="none" />
</g>  
<g transform="translate(460, 300)">
<circle cx="15" cy="10" r="10" fill="none" stroke="#000000" stroke-width="2"/>
<path d="M 0 36 a 15 15 0 0 1 30 0" stroke="#000000" stroke-width="2" fill="none" />
</g>  


<g transform="translate(200, 100)">
<g transform="translate(100, 20)">
<path d="M 9 20 h 40 a 5 5 0 0 1 5 5 v 90 a 5 5 0 0 1 -5 5 h -40 a 5 5 0 0 1 -5 -5 v -90 a 5 5 0 0 1 5 -5" stroke="#000000" stroke-width="6" fill="none" />
<path d="M 13 32 h 34" stroke="#000000" stroke-width="5" fill="none" />
<path d="M 13 40 h 34" stroke="#000000" stroke-width="5" fill="none" />
<path d="M 13 48 h 34" stroke="#000000" stroke-width="5" fill="none" />
<path d="M 13 56 h 34" stroke="#000000" stroke-width="5" fill="none" />
<circle cx="30" cy="75" r="8" fill="#000000" />
<circle cx="30" cy="75" r="2" fill="#FFFFFF" />
<circle cx="30" cy="97" r="3" fill="#000000" />
<rect x="15" y="105" width="30" height="5" style="fill:none;stroke:#000000;stroke-width:2" />
<path d="M 25 105 v 5" stroke="#000000" stroke-width="2" fill="none" />
<path d="M 35 105 v 5" stroke="#000000" stroke-width="2" fill="none" />
</g>
<g transform="translate(30, 60)">
<ellipse cx="31" cy="10" rx="30" ry="10" style="fill:rgb(115,131,191);stroke:rgb(115,131,191);stroke-width:1" />
<path d="M 1 15 a 30 10 0 0 0 60 0 v 15 a 30 10 0 0 1 -60 0 v -15" stroke="rgb(115,131,191)" stroke-width="1" fill="rgb(115,131,191)"/>
<path d="M 1 35 a 30 10 0 0 0 60 0 v 15 a 30 10 0 0 1 -60 0 v -15" stroke="rgb(115,131,191)" stroke-width="1" fill="rgb(115,131,191)"/>
<path d="M 1 55 a 30 10 0 0 0 60 0 v 15 a 30 10 0 0 1 -60 0 v -15" stroke="rgb(115,131,191)" stroke-width="1" fill="rgb(115,131,191)"/>
<circle cx="50" cy="29" r="3" fill="#FFFFFF" />
<circle cx="50" cy="49" r="3" fill="#FFFFFF" />
<circle cx="50" cy="69" r="3" fill="#FFFFFF" />
</g>
</g>

<g transform="translate(400, 0)">
<g transform="translate(100, 20)">
<path d="M 9 20 h 40 a 5 5 0 0 1 5 5 v 90 a 5 5 0 0 1 -5 5 h -40 a 5 5 0 0 1 -5 -5 v -90 a 5 5 0 0 1 5 -5" stroke="#000000" stroke-width="6" fill="none" />
<path d="M 13 32 h 34" stroke="#000000" stroke-width="5" fill="none" />
<path d="M 13 40 h 34" stroke="#000000" stroke-width="5" fill="none" />
<path d="M 13 48 h 34" stroke="#000000" stroke-width="5" fill="none" />
<path d="M 13 56 h 34" stroke="#000000" stroke-width="5" fill="none" />
<circle cx="30" cy="75" r="8" fill="#000000" />
<circle cx="30" cy="75" r="2" fill="#FFFFFF" />
<circle cx="30" cy="97" r="3" fill="#000000" />
<rect x="15" y="105" width="30" height="5" style="fill:none;stroke:#000000;stroke-width:2" />
<path d="M 25 105 v 5" stroke="#000000" stroke-width="2" fill="none" />
<path d="M 35 105 v 5" stroke="#000000" stroke-width="2" fill="none" />
</g>
<g transform="translate(30, 60)">
<ellipse cx="31" cy="10" rx="30" ry="10" style="fill:rgb(115,131,191);stroke:rgb(115,131,191);stroke-width:1" />
<path d="M 1 15 a 30 10 0 0 0 60 0 v 15 a 30 10 0 0 1 -60 0 v -15" stroke="rgb(115,131,191)" stroke-width="1" fill="rgb(115,131,191)"/>
<path d="M 1 35 a 30 10 0 0 0 60 0 v 15 a 30 10 0 0 1 -60 0 v -15" stroke="rgb(115,131,191)" stroke-width="1" fill="rgb(115,131,191)"/>
<path d="M 1 55 a 30 10 0 0 0 60 0 v 15 a 30 10 0 0 1 -60 0 v -15" stroke="rgb(115,131,191)" stroke-width="1" fill="rgb(115,131,191)"/>
<circle cx="50" cy="29" r="3" fill="#FFFFFF" />
<circle cx="50" cy="49" r="3" fill="#FFFFFF" />
<circle cx="50" cy="69" r="3" fill="#FFFFFF" />
</g>
</g>

<g transform="translate(20, 0)">
<g transform="translate(100, 20)">
<path d="M 9 20 h 40 a 5 5 0 0 1 5 5 v 90 a 5 5 0 0 1 -5 5 h -40 a 5 5 0 0 1 -5 -5 v -90 a 5 5 0 0 1 5 -5" stroke="#000000" stroke-width="6" fill="none" />
<path d="M 13 32 h 34" stroke="#000000" stroke-width="5" fill="none" />
<path d="M 13 40 h 34" stroke="#000000" stroke-width="5" fill="none" />
<path d="M 13 48 h 34" stroke="#000000" stroke-width="5" fill="none" />
<path d="M 13 56 h 34" stroke="#000000" stroke-width="5" fill="none" />
<circle cx="30" cy="75" r="8" fill="#000000" />
<circle cx="30" cy="75" r="2" fill="#FFFFFF" />
<circle cx="30" cy="97" r="3" fill="#000000" />
<rect x="15" y="105" width="30" height="5" style="fill:none;stroke:#000000;stroke-width:2" />
<path d="M 25 105 v 5" stroke="#000000" stroke-width="2" fill="none" />
<path d="M 35 105 v 5" stroke="#000000" stroke-width="2" fill="none" />
</g>
<g transform="translate(30, 60)">
<ellipse cx="31" cy="10" rx="30" ry="10" style="fill:rgb(115,131,191);stroke:rgb(115,131,191);stroke-width:1" />
<path d="M 1 15 a 30 10 0 0 0 60 0 v 15 a 30 10 0 0 1 -60 0 v -15" stroke="rgb(115,131,191)" stroke-width="1" fill="rgb(115,131,191)"/>
<path d="M 1 35 a 30 10 0 0 0 60 0 v 15 a 30 10 0 0 1 -60 0 v -15" stroke="rgb(115,131,191)" stroke-width="1" fill="rgb(115,131,191)"/>
<path d="M 1 55 a 30 10 0 0 0 60 0 v 15 a 30 10 0 0 1 -60 0 v -15" stroke="rgb(115,131,191)" stroke-width="1" fill="rgb(115,131,191)"/>
<circle cx="50" cy="29" r="3" fill="#FFFFFF" />
<circle cx="50" cy="49" r="3" fill="#FFFFFF" />
<circle cx="50" cy="69" r="3" fill="#FFFFFF" />
</g>
</g>

<path d="M 360 200 H 460 V 155" stroke="#000000" stroke-width="1" fill="none" marker-end="url(#arrowhead)"  />
<path d="M 225 200 H 80 V 155" stroke="#000000" stroke-width="1" fill="none" marker-end="url(#arrowhead)"  />

<path d="M 295 295 V 255" stroke="#000000" stroke-width="1" fill="none" marker-end="url(#arrowhead)"  />
</svg>
