<svg version="1.1" width="600" height="270" xmlns="http://www.w3.org/2000/svg">
<defs><marker id="arrowhead" markerWidth="10" markerHeight="7" refX="0" refY="3.5" orient="auto"><polygon points="0 0, 10 3.5, 0 7" /></marker></defs>

<path id="bottomxline" d="M 10 269 h 580" stroke="#FFFFFF" stroke-width="1" fill="none" /> 

<path d="M 300 10 l 100 100 h -200 l 100 -100" stroke="#0000FF" stroke-width="1" fill="none" />
<path d="M 200 110 v 10 h 200 v-10" stroke="#0000FF" stroke-width="1" fill="none" />
<path d="M 210 110 v 10" stroke="#0000FF" stroke-width="1" fill="none" />
<path d="M 220 110 v 10" stroke="#0000FF" stroke-width="1" fill="none" />
<path d="M 230 110 v 10" stroke="#0000FF" stroke-width="1" fill="none" />
<path d="M 240 110 v 10" stroke="#0000FF" stroke-width="1" fill="none" />
<path d="M 250 110 v 10" stroke="#0000FF" stroke-width="1" fill="none" />
<path d="M 260 110 v 10" stroke="#0000FF" stroke-width="1" fill="none" />
<path d="M 270 110 v 10" stroke="#0000FF" stroke-width="1" fill="none" />
<path d="M 280 110 v 10" stroke="#0000FF" stroke-width="1" fill="none" />
<path d="M 290 110 v 10" stroke="#0000FF" stroke-width="1" fill="none" />
<text x="310" y="116" style="font-size:19px;font-family:'Arial'">......</text>
<path d="M 390 110 v 10" stroke="#0000FF" stroke-width="1" fill="none" />
<path d="M 380 110 v 10" stroke="#0000FF" stroke-width="1" fill="none" />
<path d="M 370 110 v 10" stroke="#0000FF" stroke-width="1" fill="none" />
<path d="M 360 110 v 10" stroke="#0000FF" stroke-width="1" fill="none" />

<rect x="10" y="180" width="580" height="62" style="fill:none;stroke:#0000FF;stroke-width:1" />
<path d="M 110 180 v 62" stroke="#0000FF" stroke-width="1" fill="none" />
<path d="M 210 180 v 62" stroke="#0000FF" stroke-width="1" fill="none" />
<path d="M 310 180 v 62" stroke="#0000FF" stroke-width="1" fill="none" />
<path d="M 490 180 v 62" stroke="#0000FF" stroke-width="1" fill="none" />

<path d="M 205 120 v 20 h -120 V 168" stroke="#000000" stroke-width="1" fill="none" stroke-dasharray="3,3" marker-end="url(#arrowhead)"/>
<path d="M 285 120 v 30 h -260 V 168" stroke="#000000" stroke-width="1" fill="none" stroke-dasharray="3,3" marker-end="url(#arrowhead)"/>
<path d="M 375 120 v 20 h 160 V 168" stroke="#000000" stroke-width="1" fill="none" stroke-dasharray="3,3" marker-end="url(#arrowhead)"/>
<path d="M 395 120 v 30 h -100 V 168" stroke="#000000" stroke-width="1" fill="none" stroke-dasharray="3,3" marker-end="url(#arrowhead)"/>

<text x="290" y="80" style="font-size:13px;font-family:'Microsoft Yahei'">索引</text>
<text x="256" y="258" style="font-size:13px;font-family:'Microsoft Yahei'">堆表</text>
</svg>
