<svg version="1.1" width="600" height="225" xmlns="http://www.w3.org/2000/svg">
<defs><marker id="arrowhead" markerWidth="10" markerHeight="7" refX="0" refY="3.5" orient="auto"><polygon points="0 0, 10 3.5, 0 7" /></marker></defs>

<path id="bottomxline" d="M 10 224 h 580" stroke="#FFFFFF" stroke-width="1" fill="none" /> 

<g transform="translate(0, -10)">
<text x="225" y="30" style="font-size:13px;font-family:'Courier New'">maintenance_work_mem</text>
<rect x="150" y="60" width="300" height="20" style="fill:none;stroke:#0000FF;stroke-width:1" />
<path d="M 170 60 v 20" stroke="#0000FF" stroke-width="1" fill="none"/>
<path d="M 190 60 v 20" stroke="#0000FF" stroke-width="1" fill="none"/>
<path d="M 210 60 v 20" stroke="#0000FF" stroke-width="1" fill="none"/>
<path d="M 230 60 v 20" stroke="#0000FF" stroke-width="1" fill="none"/>
<path d="M 250 60 v 20" stroke="#0000FF" stroke-width="1" fill="none"/>
<path d="M 270 60 v 20" stroke="#0000FF" stroke-width="1" fill="none"/>
<path d="M 290 60 v 20" stroke="#0000FF" stroke-width="1" fill="none"/>
<path d="M 310 60 v 20" stroke="#0000FF" stroke-width="1" fill="none"/>
<path d="M 330 60 v 20" stroke="#0000FF" stroke-width="1" fill="none"/>
<path d="M 350 60 v 20" stroke="#0000FF" stroke-width="1" fill="none"/>
<path d="M 370 60 v 20" stroke="#0000FF" stroke-width="1" fill="none"/>
<path d="M 390 60 v 20" stroke="#0000FF" stroke-width="1" fill="none"/>
<path d="M 410 60 v 20" stroke="#0000FF" stroke-width="1" fill="none"/>
<path d="M 430 60 v 20" stroke="#0000FF" stroke-width="1" fill="none"/>

<g transform="translate(0, 30)">
<rect x="50" y="120" width="500" height="62" style="fill:none;stroke:#0000FF;stroke-width:1" />
<path d="M 150 120 v 62" stroke="#0000FF" stroke-width="1" fill="none"/>
<path d="M 250 120 v 62" stroke="#0000FF" stroke-width="1" fill="none"/>
<path d="M 350 120 v 62" stroke="#0000FF" stroke-width="1" fill="none"/>
<path d="M 450 120 v 62" stroke="#0000FF" stroke-width="1" fill="none"/>

<path d="M 50 130 h 80 v -10" stroke="#0000FF" stroke-width="1" fill="none"/>
<path d="M 150 130 h 80 v -10" stroke="#0000FF" stroke-width="1" fill="none"/>
<path d="M 250 130 h 80 v -10" stroke="#0000FF" stroke-width="1" fill="none"/>
<path d="M 350 130 h 80 v -10" stroke="#0000FF" stroke-width="1" fill="none"/>
<path d="M 450 130 h 80 v -10" stroke="#0000FF" stroke-width="1" fill="none"/>

<g transform="translate(0, 0)">
<path d="M 80 120 v 10" stroke="#0000FF" stroke-width="1" fill="none"/>
<rect x="90" y="120" width="10" height="10" style="fill:#777777;stroke:#0000FF;stroke-width:1" />
<path d="M 110 120 v 10" stroke="#0000FF" stroke-width="1" fill="none"/>
<path d="M 120 120 v 10" stroke="#0000FF" stroke-width="1" fill="none"/>
</g>

<g transform="translate(100, 0)">
<path d="M 80 120 v 10" stroke="#0000FF" stroke-width="1" fill="none"/>
<path d="M 90 120 v 10" stroke="#0000FF" stroke-width="1" fill="none"/>
<path d="M 100 120 v 10" stroke="#0000FF" stroke-width="1" fill="none"/>
<rect x="90" y="120" width="10" height="10" style="fill:#777777;stroke:#0000FF;stroke-width:1" />
<rect x="110" y="120" width="10" height="10" style="fill:#777777;stroke:#0000FF;stroke-width:1" />
</g>

<g transform="translate(200, 0)">
<path d="M 80 120 v 10" stroke="#0000FF" stroke-width="1" fill="none"/>
<path d="M 90 120 v 10" stroke="#0000FF" stroke-width="1" fill="none"/>
<path d="M 100 120 v 10" stroke="#0000FF" stroke-width="1" fill="none"/>
<path d="M 110 120 v 10" stroke="#0000FF" stroke-width="1" fill="none"/>
<path d="M 120 120 v 10" stroke="#0000FF" stroke-width="1" fill="none"/>
</g>

<g transform="translate(300, 0)">
<path d="M 80 120 v 10" stroke="#0000FF" stroke-width="1" fill="none"/>
<path d="M 90 120 v 10" stroke="#0000FF" stroke-width="1" fill="none"/>
<rect x="100" y="120" width="10" height="10" style="fill:#777777;stroke:#0000FF;stroke-width:1" />
<path d="M 120 120 v 10" stroke="#0000FF" stroke-width="1" fill="none"/>
</g>

<g transform="translate(400, 0)">
<path d="M 80 120 v 10" stroke="#0000FF" stroke-width="1" fill="none"/>
<path d="M 90 120 v 10" stroke="#0000FF" stroke-width="1" fill="none"/>
<path d="M 100 120 v 10" stroke="#0000FF" stroke-width="1" fill="none"/>
<path d="M 110 120 v 10" stroke="#0000FF" stroke-width="1" fill="none"/>
<path d="M 120 120 v 10" stroke="#0000FF" stroke-width="1" fill="none"/>
</g>
</g>

<path d="M 95 145 v -15 H 160 V 92" stroke="#000000" stroke-width="1" fill="none" stroke-dasharray="3,3" marker-end="url(#arrowhead)"/>
<path d="M 195 145 v -20 H 180 V 92" stroke="#000000" stroke-width="1" fill="none" stroke-dasharray="3,3" marker-end="url(#arrowhead)"/>

<path d="M 215 145 v -30 H 200 V 92" stroke="#000000" stroke-width="1" fill="none" stroke-dasharray="3,3" marker-end="url(#arrowhead)"/>
<path d="M 405 145 v -40 H 220 V 92" stroke="#000000" stroke-width="1" fill="none" stroke-dasharray="3,3" marker-end="url(#arrowhead)"/>

<path d="M 150 55 v -5 a 5 5 0 0 1 5 -5 h 140 a 5 5 0 0 0 5 -5 a 5 5 0 0 0 5 5 h 140 a 5 5 0 0 1 5 5 v 5" stroke="#000000" stroke-width="1" fill="none" />

<text x="460" y="75" style="font-size:13px;font-family:'Microsoft Yahei'">死亡记录的数组</text>
<text x="80" y="190" style="font-size:13px;font-family:'Microsoft Yahei'">数据块n</text>
<text x="170" y="190" style="font-size:13px;font-family:'Microsoft Yahei'">数据块n+1</text>
<text x="270" y="190" style="font-size:13px;font-family:'Microsoft Yahei'">数据块n+2</text>
<text x="370" y="190" style="font-size:13px;font-family:'Microsoft Yahei'">数据块n+3</text>
<text x="470" y="190" style="font-size:13px;font-family:'Microsoft Yahei'">数据块n+4</text>
</g>
</svg>
