<svg version="1.1" width="600" height="150" xmlns="http://www.w3.org/2000/svg">
<defs><marker id="arrowhead" markerWidth="10" markerHeight="7" refX="0" refY="3.5" orient="auto"><polygon points="0 0, 10 3.5, 0 7" /></marker></defs>
<path id="bottomxline" d="M 10 209 h 580" stroke="#FFFFFF" stroke-width="1" fill="none" /> 

<path id="bottomxline" d="M 10 149 h 580" stroke="#FFFFFF" stroke-width="1" fill="none" /> 

<text x="30" y="20" style="font-size:13px;font-family:'Microsoft Yahei'">测试机器</text>
<text x="390" y="20" style="font-size:13px;font-family:'Microsoft Yahei'">被测试的数据库服务器</text>
<g transform="translate(20, 0)">
<g transform="translate(10, 10)">
<path d="M 9 20 h 40 a 5 5 0 0 1 5 5 v 90 a 5 5 0 0 1 -5 5 h -40 a 5 5 0 0 1 -5 -5 v -90 a 5 5 0 0 1 5 -5" stroke="#000000" stroke-width="6" fill="none" />
<path d="M 13 32 h 34" stroke="#000000" stroke-width="5" fill="none" />
<path d="M 13 40 h 34" stroke="#000000" stroke-width="5" fill="none" />
<path d="M 13 48 h 34" stroke="#000000" stroke-width="5" fill="none" />
<path d="M 13 56 h 34" stroke="#000000" stroke-width="5" fill="none" />
<circle cx="30" cy="75" r="8" fill="#000000" />
<circle cx="30" cy="75" r="2" fill="#FFFFFF" />
<circle cx="30" cy="97" r="3" fill="#000000" />
<rect x="15" y="105" width="30" height="5" style="fill:none;stroke:#000000;stroke-width:2" />
<path d="M 25 105 v 5" stroke="#000000" stroke-width="2" fill="none" />
<path d="M 35 105 v 5" stroke="#000000" stroke-width="2" fill="none" />
</g>
</g>

<g transform="translate(420, 0)">
<g transform="translate(10, 10)">
<path d="M 9 20 h 40 a 5 5 0 0 1 5 5 v 90 a 5 5 0 0 1 -5 5 h -40 a 5 5 0 0 1 -5 -5 v -90 a 5 5 0 0 1 5 -5" stroke="#000000" stroke-width="6" fill="none" />
<path d="M 13 32 h 34" stroke="#000000" stroke-width="5" fill="none" />
<path d="M 13 40 h 34" stroke="#000000" stroke-width="5" fill="none" />
<path d="M 13 48 h 34" stroke="#000000" stroke-width="5" fill="none" />
<path d="M 13 56 h 34" stroke="#000000" stroke-width="5" fill="none" />
<circle cx="30" cy="75" r="8" fill="#000000" />
<circle cx="30" cy="75" r="2" fill="#FFFFFF" />
<circle cx="30" cy="97" r="3" fill="#000000" />
<rect x="15" y="105" width="30" height="5" style="fill:none;stroke:#000000;stroke-width:2" />
<path d="M 25 105 v 5" stroke="#000000" stroke-width="2" fill="none" />
<path d="M 35 105 v 5" stroke="#000000" stroke-width="2" fill="none" />
</g>
<g transform="translate(70, 50)">
<ellipse cx="31" cy="10" rx="30" ry="10" style="fill:rgb(115,131,191);stroke:rgb(115,131,191);stroke-width:1" />
<path d="M 1 15 a 30 10 0 0 0 60 0 v 15 a 30 10 0 0 1 -60 0 v -15" stroke="rgb(115,131,191)" stroke-width="1" fill="rgb(115,131,191)"/>
<path d="M 1 35 a 30 10 0 0 0 60 0 v 15 a 30 10 0 0 1 -60 0 v -15" stroke="rgb(115,131,191)" stroke-width="1" fill="rgb(115,131,191)"/>
<path d="M 1 55 a 30 10 0 0 0 60 0 v 15 a 30 10 0 0 1 -60 0 v -15" stroke="rgb(115,131,191)" stroke-width="1" fill="rgb(115,131,191)"/>
<circle cx="50" cy="29" r="3" fill="#FFFFFF" />
<circle cx="50" cy="49" r="3" fill="#FFFFFF" />
<circle cx="50" cy="69" r="3" fill="#FFFFFF" />
</g>
</g>

<path d="M 90 60 H 420" stroke="#000000" stroke-width="1" fill="none" marker-end="url(#arrowhead)" />
<path d="M 90 70 H 420" stroke="#000000" stroke-width="1" fill="none" marker-end="url(#arrowhead)" />
<path d="M 90 80 H 420" stroke="#000000" stroke-width="1" fill="none" marker-end="url(#arrowhead)" />
<path d="M 90 90 H 420" stroke="#000000" stroke-width="1" fill="none" marker-end="url(#arrowhead)" />
<path d="M 90 100 H 420" stroke="#000000" stroke-width="1" fill="none" marker-end="url(#arrowhead)" />

</svg>
