<svg version="1.1" width="600" height="330" xmlns="http://www.w3.org/2000/svg">
<defs><marker id="arrowhead" markerWidth="10" markerHeight="7" refX="0" refY="3.5" orient="auto"><polygon points="0 0, 10 3.5, 0 7" /></marker></defs>

<path id="bottomxline" d="M 10 329 h 580" stroke="#FFFFFF" stroke-width="1" fill="none" /> 

<rect x="275" y="10" width="50" height="31" style="fill:none;stroke:#0000FF;stroke-width:1" />
<rect x="225" y="80" width="50" height="31" style="fill:none;stroke:#0000FF;stroke-width:1" />
<rect x="325" y="80" width="50" height="31" style="fill:none;stroke:#0000FF;stroke-width:1" />

<path d="M 300 43 L 250 60 V 68" stroke="#000000" stroke-width="1" fill="none" marker-end="url(#arrowhead)"/>
<path d="M 300 43 L 350 60 V 68" stroke="#000000" stroke-width="1" fill="none" marker-end="url(#arrowhead)"/>

<rect x="25" y="170" width="100" height="62" style="fill:none;stroke:#0000FF;stroke-width:1" />
<rect x="175" y="170" width="100" height="62" style="fill:none;stroke:#0000FF;stroke-width:1" />
<rect x="325" y="170" width="100" height="62" style="fill:none;stroke:#0000FF;stroke-width:1" />
<rect x="475" y="170" width="100" height="62" style="fill:none;stroke:#0000FF;stroke-width:1" />

<path d="M 250 113 v 10 L 70 150 V 158" stroke="#000000" stroke-width="1" fill="none" marker-end="url(#arrowhead)"/>
<path d="M 250 123 L 225 150 V 158" stroke="#000000" stroke-width="1" fill="none" marker-end="url(#arrowhead)"/>

<path d="M 350 113 v 10 L 375 150 V 158" stroke="#000000" stroke-width="1" fill="none" marker-end="url(#arrowhead)"/>
<path d="M 350 123 L 525 150 V 158" stroke="#000000" stroke-width="1" fill="none" marker-end="url(#arrowhead)"/>

<g transform="translate(0, 0)">
<path d="M 35 170 v 62" stroke="#0000FF" stroke-width="1" fill="none"/>
<path d="M 45 170 v 62" stroke="#0000FF" stroke-width="1" fill="none"/>
<path d="M 55 170 v 62" stroke="#0000FF" stroke-width="1" fill="none"/>
<path d="M 65 170 v 62" stroke="#0000FF" stroke-width="1" fill="none"/>
<path d="M 75 170 v 62" stroke="#0000FF" stroke-width="1" fill="none"/>
<path d="M 85 170 v 62" stroke="#0000FF" stroke-width="1" fill="none"/>
<path d="M 95 170 v 62" stroke="#0000FF" stroke-width="1" fill="none"/>
<path d="M 105 170 v 62" stroke="#0000FF" stroke-width="1" fill="none"/>
<path d="M 115 170 v 62" stroke="#0000FF" stroke-width="1" fill="none"/>
</g>

<g transform="translate(150, 0)">
<path d="M 35 170 v 62" stroke="#0000FF" stroke-width="1" fill="none"/>
<path d="M 45 170 v 62" stroke="#0000FF" stroke-width="1" fill="none"/>
<path d="M 55 170 v 62" stroke="#0000FF" stroke-width="1" fill="none"/>
<path d="M 65 170 v 62" stroke="#0000FF" stroke-width="1" fill="none"/>
<path d="M 75 170 v 62" stroke="#0000FF" stroke-width="1" fill="none"/>
<path d="M 85 170 v 62" stroke="#0000FF" stroke-width="1" fill="none"/>
<path d="M 95 170 v 62" stroke="#0000FF" stroke-width="1" fill="none"/>
<path d="M 105 170 v 62" stroke="#0000FF" stroke-width="1" fill="none"/>
<path d="M 115 170 v 62" stroke="#0000FF" stroke-width="1" fill="none"/>
</g>

<g transform="translate(300, 0)">
<path d="M 35 170 v 62" stroke="#0000FF" stroke-width="1" fill="none"/>
<path d="M 45 170 v 62" stroke="#0000FF" stroke-width="1" fill="none"/>
<path d="M 55 170 v 62" stroke="#0000FF" stroke-width="1" fill="none"/>
<path d="M 65 170 v 62" stroke="#0000FF" stroke-width="1" fill="none"/>
<path d="M 75 170 v 62" stroke="#0000FF" stroke-width="1" fill="none"/>
<path d="M 85 170 v 62" stroke="#0000FF" stroke-width="1" fill="none"/>
<path d="M 95 170 v 62" stroke="#0000FF" stroke-width="1" fill="none"/>
<path d="M 105 170 v 62" stroke="#0000FF" stroke-width="1" fill="none"/>
<path d="M 115 170 v 62" stroke="#0000FF" stroke-width="1" fill="none"/>
</g>

<g transform="translate(450, 0)">
<path d="M 35 170 v 62" stroke="#0000FF" stroke-width="1" fill="none"/>
<path d="M 45 170 v 62" stroke="#0000FF" stroke-width="1" fill="none"/>
<path d="M 55 170 v 62" stroke="#0000FF" stroke-width="1" fill="none"/>
<path d="M 65 170 v 62" stroke="#0000FF" stroke-width="1" fill="none"/>
<path d="M 75 170 v 62" stroke="#0000FF" stroke-width="1" fill="none"/>
<path d="M 85 170 v 62" stroke="#0000FF" stroke-width="1" fill="none"/>
<path d="M 95 170 v 62" stroke="#0000FF" stroke-width="1" fill="none"/>
<path d="M 105 170 v 62" stroke="#0000FF" stroke-width="1" fill="none"/>
<path d="M 115 170 v 62" stroke="#0000FF" stroke-width="1" fill="none"/>
</g>


<rect x="25" y="280" width="550" height="30" style="fill:none;stroke:#0000FF;stroke-width:1" />
<path d="M 60 278 V 245" stroke="#000000" stroke-width="1" fill="none" stroke-dasharray="3,3" marker-end="url(#arrowhead)"/>
<path d="M 210 278 V 245" stroke="#000000" stroke-width="1" fill="none" stroke-dasharray="3,3" marker-end="url(#arrowhead)"/>
</svg>
