<svg version="1.1" width="600" height="110" xmlns="http://www.w3.org/2000/svg">
<defs><marker id="arrowhead" markerWidth="10" markerHeight="7" refX="0" refY="3.5" orient="auto"><polygon points="0 0, 10 3.5, 0 7" /></marker></defs>

<path id="bottomxline" d="M 10 109 h 580" stroke="#FFFFFF" stroke-width="1" fill="none" /> 

<rect x="50" y="60" width="500" height="30" style="fill:none;stroke:#0000FF;stroke-width:1" />
<path d="M 100 60 v 30" stroke="#0000FF" stroke-width="1" fill="none"/>
<path d="M 150 60 v 30" stroke="#0000FF" stroke-width="1" fill="none"/>
<path d="M 200 60 v 30" stroke="#0000FF" stroke-width="1" fill="none"/>
<path d="M 250 60 v 30" stroke="#0000FF" stroke-width="1" fill="none"/>
<path d="M 300 60 v 30" stroke="#0000FF" stroke-width="1" fill="none"/>
<path d="M 350 60 v 30" stroke="#0000FF" stroke-width="1" fill="none"/>
<path d="M 500 60 v 30" stroke="#0000FF" stroke-width="1" fill="none"/>

<path d="M 225 30 V 48" stroke="#000000" stroke-width="1" fill="none" marker-end="url(#arrowhead)"/>
<path d="M 525 30 V 48" stroke="#000000" stroke-width="1" fill="none" marker-end="url(#arrowhead)"/>

<text x="54" y="80" style="font-size:13px;font-family:'Arial'">(25,10)</text>
<text x="104" y="80" style="font-size:13px;font-family:'Arial'">(25,13)</text>
<text x="154" y="80" style="font-size:13px;font-family:'Arial'">(36,32)</text>
<text x="204" y="80" style="font-size:13px;font-family:'Arial'">(48,24)</text>

<text x="404" y="78" style="font-size:36px;font-family:'Arial'">......</text>

<text x="190" y="23" style="font-size:13px;font-family:'Courier New'">num_items</text>
<text x="490" y="23" style="font-size:13px;font-family:'Courier New'">max_items</text>

<text x="5" y="23" style="font-size:13px;font-family:'Courier New'">items</text>

<path d="M 25 30 V 75 H 38" stroke="#000000" stroke-width="1" fill="none" marker-end="url(#arrowhead)"/>
</svg>
