<svg version="1.1" width="600" height="170" xmlns="http://www.w3.org/2000/svg">
<defs><marker id="arrowhead" markerWidth="10" markerHeight="7" refX="0" refY="3.5" orient="auto"><polygon points="0 0, 10 3.5, 0 7" /></marker></defs>

<path id="bottomxline" d="M 10 169 h 580" stroke="#FFFFFF" stroke-width="1" fill="none" /> 

<text x="545" y="95" style="font-size:15px;font-family:'Arial'">WAL</text>
<circle cx="60" cy="100" r="3"/>

<path d="M 10 100 H 580" stroke="#000000" stroke-width="1" fill="none" marker-end="url(#arrowhead)"/>
<rect x="68" y="90" width="72" height="20" style="fill:#FFFFFF;stroke:#0000FF;stroke-width:1" />
<rect x="144" y="90" width="50" height="20" style="fill:#FFFFFF;stroke:#0000FF;stroke-width:1" />
<rect x="198" y="90" width="40" height="20" style="fill:#CCCCCC;stroke:#0000FF;stroke-width:1" />
<rect x="242" y="90" width="53" height="20" style="fill:#FFFFFF;stroke:#0000FF;stroke-width:1" />
<rect x="299" y="90" width="38" height="20" style="fill:#FFFFFF;stroke:#0000FF;stroke-width:1" />
<rect x="341" y="90" width="23" height="20" style="fill:#FFFFFF;stroke:#0000FF;stroke-width:1" />
<rect x="368" y="90" width="82" height="20" style="fill:#FFFFFF;stroke:#0000FF;stroke-width:1" />
<rect x="454" y="90" width="60" height="20" style="fill:#CCCCCC;stroke:#0000FF;stroke-width:1" />

<path d="M 225 35 V 78" stroke="#000000" stroke-width="1" fill="none" marker-end="url(#arrowhead)"/>
<path d="M 484 35 V 78" stroke="#000000" stroke-width="1" fill="none" marker-end="url(#arrowhead)"/>
<path d="M 484 113 v 20 H 60 V 115" stroke="#000000" stroke-width="1" fill="none" marker-end="url(#arrowhead)"/>

<path d="M 210 87 v -15 a 30 30 0 0 0 -30 -30 h -90 a 30 30 1 0 0 -30 30 v 10" stroke="#000000" stroke-width="1" fill="none" marker-end="url(#arrowhead)"/>

<text x="180" y="25" style="font-size:13px;font-family:'Microsoft Yahei'">检查点WAL记录</text>
<text x="15" y="90" style="font-size:13px;font-family:'Microsoft Yahei'">重做点</text>
<text x="400" y="25" style="font-size:13px;font-family:'Microsoft Yahei'">BACKUP_END类型的WAL记录</text>
</svg>
