<svg version="1.1" width="600" height="250" xmlns="http://www.w3.org/2000/svg">
<defs><marker id="arrowhead" markerWidth="10" markerHeight="7" refX="0" refY="3.5" orient="auto"><polygon points="0 0, 10 3.5, 0 7" /></marker></defs>


<rect x="150" y="60" width="300" height="20" style="fill:none;stroke:#0000FF;stroke-width:1" />
<path d="M 200 60 v 20" stroke="#0000FF" stroke-width="1" fill="none" />
<path d="M 250 60 v 20" stroke="#0000FF" stroke-width="1" fill="none" />
<path d="M 300 60 v 20" stroke="#0000FF" stroke-width="1" fill="none" />
<path d="M 350 60 v 20" stroke="#0000FF" stroke-width="1" fill="none" />

<text x="172" y="75" style="font-size:13px;font-family:'Arial'">4</text>
<text x="222" y="75" style="font-size:13px;font-family:'Arial'">4</text>
<text x="272" y="75" style="font-size:13px;font-family:'Arial'">4</text>
<text x="322" y="75" style="font-size:13px;font-family:'Arial'">4</text>

<path d="M 175 35 V 48" stroke="#000000" stroke-width="1" fill="none" marker-end="url(#arrowhead)" />
<path d="M 225 20 V 48" stroke="#000000" stroke-width="1" fill="none" marker-end="url(#arrowhead)" />
<path d="M 275 35 V 48" stroke="#000000" stroke-width="1" fill="none" marker-end="url(#arrowhead)" />
<path d="M 325 25 V 48" stroke="#000000" stroke-width="1" fill="none" marker-end="url(#arrowhead)" />
<path d="M 400 35 V 48" stroke="#000000" stroke-width="1" fill="none" marker-end="url(#arrowhead)" />

<text x="155" y="30" style="font-size:13px;font-family:'Courier New'">magic</text>
<text x="190" y="15" style="font-size:13px;font-family:'Courier New'">checksum</text>
<text x="245" y="30" style="font-size:13px;font-family:'Courier New'">version</text>
<text x="305" y="15" style="font-size:13px;font-family:'Courier New'">length</text>
<text x="365" y="30" style="font-size:13px;font-family:'Courier New'">slotdata</text>


<rect x="50" y="170" width="500" height="20" style="fill:none;stroke:#0000FF;stroke-width:1" />

<path d="M 350 82 v 15 L 50 140 V 158" stroke="#000000" stroke-width="1" fill="none" stroke-dasharray="3,3" marker-end="url(#arrowhead)"/>
<path d="M 450 82 v 15 L 550 140 V 158" stroke="#000000" stroke-width="1" fill="none" stroke-dasharray="3,3" marker-end="url(#arrowhead)"/>

</svg>
