<svg version="1.1" width="600" height="145" xmlns="http://www.w3.org/2000/svg">
<defs><marker id="arrowhead" markerWidth="10" markerHeight="7" refX="0" refY="3.5" orient="auto"><polygon points="0 0, 10 3.5, 0 7" /></marker></defs>

<path id="bottomxline" d="M 10 144 h 580" stroke="#FFFFFF" stroke-width="1" fill="none" /> 

<rect x="50" y="60" width="540" height="20" style="fill:none;stroke:#0000FF;stroke-width:1" />
<path d="M 70 60 v 20" stroke="#0000FF" stroke-width="1" fill="none" />
<path d="M 230 60 v 20" stroke="#0000FF" stroke-width="1" fill="none" />
<path d="M 250 60 v 20" stroke="#0000FF" stroke-width="1" fill="none" />
<path d="M 270 60 v 20" stroke="#0000FF" stroke-width="1" fill="none" />
<path d="M 290 60 v 20" stroke="#0000FF" stroke-width="1" fill="none" />
<path d="M 310 60 v 20" stroke="#0000FF" stroke-width="1" fill="none" />
<path d="M 330 60 v 20" stroke="#0000FF" stroke-width="1" fill="none" />
<path d="M 350 60 v 20" stroke="#0000FF" stroke-width="1" fill="none" />
<path d="M 370 60 v 20" stroke="#0000FF" stroke-width="1" fill="none" />
<path d="M 570 60 v 20" stroke="#0000FF" stroke-width="1" fill="none" />

<text x="275" y="75" style="font-size:13px;font-family:'Arial'">-1</text>
<text x="255" y="75" style="font-size:13px;font-family:'Arial'">-2</text>
<text x="235" y="75" style="font-size:13px;font-family:'Arial'">-3</text>
<text x="297" y="75" style="font-size:13px;font-family:'Arial'">0</text>
<text x="317" y="75" style="font-size:13px;font-family:'Arial'">1</text>
<text x="337" y="75" style="font-size:13px;font-family:'Arial'">2</text>
<text x="357" y="75" style="font-size:13px;font-family:'Arial'">3</text>

<text x="30" y="20" style="font-size:13px;font-family:'Courier New'">NLocBuffer</text>
<text x="520" y="20" style="font-size:13px;font-family:'Courier New'">NBuffers</text>
<text x="240" y="20" style="font-size:13px;font-family:'Microsoft Yahei'">非法的数据页的编号</text>

<path d="M 60 25 V 48" stroke="#000000" stroke-width="1" fill="none" marker-end="url(#arrowhead)" />
<path d="M 580 25 V 48" stroke="#000000" stroke-width="1" fill="none" marker-end="url(#arrowhead)" />
<path d="M 300 25 V 48" stroke="#000000" stroke-width="1" fill="none" marker-end="url(#arrowhead)" />

<path d="M 50 83 v 5 a 5 5 0 0 0 5 5 h 110 a 5 5 0 0 1 5 5 a 5 5 0 0 1 5 -5 h 110 a 5 5 0 0 0 5 -5 v -5" stroke="#000000" stroke-width="1" fill="none"/>
<path d="M 310 83 v 5 a 5 5 0 0 0 5 5 h 130 a 5 5 0 0 1 5 5 a 5 5 0 0 1 5 -5 h 130 a 5 5 0 0 0 5 -5 v -5" stroke="#000000" stroke-width="1" fill="none"/>

<text x="100" y="115" style="font-size:13px;font-family:'Microsoft Yahei'">私有内存中数据页的编号</text>
<text x="380" y="115" style="font-size:13px;font-family:'Microsoft Yahei'">共享内存中数据页的编号</text>
</svg>
