<svg version="1.1" width="600" height="170" xmlns="http://www.w3.org/2000/svg">
<defs><marker id="arrowhead" markerWidth="10" markerHeight="7" refX="0" refY="3.5" orient="auto"><polygon points="0 0, 10 3.5, 0 7" /></marker></defs>

<path id="bottomxline" d="M 10 169 h 580" stroke="#FFFFFF" stroke-width="1" fill="none" /> 

<path d="M 20 50 H 580" stroke="#000000" stroke-width="1" fill="none" marker-end="url(#arrowhead)" />
<path d="M 20 120 H 580" stroke="#000000" stroke-width="1" fill="none" marker-end="url(#arrowhead)" />

<rect x="70" y="40" width="120" height="20" style="fill:#DDDDDD;stroke:#0000FF;stroke-width:1" />
<rect x="200" y="40" width="120" height="20" style="fill:#DDDDDD;stroke:#0000FF;stroke-width:1" />
<rect x="320" y="40" width="60" height="20" style="fill:#FFFFFF;stroke:#0000FF;stroke-width:1" />
<rect x="200" y="110" width="180" height="20" style="fill:#DDDDDD;stroke:#0000FF;stroke-width:1" />

<path d="M 320 25 V 150" stroke="#000000" stroke-width="1" fill="none" stroke-dasharray="3,3"/>

<path d="M 200 65 v 5 a 5 5 0 0 0 5 5 h 50 a 5 5 0 0 1 5 5 a 5 5 0 0 1 5 -5 h 50 a 5 5 0 0 0 5 -5 v -5" stroke="#000000" stroke-width="1" fill="none"/>

<path d="M 260 83 V 98" stroke="#000000" stroke-width="1" fill="none" marker-end="url(#arrowhead)" />

<text x="525" y="40" style="font-size:13px;font-family:'Microsoft Yahei'">时间线 N</text>
<text x="525" y="110" style="font-size:13px;font-family:'Microsoft Yahei'">时间线 M</text>
<text x="300" y="20" style="font-size:13px;font-family:'Microsoft Yahei'">切换点</text>
</svg>
