<svg version="1.1" width="600" height="110" xmlns="http://www.w3.org/2000/svg">
<defs><marker id="arrowhead" markerWidth="10" markerHeight="7" refX="0" refY="3.5" orient="auto"><polygon points="0 0, 10 3.5, 0 7" /></marker></defs>

<path id="bottomxline" d="M 10 109 h 580" stroke="#FFFFFF" stroke-width="1" fill="none" /> 

<rect x="60" y="60" width="500" height="20" style="fill:none;stroke:#0000FF;stroke-width:1" />
<path d="M 80 60 v 20" stroke="#0000FF" stroke-width="1" fill="none" />
<path d="M 100 60 v 20" stroke="#0000FF" stroke-width="1" fill="none" />
<path d="M 120 60 v 20" stroke="#0000FF" stroke-width="1" fill="none" />
<path d="M 140 60 v 20" stroke="#0000FF" stroke-width="1" fill="none" />
<path d="M 160 60 v 20" stroke="#0000FF" stroke-width="1" fill="none" />
<path d="M 180 60 v 20" stroke="#0000FF" stroke-width="1" fill="none" />
<path d="M 200 60 v 20" stroke="#0000FF" stroke-width="1" fill="none" />
<path d="M 220 60 v 20" stroke="#0000FF" stroke-width="1" fill="none" />
<path d="M 240 60 v 20" stroke="#0000FF" stroke-width="1" fill="none" />
<path d="M 260 60 v 20" stroke="#0000FF" stroke-width="1" fill="none" />
<path d="M 280 60 v 20" stroke="#0000FF" stroke-width="1" fill="none" />
<path d="M 300 60 v 20" stroke="#0000FF" stroke-width="1" fill="none" />
<path d="M 320 60 v 20" stroke="#0000FF" stroke-width="1" fill="none" />
<path d="M 340 60 v 20" stroke="#0000FF" stroke-width="1" fill="none" />
<path d="M 360 60 v 20" stroke="#0000FF" stroke-width="1" fill="none" />
<path d="M 380 60 v 20" stroke="#0000FF" stroke-width="1" fill="none" />
<path d="M 400 60 v 20" stroke="#0000FF" stroke-width="1" fill="none" />
<path d="M 420 60 v 20" stroke="#0000FF" stroke-width="1" fill="none" />
<path d="M 440 60 v 20" stroke="#0000FF" stroke-width="1" fill="none" />
<path d="M 460 60 v 20" stroke="#0000FF" stroke-width="1" fill="none" />
<path d="M 480 60 v 20" stroke="#0000FF" stroke-width="1" fill="none" />
<path d="M 500 60 v 20" stroke="#0000FF" stroke-width="1" fill="none" />
<path d="M 520 60 v 20" stroke="#0000FF" stroke-width="1" fill="none" />
<path d="M 540 60 v 20" stroke="#0000FF" stroke-width="1" fill="none" />

<text x="66" y="73" style="font-size:13px;font-family:'Arial'">a</text>
<text x="86" y="73" style="font-size:13px;font-family:'Arial'">b</text>
<text x="106" y="73" style="font-size:13px;font-family:'Arial'">0</text>
<text x="126" y="73" style="font-size:13px;font-family:'Arial'">3</text>
<text x="146" y="73" style="font-size:13px;font-family:'Arial'">+</text>
<text x="166" y="73" style="font-size:13px;font-family:'Arial'">9</text>
<text x="186" y="73" style="font-size:13px;font-family:'Arial'">x</text>
<text x="206" y="78" style="font-size:13px;font-family:'Arial'">*</text>
<text x="226" y="73" style="font-size:13px;font-family:'Arial'">6</text>
<text x="246" y="73" style="font-size:13px;font-family:'Arial'">6</text>
<text x="266" y="73" style="font-size:13px;font-family:'Arial'">#</text>
<text x="286" y="73" style="font-size:13px;font-family:'Arial'">q</text>
<text x="306" y="73" style="font-size:13px;font-family:'Arial'">m</text>
<text x="326" y="73" style="font-size:13px;font-family:'Arial'">%</text>
<text x="346" y="73" style="font-size:13px;font-family:'Arial'">\</text>
<text x="366" y="73" style="font-size:13px;font-family:'Arial'">k</text>

<text x="187" y="20" style="font-size:13px;font-family:'Courier New'">cursor</text>
<text x="357" y="20" style="font-size:13px;font-family:'Courier New'">len</text>
<text x="525" y="20" style="font-size:13px;font-family:'Courier New'">maxlen</text>
<text x="15" y="20" style="font-size:13px;font-family:'Courier New'">data</text>

<path d="M 30 25 V 70 H 48" stroke="#000000" stroke-width="1" fill="none" marker-end="url(#arrowhead)" />
<path d="M 210 25 V 48" stroke="#000000" stroke-width="1" fill="none" marker-end="url(#arrowhead)" />
<path d="M 370 25 V 48" stroke="#000000" stroke-width="1" fill="none" marker-end="url(#arrowhead)" />
<path d="M 550 25 V 48" stroke="#000000" stroke-width="1" fill="none" marker-end="url(#arrowhead)" />

<path d="M 60 85 v 5 a 5 5 0 0 0 5 5 h 150 a 5 5 0 0 1 5 5 a 5 5 0 0 1 5 -5 h 150 a 5 5 0 0 0 5 -5 v -5" stroke="#000000" stroke-width="1" fill="none"/>
</svg>
