<svg version="1.1" width="600" height="100" xmlns="http://www.w3.org/2000/svg">
<defs><marker id="arrowhead" markerWidth="10" markerHeight="7" refX="0" refY="3.5" orient="auto"><polygon points="0 0, 10 3.5, 0 7" /></marker></defs>

<path id="bottomxline" d="M 10 99 h 580" stroke="#FFFFFF" stroke-width="1" fill="none" /> 

<g transform="translate(0, -25)">
<path d="M 50 75 v 5 a 5 5 0 0 0 5 5 h 240 a 5 5 0 0 1 5 5 a 5 5 0 0 1 5 -5 h 240 a 5 5 0 0 0 5 -5 v -5" stroke="#000000" stroke-width="1" fill="none"/>
<text x="260" y="105" style="font-size:13px;font-family:'Courier New'">bitmapsize</text>

<rect x="50" y="50" width="500" height="20" style="fill:none;stroke:#0000FF;stroke-width:1" />
<path d="M 70 50 v 20" stroke="#0000FF" stroke-width="1" fill="none"/>
<path d="M 90 50 v 20" stroke="#0000FF" stroke-width="1" fill="none"/>
<path d="M 110 50 v 20" stroke="#0000FF" stroke-width="1" fill="none"/>
<path d="M 130 50 v 20" stroke="#0000FF" stroke-width="1" fill="none"/>
<path d="M 150 50 v 20" stroke="#0000FF" stroke-width="1" fill="none"/>
<path d="M 170 50 v 20" stroke="#0000FF" stroke-width="1" fill="none"/>
<path d="M 190 50 v 20" stroke="#0000FF" stroke-width="1" fill="none"/>
<path d="M 210 50 v 20" stroke="#0000FF" stroke-width="1" fill="none"/>
<path d="M 230 50 v 20" stroke="#0000FF" stroke-width="1" fill="none"/>
<path d="M 250 50 v 20" stroke="#0000FF" stroke-width="1" fill="none"/>
<path d="M 270 50 v 20" stroke="#0000FF" stroke-width="1" fill="none"/>
<path d="M 290 50 v 20" stroke="#0000FF" stroke-width="1" fill="none"/>
<path d="M 310 50 v 20" stroke="#0000FF" stroke-width="1" fill="none"/>
<path d="M 330 50 v 20" stroke="#0000FF" stroke-width="1" fill="none"/>
<path d="M 350 50 v 20" stroke="#0000FF" stroke-width="1" fill="none"/>
<path d="M 370 50 v 20" stroke="#0000FF" stroke-width="1" fill="none"/>
<path d="M 390 50 v 20" stroke="#0000FF" stroke-width="1" fill="none"/>
<path d="M 530 50 v 20" stroke="#0000FF" stroke-width="1" fill="none"/>

<text x="430" y="62" style="font-size:36px;font-family:'Arial'">......</text>

<text x="55" y="45" style="font-size:13px;font-family:'Arial'">7</text>
<text x="75" y="45" style="font-size:13px;font-family:'Arial'">6</text>
<text x="95" y="45" style="font-size:13px;font-family:'Arial'">5</text>
<text x="115" y="45" style="font-size:13px;font-family:'Arial'">4</text>
<text x="135" y="45" style="font-size:13px;font-family:'Arial'">3</text>
<text x="155" y="45" style="font-size:13px;font-family:'Arial'">2</text>
<text x="175" y="45" style="font-size:13px;font-family:'Arial'">1</text>
<text x="195" y="45" style="font-size:13px;font-family:'Arial'">0</text>
<text x="210" y="45" style="font-size:13px;font-family:'Arial'">15</text>
<text x="230" y="45" style="font-size:13px;font-family:'Arial'">14</text>
<text x="250" y="45" style="font-size:13px;font-family:'Arial'">13</text>
<text x="270" y="45" style="font-size:13px;font-family:'Arial'">12</text>
<text x="290" y="45" style="font-size:13px;font-family:'Arial'">11</text>
<text x="310" y="45" style="font-size:13px;font-family:'Arial'">10</text>
<text x="335" y="45" style="font-size:13px;font-family:'Arial'">9</text>
<text x="355" y="45" style="font-size:13px;font-family:'Arial'">8</text>
<text x="372" y="45" style="font-size:13px;font-family:'Arial'">23</text>
<text x="535" y="45" style="font-size:13px;font-family:'Arial'">N</text>

<text x="56" y="65" style="font-size:13px;font-family:'Arial'">0</text>
<text x="76" y="65" style="font-size:13px;font-family:'Arial'">1</text>
<text x="96" y="65" style="font-size:13px;font-family:'Arial'">1</text>
<text x="116" y="65" style="font-size:13px;font-family:'Arial'">0</text>
<text x="136" y="65" style="font-size:13px;font-family:'Arial'">1</text>
<text x="156" y="65" style="font-size:13px;font-family:'Arial'">0</text>
<text x="176" y="65" style="font-size:13px;font-family:'Arial'">0</text>
<text x="196" y="65" style="font-size:13px;font-family:'Arial'">1</text>
<text x="216" y="65" style="font-size:13px;font-family:'Arial'">0</text>
<text x="236" y="65" style="font-size:13px;font-family:'Arial'">1</text>
<text x="256" y="65" style="font-size:13px;font-family:'Arial'">1</text>
<text x="276" y="65" style="font-size:13px;font-family:'Arial'">0</text>
<text x="296" y="65" style="font-size:13px;font-family:'Arial'">0</text>
<text x="316" y="65" style="font-size:13px;font-family:'Arial'">1</text>
<text x="336" y="65" style="font-size:13px;font-family:'Arial'">0</text>
<text x="356" y="65" style="font-size:13px;font-family:'Arial'">0</text>
<text x="376" y="65" style="font-size:13px;font-family:'Arial'">1</text>
</g>
</svg>
