<svg version="1.1" width="600" height="230" xmlns="http://www.w3.org/2000/svg">
<defs><marker id="arrowhead" markerWidth="10" markerHeight="7" refX="0" refY="3.5" orient="auto"><polygon points="0 0, 10 3.5, 0 7" /></marker></defs>

<path id="bottomxline" d="M 10 229 h 580" stroke="#FFFFFF" stroke-width="1" fill="none" /> 

<g transform="translate(0, 0)">
<rect x="285" y="30" width="30" height="180" style="fill:none;stroke:#0000FF;stroke-width:1" />
<path d="M 285 60 h 30" stroke="#0000FF" stroke-width="1" fill="none" />
<path d="M 285 90 h 30" stroke="#0000FF" stroke-width="1" fill="none" />
</g>

<g transform="translate(-100, 0)">
<rect x="285" y="30" width="30" height="180" style="fill:none;stroke:#0000FF;stroke-width:1" />
<path d="M 285 60 h 30" stroke="#0000FF" stroke-width="1" fill="none" />
<path d="M 285 90 h 30" stroke="#0000FF" stroke-width="1" fill="none" />
</g>

<g transform="translate(-200, 0)">
<rect x="285" y="30" width="30" height="180" style="fill:none;stroke:#0000FF;stroke-width:1" />
<path d="M 285 60 h 30" stroke="#0000FF" stroke-width="1" fill="none" />
<path d="M 285 90 h 30" stroke="#0000FF" stroke-width="1" fill="none" />
</g>

<g transform="translate(100, 0)">
<rect x="285" y="30" width="30" height="180" style="fill:none;stroke:#0000FF;stroke-width:1" />
<path d="M 285 60 h 30" stroke="#0000FF" stroke-width="1" fill="none" />
<path d="M 285 90 h 30" stroke="#0000FF" stroke-width="1" fill="none" />
</g>

<path d="M 300 75 h 73" stroke="#000000" stroke-width="1" fill="none" marker-end="url(#arrowhead)" />
<path d="M 200 75 h 73" stroke="#000000" stroke-width="1" fill="none" marker-end="url(#arrowhead)" />
<path d="M 100 75 h 73" stroke="#000000" stroke-width="1" fill="none" marker-end="url(#arrowhead)" />
<path d="M 400 45 h -73" stroke="#000000" stroke-width="1" fill="none" marker-end="url(#arrowhead)" />
<path d="M 300 45 h -73" stroke="#000000" stroke-width="1" fill="none" marker-end="url(#arrowhead)" />
<path d="M 200 45 h -73" stroke="#000000" stroke-width="1" fill="none" marker-end="url(#arrowhead)" />

<path d="M 80 30 h -5 a 5 5 0 0 0 -5 5 v 20 a 5 5 0 0 1 -5 5 a 5 5 0 0 1 5 5 v 20 a 5 5 0 0 0 5 5 h 5" stroke="#000000" stroke-width="1" fill="none"/>

<text x="10" y="20" style="font-size:13px;font-family:'Courier New'">dlist_node</text>
<text x="148" y="39" style="font-size:13px;font-family:'Courier New'">prev</text>
<text x="248" y="39" style="font-size:13px;font-family:'Courier New'">prev</text>
<text x="348" y="39" style="font-size:13px;font-family:'Courier New'">prev</text>

<text x="120" y="69" style="font-size:13px;font-family:'Courier New'">next</text>
<text x="220" y="69" style="font-size:13px;font-family:'Courier New'">next</text>
<text x="320" y="69" style="font-size:13px;font-family:'Courier New'">next</text>


<path d="M 62 60 h -15 V 40" stroke="#000000" stroke-width="1" fill="none" marker-end="url(#arrowhead)" />

<path d="M 420 90 h 5 a 5 5 0 0 1 5 5 v 50 a 5 5 0 0 0 5 5 a 5 5 0 0 0 -5 5 v 50 a 5 5 0 0 1 -5 5 h -5" stroke="#000000" stroke-width="1" fill="none"/>

<text x="440" y="153" style="font-size:13px;font-family:'Microsoft Yahei'">用户自定义数据</text>
</svg>
