<svg version="1.1" width="600" height="130" xmlns="http://www.w3.org/2000/svg">
<defs><marker id="arrowhead" markerWidth="10" markerHeight="7" refX="0" refY="3.5" orient="auto"><polygon points="0 0, 10 3.5, 0 7" /></marker></defs>

<path id="bottomxline" d="M 10 129 h 580" stroke="#FFFFFF" stroke-width="1" fill="none" /> 

<rect x="200" y="10" width="20" height="20" style="fill:none;stroke:#0000FF;stroke-width:1" />

<g transform="translate(-140, -110)">
<rect x="340" y="160" width="160" height="20" style="fill:none;stroke:#0000FF;stroke-width:1" />
<path d="M 360 160 v 20" stroke="#0000FF" stroke-width="1" fill="none" />
<path d="M 380 160 v 20" stroke="#0000FF" stroke-width="1" fill="none" />
<path d="M 400 160 v 20" stroke="#0000FF" stroke-width="1" fill="none" />
<path d="M 420 160 v 20" stroke="#0000FF" stroke-width="1" fill="none" />
<path d="M 440 160 v 20" stroke="#0000FF" stroke-width="1" fill="none" />
<path d="M 460 160 v 20" stroke="#0000FF" stroke-width="1" fill="none" />
<path d="M 480 160 v 20" stroke="#0000FF" stroke-width="1" fill="none" />
</g>

<g transform="translate(-140, -70)">
<rect x="340" y="160" width="200" height="20" style="fill:none;stroke:#0000FF;stroke-width:1" />
<path d="M 360 160 v 20" stroke="#0000FF" stroke-width="1" fill="none" />
<path d="M 380 160 v 20" stroke="#0000FF" stroke-width="1" fill="none" />
<path d="M 400 160 v 20" stroke="#0000FF" stroke-width="1" fill="none" />
<path d="M 420 160 v 20" stroke="#0000FF" stroke-width="1" fill="none" />
<path d="M 440 160 v 20" stroke="#0000FF" stroke-width="1" fill="none" />
<path d="M 460 160 v 20" stroke="#0000FF" stroke-width="1" fill="none" />
<path d="M 480 160 v 20" stroke="#0000FF" stroke-width="1" fill="none" />
<path d="M 500 160 v 20" stroke="#0000FF" stroke-width="1" fill="none" />
<path d="M 520 160 v 20" stroke="#0000FF" stroke-width="1" fill="none" />
</g>

<path d="M 390 50 V 78" stroke="#000000" stroke-width="1" fill="none" marker-end="url(#arrowhead)" />

<text x="370" y="40" style="font-size:13px;font-family:'Courier New'">num_child_flags</text>
<text x="90" y="63" style="font-size:13px;font-family:'Courier New'">PMSignalFlags</text>
<text x="80" y="23" style="font-size:13px;font-family:'Courier New'">sigquit_reason</text>
<text x="100" y="104" style="font-size:13px;font-family:'Courier New'">PMChildFlags</text>
</svg>
