<svg version="1.1" width="600" height="330" xmlns="http://www.w3.org/2000/svg">
<defs><marker id="arrowhead" markerWidth="10" markerHeight="7" refX="0" refY="3.5" orient="auto"><polygon points="0 0, 10 3.5, 0 7" /></marker></defs>

<rect x="150" y="50" width="300" height="30" style="fill:none;stroke:#0000FF;stroke-width:1" />
<path d="M 180 50 v 30" stroke="#0000FF" stroke-width="1" fill="none" />
<path d="M 210 50 v 30" stroke="#0000FF" stroke-width="1" fill="none" />
<path d="M 240 50 v 30" stroke="#0000FF" stroke-width="1" fill="none" />
<path d="M 270 50 v 30" stroke="#0000FF" stroke-width="1" fill="none" />
<path d="M 300 50 v 30" stroke="#0000FF" stroke-width="1" fill="none" />
<path d="M 330 50 v 30" stroke="#0000FF" stroke-width="1" fill="none" />
<path d="M 360 50 v 30" stroke="#0000FF" stroke-width="1" fill="none" />
<path d="M 390 50 v 30" stroke="#0000FF" stroke-width="1" fill="none" />
<path d="M 420 50 v 30" stroke="#0000FF" stroke-width="1" fill="none" />

<rect x="20" y="150" width="100" height="20" style="fill:none;stroke:#0000FF;stroke-width:1" />
<rect x="130" y="150" width="100" height="20" style="fill:none;stroke:#0000FF;stroke-width:1" />
<rect x="240" y="150" width="100" height="20" style="fill:none;stroke:#0000FF;stroke-width:1" />
<rect x="350" y="150" width="100" height="20" style="fill:none;stroke:#0000FF;stroke-width:1" />
<rect x="460" y="150" width="100" height="20" style="fill:none;stroke:#0000FF;stroke-width:1" />
<path d="M 160 150 v 20" stroke="#0000FF" stroke-width="1" fill="none" />

<path d="M 160 200 V 182" stroke="#000000" stroke-width="1" fill="none" marker-end="url(#arrowhead)" />
<path d="M 435 25 V 38" stroke="#000000" stroke-width="1" fill="none" marker-end="url(#arrowhead)" />

<text x="120" y="210" style="font-size:13px;font-family:'Courier New'">replicationSlotMinLSN</text>
<text x="420" y="20" style="font-size:13px;font-family:'Courier New'">max_replication_slots - 1</text>
</svg>
