<svg version="1.1" width="600" height="330" xmlns="http://www.w3.org/2000/svg">
<defs><marker id="arrowhead" markerWidth="10" markerHeight="7" refX="0" refY="3.5" orient="auto"><polygon points="0 0, 10 3.5, 0 7" /></marker></defs>

<rect x="20" y="40" width="20" height="200" style="fill:none;stroke:#0000FF;stroke-width:1" />
<path d="M 20 60 h 20" stroke="#0000FF" stroke-width="1" fill="none" />
<path d="M 20 80 h 20" stroke="#0000FF" stroke-width="1" fill="none" />

<rect x="200" y="40" width="200" height="20" style="fill:none;stroke:#0000FF;stroke-width:1" />
<path d="M 220 40 v 20" stroke="#0000FF" stroke-width="1" fill="none" />
<path d="M 240 40 v 20" stroke="#0000FF" stroke-width="1" fill="none" />
<path d="M 260 40 v 20" stroke="#0000FF" stroke-width="1" fill="none" />
<path d="M 280 40 v 20" stroke="#0000FF" stroke-width="1" fill="none" />
<path d="M 300 40 v 20" stroke="#0000FF" stroke-width="1" fill="none" />
<path d="M 320 40 v 20" stroke="#0000FF" stroke-width="1" fill="none" />
<path d="M 340 40 v 20" stroke="#0000FF" stroke-width="1" fill="none" />
<path d="M 360 40 v 20" stroke="#0000FF" stroke-width="1" fill="none" />
<path d="M 380 40 v 20" stroke="#0000FF" stroke-width="1" fill="none" />

<path d="M 30 50 H 188" stroke="#000000" stroke-width="1" fill="none" marker-end="url(#arrowhead)" />
<path d="M 30 70 h 120 v 20 H 188" stroke="#000000" stroke-width="1" fill="none" marker-end="url(#arrowhead)" />

<text x="80" y="40" style="font-size:13px;font-family:'Courier New'">allProcs</text>
<text x="80" y="65" style="font-size:13px;font-family:'Courier New'">xids</text>

<text x="280" y="30" style="font-size:13px;font-family:'Courier New'">PGPROC</text>

<g transform="translate(0, 40)">
<rect x="200" y="40" width="200" height="20" style="fill:none;stroke:#0000FF;stroke-width:1" />
<path d="M 220 40 v 20" stroke="#0000FF" stroke-width="1" fill="none" />
<path d="M 240 40 v 20" stroke="#0000FF" stroke-width="1" fill="none" />
<path d="M 260 40 v 20" stroke="#0000FF" stroke-width="1" fill="none" />
<path d="M 280 40 v 20" stroke="#0000FF" stroke-width="1" fill="none" />
<path d="M 300 40 v 20" stroke="#0000FF" stroke-width="1" fill="none" />
<path d="M 320 40 v 20" stroke="#0000FF" stroke-width="1" fill="none" />
<path d="M 340 40 v 20" stroke="#0000FF" stroke-width="1" fill="none" />
<path d="M 360 40 v 20" stroke="#0000FF" stroke-width="1" fill="none" />
<path d="M 380 40 v 20" stroke="#0000FF" stroke-width="1" fill="none" />
</g>
</svg>
