<svg version="1.1" width="600" height="170" xmlns="http://www.w3.org/2000/svg">
<defs><marker id="arrowhead" markerWidth="10" markerHeight="7" refX="0" refY="3.5" orient="auto"><polygon points="0 0, 10 3.5, 0 7" /></marker></defs>

<path id="bottomxline" d="M 10 169 h 580" stroke="#FFFFFF" stroke-width="1" fill="none" /> 

<g transform="translate(20, -30)">
<rect x="45" y="60" width="62" height="100" style="fill:none;stroke:#0000FF;stroke-width:1" />
<rect x="157" y="60" width="62" height="100" style="fill:none;stroke:#0000FF;stroke-width:1" />
<rect x="269" y="60" width="62" height="100" style="fill:none;stroke:#0000FF;stroke-width:1" />
<rect x="381" y="60" width="62" height="100" style="fill:none;stroke:#0000FF;stroke-width:1" />
<rect x="493" y="60" width="62" height="100" style="fill:none;stroke:#0000FF;stroke-width:1" />

<path d="M 0 110 H 32" stroke="#000000" stroke-width="1" fill="none" marker-end="url(#arrowhead)"/>
<path d="M 109 110 h 36" stroke="#000000" stroke-width="1" fill="none" marker-end="url(#arrowhead)"/>
<path d="M 221 110 h 36" stroke="#000000" stroke-width="1" fill="none" marker-end="url(#arrowhead)"/>
<path d="M 333 110 h 36" stroke="#000000" stroke-width="1" fill="none" marker-end="url(#arrowhead)"/>
<path d="M 445 110 h 36" stroke="#000000" stroke-width="1" fill="none" marker-end="url(#arrowhead)"/>

<path d="M 355 110 v 75 H 20 V 123" stroke="#000000" stroke-width="1" fill="none" marker-end="url(#arrowhead)"/>

<text x="68" y="150" style="font-size:13px;font-family:'Arial'">(1)</text>
<text x="180" y="150" style="font-size:13px;font-family:'Arial'">(2)</text>
<text x="292" y="150" style="font-size:13px;font-family:'Arial'">(3)</text>
<text x="405" y="150" style="font-size:13px;font-family:'Arial'">(4)</text>
<text x="517" y="150" style="font-size:13px;font-family:'Arial'">(5)</text>

<text x="35" y="51" style="font-size:13px;font-family:'Arial'">SCAN_HEAP</text>
<text x="136" y="51" style="font-size:13px;font-family:'Arial'">VACUUM_INDEX</text>
<text x="249" y="51" style="font-size:13px;font-family:'Arial'">VACUUM_HEAP</text>
<text x="358" y="51" style="font-size:13px;font-family:'Arial'">INDEX_CLEANUP</text>
<text x="488" y="51" style="font-size:13px;font-family:'Arial'">TRUNCATE</text>

<text x="50" y="177" style="font-size:13px;font-family:'Microsoft Yahei'">扫描堆表</text>
<text x="163" y="177" style="font-size:13px;font-family:'Microsoft Yahei'">清理索引</text>
<text x="273" y="177" style="font-size:13px;font-family:'Microsoft Yahei'">清理堆表</text>
<text x="385" y="177" style="font-size:13px;font-family:'Microsoft Yahei'">索引清除</text>
<text x="498" y="177" style="font-size:13px;font-family:'Microsoft Yahei'">砍掉尾页</text>
</g>
</svg>
