<svg version="1.1" width="600" height="195" xmlns="http://www.w3.org/2000/svg">
<defs><marker id="arrowhead" markerWidth="10" markerHeight="7" refX="0" refY="3.5" orient="auto"><polygon points="0 0, 10 3.5, 0 7" /></marker></defs>

<path id="bottomxline" d="M 10 194 h 580" stroke="#FFFFFF" stroke-width="1" fill="none" /> 

<rect x="50" y="50" width="200" height="124" style="fill:none;stroke:#0000FF;stroke-width:1" />
<path d="M 50 70 h 80 v -20" stroke="#0000FF" stroke-width="1" fill="none"/>
<rect x="150" y="50" width="20" height="20" style="fill:#DDDDDD;stroke:#0000FF;stroke-width:1" />
<rect x="190" y="50" width="40" height="20" style="fill:#DDDDDD;stroke:#0000FF;stroke-width:1" />
<path d="M 210 70 v -20" stroke="#0000FF" stroke-width="1" fill="none"/>
<path d="M 130 70 h 20" stroke="#0000FF" stroke-width="1" fill="none"/>
<path d="M 170 70 h 20" stroke="#0000FF" stroke-width="1" fill="none"/>

<text x="136" y="65" style="font-size:13px;font-family:'Arial'">1</text>
<text x="156" y="65" style="font-size:13px;font-family:'Arial'">2</text>
<text x="176" y="65" style="font-size:13px;font-family:'Arial'">3</text>
<text x="196" y="65" style="font-size:13px;font-family:'Arial'">4</text>
<text x="216" y="65" style="font-size:13px;font-family:'Arial'">5</text>

<path d="M 230 110 V 83" stroke="#000000" stroke-width="1" fill="none" marker-end="url(#arrowhead)"/>
<text x="175" y="125" style="font-size:13px;font-family:'Courier New'">pd_lower</text>
<text x="55" y="65" style="font-size:13px;font-family:'Microsoft Yahei'">数据页头部</text>
<text x="140" y="25" style="font-size:13px;font-family:'Microsoft Yahei'">记录指针数组</text>
<path d="M 130 45 v -5 a 5 5 0 0 1 5 -5 h 40 a 5 5 0 0 0 5 -5 a 5 5 0 0 0 5 5 h 40 a 5 5 0 0 1 5 5 v 5" stroke="#000000" stroke-width="1" fill="none" />

<path d="M 260 112 H 312" stroke="#000000" stroke-width="3" fill="none" marker-end="url(#arrowhead)"/>

<g transform="translate(300, 0)">
<rect x="50" y="50" width="200" height="124" style="fill:none;stroke:#0000FF;stroke-width:1" />
<path d="M 50 70 h 80 v -20" stroke="#0000FF" stroke-width="1" fill="none"/>
<rect x="150" y="50" width="20" height="20" style="fill:none;stroke:#0000FF;stroke-width:1" />
<path d="M 130 70 h 20" stroke="#0000FF" stroke-width="1" fill="none"/>
<path d="M 170 70 h 20 v -20" stroke="#0000FF" stroke-width="1" fill="none"/>
<text x="136" y="65" style="font-size:13px;font-family:'Arial'">1</text>
<text x="156" y="65" style="font-size:13px;font-family:'Arial'">2</text>
<text x="176" y="65" style="font-size:13px;font-family:'Arial'">3</text>

<path d="M 190 110 V 83" stroke="#000000" stroke-width="1" fill="none" marker-end="url(#arrowhead)"/>
<text x="175" y="125" style="font-size:13px;font-family:'Courier New'">pd_lower</text>
<text x="55" y="65" style="font-size:13px;font-family:'Microsoft Yahei'">数据页头部</text>
<text x="120" y="25" style="font-size:13px;font-family:'Microsoft Yahei'">记录指针数组</text>
<path d="M 130 45 v -5 a 5 5 0 0 1 5 -5 h 20 a 5 5 0 0 0 5 -5 a 5 5 0 0 0 5 5 h 20 a 5 5 0 0 1 5 5 v 5" stroke="#000000" stroke-width="1" fill="none" />
</g>
</svg>
