<svg version="1.1" width="600" height="120" xmlns="http://www.w3.org/2000/svg">
<defs><marker id="arrowhead" markerWidth="10" markerHeight="7" refX="0" refY="3.5" orient="auto"><polygon points="0 0, 10 3.5, 0 7" /></marker></defs>

<path id="bottomxline" d="M 10 119 h 580" stroke="#FFFFFF" stroke-width="1" fill="none" /> 

<rect x="50" y="10" width="500" height="20" style="fill:none;stroke:#0000FF;stroke-width:1" />
<path d="M 70 10 v 20" stroke="#0000FF" stroke-width="1" fill="none"/>
<path d="M 150 10 v 20" stroke="#0000FF" stroke-width="1" fill="none"/>
<path d="M 230 10 v 20" stroke="#0000FF" stroke-width="1" fill="none"/>
<path d="M 310 10 v 20" stroke="#0000FF" stroke-width="1" fill="none"/>

<text x="56" y="25" style="font-size:13px;font-family:'Arial'">1</text>
<text x="105" y="25" style="font-size:13px;font-family:'Arial'">8</text>
<text x="185" y="25" style="font-size:13px;font-family:'Arial'">8</text>
<text x="265" y="25" style="font-size:13px;font-family:'Arial'">8</text>

<path d="M 310 35 v 5 a 5 5 0 0 0 5 5 h 110 a 5 5 0 0 1 5 5 a 5 5 0 0 1 5 -5 h 110 a 5 5 0 0 0 5 -5 v -5" stroke="#000000" stroke-width="1" fill="none"/>

<path d="M 60 55 V 43" stroke="#000000" stroke-width="1" fill="none" marker-end="url(#arrowhead)"/>
<path d="M 110 80 V 43" stroke="#000000" stroke-width="1" fill="none" marker-end="url(#arrowhead)"/>
<path d="M 190 60 V 43" stroke="#000000" stroke-width="1" fill="none" marker-end="url(#arrowhead)"/>
<path d="M 270 80 V 43" stroke="#000000" stroke-width="1" fill="none" marker-end="url(#arrowhead)"/>

<text x="380" y="70" style="font-size:13px;font-family:'Microsoft Yahei'">真正的WAL数据</text>
<text x="56" y="65" style="font-size:13px;font-family:'Arial'">w</text>

<text x="85" y="95" style="font-size:13px;font-family:'Microsoft Yahei'">起始LSN</text>
<text x="165" y="75" style="font-size:13px;font-family:'Microsoft Yahei'">结束LSN</text>
<text x="220" y="95" style="font-size:13px;font-family:'Microsoft Yahei'">本消息包的时间戳</text>
</svg>
