<svg version="1.1" width="600" height="120" xmlns="http://www.w3.org/2000/svg">
<defs><marker id="arrowhead" markerWidth="10" markerHeight="7" refX="0" refY="3.5" orient="auto"><polygon points="0 0, 10 3.5, 0 7" /></marker></defs>

<path id="bottomxline" d="M 10 119 h 580" stroke="#FFFFFF" stroke-width="1" fill="none" /> 

<rect x="120" y="80" width="360" height="20" style="fill:none;stroke:#0000FF;stroke-width:1" />
<path d="M 140 80 v 20" stroke="#0000FF" stroke-width="1" fill="none"/>
<path d="M 220 80 v 20" stroke="#0000FF" stroke-width="1" fill="none"/>
<path d="M 300 80 v 20" stroke="#0000FF" stroke-width="1" fill="none"/>
<path d="M 380 80 v 20" stroke="#0000FF" stroke-width="1" fill="none"/>
<path d="M 460 80 v 20" stroke="#0000FF" stroke-width="1" fill="none"/>


<path d="M 130 50 V 68" stroke="#000000" stroke-width="1" fill="none" marker-end="url(#arrowhead)" />
<path d="M 180 25 V 68" stroke="#000000" stroke-width="1" fill="none" marker-end="url(#arrowhead)" />
<path d="M 260 50 V 68" stroke="#000000" stroke-width="1" fill="none" marker-end="url(#arrowhead)" />
<path d="M 340 25 V 68" stroke="#000000" stroke-width="1" fill="none" marker-end="url(#arrowhead)" />
<path d="M 420 50 V 68" stroke="#000000" stroke-width="1" fill="none" marker-end="url(#arrowhead)" />
<path d="M 470 25 V 68" stroke="#000000" stroke-width="1" fill="none" marker-end="url(#arrowhead)" />


<text x="127" y="95" style="font-size:13px;font-family:'Arial'">1</text>
<text x="178" y="95" style="font-size:13px;font-family:'Arial'">8</text>
<text x="258" y="95" style="font-size:13px;font-family:'Arial'">8</text>
<text x="338" y="95" style="font-size:13px;font-family:'Arial'">8</text>
<text x="418" y="95" style="font-size:13px;font-family:'Arial'">8</text>
<text x="467" y="95" style="font-size:13px;font-family:'Arial'">1</text>

<text x="118" y="45" style="font-size:13px;font-family:'Courier New'">'r'</text>
<text x="140" y="20" style="font-size:13px;font-family:'Courier New'">write LSN</text>
<text x="220" y="45" style="font-size:13px;font-family:'Courier New'">flush LSN</text>
<text x="300" y="20" style="font-size:13px;font-family:'Courier New'">apply LSN</text>
<text x="360" y="45" style="font-size:13px;font-family:'Courier New'">current time</text>
<text x="430" y="20" style="font-size:13px;font-family:'Courier New'">request reply</text>

</svg>
