<svg version="1.1" width="600" height="230" xmlns="http://www.w3.org/2000/svg">
<defs><marker id="arrowhead" markerWidth="10" markerHeight="7" refX="0" refY="3.5" orient="auto"><polygon points="0 0, 10 3.5, 0 7" /></marker></defs>

<path id="bottomxline" d="M 10 229 h 580" stroke="#FFFFFF" stroke-width="1" fill="none" /> 

<g transform="translate(0, -20)">
<g transform="translate(280, 30)">
<rect x="0" y="0" width="40" height="40" style="fill:none;stroke:#0000FF;stroke-width:1" />
<text x="10" y="33" style="font-size:36px;font-family:'Arial'">3</text>
</g>
<g transform="translate(160, 30)">
<rect x="0" y="0" width="40" height="40" style="fill:none;stroke:#0000FF;stroke-width:1" />
<text x="10" y="33" style="font-size:36px;font-family:'Arial'">2</text>
</g>
<g transform="translate(40, 30)">
<rect x="0" y="0" width="40" height="40" style="fill:none;stroke:#0000FF;stroke-width:1" />
<text x="10" y="33" style="font-size:36px;font-family:'Arial'">1</text>
</g>

<g transform="translate(280, 110)">
<rect x="0" y="0" width="40" height="40" style="fill:none;stroke:#0000FF;stroke-width:1" />
<text x="10" y="33" style="font-size:36px;font-family:'Arial'">4</text>
</g>

<g transform="translate(280, 190)">
<rect x="0" y="0" width="40" height="40" style="fill:none;stroke:#0000FF;stroke-width:1" />
<text x="10" y="33" style="font-size:36px;font-family:'Arial'">5</text>
</g>

<g transform="translate(400, 190)">
<rect x="0" y="0" width="40" height="40" style="fill:none;stroke:#0000FF;stroke-width:1" />
<text x="10" y="33" style="font-size:36px;font-family:'Arial'">6</text>
</g>

<g transform="translate(520, 190)">
<rect x="0" y="0" width="40" height="40" style="fill:none;stroke:#0000FF;stroke-width:1" />
<text x="10" y="33" style="font-size:36px;font-family:'Arial'">7</text>
</g>

<path d="M 85 50 H 145" stroke="#000000" stroke-width="1" fill="none" marker-end="url(#arrowhead)" />
<path d="M 205 50 H 265" stroke="#000000" stroke-width="1" fill="none" marker-end="url(#arrowhead)" />
<path d="M 300 75 V 95" stroke="#000000" stroke-width="1" fill="none" marker-end="url(#arrowhead)" />
<path d="M 300 155 V 175" stroke="#000000" stroke-width="1" fill="none" marker-end="url(#arrowhead)" />
<path d="M 325 210 H 385" stroke="#000000" stroke-width="1" fill="none" marker-end="url(#arrowhead)" />
<path d="M 445 210 H 505" stroke="#000000" stroke-width="1" fill="none" marker-end="url(#arrowhead)" />


<text x="25" y="88" style="font-size:13px;font-family:'Microsoft Yahei'">WAL缓冲区</text>
<text x="135" y="88" style="font-size:13px;font-family:'Microsoft Yahei'">磁盘(WAL文件)</text>
<text x="325" y="55" style="font-size:13px;font-family:'Microsoft Yahei'">WAL发送进程</text>
<text x="325" y="135" style="font-size:13px;font-family:'Microsoft Yahei'">网络</text>

<text x="195" y="215" style="font-size:13px;font-family:'Microsoft Yahei'">WAL接收进程</text>
<text x="375" y="183" style="font-size:13px;font-family:'Microsoft Yahei'">磁盘(WAL文件)</text>
<text x="515" y="183" style="font-size:13px;font-family:'Microsoft Yahei'">恢复进程</text>
</g>
</svg>
