<svg version="1.1" width="600" height="200" xmlns="http://www.w3.org/2000/svg">
<defs><marker id="arrowhead" markerWidth="10" markerHeight="7" refX="0" refY="3.5" orient="auto"><polygon points="0 0, 10 3.5, 0 7" /></marker></defs>

<path id="bottomxline" d="M 10 199 h 580" stroke="#FFFFFF" stroke-width="1" fill="none" /> 

<g transform="translate(0, -20)">
<text x="220" y="35" style="font-size:13px;font-family:'Courier New'">max_replication_slots</text>

<path d="M 200 55 v -5 a 5 5 0 0 1 5 -5 h 90 a 5 5 0 0 0 5 -5 a 5 5 0 0 0 5 5 h 90 a 5 5 0 0 1 5 5 v 5" stroke="#000000" stroke-width="1" fill="none"/>
<rect x="200" y="60" width="200" height="20" style="fill:none;stroke:#0000FF;stroke-width:1" />
<path d="M 220 60 v 20" stroke="#0000FF" stroke-width="1" fill="none"/>
<path d="M 240 60 v 20" stroke="#0000FF" stroke-width="1" fill="none"/>
<path d="M 260 60 v 20" stroke="#0000FF" stroke-width="1" fill="none"/>
<path d="M 280 60 v 20" stroke="#0000FF" stroke-width="1" fill="none"/>
<path d="M 300 60 v 20" stroke="#0000FF" stroke-width="1" fill="none"/>
<path d="M 320 60 v 20" stroke="#0000FF" stroke-width="1" fill="none"/>
<path d="M 340 60 v 20" stroke="#0000FF" stroke-width="1" fill="none"/>
<path d="M 360 60 v 20" stroke="#0000FF" stroke-width="1" fill="none"/>
<path d="M 380 60 v 20" stroke="#0000FF" stroke-width="1" fill="none"/>

<text x="206" y="75" style="font-size:13px;font-family:'Arial'">0</text>
<text x="226" y="75" style="font-size:13px;font-family:'Arial'">1</text>
<text x="246" y="75" style="font-size:13px;font-family:'Arial'">2</text>
<text x="266" y="75" style="font-size:13px;font-family:'Arial'">3</text>
<text x="286" y="75" style="font-size:13px;font-family:'Arial'">4</text>
<text x="306" y="75" style="font-size:13px;font-family:'Arial'">5</text>
<text x="326" y="75" style="font-size:13px;font-family:'Arial'">6</text>
<text x="346" y="75" style="font-size:13px;font-family:'Arial'">7</text>
<text x="366" y="75" style="font-size:13px;font-family:'Arial'">8</text>
<text x="386" y="75" style="font-size:13px;font-family:'Arial'">9</text>


<path d="M 20 160 H 580" stroke="#000000" stroke-width="1" fill="none" marker-end="url(#arrowhead)"/>
<rect x="30" y="150" width="100" height="20" style="fill:#F0F0F0;stroke:#0000FF;stroke-width:1" />
<rect x="134" y="150" width="100" height="20" style="fill:#F0F0F0;stroke:#0000FF;stroke-width:1" />
<rect x="238" y="150" width="100" height="20" style="fill:#F0F0F0;stroke:#0000FF;stroke-width:1" />
<rect x="342" y="150" width="100" height="20" style="fill:#F0F0F0;stroke:#0000FF;stroke-width:1" />
<rect x="446" y="150" width="100" height="20" style="fill:#F0F0F0;stroke:#0000FF;stroke-width:1" />

<path d="M 210 82 v 20 l 60 20 V 138" stroke="#000000" stroke-width="1" fill="none" marker-end="url(#arrowhead)"/>
<path d="M 230 82 v 15 h 80 V 138" stroke="#000000" stroke-width="1" fill="none" marker-end="url(#arrowhead)"/>
<path d="M 390 82 v 48 h -200 V 138" stroke="#000000" stroke-width="1" fill="none" marker-end="url(#arrowhead)"/>

<path d="M 270 150 v 20" stroke="#0000FF" stroke-width="1" fill="none"/>
<path d="M 310 150 v 20" stroke="#0000FF" stroke-width="1" fill="none"/>
<path d="M 190 150 v 20" stroke="#0000FF" stroke-width="1" fill="none"/>

<text x="185" y="185" style="font-size:15px;font-family:'Arial'">A</text>
<text x="265" y="185" style="font-size:15px;font-family:'Arial'">B</text>
<text x="305" y="185" style="font-size:15px;font-family:'Arial'">C</text>
<text x="560" y="150" style="font-size:13px;font-family:'Arial'">WAL</text>

<path d="M 30 145 v -5 a 5 5 0 0 1 5 -5 h 40 a 5 5 0 0 0 5 -5 a 5 5 0 0 0 5 5 h 40 a 5 5 0 0 1 5 5 v 5" stroke="#000000" stroke-width="1" fill="none"/>
<path d="M 446 145 v -5 a 5 5 0 0 1 5 -5 h 40 a 5 5 0 0 0 5 -5 a 5 5 0 0 0 5 5 h 40 a 5 5 0 0 1 5 5 v 5" stroke="#000000" stroke-width="1" fill="none"/>
<path d="M 342 175 v 5 a 5 5 0 0 0 5 5 h 40 a 5 5 0 0 1 5 5 a 5 5 0 0 1 5 -5 h 40 a 5 5 0 0 0 5 -5 v -5" stroke="#000000" stroke-width="1" fill="none"/>

<text x="40" y="125" style="font-size:13px;font-family:'Microsoft Yahei'">n号WAL文件</text>
<text x="446" y="125" style="font-size:13px;font-family:'Microsoft Yahei'">n+4号WAL文件</text>
<text x="345" y="205" style="font-size:13px;font-family:'Microsoft Yahei'">n+3号WAL文件</text>

</g>
</svg>
