<svg version="1.1" width="600" height="150" xmlns="http://www.w3.org/2000/svg">
<defs><marker id="arrowhead" markerWidth="10" markerHeight="7" refX="0" refY="3.5" orient="auto"><polygon points="0 0, 10 3.5, 0 7" /></marker></defs>

<path id="bottomxline" d="M 10 149 h 580" stroke="#FFFFFF" stroke-width="1" fill="none" /> 

<rect x="160" y="50" width="40" height="40" style="fill:none;stroke:#0000FF;stroke-width:1" />
<rect x="400" y="50" width="40" height="40" style="fill:none;stroke:#0000FF;stroke-width:1" />

<text x="170" y="83" style="font-size:36px;font-family:'Arial'">0</text>
<text x="410" y="83" style="font-size:36px;font-family:'Arial'">1</text>

<path d="M 180 95 v 15 a 20 20 0 0 0 20 20 h 200 a 20 20 0 0 0 20 -20 v -5" stroke="#000000" stroke-width="1" fill="none" marker-end="url(#arrowhead)"/>

<path d="M 420 45 v -15 a 20 20 0 0 0 -20 -20 h -200 a 20 20 0 0 0 -20 20 v 5" stroke="#000000" stroke-width="1" fill="none" marker-end="url(#arrowhead)"/>

<text x="280" y="125" style="font-size:13px;font-family:'Arial'">VACUUM</text>

<text x="225" y="27" style="font-size:13px;font-family:'Arial'">INSERT/UPDATE/DELETE</text>
</svg>
