<svg version="1.1" width="600" height="140" xmlns="http://www.w3.org/2000/svg">
<defs><marker id="arrowhead" markerWidth="10" markerHeight="7" refX="0" refY="3.5" orient="auto"><polygon points="0 0, 10 3.5, 0 7" /></marker></defs>

<path id="bottomxline" d="M 10 139 h 580" stroke="#FFFFFF" stroke-width="1" fill="none" /> 

<ellipse cx="300" cy="30" rx="50" ry="20" style="fill:none;stroke:#0000FF;stroke-width:1" />
<ellipse cx="100" cy="30" rx="50" ry="20" style="fill:none;stroke:#0000FF;stroke-width:1" />
<ellipse cx="500" cy="30" rx="50" ry="20" style="fill:none;stroke:#0000FF;stroke-width:1" />

<g transform="translate(225, 0)">
<rect x="0" y="100" width="150" height="20" style="fill:none;stroke:#0000FF;stroke-width:1" />
<text x="15" y="114" style="font-size:13px;font-family:'Courier New'">$PGDATA/promote</text>
</g>

<path d="M 155 30 H 237" stroke="#000000" stroke-width="1" fill="none" marker-end="url(#arrowhead)"/>
<path d="M 355 30 H 437" stroke="#000000" stroke-width="1" fill="none" marker-end="url(#arrowhead)"/>

<path d="M 100 55 V 110 H 213" stroke="#000000" stroke-width="1" fill="none" marker-end="url(#arrowhead)"/>

<path d="M 300 95 V 63" stroke="#000000" stroke-width="1" fill="none" marker-end="url(#arrowhead)"/>
<path d="M 380 110 H 500 V 63" stroke="#000000" stroke-width="1" fill="none" marker-end="url(#arrowhead)"/>

<text x="75" y="35" style="font-size:13px;font-family:'Microsoft Yahei'">请求进程</text>
<text x="280" y="35" style="font-size:13px;font-family:'Microsoft Yahei'">主进程</text>
<text x="475" y="35" style="font-size:13px;font-family:'Microsoft Yahei'">恢复进程</text>

<text x="150" y="102" style="font-size:15px;font-family:'Arial'">(1)</text>
<text x="190" y="22" style="font-size:15px;font-family:'Arial'">(2)</text>
<text x="305" y="80" style="font-size:15px;font-family:'Arial'">(3)</text>
<text x="390" y="22" style="font-size:15px;font-family:'Arial'">(4)</text>
<text x="420" y="102" style="font-size:15px;font-family:'Arial'">(5)</text>
</svg>
