<svg version="1.1" width="600" height="165" xmlns="http://www.w3.org/2000/svg">
<defs><marker id="arrowhead" markerWidth="10" markerHeight="7" refX="0" refY="3.5" orient="auto"><polygon points="0 0, 10 3.5, 0 7" /></marker></defs>

<path id="bottomxline" d="M 10 164 h 580" stroke="#FFFFFF" stroke-width="1" fill="none" /> 

<g transform="translate(0, -50)">
<path d="M 20 100 H 580" stroke="#000000" stroke-width="1" fill="none" marker-end="url(#arrowhead)"/>
<circle cx="60" cy="100" r="3"/>
<circle cx="240" cy="100" r="3"/>
<circle cx="320" cy="100" r="3"/>
<circle cx="350" cy="100" r="3"/>
<circle cx="420" cy="100" r="3"/>
<circle cx="450" cy="100" r="3"/>
<circle cx="520" cy="100" r="3"/>

<path d="M 60 105 v 30 H 320 V 115" stroke="#000000" stroke-width="1" fill="none" marker-end="url(#arrowhead)"/>
<path d="M 60 135 v 30 H 420 V 115" stroke="#000000" stroke-width="1" fill="none" marker-end="url(#arrowhead)"/>
<path d="M 60 165 v 30 H 520 V 115" stroke="#000000" stroke-width="1" fill="none" marker-end="url(#arrowhead)"/>

<path d="M 60 70 V 85" stroke="#000000" stroke-width="1" fill="none" marker-end="url(#arrowhead)"/>
<path d="M 320 70 V 85" stroke="#000000" stroke-width="1" fill="none" marker-end="url(#arrowhead)"/>
<path d="M 420 70 V 85" stroke="#000000" stroke-width="1" fill="none" marker-end="url(#arrowhead)"/>
<path d="M 520 70 V 85" stroke="#000000" stroke-width="1" fill="none" marker-end="url(#arrowhead)"/>

<text x="10" y="65" style="font-size:13px;font-family:'Courier New'">pg_class.relfrozenxid</text>
<text x="90" y="125" style="font-size:13px;font-family:'Courier New'">vacuum_freeze_table_age</text>
<text x="160" y="155" style="font-size:13px;font-family:'Courier New'">autovacuum_max_freez_age</text>
<text x="290" y="185" style="font-size:13px;font-family:'Courier New'">XID wraparound</text>

<text x="236" y="95" style="font-size:13px;font-family:'Arial'">A</text>
<text x="346" y="95" style="font-size:13px;font-family:'Arial'">B</text>
<text x="446" y="95" style="font-size:13px;font-family:'Arial'">C</text>
</g>
</svg>
