<svg version="1.1" width="600" height="420" xmlns="http://www.w3.org/2000/svg">
<defs><marker id="arrowhead" markerWidth="10" markerHeight="7" refX="0" refY="3.5" orient="auto"><polygon points="0 0, 10 3.5, 0 7" /></marker></defs>

<path id="bottomxline" d="M 10 419 h 580" stroke="#FFFFFF" stroke-width="1" fill="none" /> 

<path d="M 300 20 l 100 100 h -200 l 100 -100" stroke="#0000FF" stroke-width="1" fill="none" />
<rect x="250" y="130" width="300" height="30" style="fill:none;stroke:#0000FF;stroke-width:1" />
<text x="255" y="148" style="font-size:25px;font-family:'Arial'">......</text>
<text x="460" y="148" style="font-size:25px;font-family:'Arial'">......</text>
<text x="310" y="150" style="font-size:15px;font-family:'Arial'">key, TID=(8,2)</text>
<path d="M 300 130 v 30" stroke="#0000FF" stroke-width="1" fill="none" />
<path d="M 410 130 v 30" stroke="#0000FF" stroke-width="1" fill="none" />

<rect x="100" y="200" width="400" height="200" style="fill:none;stroke:#0000FF;stroke-width:1" />
<path d="M 100 230 h 350 v -30" stroke="#0000FF" stroke-width="1" fill="none" />
<path d="M 420 200 v 30" stroke="#0000FF" stroke-width="1" fill="none" />
<path d="M 390 200 v 30" stroke="#0000FF" stroke-width="1" fill="none" />
<path d="M 360 200 v 30" stroke="#0000FF" stroke-width="1" fill="none" />

<text x="290" y="80" style="font-size:13px;font-family:'Microsoft Yahei'">索引</text>
<text x="200" y="220" style="font-size:13px;font-family:'Microsoft Yahei'">数据页页头</text>
<text x="370" y="220" style="font-size:15px;font-family:'Arial'">1</text>
<text x="400" y="220" style="font-size:15px;font-family:'Arial'">2</text>
<text x="430" y="220" style="font-size:15px;font-family:'Arial'">3</text>

<text x="270" y="390" style="font-size:13px;font-family:'Microsoft Yahei'">被删除的记录</text>

<path d="M 130 400 v -30 h 370" stroke="#0000FF" stroke-width="1" fill="none" />
<path d="M 260 400 v -30" stroke="#0000FF" stroke-width="1" fill="none" />
<path d="M 360 400 v -30" stroke="#0000FF" stroke-width="1" fill="none" />

<path d="M 350 163 v 15 h 55 V 188" stroke="#000000" stroke-width="1" fill="none" stroke-dasharray="3,3" marker-end="url(#arrowhead)"/>

<path d="M 435 233 v 60 h -250 V 358" stroke="#000000" stroke-width="1" fill="none" stroke-dasharray="3,3" marker-end="url(#arrowhead)"/>
<path d="M 405 233 v 80 h -120 V 358" stroke="#000000" stroke-width="1" fill="none" stroke-dasharray="3,3" marker-end="url(#arrowhead)"/>
<path d="M 375 233 V 358" stroke="#000000" stroke-width="1" fill="none" stroke-dasharray="3,3" marker-end="url(#arrowhead)"/>
</svg>
