<?xml version="1.0" encoding="utf-8"?>
<!-- Generator: Adobe Illustrator 25.3.1, SVG Export Plug-In . SVG Version: 6.00 Build 0)  -->
<svg version="1.1" id="Layer_1" xmlns="http://www.w3.org/2000/svg" xmlns:xlink="http://www.w3.org/1999/xlink" x="0px" y="0px"
	 viewBox="0 0 640 160" style="enable-background:new 0 0 640 160;" xml:space="preserve">
<style type="text/css">
	.st0{fill:url(#SVGID_1_);}
	.st1{fill:#891739;}
	.st2{fill:#621244;}
	.st3{fill:none;}
	.st4{enable-background:new    ;}
</style>
<linearGradient id="SVGID_1_" gradientUnits="userSpaceOnUse" x1="364.0457" y1="772.5472" x2="385.4716" y2="834.2121" gradientTransform="matrix(1 0 0 1 0 -682)">
	<stop  offset="0" style="stop-color:#C51F41"/>
	<stop  offset="1" style="stop-color:#621244"/>
</linearGradient>
<path class="st0" d="M415.8,113c-0.4-8-3.3-15.4-7.2-21.6c-3.4-5.4-8.1-10.4-14.1-12.8c-3.8-1.5-8.1-1.7-12-0.5
	c-4.5,1.3-7.1,4.5-10.8,7.1c-2.8,1.9-6.2,2.9-9.6,2.9c-4.7,0-9.1-2-13.8-1.5c-6.6,0.7-12,4.5-15.1,10.4c-3.1,6-4,13.7-3.7,19.9
	c1.1,24.1,21.3,42.8,45.1,41.7C398.5,157.7,416.9,137.2,415.8,113z M356.3,110.2c-1.8,4.8-6.1,7.6-9.5,6.3c-3.5-1.3-4.8-6.3-3-11.1
	c1.8-4.8,6.1-7.6,9.5-6.3C356.8,100.5,358.1,105.4,356.3,110.2z"/>
<path class="st1" d="M348.1,4.6c-1.4,2.3-3.4,8-4.1,10.1c-4.4,14.6-4.7,27.3-0.6,42.1c1.7,6.1,4.4,11.9,7.9,17.2
	c2.6,3.9,6.7,11,12.3,10.3c0.6-0.1,5.4-2.2,5.2-2.3c-5.3-3-11.3-10.3-15.3-16.9c-3.9-6.4-6.3-13.6-6.6-21.1
	c-0.5-10.8,3-21.4,8.2-30.8c1.3-2.3,2.7-4.6,4.1-6.8c0.4-0.6,1.2-1.9,1.2-1.9c0.6-1-6.4-3.5-7.2-3.4C351,1.2,349.4,2.6,348.1,4.6z"
	/>
<g>
	<path class="st2" d="M54.4,64c-4.3,2.8-9.7,4.1-16.3,4.1c-5.3,0-10.1-1.3-14.6-3.9s-8-6.1-10.6-10.5S9,44.5,9,39.4
		s1.3-9.9,3.9-14.3s6.2-7.9,10.6-10.5s9.3-3.9,14.6-3.9c5.9,0,11.1,1.4,15.6,4.2s7.9,6.7,10.4,11.5l-7.8,3.1c-1.1,0.4-2,0.6-2.7,0.6
		c-1,0-1.9-0.2-2.7-0.7c-0.9-0.5-1.8-1.2-2.7-2.2c-2.7-2.6-6-3.9-9.9-3.9c-2.8,0-5.3,0.7-7.6,2s-4.1,3.2-5.5,5.7
		c-1.3,2.4-2,5.2-2,8.3s0.7,5.9,2,8.3c1.3,2.4,3.2,4.3,5.5,5.7c2.3,1.3,4.8,2,7.6,2c3.9,0,7.3-1.3,10-3.9c1-1,1.9-1.8,2.7-2.2
		c0.8-0.5,1.7-0.7,2.7-0.7c0.8,0,1.7,0.2,2.7,0.6l7.6,3C61.8,57.3,58.7,61.2,54.4,64z"/>
	<path class="st2" d="M117.8,13.2c1,1,1.6,2.5,1.6,4.5v49.5h-7.9c-2,0-3.5-0.5-4.5-1.6c-1-1-1.6-2.5-1.6-4.5v-15h-22v21h-7.8
		c-2,0-3.5-0.5-4.5-1.6c-1-1-1.6-2.5-1.6-4.5V11.6h7.8c2,0,3.5,0.5,4.5,1.6c1,1,1.6,2.5,1.6,4.5v16.2h21.9V11.6h7.9
		C115.2,11.6,116.7,12.1,117.8,13.2z"/>
	<path class="st2" d="M142.2,33h22.4v5.5c0,2-0.5,3.5-1.6,4.5c-1,1-2.5,1.6-4.5,1.6h-16.3v10.2h22.5c2,0,3.5,0.5,4.5,1.6
		c1,1,1.6,2.5,1.6,4.5v6.3h-42.5V11.6h42.5v6.3c0,2-0.5,3.5-1.6,4.5c-1,1-2.5,1.6-4.5,1.6h-22.5L142.2,33L142.2,33z"/>
	<path class="st2" d="M191.1,65.6c-1,1-2.5,1.6-4.5,1.6h-7.8V11.6H203c7,0,12.4,1.8,16,5.4c3.7,3.6,5.5,8.4,5.5,14.3
		c0,3.8-0.9,7.1-2.7,9.9c-1.8,2.7-4.4,4.8-7.9,6.2l14.7,19.7h-12.1c-1.6,0-3-0.3-4.2-0.9s-2.2-1.6-3.1-2.9l-9.6-13.8h-6.9V61
		C192.7,63,192.2,64.6,191.1,65.6z M203.5,38.5c1.9,0,3.6-0.7,5-2s2.2-3.1,2.2-5.2c0-2.3-0.7-4.1-2.1-5.4c-1.4-1.3-3.1-2-5.1-2
		h-10.8v14.6H203.5z"/>
	<path class="st2" d="M245.1,65.6c-1,1-2.5,1.6-4.5,1.6h-7.8V11.6H257c7,0,12.4,1.8,16,5.4c3.7,3.6,5.5,8.4,5.5,14.3
		c0,3.8-0.9,7.1-2.7,9.9c-1.8,2.7-4.4,4.8-7.9,6.2l14.7,19.7h-12.1c-1.6,0-3-0.3-4.2-0.9s-2.2-1.6-3.1-2.9l-9.6-13.8h-6.9V61
		C246.6,63,246.1,64.6,245.1,65.6z M257.5,38.5c1.9,0,3.6-0.7,5-2s2.2-3.1,2.2-5.2c0-2.3-0.7-4.1-2.1-5.4s-3.1-2-5.1-2h-10.8v14.6
		H257.5z"/>
	<path class="st2" d="M311.2,46.1V61c0,2-0.5,3.5-1.6,4.5c-1,1-2.5,1.6-4.5,1.6h-8v-21L276,11.6h11.4c1.7,0,3.1,0.3,4.2,1
		s2.1,1.7,3,3.2l9.6,16.5l9.7-16.5c0.9-1.5,1.9-2.5,3-3.2s2.5-1,4.2-1h11.8L311.2,46.1z"/>
</g>
<g>
	<path class="st2" d="M409.5,64c-4.3,2.8-9.7,4.1-16.3,4.1c-5.3,0-10.1-1.3-14.6-3.9s-8-6.1-10.6-10.5s-3.9-9.2-3.9-14.3
		s1.3-9.9,3.9-14.3s6.2-7.9,10.6-10.5s9.3-3.9,14.6-3.9c5.9,0,11.1,1.4,15.6,4.2s7.9,6.7,10.4,11.5l-7.8,3.1c-1.1,0.4-2,0.6-2.7,0.6
		c-1,0-1.9-0.2-2.7-0.7c-0.9-0.5-1.8-1.2-2.7-2.2c-2.7-2.6-6-3.9-9.9-3.9c-2.8,0-5.3,0.7-7.6,2c-2.3,1.3-4.1,3.2-5.5,5.7
		c-1.3,2.4-2,5.2-2,8.3s0.7,5.9,2,8.3c1.3,2.4,3.2,4.3,5.5,5.7c2.3,1.3,4.8,2,7.6,2c3.9,0,7.3-1.3,10-3.9c1-1,1.9-1.8,2.7-2.2
		c0.8-0.5,1.7-0.7,2.7-0.7c0.8,0,1.7,0.2,2.7,0.6l7.6,3C417,57.3,413.8,61.2,409.5,64z"/>
	<path class="st2" d="M437,65.6c-1,1-2.5,1.6-4.5,1.6h-7.8V11.6h24.2c7,0,12.4,1.8,16,5.4c3.7,3.6,5.5,8.4,5.5,14.3
		c0,3.8-0.9,7.1-2.7,9.9c-1.8,2.7-4.4,4.8-7.9,6.2l14.7,19.7h-12.1c-1.6,0-3-0.3-4.2-0.9s-2.2-1.6-3.1-2.9l-9.6-13.8h-6.9V61
		C438.6,63,438.1,64.6,437,65.6z M449.4,38.5c1.9,0,3.6-0.7,5-2s2.2-3.1,2.2-5.2c0-2.3-0.7-4.1-2.1-5.4s-3.1-2-5.1-2h-10.8v14.6
		H449.4z"/>
	<path class="st2" d="M492.4,33h22.4v5.5c0,2-0.5,3.5-1.6,4.5c-1,1-2.5,1.6-4.5,1.6h-16.3v10.2h22.5c2,0,3.5,0.5,4.5,1.6
		c1,1,1.6,2.5,1.6,4.5v6.3h-42.5V11.6H521v6.3c0,2-0.5,3.5-1.6,4.5c-1,1-2.5,1.6-4.5,1.6h-22.5L492.4,33L492.4,33z"/>
	<path class="st2" d="M542.7,33h22.4v5.5c0,2-0.5,3.5-1.6,4.5c-1,1-2.5,1.6-4.5,1.6h-16.3v10.2h22.5c2,0,3.5,0.5,4.5,1.6
		c1,1,1.6,2.5,1.6,4.5v6.3h-42.5V11.6h42.5v6.3c0,2-0.5,3.5-1.6,4.5c-1,1-2.5,1.6-4.5,1.6h-22.5L542.7,33L542.7,33z"/>
	<path class="st2" d="M612.6,66.3c-1.2-0.5-2.3-1.4-3.4-2.5l-16-17.5V61c0,2-0.5,3.5-1.6,4.5c-1,1-2.5,1.6-4.5,1.6h-7.9V11.6h7.9
		c2,0,3.5,0.5,4.5,1.6c1,1,1.6,2.5,1.6,4.5v16.9l15.1-19.3c1-1.3,2.1-2.2,3.3-2.8s2.5-0.9,4.1-0.9h12.9l-23.1,28.6l25.6,26.9h-14.3
		C615.2,67.1,613.8,66.9,612.6,66.3z"/>
</g>
<rect x="44.2" y="84.3" class="st3" width="241.7" height="58.9"/>
<g class="st4">
	<path d="M44,140.9c0,0.8-0.2,1.4-0.6,1.7c-0.4,0.3-1,0.5-1.6,0.5c-0.6,0-1.2-0.2-1.6-0.5c-0.4-0.3-0.6-0.9-0.6-1.7v-23.4
		c-0.4,1.3-0.9,2.6-1.4,3.8c-0.5,1.2-1.1,2.5-1.7,3.8c-0.5,1-1,1.6-1.5,1.8c-0.5,0.1-1.1,0-1.7-0.3c-0.7-0.4-1.1-0.9-1.1-1.5
		c-0.1-0.5,0.1-1.3,0.5-2.2c0.7-1.5,1.3-3,1.9-4.5s1.2-3.1,1.7-4.8c0.5-1.7,1.1-3.5,1.6-5.4c0.5-1.9,1-4,1.5-6.3h-4.7
		c-0.7,0-1.2-0.2-1.5-0.6c-0.3-0.4-0.4-0.9-0.4-1.6s0.1-1.2,0.4-1.6c0.3-0.4,0.8-0.6,1.5-0.6h5v-9.8c0-0.9,0.2-1.5,0.6-1.7
		c0.4-0.3,0.9-0.4,1.6-0.4c0.6,0,1.2,0.2,1.6,0.5s0.6,0.9,0.6,1.7v9.8h2.3c0.8,0,1.3,0.2,1.6,0.6c0.3,0.4,0.5,0.9,0.5,1.6
		c0,1.5-0.7,2.2-2,2.2h-2c0.9,2,1.7,3.9,2.4,5.7c0.7,1.8,1.5,3.7,2.3,5.7c0.6,1.5,0.2,2.6-1.1,3.3c-0.7,0.4-1.3,0.4-1.8,0.1
		c-0.5-0.3-0.9-1-1.1-1.9c-0.2-0.4-0.3-0.9-0.5-1.4c-0.1-0.5-0.3-1-0.5-1.4V140.9z M60,103.7c0,0.7,0,1.3-0.1,2
		c0,0.7-0.1,1.3-0.2,1.9c0.5,0.1,0.9,0.3,1.4,0.6c1,0.8,2,1.5,2.9,2.3c0.9,0.8,1.9,1.6,2.8,2.4c0.7,0.6,1.1,1.2,1.4,1.7
		c0.2,0.5,0.1,1.2-0.5,1.8c-0.4,0.5-0.9,0.8-1.5,0.9c0.3,0.4,0.5,0.8,0.5,1.4c0,0.6-0.2,1.3-0.8,2c0,0.1-0.1,0.2-0.2,0.2h21.6
		c1.6,0,2.4,0.7,2.4,2.2c0,1.5-0.8,2.2-2.4,2.2h-5.6c-0.9,1.7-1.9,3.3-3.1,4.7s-2.5,2.7-4,3.8c2.5,0.8,4.9,1.6,7.1,2.4
		c2.2,0.8,4,1.5,5.2,2.1c1.1,0.5,1.8,1,2.1,1.5c0.3,0.5,0.3,1.1,0,1.9c-0.4,0.8-0.9,1.3-1.4,1.4c-0.5,0.1-1.5-0.1-2.7-0.6
		c-2.4-1-4.8-2-7.3-3c-2.4-1-4.9-1.9-7.4-2.7c-2.9,1.6-6.1,2.9-9.5,3.8c-3.4,0.9-6.8,1.5-10.4,1.8c-1.3,0.2-2.2,0.1-2.7-0.3
		c-0.5-0.3-0.8-1-0.8-1.9c-0.1-0.9,0.1-1.5,0.6-1.9c0.5-0.3,1.4-0.5,2.9-0.6c2.4-0.2,4.8-0.5,7.2-1c2.3-0.4,4.6-1.1,6.8-1.9
		c-2.4-0.7-4.9-1.4-7.4-2c-1.3-0.3-2.3-0.7-3-1.1c-0.7-0.5-1.1-1-1.2-1.5c-0.1-0.6-0.1-1.2,0.3-1.8c0.3-0.6,0.8-1.3,1.6-1.9
		c0.3-0.2,0.5-0.5,0.8-0.7c0.2-0.2,0.5-0.4,0.7-0.6h-6.7c-1,0-1.7-0.2-2-0.5c-0.3-0.4-0.4-0.9-0.4-1.7c0-0.8,0.1-1.3,0.4-1.7
		c0.3-0.4,1-0.5,2-0.5h10.9c0.3-0.4,0.6-0.8,1-1.2c0.3-0.4,0.7-0.9,1-1.3c0.4-0.4,0.7-0.8,1-1.2c0.3-0.4,0.7-0.6,1.1-0.7
		c-0.1-0.1-0.2-0.2-0.3-0.3c-0.6-0.6-1.4-1.2-2.3-2c-0.9-0.8-1.9-1.6-3-2.5c-0.6,1.5-1.5,3-2.6,4.3c-1.1,1.3-2.6,2.6-4.3,3.8
		c-0.8,0.5-1.5,0.7-2.1,0.7c-0.6,0-1.2-0.3-1.8-1c-0.8-1.1-0.2-2.4,1.7-3.7c1.3-0.9,2.4-1.7,3.2-2.6c0.8-0.9,1.4-1.7,1.9-2.7
		c0.4-0.9,0.7-1.9,0.9-3c0.1-1.1,0.2-2.4,0.2-3.8v-7c0-1,0.1-1.6,0.4-2c0.3-0.4,0.9-0.6,1.7-0.6c0.9,0,1.5,0.2,1.8,0.6
		c0.3,0.4,0.4,1.1,0.4,2V103.7z M67.2,107c0,0.8-0.2,1.4-0.6,1.7c-0.4,0.3-0.9,0.4-1.5,0.4c-0.7,0-1.2-0.1-1.6-0.4
		c-0.4-0.3-0.6-0.9-0.6-1.7V92.9c0-0.2,0-0.4-0.1-0.5s-0.2-0.2-0.4-0.2h-8.9c-0.3,0-0.5,0.2-0.5,0.6V109c0,0.8-0.2,1.4-0.5,1.7
		c-0.4,0.3-0.9,0.5-1.6,0.5c-0.6,0-1.2-0.2-1.6-0.5c-0.4-0.3-0.6-0.9-0.6-1.7V92.6c0-1,0.1-1.7,0.2-2.3c0.1-0.6,0.4-1,0.8-1.3
		s0.8-0.5,1.4-0.7c0.6-0.1,1.3-0.2,2.2-0.2h9.2c0.8,0,1.5,0.1,2.1,0.2c0.6,0.1,1.1,0.4,1.4,0.7c0.4,0.3,0.6,0.8,0.8,1.4
		c0.2,0.6,0.3,1.4,0.3,2.3V107z M69.7,132.4c1.5-0.9,2.9-2,4.1-3.1c1.2-1.1,2.3-2.5,3.1-3.9h-15c-0.4,0.4-0.8,0.9-1.2,1.3
		c-0.4,0.4-0.9,0.9-1.3,1.3c-0.4,0.4-0.6,0.8-0.5,1.1c0.1,0.3,0.5,0.6,1.2,0.8c1.2,0.3,2.6,0.6,4.2,1
		C66,131.4,67.8,131.9,69.7,132.4z M81.1,103.5c0,1-0.1,1.9-0.1,2.7c-0.1,0.8-0.3,1.7-0.5,2.5c0.4,0.1,0.9,0.4,1.4,0.8
		c2.4,2.1,4.6,4.2,6.5,6.3c0.6,0.7,1,1.3,1,2s-0.3,1.3-0.9,1.8c-0.7,0.5-1.3,0.6-1.8,0.4c-0.5-0.2-1.1-0.6-1.7-1.2
		c-0.8-0.9-1.7-1.9-2.7-3c-1-1.1-2-2-3-3c-0.1-0.1-0.1-0.1-0.2-0.2c0,0-0.1-0.1-0.1-0.1c-1.5,2.5-3.8,4.8-6.8,6.9
		c-0.8,0.5-1.5,0.8-2.2,0.9c-0.7,0.1-1.3-0.3-1.8-1c-0.3-0.5-0.4-1.1-0.1-1.8c0.2-0.7,0.9-1.4,1.9-2.1c1.3-0.8,2.4-1.7,3.3-2.5
		c0.9-0.8,1.5-1.7,2.1-2.6c0.5-0.9,0.9-1.9,1.1-3.1c0.2-1.1,0.3-2.4,0.3-3.8v-6.9c0-1,0.1-1.6,0.4-2c0.3-0.4,0.9-0.6,1.7-0.6
		c0.9,0,1.5,0.2,1.8,0.6c0.3,0.4,0.4,1.1,0.4,2V103.5z M88.7,108.2c0,0.8-0.2,1.4-0.6,1.7c-0.4,0.3-0.9,0.5-1.6,0.5
		c-0.7,0-1.2-0.1-1.6-0.5c-0.4-0.3-0.5-0.9-0.5-1.7V92.9c0-0.4-0.2-0.7-0.5-0.7H73.7c-0.4,0-0.5,0.2-0.5,0.6v15
		c0,0.8-0.2,1.4-0.6,1.7c-0.4,0.3-0.9,0.5-1.5,0.5c-0.7,0-1.2-0.1-1.6-0.5c-0.4-0.3-0.6-0.9-0.6-1.7V92.6c0-1.9,0.3-3.1,1-3.7
		c0.7-0.6,1.9-0.8,3.6-0.8h10.6c0.8,0,1.5,0.1,2.1,0.2c0.6,0.1,1.1,0.4,1.4,0.7c0.4,0.3,0.6,0.8,0.8,1.4c0.2,0.6,0.3,1.4,0.3,2.3
		V108.2z"/>
	<path d="M149.6,97h3.7c0.8,0,1.4,0.2,1.8,0.6c0.3,0.4,0.5,0.9,0.5,1.6c0,1.5-0.8,2.2-2.3,2.2h-3.5c1.5,2.3,2.8,4.5,4,6.5
		c1.2,2,2.4,4.2,3.7,6.5c0.4,0.7,0.6,1.4,0.5,2.1c-0.1,0.7-0.5,1.2-1.2,1.7c-0.8,0.4-1.5,0.5-2.1,0.1c-0.6-0.4-1.1-1.1-1.5-2
		c-0.5-1.2-1.1-2.3-1.7-3.6c-0.6-1.2-1.3-2.4-2-3.6v31.4c0,0.8-0.2,1.4-0.6,1.9c-0.4,0.5-0.9,0.7-1.6,0.7c-1.5,0-2.2-0.9-2.2-2.6
		v-25c-0.5,1.5-1,3-1.6,4.4c-0.6,1.4-1.2,2.8-1.9,4.2c-0.6,1-1.1,1.7-1.6,2c-0.5,0.3-1.1,0.3-1.8,0c-0.8-0.4-1.2-1-1.2-1.7
		c0-0.7,0.2-1.5,0.6-2.5c0.7-1.6,1.4-3.2,2-4.7c0.6-1.5,1.2-3.1,1.8-4.7s1.1-3.3,1.6-5.2c0.5-1.8,1-3.8,1.5-6h-4.3
		c-1.6,0-2.5-0.7-2.5-2.2c0-1.5,0.8-2.2,2.5-2.2h4.9v-8.7c0-0.9,0.2-1.5,0.7-1.9c0.4-0.4,1-0.6,1.7-0.6c1.3,0,2,0.8,2,2.5V97z
		 M156.6,136.8c3.1-1.8,5.4-4.2,6.9-7s2.4-6.5,2.8-10.8c-1.5,1.5-3.1,2.9-4.6,4.1c-1.6,1.2-3.2,2.4-4.9,3.6c-0.9,0.6-1.6,1-2.2,1
		s-1.1-0.3-1.6-1c-0.4-0.6-0.5-1.3-0.3-2c0.2-0.7,1-1.4,2.2-2.2c1.2-0.8,2.2-1.5,3.2-2.2c1-0.7,1.9-1.4,2.8-2.2
		c0.9-0.7,1.8-1.5,2.7-2.4c0.9-0.9,1.8-1.8,2.9-2.9V88.1c0-0.8,0.2-1.4,0.6-1.9c0.4-0.4,0.9-0.7,1.6-0.7c0.7,0,1.2,0.2,1.6,0.6
		c0.4,0.4,0.6,1,0.6,1.9v25.9c0,3.4-0.2,6.4-0.6,9.1c-0.4,2.7-1.1,5.2-2.1,7.4c-1,2.2-2.3,4.2-3.9,6c-1.6,1.8-3.6,3.4-6,4.8
		c-1.2,0.7-2.1,1-2.8,0.8c-0.7-0.2-1.1-0.7-1.4-1.5c-0.2-0.7-0.2-1.3,0.2-1.9C154.6,138.1,155.4,137.5,156.6,136.8z M163.6,106.2
		c0.6,2.1,0.1,3.4-1.6,3.7c-1.3,0.2-2.2-0.6-2.6-2.5c-0.6-2.5-1.2-4.7-1.9-6.7c-0.6-2-1.3-3.8-2.1-5.5c-0.8-1.7-0.5-2.9,0.8-3.7
		c1.3-0.6,2.4-0.1,3.1,1.6c0.5,1.2,0.9,2.3,1.3,3.2s0.7,1.9,1,2.9c0.3,1,0.6,2,0.9,3.1C162.9,103.5,163.2,104.8,163.6,106.2z
		 M179.4,102.1c0.6-0.6,1.2-1.3,1.8-2c0.6-0.7,1.1-1.4,1.7-2.1c0.6-0.7,1.2-1.5,1.8-2.4c0.6-0.9,1.2-1.8,1.9-2.9
		c0.6-0.9,1.2-1.4,1.8-1.5c0.6-0.1,1.1,0,1.7,0.5c0.6,0.4,0.9,0.9,1,1.4s-0.2,1.3-1,2.4c-0.9,1.3-1.8,2.5-2.6,3.5
		c-0.8,1.1-1.6,2.1-2.4,3s-1.7,1.9-2.7,2.9c-0.9,0.9-2,1.9-3.2,3v4.8c2.4,1.8,4.6,3.6,6.5,5.2c1.9,1.6,3.5,3.1,5,4.5
		c0.9,0.9,1.4,1.7,1.5,2.4c0.1,0.7-0.1,1.3-0.5,1.9c-0.4,0.5-1.1,0.7-1.8,0.6c-0.8-0.1-1.6-0.6-2.4-1.6c-0.2-0.3-0.6-0.7-1.2-1.3
		c-0.6-0.6-1.2-1.2-2-1.9c-0.8-0.7-1.6-1.4-2.5-2.2c-0.9-0.8-1.8-1.5-2.6-2.2v13.9c0,1.5,0.3,2.6,0.9,3.3c0.6,0.7,1.8,1.1,3.6,1.2
		c1.2,0.1,2.2,0.1,3.1,0c0.9-0.1,1.6-0.4,2.2-0.8c0.6-0.4,1-1,1.4-1.7c0.3-0.7,0.4-1.7,0.4-3c0-1,0.2-1.8,0.5-2.2s0.8-0.7,1.5-0.8
		c1-0.1,1.7,0.2,2,0.7c0.3,0.5,0.4,1.2,0.4,2.1c0,3.8-0.9,6.5-2.8,8c-1.9,1.5-4.8,2.2-8.6,2.1c-1.6,0-2.9-0.2-4-0.5
		c-1.1-0.3-2-0.8-2.8-1.5c-0.7-0.7-1.3-1.6-1.6-2.8c-0.3-1.2-0.5-2.6-0.5-4.4V87.9c0-0.8,0.2-1.4,0.6-1.8c0.4-0.4,0.9-0.7,1.6-0.7
		c0.7,0,1.2,0.2,1.6,0.6c0.4,0.4,0.6,1,0.6,1.8V102.1z"/>
	<path d="M257.1,114.3c-0.4,0.6-1,0.9-1.6,0.9c-0.6,0-1.4-0.4-2.2-1c-1.4-1.2-2.8-2.3-4.3-3.3c-1.4-1-3-2-4.6-3.1
		c-1.6-1-2-2.1-1.2-3.3c0.4-0.7,0.9-1.1,1.5-1.2c0.5-0.1,1.2,0.1,2,0.6c1.9,1.2,3.6,2.3,5.1,3.4c1.5,1.1,3,2.2,4.4,3.4
		c0.9,0.8,1.4,1.5,1.5,2C257.7,113.1,257.5,113.7,257.1,114.3z M258.3,121.7c-1.4,3.6-2.9,7-4.6,10.1c-1.7,3.1-3.7,6.1-6,9
		c-0.6,0.7-1.1,1.1-1.6,1.3c-0.5,0.1-1.2-0.1-1.8-0.6c-0.6-0.4-0.9-1-1-1.6c0-0.6,0.4-1.4,1.2-2.5c1.8-2.3,3.6-4.9,5.3-8
		c1.7-3,3.2-6.3,4.6-9.8c0.3-0.9,0.7-1.5,1.2-1.7c0.5-0.2,1.1-0.2,1.9,0c0.7,0.2,1.1,0.6,1.3,1.1
		C258.8,119.7,258.7,120.5,258.3,121.7z M258.3,98.3c-0.8,1.2-2.1,1.1-3.7-0.2c-1.4-1.1-2.9-2.2-4.4-3.3c-1.6-1.1-2.9-2-4.1-2.7
		c-0.8-0.5-1.3-1-1.4-1.6c-0.1-0.6,0.1-1.2,0.5-1.8c0.8-1.1,2-1.2,3.5-0.2c1.7,1,3.2,2,4.6,3s2.8,2,4.2,3.1
		C259,95.7,259.3,97,258.3,98.3z M287.8,113.5c-0.8-0.9-1.2-1.6-1.2-2.2c0-0.5,0.3-1.1,0.9-1.8c1-0.8,2.2-0.6,3.4,0.7
		c1.4,1.6,2.6,3.1,3.6,4.5c1.1,1.4,1.9,2.6,2.7,3.7c0.6,0.9,0.9,1.7,0.8,2.3c-0.1,0.6-0.4,1.2-1.1,1.6c-0.6,0.3-1.2,0.4-1.8,0.2
		s-1.2-0.7-1.7-1.6c-0.2-0.2-0.3-0.5-0.5-0.8c-0.2-0.3-0.4-0.6-0.6-0.9l-12,0.8c0.3,0.4,0.4,1.1,0.3,2.1c-0.1,0.4-0.1,0.8-0.2,1.2
		c0,0.4-0.1,0.8-0.2,1.1h17.3c0.8,0,1.4,0.2,1.7,0.6c0.3,0.4,0.5,0.9,0.5,1.6c0,0.7-0.2,1.2-0.5,1.7c-0.3,0.4-0.9,0.6-1.7,0.6h-13.9
		c1.7,1.8,3.7,3.5,6.1,5.1c2.4,1.6,4.8,2.9,7.3,4c1.2,0.5,1.9,1,2.2,1.7c0.3,0.6,0.2,1.4-0.2,2.3c-0.3,0.7-0.8,1-1.4,1.1
		c-0.6,0.1-1.6-0.2-2.8-0.8c-2.8-1.5-5.7-3.3-8.5-5.5c-2.8-2.2-5.4-4.8-7.6-7.7c-1.7,3.3-4.2,6-7.4,8.2c-3.2,2.2-7,3.9-11.5,5.1
		c-1.3,0.4-2.2,0.4-2.8,0.2c-0.6-0.2-0.9-0.7-1.1-1.4c-0.2-0.8-0.1-1.5,0.2-1.9c0.3-0.5,1-0.9,2.1-1.2c3.6-0.9,6.8-2.1,9.4-3.7
		c2.7-1.6,4.7-3.4,6.1-5.4H260c-0.8,0-1.4-0.2-1.7-0.6c-0.3-0.4-0.5-1-0.5-1.7c0-0.6,0.1-1.2,0.4-1.6c0.3-0.4,0.9-0.6,1.7-0.6h15.8
		c0.1-0.4,0.2-0.8,0.2-1.2c0.1-0.4,0.1-0.8,0.2-1.3c0-0.3,0.1-0.6,0.1-0.9c0-0.3,0.1-0.5,0.2-0.8l-13.5,0.8c-0.8,0.1-1.5-0.1-2-0.5
		c-0.5-0.4-0.9-0.9-1-1.5c-0.1-0.6-0.1-1.2,0.2-1.8c0.3-0.6,0.8-1.1,1.5-1.4c2.7-1.2,5.1-2.3,7.4-3.4l-3.7,0.1
		c-0.9,0-1.6-0.2-2.2-0.6c-0.5-0.4-0.8-0.9-1-1.5c-0.1-0.6,0-1.2,0.3-1.8c0.3-0.6,0.8-1.2,1.5-1.6c1.9-1.2,3.6-2.3,5-3.3
		c1.4-1,2.8-2.2,4-3.4c0.6-0.6,1.2-0.9,1.8-1.1c0.6-0.2,1.2,0,1.9,0.5c0.6,0.5,0.8,1,0.8,1.6c-0.1,0.6-0.5,1.3-1.4,2
		c-0.8,0.7-1.8,1.5-2.9,2.4c-1.1,0.9-2.2,1.7-3.4,2.4l7.7,0.1c1.4-0.8,2.7-1.5,3.9-2.2c1.2-0.7,2.4-1.5,3.5-2.3
		c0.9-0.6,1.7-0.9,2.4-0.9c0.7,0,1.2,0.3,1.6,0.9c0.3,0.5,0.5,1,0.4,1.6c-0.1,0.6-0.5,1.1-1.3,1.7c-2.5,1.7-5.2,3.3-8.2,4.8
		s-6.1,3.1-9.6,4.7l18.9-1.3c-0.2-0.3-0.5-0.6-0.7-0.9C288.3,114,288,113.7,287.8,113.5z M268.9,99.4c0.4,0.7,0.7,1.4,0.7,2.1
		c0,0.7-0.3,1.3-1,1.7c-0.6,0.4-1.2,0.5-1.8,0.3c-0.6-0.2-1.1-0.7-1.6-1.7c-0.6-1-1.1-1.8-1.5-2.4s-0.9-1.3-1.5-2.1
		c-0.7-0.8-1.1-1.4-1.2-1.9c-0.1-0.5,0-0.9,0.2-1.3c-0.7-0.1-1.1-0.3-1.4-0.7c-0.2-0.3-0.4-0.8-0.4-1.3c0-0.9,0.3-1.6,0.9-2
		c0.6-0.4,1.5-0.6,2.8-0.6c5.2,0,10.3-0.3,15.2-0.8s9.3-1.3,13.1-2.2c1.5-0.4,2.5-0.5,3.1-0.3c0.6,0.2,1,0.7,1.1,1.4
		c0.2,0.7,0.1,1.2-0.1,1.6c-0.3,0.4-0.9,0.8-1.8,1.1l0.4,0.2c0.7,0.4,1,0.9,1.1,1.5c0.1,0.6-0.2,1.5-0.8,2.5
		c-0.7,1.1-1.3,2.1-1.9,2.9c-0.6,0.9-1.3,1.8-2.1,2.8c-1,1.2-1.9,1.8-2.5,1.9c-0.6,0.1-1.3-0.2-1.9-0.7c-0.5-0.5-0.7-1-0.7-1.6
		c0-0.6,0.5-1.4,1.4-2.3c0.8-0.8,1.4-1.6,2-2.3c0.5-0.8,1.1-1.7,1.8-2.9c0.3-0.6,0.6-1,1-1.3c-2,0.4-4.1,0.8-6.3,1.1
		c-2.2,0.4-4.6,0.7-7,1c0.5,0.7,1.1,1.5,1.6,2.3c0.5,0.9,1.1,1.8,1.8,2.7c0.6,0.9,0.8,1.6,0.9,2.2c0,0.6-0.4,1.2-1.1,1.7
		c-0.6,0.4-1.1,0.5-1.7,0.2c-0.6-0.3-1.2-0.8-1.7-1.7c-0.9-1.6-1.9-3.1-3.1-4.6c-0.8-1-1.1-1.8-1.1-2.4c-1.5,0.1-3,0.2-4.4,0.3
		c-1.5,0.1-3,0.2-4.4,0.3c0.6,0.7,1.3,1.6,1.9,2.5C267.7,97.6,268.3,98.5,268.9,99.4z"/>
</g>
<rect x="438.6" y="84.3" class="st3" width="241.7" height="58.9"/>
<g class="st4">
	<path d="M497.2,123.1c0.8,0,1.4,0.2,1.7,0.6c0.3,0.4,0.5,1,0.5,1.7c0,0.7-0.2,1.2-0.5,1.7c-0.3,0.4-0.9,0.6-1.7,0.6h-15.4
		c0.4,1.4,0.6,2.7,0.6,3.9c-0.1,2-0.4,3.7-0.8,5.1c-0.5,1.4-1.2,2.6-2.2,3.6c-1,0.9-2.3,1.6-3.9,2c-1.6,0.4-3.6,0.5-5.9,0.4
		c-1.8-0.1-3.7-0.3-5.8-0.7c-2.1-0.4-4.5-1.1-7.3-2.1c-1.2-0.4-2-1-2.3-1.5c-0.3-0.6-0.3-1.3,0.1-2c0.3-0.8,0.8-1.3,1.3-1.5
		s1.5-0.1,2.6,0.4c2.6,0.9,4.8,1.6,6.6,2c1.8,0.4,3.4,0.6,4.9,0.7c2.1,0.1,3.8-0.2,5-0.9c1.3-0.7,2-1.4,2.2-2.3
		c0.8-2.7,0.6-5-0.6-7.1h-30.7c-0.8,0-1.4-0.2-1.7-0.6c-0.4-0.4-0.5-1-0.5-1.7c0-1.5,0.8-2.3,2.3-2.3h25.4c-0.7-0.3-1.4-0.6-2.1-0.9
		s-1.5-0.6-2.3-0.9c-0.8-0.3-1.4-0.7-1.7-1.1c-0.3-0.5-0.4-1-0.3-1.5s0.4-1.1,0.9-1.6c0.5-0.5,1.1-0.9,1.9-1.2
		c1.6-0.6,3.2-1.1,4.9-1.6s3.5-1,5.3-1.5c0.6-0.2,1-0.3,1.1-0.4s-0.3-0.1-1.1-0.1h-24.6c-1.5,0-2.2-0.8-2.2-2.3
		c0-1.4,0.7-2.2,2.2-2.2h32.6c1.6,0,2.7,0.4,3.4,1.1c0.7,0.7,1,1.6,1,2.5c0,0.7-0.2,1.3-0.7,1.9c-0.5,0.6-1.3,1-2.3,1.4
		c-2.4,0.6-4.8,1.2-7,1.9c-2.2,0.7-4.5,1.3-6.7,2.1c-0.5,0.2-0.8,0.3-0.8,0.4c0,0.1,0.2,0.2,0.7,0.4c1.2,0.5,2.2,1,3.1,1.7
		c0.9,0.6,1.8,1.3,2.5,2H497.2z M492.2,99c1.8,0,3.2,0.4,4.2,1c1,0.7,1.5,1.9,1.5,3.6c0,0.9-0.2,2-0.5,3.2c-0.3,1.2-0.8,2.6-1.6,4.3
		c-0.5,1.1-1.1,1.8-1.8,2.1c-0.7,0.3-1.5,0.1-2.3-0.3c-0.7-0.4-1-0.8-1-1.3c0-0.5,0.2-1.3,0.6-2.3c0.4-1,0.8-1.9,1.1-2.7
		c0.3-0.9,0.5-1.6,0.6-2.1c0.2-0.6-0.5-1-1.9-1h-41c-0.4,0-0.7,0.2-1,0.5s-0.4,0.7-0.4,1.2v7.7c0,0.8-0.2,1.4-0.7,1.7
		s-1,0.5-1.7,0.5c-0.7,0-1.3-0.1-1.7-0.5c-0.4-0.3-0.6-0.9-0.6-1.8v-8.1c0-3.8,1.8-5.7,5.5-5.7h31.2c1.6-2,2.9-3.8,3.9-5.4
		c1-1.6,2-3.3,2.9-5.1c1-2.1,2.2-2.9,3.6-2.3c0.9,0.4,1.4,0.8,1.6,1.4c0.1,0.6-0.1,1.5-0.7,2.6c-0.9,1.7-1.8,3.2-2.6,4.6
		c-0.8,1.4-1.7,2.8-2.8,4.2H492.2z M453.3,88.1c1,1.2,1.9,2.2,2.6,3.1c0.7,0.9,1.5,1.9,2.3,3.1c0.7,1,1,1.9,0.8,2.6
		c-0.1,0.7-0.5,1.2-1.2,1.5c-0.7,0.3-1.3,0.4-1.9,0.2c-0.6-0.2-1.2-0.7-1.8-1.7c-0.6-0.9-1.3-1.8-2-2.8c-0.7-0.9-1.5-1.9-2.3-3
		c-0.7-0.8-1.1-1.5-1.1-2.1c-0.1-0.6,0.2-1.2,0.7-1.7c0.6-0.6,1.2-0.8,1.9-0.7C451.9,86.7,452.6,87.2,453.3,88.1z M473.8,93.8
		c0.6,1.1,1,2.1,1,2.8s-0.4,1.3-1.3,1.6c-0.8,0.3-1.4,0.3-1.9,0c-0.5-0.3-1.1-1-1.8-2c-0.7-1.1-1.3-2.1-2-3.2
		c-0.7-1-1.4-2.1-2.1-3.3c-0.7-1-1-1.8-1.1-2.4c-0.1-0.6,0.2-1.1,0.9-1.6c0.6-0.4,1.2-0.6,1.8-0.5s1.4,0.7,2.2,1.7
		c0.9,1.2,1.7,2.3,2.3,3.3S473.1,92.6,473.8,93.8z"/>
	<path d="M601.2,136.9c0.8,0,1.4,0.2,1.8,0.5c0.4,0.3,0.6,0.9,0.6,1.7c0,1.5-0.8,2.3-2.3,2.3H551c-1.6,0-2.5-0.8-2.5-2.3
		c0-0.8,0.2-1.4,0.6-1.7c0.4-0.3,1-0.5,1.9-0.5h22.6v-6.2h-19.7c-0.8,0-1.4-0.2-1.7-0.5c-0.3-0.4-0.5-0.9-0.5-1.7
		c0-0.7,0.2-1.3,0.5-1.7c0.3-0.4,0.9-0.6,1.7-0.6h19.7v-3.9c0-0.7,0.2-1.2,0.7-1.5c0.4-0.3,1-0.5,1.7-0.5c0.6,0,1.1,0.2,1.6,0.5
		c0.5,0.3,0.7,0.8,0.7,1.5v3.9h19.8c0.8,0,1.4,0.2,1.7,0.6c0.3,0.4,0.5,1,0.5,1.7c0,0.8-0.2,1.3-0.5,1.7c-0.3,0.4-0.9,0.5-1.7,0.5
		h-19.8v6.2H601.2z M560.4,95.6c-0.6-0.9-1.2-1.8-1.6-2.5c-0.5-0.8-1-1.4-1.4-2c-0.4-0.5-0.6-1.1-0.8-1.7c-0.2-0.7,0-1.3,0.7-1.9
		c0.5-0.5,1.1-0.7,1.7-0.6c0.6,0.1,1.2,0.4,1.6,1c0.7,1,1.4,1.9,1.9,2.7c0.6,0.9,1.1,1.8,1.7,2.7c0.6,1,0.9,1.8,0.7,2.4h8.9v-8.2
		c0-0.8,0.2-1.3,0.7-1.7c0.4-0.3,1-0.5,1.7-0.5c0.6,0,1.1,0.2,1.6,0.5c0.5,0.3,0.7,0.9,0.7,1.7v8.2h8.1c1-1.1,1.8-2.2,2.4-3.2
		c0.7-1,1.3-2.2,1.9-3.5c0.4-0.7,0.8-1.2,1.4-1.6c0.6-0.3,1.3-0.3,2.1,0.2c1.4,0.7,1.5,2,0.5,3.8c-0.5,0.8-1,1.6-1.4,2.3
		c-0.5,0.7-0.9,1.4-1.4,2h4.9c1.1,0,2.1,0.2,2.9,0.5s1.6,0.8,2.2,1.5c0.6,0.7,1,1.5,1.3,2.4s0.2,2,0,3.2c-0.4,2.2-1,4.1-1.9,5.9
		c-0.4,0.8-0.9,1.4-1.3,1.8s-1,0.4-1.8,0c-0.8-0.3-1.3-0.8-1.4-1.3c-0.2-0.5-0.1-1.2,0.2-1.9c0.5-1.2,0.8-2.1,1.1-2.8
		c0.3-0.7,0.4-1.5,0.5-2.1c0.1-0.8,0-1.4-0.3-1.8c-0.3-0.5-0.6-0.7-1-0.7h-43.2c-0.2,0-0.4,0.1-0.6,0.3c-0.2,0.2-0.2,0.4-0.2,0.6
		v7.9c0,0.8-0.2,1.2-0.7,1.4c-0.4,0.2-1,0.3-1.7,0.3c-0.8,0-1.4-0.1-1.7-0.3c-0.4-0.2-0.5-0.6-0.5-1.4v-8.2c0-1.7,0.4-3,1.3-3.8
		s2.3-1.3,4.4-1.3L560.4,95.6L560.4,95.6z M563,119.5c-1.2,0-2.1-0.1-2.8-0.2c-0.7-0.1-1.3-0.4-1.7-0.8c-0.4-0.4-0.7-0.9-0.9-1.6
		c-0.2-0.7-0.2-1.7-0.2-2.8v-4.6c0-1.1,0.1-2,0.2-2.7c0.2-0.7,0.5-1.2,0.9-1.6s1-0.7,1.7-0.8c0.7-0.1,1.7-0.2,2.8-0.2h25.7
		c1.2,0,2.2,0.1,2.9,0.2c0.8,0.2,1.3,0.5,1.7,0.9c0.4,0.4,0.7,1,0.8,1.6c0.1,0.7,0.2,1.6,0.2,2.6v4.6c0,1.2-0.1,2.1-0.2,2.8
		c-0.2,0.7-0.5,1.3-0.9,1.7c-0.4,0.4-1,0.7-1.8,0.8c-0.7,0.1-1.7,0.2-2.8,0.2H563z M589.7,109.4c0-0.5-0.4-0.8-1.1-0.8h-25.5
		c-0.3,0-0.6,0.1-0.9,0.2c-0.3,0.1-0.4,0.3-0.4,0.6v4.9c0,0.5,0.4,0.8,1.1,0.8h25.7c0.3,0,0.6-0.1,0.8-0.2c0.2-0.2,0.3-0.3,0.3-0.5
		V109.4z"/>
</g>
</svg>
