<svg version="1.1" width="600" height="455" xmlns="http://www.w3.org/2000/svg" >
<defs><marker id="arrowhead" markerWidth="10" markerHeight="7" refX="0" refY="3.5" orient="auto"><polygon points="0 0, 10 3.5, 0 7" /></marker></defs>

<text x="20" y="30" style="font-size:23px;font-family:'Arial'">十进制(Decimal)</text>
<text x="230" y="30" style="font-size:23px;font-family:'Arial'">二进制(Binary)</text>
<text x="430" y="30" style="font-size:23px;font-family:'Arial'">十六进制(Hex)</text>
<path d="M 20 45 H 580" stroke="#000000" stroke-width="1" fill="none"/>
<path d="M 20 452 H 580" stroke="#000000" stroke-width="1" fill="none"/>

<text x="150" y="70" style="font-size:23px;font-family:'Arial'">00</text>
<text x="150" y="95" style="font-size:23px;font-family:'Arial'">01</text>
<text x="150" y="120" style="font-size:23px;font-family:'Arial'">02</text>
<text x="150" y="145" style="font-size:23px;font-family:'Arial'">03</text>
<text x="150" y="170" style="font-size:23px;font-family:'Arial'">04</text>
<text x="150" y="195" style="font-size:23px;font-family:'Arial'">05</text>
<text x="150" y="220" style="font-size:23px;font-family:'Arial'">06</text>
<text x="150" y="245" style="font-size:23px;font-family:'Arial'">07</text>
<text x="150" y="270" style="font-size:23px;font-family:'Arial'">08</text>
<text x="150" y="295" style="font-size:23px;font-family:'Arial'">09</text>
<text x="150" y="320" style="font-size:23px;font-family:'Arial'">10</text>
<text x="150" y="345" style="font-size:23px;font-family:'Arial'">11</text>
<text x="150" y="370" style="font-size:23px;font-family:'Arial'">12</text>
<text x="150" y="395" style="font-size:23px;font-family:'Arial'">13</text>
<text x="150" y="420" style="font-size:23px;font-family:'Arial'">14</text>
<text x="150" y="445" style="font-size:23px;font-family:'Arial'">15</text>

<text x="270" y="70" style="font-size:23px;font-family:'Arial'">0 0 0 0</text>
<text x="270" y="95" style="font-size:23px;font-family:'Arial'">0 0 0 1</text>
<text x="270" y="120" style="font-size:23px;font-family:'Arial'">0 0 1 0</text>
<text x="270" y="145" style="font-size:23px;font-family:'Arial'">0 0 1 1</text>
<text x="270" y="170" style="font-size:23px;font-family:'Arial'">0 1 0 0</text>
<text x="270" y="195" style="font-size:23px;font-family:'Arial'">0 1 0 1</text>
<text x="270" y="220" style="font-size:23px;font-family:'Arial'">0 1 1 0</text>
<text x="270" y="245" style="font-size:23px;font-family:'Arial'">0 1 1 1</text>
<text x="270" y="270" style="font-size:23px;font-family:'Arial'">1 0 0 0</text>
<text x="270" y="295" style="font-size:23px;font-family:'Arial'">1 0 0 1</text>
<text x="270" y="320" style="font-size:23px;font-family:'Arial'">1 0 1 0</text>
<text x="270" y="345" style="font-size:23px;font-family:'Arial'">1 0 1 1</text>
<text x="270" y="370" style="font-size:23px;font-family:'Arial'">1 1 0 0</text>
<text x="270" y="395" style="font-size:23px;font-family:'Arial'">1 1 0 1</text>
<text x="270" y="420" style="font-size:23px;font-family:'Arial'">1 1 1 0</text>
<text x="270" y="445" style="font-size:23px;font-family:'Arial'">1 1 1 1</text>

<text x="450" y="70" style="font-size:23px;font-family:'Arial'">0</text>
<text x="450" y="95" style="font-size:23px;font-family:'Arial'">1</text>
<text x="450" y="120" style="font-size:23px;font-family:'Arial'">2</text>
<text x="450" y="145" style="font-size:23px;font-family:'Arial'">3</text>
<text x="450" y="170" style="font-size:23px;font-family:'Arial'">4</text>
<text x="450" y="195" style="font-size:23px;font-family:'Arial'">5</text>
<text x="450" y="220" style="font-size:23px;font-family:'Arial'">6</text>
<text x="450" y="245" style="font-size:23px;font-family:'Arial'">7</text>
<text x="450" y="270" style="font-size:23px;font-family:'Arial'">8</text>
<text x="450" y="295" style="font-size:23px;font-family:'Arial'">9</text>
<text x="450" y="320" style="font-size:23px;font-family:'Arial'">A</text>
<text x="450" y="345" style="font-size:23px;font-family:'Arial'">B</text>
<text x="450" y="370" style="font-size:23px;font-family:'Arial'">C</text>
<text x="450" y="395" style="font-size:23px;font-family:'Arial'">D</text>
<text x="450" y="420" style="font-size:23px;font-family:'Arial'">E</text>
<text x="450" y="445" style="font-size:23px;font-family:'Arial'">F</text>

</svg>
