<svg version="1.1" width="600" height="180" xmlns="http://www.w3.org/2000/svg" >
<defs><marker id="arrowhead" markerWidth="10" markerHeight="7" refX="0" refY="3.5" orient="auto"><polygon points="0 0, 10 3.5, 0 7" /></marker></defs>

<path d="M 140 60 h 320 v 40 h -320 v -40" stroke="#000000" stroke-width="1" fill="none"/>
<path d="M 180 60 v 40" stroke="#000000" stroke-width="1" fill="none"/>
<path d="M 220 60 v 40" stroke="#000000" stroke-width="1" fill="none"/>
<path d="M 260 60 v 40" stroke="#000000" stroke-width="1" fill="none"/>
<path d="M 300 60 v 40" stroke="#000000" stroke-width="1" fill="none"/>
<path d="M 340 60 v 40" stroke="#000000" stroke-width="1" fill="none"/>
<path d="M 380 60 v 40" stroke="#000000" stroke-width="1" fill="none"/>
<path d="M 420 60 v 40" stroke="#000000" stroke-width="1" fill="none"/>

<path d="M 140 105 v 5 a 5 5 0 0 0 5 5 h 150 a 5 5 0 0 1 5 5 a 5 5 0 0 1 5 -5 h 150 a 5 5 0 0 0 5 -5 v -5" stroke="#000000" stroke-width="1" fill="none"/>
<text x="220" y="140" style="font-size:19px;font-family:'Microsoft Yahei UI'">一个字节(one byte)</text>

<text x="142" y="55" style="font-size:13px;font-family:'Arial'">7</text>
<text x="182" y="55" style="font-size:13px;font-family:'Arial'">6</text>
<text x="222" y="55" style="font-size:13px;font-family:'Arial'">5</text>
<text x="262" y="55" style="font-size:13px;font-family:'Arial'">4</text>
<text x="302" y="55" style="font-size:13px;font-family:'Arial'">3</text>
<text x="342" y="55" style="font-size:13px;font-family:'Arial'">2</text>
<text x="382" y="55" style="font-size:13px;font-family:'Arial'">1</text>
<text x="422" y="55" style="font-size:13px;font-family:'Arial'">0</text>

<text x="152" y="90" style="font-size:31px;font-family:'Arial'">0</text>
<text x="192" y="90" style="font-size:31px;font-family:'Arial'">1</text>
<text x="232" y="90" style="font-size:31px;font-family:'Arial'">1</text>
<text x="272" y="90" style="font-size:31px;font-family:'Arial'">1</text>
<text x="312" y="90" style="font-size:31px;font-family:'Arial'">0</text>
<text x="352" y="90" style="font-size:31px;font-family:'Arial'">0</text>
<text x="392" y="90" style="font-size:31px;font-family:'Arial'">1</text>
<text x="432" y="90" style="font-size:31px;font-family:'Arial'">0</text>

<path d="M 160 30 V 48" stroke="#000000" stroke-width="1" fill="none" marker-end="url(#arrowhead)" />
<text x="100" y="25" style="font-size:15px;font-family:'Microsoft Yahei UI'">一个比特(one bit)</text>

</svg>
