<svg version="1.1" width="600" height="380" xmlns="http://www.w3.org/2000/svg" >
<defs><marker id="arrowhead" markerWidth="10" markerHeight="7" refX="0" refY="3.5" orient="auto"><polygon points="0 0, 10 3.5, 0 7" /></marker></defs>

<g transform="translate(0, 0)">
<path d="M 180 10 h 240 v 30 h -240 v -30" stroke="#000000" stroke-width="1" fill="none"/>
<path d="M 210 10 v 30" stroke="#000000" stroke-width="1" fill="none"/>
<path d="M 240 10 v 30" stroke="#000000" stroke-width="1" fill="none"/>
<path d="M 270 10 v 30" stroke="#000000" stroke-width="1" fill="none"/>
<path d="M 300 10 v 30" stroke="#000000" stroke-width="1" fill="none"/>
<path d="M 330 10 v 30" stroke="#000000" stroke-width="1" fill="none"/>
<path d="M 360 10 v 30" stroke="#000000" stroke-width="1" fill="none"/>
<path d="M 390 10 v 30" stroke="#000000" stroke-width="1" fill="none"/>
<text x="188" y="32" style="font-size:21px;font-family:'Arial'">0</text>
<text x="218" y="32" style="font-size:21px;font-family:'Arial'">0</text>
<text x="248" y="32" style="font-size:21px;font-family:'Arial'">0</text>
<text x="278" y="32" style="font-size:21px;font-family:'Arial'">0</text>
<text x="308" y="32" style="font-size:21px;font-family:'Arial'">0</text>
<text x="338" y="32" style="font-size:21px;font-family:'Arial'">0</text>
<text x="368" y="32" style="font-size:21px;font-family:'Arial'">0</text>
<text x="398" y="32" style="font-size:21px;font-family:'Arial'">0</text>
<text x="430" y="32" style="font-size:21px;font-family:'Arial'">0</text>
</g>
<g transform="translate(0, 40)">
<path d="M 180 10 h 240 v 30 h -240 v -30" stroke="#000000" stroke-width="1" fill="none"/>
<path d="M 210 10 v 30" stroke="#000000" stroke-width="1" fill="none"/>
<path d="M 240 10 v 30" stroke="#000000" stroke-width="1" fill="none"/>
<path d="M 270 10 v 30" stroke="#000000" stroke-width="1" fill="none"/>
<path d="M 300 10 v 30" stroke="#000000" stroke-width="1" fill="none"/>
<path d="M 330 10 v 30" stroke="#000000" stroke-width="1" fill="none"/>
<path d="M 360 10 v 30" stroke="#000000" stroke-width="1" fill="none"/>
<path d="M 390 10 v 30" stroke="#000000" stroke-width="1" fill="none"/>

<text x="188" y="32" style="font-size:21px;font-family:'Arial'">0</text>
<text x="218" y="32" style="font-size:21px;font-family:'Arial'">0</text>
<text x="248" y="32" style="font-size:21px;font-family:'Arial'">0</text>
<text x="278" y="32" style="font-size:21px;font-family:'Arial'">0</text>
<text x="308" y="32" style="font-size:21px;font-family:'Arial'">0</text>
<text x="338" y="32" style="font-size:21px;font-family:'Arial'">0</text>
<text x="368" y="32" style="font-size:21px;font-family:'Arial'">0</text>
<text x="398" y="32" style="font-size:21px;font-family:'Arial'">1</text>
<text x="430" y="32" style="font-size:21px;font-family:'Arial'">1</text>
</g>
<g transform="translate(0, 80)">
<path d="M 180 10 h 240 v 30 h -240 v -30" stroke="#000000" stroke-width="1" fill="none"/>
<path d="M 210 10 v 30" stroke="#000000" stroke-width="1" fill="none"/>
<path d="M 240 10 v 30" stroke="#000000" stroke-width="1" fill="none"/>
<path d="M 270 10 v 30" stroke="#000000" stroke-width="1" fill="none"/>
<path d="M 300 10 v 30" stroke="#000000" stroke-width="1" fill="none"/>
<path d="M 330 10 v 30" stroke="#000000" stroke-width="1" fill="none"/>
<path d="M 360 10 v 30" stroke="#000000" stroke-width="1" fill="none"/>
<path d="M 390 10 v 30" stroke="#000000" stroke-width="1" fill="none"/>

<text x="188" y="32" style="font-size:21px;font-family:'Arial'">0</text>
<text x="218" y="32" style="font-size:21px;font-family:'Arial'">0</text>
<text x="248" y="32" style="font-size:21px;font-family:'Arial'">0</text>
<text x="278" y="32" style="font-size:21px;font-family:'Arial'">0</text>
<text x="308" y="32" style="font-size:21px;font-family:'Arial'">0</text>
<text x="338" y="32" style="font-size:21px;font-family:'Arial'">0</text>
<text x="368" y="32" style="font-size:21px;font-family:'Arial'">1</text>
<text x="398" y="32" style="font-size:21px;font-family:'Arial'">0</text>
<text x="430" y="32" style="font-size:21px;font-family:'Arial'">2</text>
</g>
<g transform="translate(0, 120)">
<path d="M 180 10 h 240 v 30 h -240 v -30" stroke="#000000" stroke-width="1" fill="none"/>
<path d="M 210 10 v 30" stroke="#000000" stroke-width="1" fill="none"/>
<path d="M 240 10 v 30" stroke="#000000" stroke-width="1" fill="none"/>
<path d="M 270 10 v 30" stroke="#000000" stroke-width="1" fill="none"/>
<path d="M 300 10 v 30" stroke="#000000" stroke-width="1" fill="none"/>
<path d="M 330 10 v 30" stroke="#000000" stroke-width="1" fill="none"/>
<path d="M 360 10 v 30" stroke="#000000" stroke-width="1" fill="none"/>
<path d="M 390 10 v 30" stroke="#000000" stroke-width="1" fill="none"/>

<text x="188" y="32" style="font-size:21px;font-family:'Arial'">0</text>
<text x="218" y="32" style="font-size:21px;font-family:'Arial'">0</text>
<text x="248" y="32" style="font-size:21px;font-family:'Arial'">0</text>
<text x="278" y="32" style="font-size:21px;font-family:'Arial'">0</text>
<text x="308" y="32" style="font-size:21px;font-family:'Arial'">0</text>
<text x="338" y="32" style="font-size:21px;font-family:'Arial'">0</text>
<text x="368" y="32" style="font-size:21px;font-family:'Arial'">1</text>
<text x="398" y="32" style="font-size:21px;font-family:'Arial'">1</text>
<text x="430" y="32" style="font-size:21px;font-family:'Arial'">3</text>
</g>
<text x="260" y="200" style="font-size:48px;font-family:'Microsoft Yahei UI'">......</text>
<g transform="translate(0, 220)">
<path d="M 180 10 h 240 v 30 h -240 v -30" stroke="#000000" stroke-width="1" fill="none"/>
<path d="M 210 10 v 30" stroke="#000000" stroke-width="1" fill="none"/>
<path d="M 240 10 v 30" stroke="#000000" stroke-width="1" fill="none"/>
<path d="M 270 10 v 30" stroke="#000000" stroke-width="1" fill="none"/>
<path d="M 300 10 v 30" stroke="#000000" stroke-width="1" fill="none"/>
<path d="M 330 10 v 30" stroke="#000000" stroke-width="1" fill="none"/>
<path d="M 360 10 v 30" stroke="#000000" stroke-width="1" fill="none"/>
<path d="M 390 10 v 30" stroke="#000000" stroke-width="1" fill="none"/>

<text x="188" y="32" style="font-size:21px;font-family:'Arial'">1</text>
<text x="218" y="32" style="font-size:21px;font-family:'Arial'">1</text>
<text x="248" y="32" style="font-size:21px;font-family:'Arial'">1</text>
<text x="278" y="32" style="font-size:21px;font-family:'Arial'">1</text>
<text x="308" y="32" style="font-size:21px;font-family:'Arial'">1</text>
<text x="338" y="32" style="font-size:21px;font-family:'Arial'">1</text>
<text x="368" y="32" style="font-size:21px;font-family:'Arial'">1</text>
<text x="398" y="32" style="font-size:21px;font-family:'Arial'">1</text>
<text x="430" y="32" style="font-size:21px;font-family:'Arial'">255</text>
</g>
<g transform="translate(0, 260)">
<path d="M 180 10 h 240 v 30 h -240 v -30" stroke="#000000" stroke-width="1" fill="none"/>
<path d="M 210 10 v 30" stroke="#000000" stroke-width="1" fill="none"/>
<path d="M 240 10 v 30" stroke="#000000" stroke-width="1" fill="none"/>
<path d="M 270 10 v 30" stroke="#000000" stroke-width="1" fill="none"/>
<path d="M 300 10 v 30" stroke="#000000" stroke-width="1" fill="none"/>
<path d="M 330 10 v 30" stroke="#000000" stroke-width="1" fill="none"/>
<path d="M 360 10 v 30" stroke="#000000" stroke-width="1" fill="none"/>
<path d="M 390 10 v 30" stroke="#000000" stroke-width="1" fill="none"/>
<text x="158" y="32" style="font-size:21px;font-family:'Arial'">1</text>
<text x="188" y="32" style="font-size:21px;font-family:'Arial'">0</text>
<text x="218" y="32" style="font-size:21px;font-family:'Arial'">0</text>
<text x="248" y="32" style="font-size:21px;font-family:'Arial'">0</text>
<text x="278" y="32" style="font-size:21px;font-family:'Arial'">0</text>
<text x="308" y="32" style="font-size:21px;font-family:'Arial'">0</text>
<text x="338" y="32" style="font-size:21px;font-family:'Arial'">0</text>
<text x="368" y="32" style="font-size:21px;font-family:'Arial'">0</text>
<text x="398" y="32" style="font-size:21px;font-family:'Arial'">0</text>
<text x="430" y="32" style="font-size:21px;font-family:'Arial'">0</text>
</g>
</svg>
