<svg version="1.1" width="600" height="600" xmlns="http://www.w3.org/2000/svg" >
<defs><marker id="arrowhead" markerWidth="10" markerHeight="7" refX="0" refY="3.5" orient="auto"><polygon points="0 0, 10 3.5, 0 7" /></marker></defs>

<g transform="translate(0, 0)">
<path d="M 100 10 h 400 v 20 h -400 v -20" stroke="#000000" stroke-width="1" fill="none"/>
<path d="M 150 10 v 20" stroke="#000000" stroke-width="1" fill="none"/>
<path d="M 200 10 v 20" stroke="#000000" stroke-width="1" fill="none"/>
<path d="M 250 10 v 20" stroke="#000000" stroke-width="1" fill="none"/>
<path d="M 300 10 v 20" stroke="#000000" stroke-width="1" fill="none"/>
<path d="M 350 10 v 20" stroke="#000000" stroke-width="1" fill="none"/>
<path d="M 400 10 v 20" stroke="#000000" stroke-width="1" fill="none"/>
<path d="M 450 10 v 20" stroke="#000000" stroke-width="1" fill="none"/>
<text x="75" y="25" style="font-size:15px;font-family:'Arial'">$0:</text>
</g>

<g transform="translate(0, 30)">
<path d="M 100 10 h 400 v 20 h -400 v -20" stroke="#000000" stroke-width="1" fill="none"/>
<path d="M 150 10 v 20" stroke="#000000" stroke-width="1" fill="none"/>
<path d="M 200 10 v 20" stroke="#000000" stroke-width="1" fill="none"/>
<path d="M 250 10 v 20" stroke="#000000" stroke-width="1" fill="none"/>
<path d="M 300 10 v 20" stroke="#000000" stroke-width="1" fill="none"/>
<path d="M 350 10 v 20" stroke="#000000" stroke-width="1" fill="none"/>
<path d="M 400 10 v 20" stroke="#000000" stroke-width="1" fill="none"/>
<path d="M 450 10 v 20" stroke="#000000" stroke-width="1" fill="none"/>
<text x="75" y="25" style="font-size:15px;font-family:'Arial'">$1:</text>
</g>

<g transform="translate(0, 60)">
<path d="M 100 10 h 400 v 20 h -400 v -20" stroke="#000000" stroke-width="1" fill="none"/>
<path d="M 150 10 v 20" stroke="#000000" stroke-width="1" fill="none"/>
<path d="M 200 10 v 20" stroke="#000000" stroke-width="1" fill="none"/>
<path d="M 250 10 v 20" stroke="#000000" stroke-width="1" fill="none"/>
<path d="M 300 10 v 20" stroke="#000000" stroke-width="1" fill="none"/>
<path d="M 350 10 v 20" stroke="#000000" stroke-width="1" fill="none"/>
<path d="M 400 10 v 20" stroke="#000000" stroke-width="1" fill="none"/>
<path d="M 450 10 v 20" stroke="#000000" stroke-width="1" fill="none"/>
<text x="75" y="25" style="font-size:15px;font-family:'Arial'">$2:</text>
</g>

<g transform="translate(0, 120)">
<path d="M 100 10 h 400 v 20 h -400 v -20" stroke="#000000" stroke-width="1" fill="none"/>
<path d="M 150 10 v 20" stroke="#000000" stroke-width="1" fill="none"/>
<path d="M 200 10 v 20" stroke="#000000" stroke-width="1" fill="none"/>
<path d="M 250 10 v 20" stroke="#000000" stroke-width="1" fill="none"/>
<path d="M 300 10 v 20" stroke="#000000" stroke-width="1" fill="none"/>
<path d="M 350 10 v 20" stroke="#000000" stroke-width="1" fill="none"/>
<path d="M 400 10 v 20" stroke="#000000" stroke-width="1" fill="none"/>
<path d="M 450 10 v 20" stroke="#000000" stroke-width="1" fill="none"/>
<text x="60" y="25" style="font-size:15px;font-family:'Arial'">$254:</text>
</g>
<g transform="translate(0, 150)">
<path d="M 100 10 h 400 v 20 h -400 v -20" stroke="#000000" stroke-width="1" fill="none"/>
<path d="M 150 10 v 20" stroke="#000000" stroke-width="1" fill="none"/>
<path d="M 200 10 v 20" stroke="#000000" stroke-width="1" fill="none"/>
<path d="M 250 10 v 20" stroke="#000000" stroke-width="1" fill="none"/>
<path d="M 300 10 v 20" stroke="#000000" stroke-width="1" fill="none"/>
<path d="M 350 10 v 20" stroke="#000000" stroke-width="1" fill="none"/>
<path d="M 400 10 v 20" stroke="#000000" stroke-width="1" fill="none"/>
<path d="M 450 10 v 20" stroke="#000000" stroke-width="1" fill="none"/>
<text x="60" y="25" style="font-size:15px;font-family:'Arial'">$255:</text>
</g>

<text x="270" y="110" style="font-size:33px;font-family:'Arial'">......</text>

<g transform="translate(0, 180)">
<path d="M 100 10 h 400 v 20 h -400 v -20" stroke="#000000" stroke-width="1" fill="none"/>
<path d="M 150 10 v 20" stroke="#000000" stroke-width="1" fill="none"/>
<path d="M 200 10 v 20" stroke="#000000" stroke-width="1" fill="none"/>
<path d="M 250 10 v 20" stroke="#000000" stroke-width="1" fill="none"/>
<path d="M 300 10 v 20" stroke="#000000" stroke-width="1" fill="none"/>
<path d="M 350 10 v 20" stroke="#000000" stroke-width="1" fill="none"/>
<path d="M 400 10 v 20" stroke="#000000" stroke-width="1" fill="none"/>
<path d="M 450 10 v 20" stroke="#000000" stroke-width="1" fill="none"/>
<text x="70" y="25" style="font-size:15px;font-family:'Arial'">$rA:</text>
</g>
<g transform="translate(0, 210)">
<path d="M 100 10 h 400 v 20 h -400 v -20" stroke="#000000" stroke-width="1" fill="none"/>
<path d="M 150 10 v 20" stroke="#000000" stroke-width="1" fill="none"/>
<path d="M 200 10 v 20" stroke="#000000" stroke-width="1" fill="none"/>
<path d="M 250 10 v 20" stroke="#000000" stroke-width="1" fill="none"/>
<path d="M 300 10 v 20" stroke="#000000" stroke-width="1" fill="none"/>
<path d="M 350 10 v 20" stroke="#000000" stroke-width="1" fill="none"/>
<path d="M 400 10 v 20" stroke="#000000" stroke-width="1" fill="none"/>
<path d="M 450 10 v 20" stroke="#000000" stroke-width="1" fill="none"/>
<text x="70" y="25" style="font-size:15px;font-family:'Arial'">$rB:</text>
</g>

<g transform="translate(0, 270)">
<path d="M 100 10 h 400 v 20 h -400 v -20" stroke="#000000" stroke-width="1" fill="none"/>
<path d="M 150 10 v 20" stroke="#000000" stroke-width="1" fill="none"/>
<path d="M 200 10 v 20" stroke="#000000" stroke-width="1" fill="none"/>
<path d="M 250 10 v 20" stroke="#000000" stroke-width="1" fill="none"/>
<path d="M 300 10 v 20" stroke="#000000" stroke-width="1" fill="none"/>
<path d="M 350 10 v 20" stroke="#000000" stroke-width="1" fill="none"/>
<path d="M 400 10 v 20" stroke="#000000" stroke-width="1" fill="none"/>
<path d="M 450 10 v 20" stroke="#000000" stroke-width="1" fill="none"/>
<text x="60" y="25" style="font-size:15px;font-family:'Arial'">$rZZ:</text>
</g>
<text x="270" y="260" style="font-size:33px;font-family:'Arial'">......</text>

<!--
<path d="M 400 35 v 5 a 5 5 0 0 0 5 5 h 40 a 5 5 0 0 1 5 5 a 5 5 0 0 1 5 -5 h 40 a 5 5 0 0 0 5 -5 v -5" stroke="#000000" stroke-width="1" fill="none"/>

<text x="420" y="65" style="font-size:13px;font-family:'Microsoft Yahei UI'">一个字节</text>


<text x="345" y="25" style="font-size:13px;font-family:'Arial'">2</text>
<text x="445" y="25" style="font-size:13px;font-family:'Arial'">3</text>
-->
</svg>
