<svg version="1.1" width="600" height="150" xmlns="http://www.w3.org/2000/svg" >
<defs><marker id="arrowhead" markerWidth="10" markerHeight="7" refX="0" refY="3.5" orient="auto"><polygon points="0 0, 10 3.5, 0 7" /></marker></defs>

<path d="M 30 60 h 48" stroke="#000000" stroke-width="1" fill="none" marker-end="url(#arrowhead)" />
<path d="M 90 30 h 60 v 60 h -60 v -60" stroke="#000000" stroke-width="1" fill="none"/>

<path d="M 152 60 h 46" stroke="#000000" stroke-width="1" fill="none" marker-end="url(#arrowhead)" />
<path d="M 210 30 h 60 v 60 h -60 v -60" stroke="#000000" stroke-width="1" fill="none"/>

<path d="M 272 60 h 46" stroke="#000000" stroke-width="1" fill="none" marker-end="url(#arrowhead)" />
<path d="M 330 30 h 60 v 60 h -60 v -60" stroke="#000000" stroke-width="1" fill="none"/>

<path d="M 392 60 h 46" stroke="#000000" stroke-width="1" fill="none" marker-end="url(#arrowhead)" />
<path d="M 450 30 h 60 v 60 h -60 v -60" stroke="#000000" stroke-width="1" fill="none"/>

<path d="M 512 60 h 46" stroke="#000000" stroke-width="1" fill="none" marker-end="url(#arrowhead)" />

<text x="110" y="75" style="font-size:37px;font-family:'Arial'">0</text>
<text x="230" y="75" style="font-size:37px;font-family:'Arial'">1</text>
<text x="350" y="75" style="font-size:37px;font-family:'Arial'">2</text>
<text x="470" y="75" style="font-size:37px;font-family:'Arial'">3</text>

<text x="98" y="108" style="font-size:15px;font-family:'Microsoft Yahei UI'">预处理</text>
<text x="225" y="108" style="font-size:15px;font-family:'Microsoft Yahei UI'">编译</text>
<text x="345" y="108" style="font-size:15px;font-family:'Microsoft Yahei UI'">汇编</text>
<text x="465" y="108" style="font-size:15px;font-family:'Microsoft Yahei UI'">链接</text>

<text x="70" y="122" style="font-size:15px;font-family:'Arial'">Pre-processor</text>
<text x="210" y="122" style="font-size:15px;font-family:'Arial'">Compiler</text>
<text x="320" y="122" style="font-size:15px;font-family:'Arial'">Assembler</text>
<text x="460" y="122" style="font-size:15px;font-family:'Arial'">Linker</text>

<text x="35" y="52" style="font-size:15px;font-family:'Arial'">hello.c</text>
<text x="155" y="52" style="font-size:15px;font-family:'Arial'">hello.i</text>
<text x="275" y="52" style="font-size:15px;font-family:'Arial'">hello.s</text>
<text x="395" y="52" style="font-size:15px;font-family:'Arial'">hello.o</text>
<text x="525" y="52" style="font-size:15px;font-family:'Arial'">hello</text>

<!--
<path d="M 90 60 h 420 v 30 h -420 v -30" stroke="#000000" stroke-width="1" fill="none"/>
<path d="M 120 60 v 30" stroke="#000000" stroke-width="1" fill="none"/>
<path d="M 150 60 v 30" stroke="#000000" stroke-width="1" fill="none"/>
<path d="M 180 60 v 30" stroke="#000000" stroke-width="1" fill="none"/>
<path d="M 210 60 v 30" stroke="#000000" stroke-width="1" fill="none"/>
<path d="M 240 60 v 30" stroke="#000000" stroke-width="1" fill="none"/>
<path d="M 270 60 v 30" stroke="#000000" stroke-width="1" fill="none"/>
<path d="M 420 60 v 30" stroke="#000000" stroke-width="1" fill="none"/>
<path d="M 450 60 v 30" stroke="#000000" stroke-width="1" fill="none"/>
<path d="M 480 60 v 30" stroke="#000000" stroke-width="1" fill="none"/>

<text x="330" y="77" style="font-size:29px;font-family:'Microsoft Yahei UI'">......</text>


<text x="130" y="55" style="font-size:13px;font-family:'Arial'">1</text>
<text x="160" y="55" style="font-size:13px;font-family:'Arial'">2</text>
<text x="190" y="55" style="font-size:13px;font-family:'Arial'">3</text>
<text x="220" y="55" style="font-size:13px;font-family:'Arial'">4</text>
<text x="250" y="55" style="font-size:13px;font-family:'Arial'">5</text>

<text x="423" y="55" style="font-size:13px;font-family:'Arial'">n-3</text>
<text x="455" y="55" style="font-size:13px;font-family:'Arial'">n-2</text>
<text x="487" y="55" style="font-size:13px;font-family:'Arial'">n-1</text>

<path d="M 165 120 V 103" stroke="#000000" stroke-width="1" fill="none" marker-end="url(#arrowhead)" />
-->
</svg>
