<svg version="1.1" width="600" height="201" xmlns="http://www.w3.org/2000/svg" >
<defs><marker id="arrowhead" markerWidth="10" markerHeight="7" refX="0" refY="3.5" orient="auto"><polygon points="0 0, 10 3.5, 0 7" /></marker></defs>
<path d="M 10 200 h 580" stroke="#FFFFFF" stroke-width="1" fill="none" />
<rect x="40" y="20" width="520" height="40" style="fill:#DAE8FC;stroke:#0000FF;stroke-width:1" />
<path d="M 500 20 v 40 " stroke="#0000FF" stroke-width="1" fill="none" />
<path d="M 100 20 v 40 " stroke="#0000FF" stroke-width="1" fill="none" />
<path d="M 160 20 v 40 " stroke="#0000FF" stroke-width="1" fill="none" />
<path d="M 220 20 v 40 " stroke="#0000FF" stroke-width="1" fill="none" />
<path d="M 280 20 v 40 " stroke="#0000FF" stroke-width="1" fill="none" />
<path d="M 340 20 v 40 " stroke="#0000FF" stroke-width="1" fill="none" />

<rect x="40" y="100" width="520" height="40" style="fill:#F0F0F0;stroke:#0000FF;stroke-width:1" />
<path d="M 500 100 v 40 " stroke="#0000FF" stroke-width="1" fill="none" />
<path d="M 100 100 v 40 " stroke="#0000FF" stroke-width="1" fill="none" />
<path d="M 160 100 v 40 " stroke="#0000FF" stroke-width="1" fill="none" />
<path d="M 220 100 v 40 " stroke="#0000FF" stroke-width="1" fill="none" />
<path d="M 280 100 v 40 " stroke="#0000FF" stroke-width="1" fill="none" />
<path d="M 340 100 v 40 " stroke="#0000FF" stroke-width="1" fill="none" />
<path d="M 40 143 v 5 a 5 5 0 0 0 5 5 h 20 a 5 5 0 0 1 5 5 a 5 5 0 0 1 5 -5 h 20 a 5 5 0 0 0 5 -5 v -5" stroke="#000000" stroke-width="1" fill="none" />
<text x="42" y="172" style="font-size:15px;font-family:'Courier New'">BLCKSZ</text>
<text x="390" y="40" style="font-size:35px;font-family:'Arial'">......</text>
<text x="390" y="120" style="font-size:35px;font-family:'Arial'">......</text>

<path d="M 530 80 v 7 " stroke="#0000FF" stroke-width="1" fill="none" marker-end="url(#arrowhead)"/>
<path d="M 70 80 v 7 " stroke="#0000FF" stroke-width="1" fill="none" marker-end="url(#arrowhead)"/>
<path d="M 130 80 v 7 " stroke="#0000FF" stroke-width="1" fill="none" marker-end="url(#arrowhead)"/>
<path d="M 190 80 v 7 " stroke="#0000FF" stroke-width="1" fill="none" marker-end="url(#arrowhead)"/>
<path d="M 250 80 v 7 " stroke="#0000FF" stroke-width="1" fill="none" marker-end="url(#arrowhead)" />
<path d="M 310 80 v 7 " stroke="#0000FF" stroke-width="1" fill="none" marker-end="url(#arrowhead)"/>

<path d="M 530 80 v -7 " stroke="#0000FF" stroke-width="1" fill="none" marker-end="url(#arrowhead)"/>
<path d="M 70 80 v -7 " stroke="#0000FF" stroke-width="1" fill="none" marker-end="url(#arrowhead)"/>
<path d="M 130 80 v -7 " stroke="#0000FF" stroke-width="1" fill="none" marker-end="url(#arrowhead)"/>
<path d="M 190 80 v -7 " stroke="#0000FF" stroke-width="1" fill="none" marker-end="url(#arrowhead)"/>
<path d="M 250 80 v -7 " stroke="#0000FF" stroke-width="1" fill="none" marker-end="url(#arrowhead)" />
<path d="M 310 80 v -7 " stroke="#0000FF" stroke-width="1" fill="none" marker-end="url(#arrowhead)"/>


<text x="260" y="13" style="font-size:13px;font-family:'Microsoft Yahei'">共享池</text>
<text x="255" y="157" style="font-size:13px;font-family:'Microsoft Yahei'">数据文件</text>
<text x="50" y="45" style="font-size:13px;font-family:'Microsoft Yahei'">数据页</text>
<text x="50" y="125" style="font-size:13px;font-family:'Microsoft Yahei'">数据块</text>
  
</svg>
